<svg width="329" height="343" viewBox="0 0 329 343" fill="none" xmlns="http://www.w3.org/2000/svg">
<circle cx="163" cy="183" r="150" stroke="url(#paint0_linear_65_96)" stroke-opacity="0.34" stroke-width="20"/>
<g filter="url(#filter0_d_65_96)">
<rect x="130" width="65" height="65" rx="10" fill="#FFDCBA"/>
</g>
<path d="M159.625 30.25V26.5C159.625 25.6716 160.297 25 161.125 25H164.875C165.703 25 166.375 25.6716 166.375 26.5V30.25C166.375 31.0784 165.703 31.75 164.875 31.75H161.125C160.297 31.75 159.625 31.0784 159.625 30.25Z" stroke="#FF9933" stroke-width="2"/>
<path d="M157.375 40.75C157.375 39.5074 156.368 38.5 155.125 38.5C153.882 38.5 152.875 39.5074 152.875 40.75C152.875 41.9926 153.882 43 155.125 43C156.368 43 157.375 41.9926 157.375 40.75Z" stroke="#FF9933" stroke-width="2"/>
<path d="M165.25 40.75C165.25 39.5074 164.243 38.5 163 38.5C161.757 38.5 160.75 39.5074 160.75 40.75C160.75 41.9926 161.757 43 163 43C164.243 43 165.25 41.9926 165.25 40.75Z" stroke="#FF9933" stroke-width="2"/>
<path d="M173.125 40.75C173.125 39.5074 172.118 38.5 170.875 38.5C169.632 38.5 168.625 39.5074 168.625 40.75C168.625 41.9926 169.632 43 170.875 43C172.118 43 173.125 41.9926 173.125 40.75Z" stroke="#FF9933" stroke-width="2"/>
<path d="M163 31.75V35.125M163 38.5V35.125M163 35.125H169.375C170.203 35.125 170.875 35.7966 170.875 36.625V38.5M163 35.125H156.625C155.797 35.125 155.125 35.7966 155.125 36.625V38.5" stroke="#FF9933" stroke-width="2"/>
<g filter="url(#filter1_d_65_96)">
<rect x="261" y="226" width="65" height="65" rx="10" fill="#FFDCBA"/>
</g>
<path d="M290.779 258.481V252.472C290.779 250.693 292.222 249.25 294.001 249.25C295.781 249.25 297.224 250.693 297.224 252.472V258.481C297.224 260.261 295.781 261.704 294.001 261.704C292.222 261.704 290.779 260.261 290.779 258.481Z" stroke="#FF9933" stroke-width="2"/>
<path d="M290.43 267.75C289.878 267.75 289.43 268.198 289.43 268.75C289.43 269.302 289.878 269.75 290.43 269.75V267.75ZM297.472 269.75C298.025 269.75 298.472 269.302 298.472 268.75C298.472 268.198 298.025 267.75 297.472 267.75V269.75ZM290.43 269.75H297.472V267.75H290.43V269.75Z" fill="#FF9933"/>
<path d="M294.001 265.115L294.001 268.089" stroke="#FF9933" stroke-width="2" stroke-linecap="round"/>
<path d="M288.576 260.144C288.39 259.624 287.817 259.353 287.298 259.54C286.778 259.726 286.507 260.299 286.694 260.819L288.576 260.144ZM301.309 260.819C301.496 260.299 301.225 259.726 300.706 259.54C300.186 259.353 299.613 259.624 299.427 260.144L301.309 260.819ZM294.002 263.961C291.504 263.961 289.374 262.37 288.576 260.144L286.694 260.819C287.768 263.815 290.633 265.961 294.002 265.961V263.961ZM299.427 260.144C298.629 262.37 296.5 263.961 294.002 263.961V265.961C297.37 265.961 300.235 263.815 301.309 260.819L299.427 260.144Z" fill="#FF9933"/>
<g filter="url(#filter2_d_65_96)">
<rect x="3" y="226" width="65" height="65" rx="10" fill="#FFDCBA"/>
</g>
<path d="M44 269L28 269" stroke="#FF9933" stroke-width="2" stroke-linecap="round" stroke-linejoin="round"/>
<path d="M41.5227 257.444L34.1363 264.831C33.88 265.087 33.5588 265.269 33.2071 265.357L28.3305 266.576C27.9643 266.668 27.6326 266.336 27.7241 265.97L28.9433 261.093C29.0312 260.741 29.213 260.42 29.4694 260.164L36.8558 252.777M41.5227 257.444L43.9976 254.969C44.7787 254.188 44.7787 252.922 43.9976 252.141L42.1591 250.303C41.3781 249.521 40.1117 249.521 39.3307 250.303L36.8558 252.777M41.5227 257.444L36.8558 252.777" stroke="#FF9933" stroke-width="2"/>
<defs>
<filter id="filter0_d_65_96" x="127" y="0" width="71" height="71" filterUnits="userSpaceOnUse" color-interpolation-filters="sRGB">
<feFlood flood-opacity="0" result="BackgroundImageFix"/>
<feColorMatrix in="SourceAlpha" type="matrix" values="0 0 0 0 0 0 0 0 0 0 0 0 0 0 0 0 0 0 127 0" result="hardAlpha"/>
<feOffset dy="3"/>
<feGaussianBlur stdDeviation="1.5"/>
<feComposite in2="hardAlpha" operator="out"/>
<feColorMatrix type="matrix" values="0 0 0 0 0 0 0 0 0 0 0 0 0 0 0 0 0 0 0.25 0"/>
<feBlend mode="normal" in2="BackgroundImageFix" result="effect1_dropShadow_65_96"/>
<feBlend mode="normal" in="SourceGraphic" in2="effect1_dropShadow_65_96" result="shape"/>
</filter>
<filter id="filter1_d_65_96" x="258" y="226" width="71" height="71" filterUnits="userSpaceOnUse" color-interpolation-filters="sRGB">
<feFlood flood-opacity="0" result="BackgroundImageFix"/>
<feColorMatrix in="SourceAlpha" type="matrix" values="0 0 0 0 0 0 0 0 0 0 0 0 0 0 0 0 0 0 127 0" result="hardAlpha"/>
<feOffset dy="3"/>
<feGaussianBlur stdDeviation="1.5"/>
<feComposite in2="hardAlpha" operator="out"/>
<feColorMatrix type="matrix" values="0 0 0 0 0 0 0 0 0 0 0 0 0 0 0 0 0 0 0.25 0"/>
<feBlend mode="normal" in2="BackgroundImageFix" result="effect1_dropShadow_65_96"/>
<feBlend mode="normal" in="SourceGraphic" in2="effect1_dropShadow_65_96" result="shape"/>
</filter>
<filter id="filter2_d_65_96" x="0" y="226" width="71" height="71" filterUnits="userSpaceOnUse" color-interpolation-filters="sRGB">
<feFlood flood-opacity="0" result="BackgroundImageFix"/>
<feColorMatrix in="SourceAlpha" type="matrix" values="0 0 0 0 0 0 0 0 0 0 0 0 0 0 0 0 0 0 127 0" result="hardAlpha"/>
<feOffset dy="3"/>
<feGaussianBlur stdDeviation="1.5"/>
<feComposite in2="hardAlpha" operator="out"/>
<feColorMatrix type="matrix" values="0 0 0 0 0 0 0 0 0 0 0 0 0 0 0 0 0 0 0.25 0"/>
<feBlend mode="normal" in2="BackgroundImageFix" result="effect1_dropShadow_65_96"/>
<feBlend mode="normal" in="SourceGraphic" in2="effect1_dropShadow_65_96" result="shape"/>
</filter>
<linearGradient id="paint0_linear_65_96" x1="449.5" y1="507" x2="40.5" y2="83" gradientUnits="userSpaceOnUse">
<stop stop-color="#FF9933" stop-opacity="0.95"/>
<stop offset="1" stop-color="#FF9933" stop-opacity="0.43"/>
</linearGradient>
</defs>
</svg>
