<svg width="45" height="45" viewBox="0 0 45 45" fill="none" xmlns="http://www.w3.org/2000/svg">
<g clip-path="url(#clip0_372_1991)">
<path fill-rule="evenodd" clip-rule="evenodd" d="M17.2867 4.7847C7.55865 7.39185 1.75605 17.431 4.36315 27.1629C6.97025 36.8947 17.014 42.687 26.7421 40.0798C36.4701 37.4727 42.2726 27.4335 39.6656 17.7017C37.0585 7.96989 27.0147 2.17756 17.2867 4.7847ZM27.7094 43.6906C15.9781 46.8346 3.89415 39.8536 0.753631 28.1307C-2.38689 16.4077 4.58822 4.31874 16.3196 1.17468C28.033 -1.96453 40.1348 5.01173 43.2753 16.7346C46.4159 28.4576 39.4228 40.5514 27.7094 43.6906Z" fill="white"/>
<path fill-rule="evenodd" clip-rule="evenodd" d="M20.1883 15.6159C16.4343 16.622 14.1852 20.5023 15.1922 24.2608C16.1995 28.0209 20.0864 30.2549 23.8405 29.2487C27.5944 28.2427 29.844 24.3642 28.8366 20.6039C27.8297 16.8456 23.9423 14.6098 20.1883 15.6159ZM24.8077 32.8592C19.0502 34.4022 13.1227 30.9777 11.5825 25.2282C10.0422 19.4786 13.4637 13.5486 19.2211 12.0056C24.9605 10.4674 30.906 13.8871 32.4462 19.6366C33.9865 25.3862 30.547 31.3211 24.8077 32.8592Z" fill="white"/>
<path fill-rule="evenodd" clip-rule="evenodd" d="M16.3448 16.0005C15.8395 16.1359 15.3341 15.8379 15.2006 15.3397L12.5007 5.26131C12.3667 4.76126 12.656 4.25229 13.1612 4.11686C13.6486 3.98625 14.1716 4.27756 14.3055 4.7776L17.0054 14.856C17.1389 15.3542 16.8322 15.8699 16.3448 16.0005Z" fill="white"/>
<path fill-rule="evenodd" clip-rule="evenodd" d="M23.7086 14.0263C23.2033 14.1617 22.6979 13.8637 22.5644 13.3655L19.8645 3.28712C19.7305 2.78709 20.0197 2.27812 20.5251 2.14268C21.0304 2.00725 21.5353 2.30339 21.6692 2.80342L24.3692 12.8818C24.5027 13.3801 24.214 13.8908 23.7086 14.0263Z" fill="white"/>
<path fill-rule="evenodd" clip-rule="evenodd" d="M23.5182 42.7766C23.0129 42.912 22.5075 42.6141 22.374 42.1159L19.674 32.0374C19.5401 31.5374 19.8294 31.0285 20.3346 30.893C20.822 30.7624 21.3449 31.0537 21.4789 31.5537L24.1788 41.6321C24.3123 42.1304 24.0056 42.646 23.5182 42.7766Z" fill="white"/>
<path fill-rule="evenodd" clip-rule="evenodd" d="M30.882 40.8024C30.3766 40.9378 29.8712 40.6398 29.7378 40.1416L27.0378 30.0633C26.9039 29.5632 27.193 29.0542 27.6984 28.9188C28.2038 28.7834 28.7087 29.0795 28.8427 29.5795L31.5426 39.6579C31.6761 40.1562 31.3873 40.6669 30.882 40.8024Z" fill="white"/>
<path fill-rule="evenodd" clip-rule="evenodd" d="M39.7041 14.7389L29.6151 17.4428C29.1279 17.5734 28.6044 17.2804 28.471 16.7821C28.3369 16.282 28.6442 15.7683 29.1315 15.6377L39.2205 12.9337C39.7079 12.8031 40.2307 13.0945 40.3648 13.5945C40.4982 14.0927 40.1914 14.6083 39.7041 14.7389Z" fill="white"/>
<path fill-rule="evenodd" clip-rule="evenodd" d="M41.6783 22.1078L31.5893 24.8117C31.1019 24.9423 30.5786 24.6493 30.445 24.151C30.3111 23.6509 30.6184 23.1372 31.1057 23.0066L41.1947 20.3026C41.6819 20.172 42.2049 20.4634 42.3389 20.9635C42.4724 21.4617 42.1656 21.9772 41.6783 22.1078Z" fill="white"/>
<path fill-rule="evenodd" clip-rule="evenodd" d="M12.9202 21.9171L2.84926 24.6161C2.3439 24.7516 1.83851 24.4537 1.70504 23.9554C1.57108 23.4553 1.86031 22.9464 2.36566 22.811L12.4366 20.1119C12.9419 19.9764 13.4469 20.2727 13.5808 20.7727C13.7142 21.2709 13.4256 21.7816 12.9202 21.9171Z" fill="white"/>
<path fill-rule="evenodd" clip-rule="evenodd" d="M14.8943 29.2865L4.82337 31.9855C4.31802 32.121 3.81263 31.823 3.67916 31.3248C3.54521 30.8248 3.83442 30.3158 4.33977 30.1803L14.4107 27.4813C14.916 27.3459 15.421 27.642 15.5549 28.142C15.6884 28.6402 15.3997 29.1511 14.8943 29.2865Z" fill="white"/>
</g>
<defs>
<clipPath id="clip0_372_1991">
<rect width="45" height="44.0217" fill="white" transform="translate(0 0.422607)"/>
</clipPath>
</defs>
</svg>
