<svg width="558" height="189" viewBox="0 0 558 189" fill="none" xmlns="http://www.w3.org/2000/svg">
<g filter="url(#filter0_d_195_890)">
<rect x="390" y="103" width="166" height="82" rx="5" fill="url(#paint0_linear_195_890)" shape-rendering="crispEdges"/>
<path d="M433.313 154L433.859 137.386H438.773L441.893 147.955H442.062L445.169 137.386H450.07L450.629 154H447.327L447.171 148.02L447.028 141.117H446.82L443.557 152.063H440.385L437.109 141.117H436.901L436.758 148.033L436.615 154H433.313ZM459.458 154.312C457.274 154.312 455.649 153.809 454.583 152.804C453.517 151.799 452.984 150.343 452.984 148.436V146.772C452.984 144.883 453.482 143.431 454.479 142.417C455.476 141.403 456.923 140.896 458.821 140.896C460.104 140.896 461.174 141.121 462.032 141.572C462.89 142.023 463.531 142.664 463.956 143.496C464.389 144.319 464.606 145.307 464.606 146.46V146.915C464.606 147.227 464.589 147.548 464.554 147.877C464.528 148.198 464.489 148.501 464.437 148.787H461.421C461.447 148.31 461.46 147.86 461.46 147.435C461.469 147.002 461.473 146.612 461.473 146.265C461.473 145.667 461.378 145.16 461.187 144.744C460.996 144.319 460.706 143.999 460.316 143.782C459.926 143.565 459.428 143.457 458.821 143.457C457.928 143.457 457.27 143.704 456.845 144.198C456.42 144.692 456.208 145.394 456.208 146.304V147.487L456.221 147.864V148.865C456.221 149.264 456.282 149.632 456.403 149.97C456.533 150.308 456.745 150.603 457.04 150.854C457.335 151.097 457.725 151.287 458.21 151.426C458.704 151.565 459.319 151.634 460.056 151.634C460.853 151.634 461.612 151.547 462.331 151.374C463.059 151.192 463.748 150.949 464.398 150.646L464.112 153.272C463.531 153.593 462.847 153.844 462.058 154.026C461.278 154.217 460.411 154.312 459.458 154.312ZM454.752 148.787V146.577H463.761V148.787H454.752ZM475.258 154V146.343C475.258 145.806 475.184 145.342 475.037 144.952C474.898 144.562 474.664 144.259 474.335 144.042C474.006 143.825 473.555 143.717 472.983 143.717C472.48 143.717 472.038 143.808 471.657 143.99C471.284 144.172 470.977 144.419 470.734 144.731C470.5 145.034 470.322 145.381 470.201 145.771L469.681 143.951H470.305C470.444 143.388 470.673 142.881 470.994 142.43C471.323 141.979 471.765 141.624 472.32 141.364C472.883 141.095 473.585 140.961 474.426 140.961C475.405 140.961 476.198 141.147 476.805 141.52C477.412 141.884 477.858 142.43 478.144 143.158C478.439 143.886 478.586 144.787 478.586 145.862V154H475.258ZM466.951 154V141.247H470.279L470.149 144.354L470.279 144.627V154H466.951ZM486.266 154.273C485.183 154.273 484.316 154.113 483.666 153.792C483.025 153.463 482.561 152.969 482.275 152.31C481.989 151.651 481.846 150.841 481.846 149.879V142.443H485.148V149.385C485.148 150.078 485.304 150.59 485.616 150.919C485.937 151.24 486.496 151.4 487.293 151.4C487.761 151.4 488.212 151.352 488.645 151.257C489.078 151.153 489.477 151.019 489.841 150.854L489.555 153.636C489.122 153.835 488.623 153.991 488.06 154.104C487.505 154.217 486.907 154.273 486.266 154.273ZM480 143.977V141.351H489.724L489.438 143.977H480ZM481.885 141.598L481.872 138.218L485.187 137.88L485.057 141.598H481.885ZM497.075 154.351C495.099 154.351 493.6 153.844 492.577 152.83C491.563 151.816 491.056 150.373 491.056 148.501V146.772C491.056 144.891 491.563 143.444 492.577 142.43C493.6 141.407 495.099 140.896 497.075 140.896C499.042 140.896 500.533 141.407 501.547 142.43C502.561 143.444 503.068 144.891 503.068 146.772V148.501C503.068 150.373 502.561 151.816 501.547 152.83C500.542 153.844 499.051 154.351 497.075 154.351ZM497.075 151.686C497.942 151.686 498.6 151.426 499.051 150.906C499.51 150.386 499.74 149.641 499.74 148.67V146.603C499.74 145.615 499.51 144.861 499.051 144.341C498.6 143.812 497.942 143.548 497.075 143.548C496.2 143.548 495.532 143.812 495.073 144.341C494.622 144.861 494.397 145.615 494.397 146.603V148.67C494.397 149.641 494.622 150.386 495.073 150.906C495.532 151.426 496.2 151.686 497.075 151.686ZM508.743 146.59L507.898 144.367H508.704C508.938 143.336 509.362 142.525 509.978 141.936C510.593 141.347 511.447 141.052 512.539 141.052C512.764 141.052 512.968 141.069 513.15 141.104C513.332 141.13 513.496 141.165 513.644 141.208L513.826 144.536C513.635 144.475 513.414 144.432 513.163 144.406C512.911 144.371 512.647 144.354 512.37 144.354C511.486 144.354 510.732 144.549 510.108 144.939C509.492 145.329 509.037 145.879 508.743 146.59ZM505.506 154V141.247H508.678L508.535 145.16L508.834 145.277V154H505.506Z" fill="white" fill-opacity="0.5"/>
</g>
<g filter="url(#filter1_d_195_890)">
<rect x="390" width="166" height="82" rx="5" fill="url(#paint1_linear_195_890)" shape-rendering="crispEdges"/>
<path d="M438.339 51V48.27H442.993C443.894 48.27 444.535 48.0923 444.917 47.737C445.298 47.373 445.489 46.8573 445.489 46.19V45.878C445.489 45.1933 445.294 44.6733 444.904 44.318C444.522 43.9627 443.864 43.785 442.928 43.785H438.3V41.237H442.85C443.708 41.237 444.319 41.0593 444.683 40.704C445.047 40.3487 445.229 39.8503 445.229 39.209V39.04C445.229 38.3987 445.051 37.909 444.696 37.571C444.34 37.233 443.725 37.064 442.85 37.064H438.274V34.386H443.201C445.125 34.386 446.507 34.7283 447.348 35.413C448.188 36.0977 448.609 37.09 448.609 38.39V38.611C448.609 39.599 448.362 40.366 447.868 40.912C447.382 41.458 446.62 41.783 445.58 41.887V42.017C446.75 42.2077 447.599 42.6237 448.128 43.265C448.665 43.9063 448.934 44.8077 448.934 45.969V46.398C448.934 47.8887 448.492 49.0283 447.608 49.817C446.732 50.6057 445.324 51 443.383 51H438.339ZM435.921 51V34.386H439.236V51H435.921ZM457.338 51.312C455.154 51.312 453.529 50.8093 452.463 49.804C451.397 48.7987 450.864 47.3427 450.864 45.436V43.772C450.864 41.8827 451.362 40.431 452.359 39.417C453.355 38.403 454.803 37.896 456.701 37.896C457.983 37.896 459.054 38.1213 459.912 38.572C460.77 39.0227 461.411 39.664 461.836 40.496C462.269 41.3193 462.486 42.3073 462.486 43.46V43.915C462.486 44.227 462.468 44.5477 462.434 44.877C462.408 45.1977 462.369 45.501 462.317 45.787H459.301C459.327 45.3103 459.34 44.8597 459.34 44.435C459.348 44.0017 459.353 43.6117 459.353 43.265C459.353 42.667 459.257 42.16 459.067 41.744C458.876 41.3193 458.586 40.9987 458.196 40.782C457.806 40.5653 457.307 40.457 456.701 40.457C455.808 40.457 455.149 40.704 454.725 41.198C454.3 41.692 454.088 42.394 454.088 43.304V44.487L454.101 44.864V45.865C454.101 46.2637 454.161 46.632 454.283 46.97C454.413 47.308 454.625 47.6027 454.92 47.854C455.214 48.0967 455.604 48.2873 456.09 48.426C456.584 48.5647 457.199 48.634 457.936 48.634C458.733 48.634 459.491 48.5473 460.211 48.374C460.939 48.192 461.628 47.9493 462.278 47.646L461.992 50.272C461.411 50.5927 460.726 50.844 459.938 51.026C459.158 51.2167 458.291 51.312 457.338 51.312ZM452.632 45.787V43.577H461.641V45.787H452.632ZM464.857 51V33.814H468.198V51H464.857ZM476.67 51.351C474.694 51.351 473.194 50.844 472.172 49.83C471.158 48.816 470.651 47.373 470.651 45.501V43.772C470.651 41.8913 471.158 40.444 472.172 39.43C473.194 38.4073 474.694 37.896 476.67 37.896C478.637 37.896 480.128 38.4073 481.142 39.43C482.156 40.444 482.663 41.8913 482.663 43.772V45.501C482.663 47.373 482.156 48.816 481.142 49.83C480.136 50.844 478.646 51.351 476.67 51.351ZM476.67 48.686C477.536 48.686 478.195 48.426 478.646 47.906C479.105 47.386 479.335 46.6407 479.335 45.67V43.603C479.335 42.615 479.105 41.861 478.646 41.341C478.195 40.8123 477.536 40.548 476.67 40.548C475.794 40.548 475.127 40.8123 474.668 41.341C474.217 41.861 473.992 42.615 473.992 43.603V45.67C473.992 46.6407 474.217 47.386 474.668 47.906C475.127 48.426 475.794 48.686 476.67 48.686ZM493.407 51V43.343C493.407 42.8057 493.334 42.342 493.186 41.952C493.048 41.562 492.814 41.2587 492.484 41.042C492.155 40.8253 491.704 40.717 491.132 40.717C490.63 40.717 490.188 40.808 489.806 40.99C489.434 41.172 489.126 41.419 488.883 41.731C488.649 42.0343 488.472 42.381 488.35 42.771L487.83 40.951H488.454C488.593 40.3877 488.823 39.8807 489.143 39.43C489.473 38.9793 489.915 38.624 490.469 38.364C491.033 38.0953 491.735 37.961 492.575 37.961C493.555 37.961 494.348 38.1473 494.954 38.52C495.561 38.884 496.007 39.43 496.293 40.158C496.588 40.886 496.735 41.7873 496.735 42.862V51H493.407ZM485.1 51V38.247H488.428L488.298 41.354L488.428 41.627V51H485.1ZM504.934 47.087C503.001 47.087 501.537 46.7057 500.54 45.943C499.543 45.1717 499.045 44.0927 499.045 42.706V42.511C499.045 41.5923 499.244 40.8123 499.643 40.171C500.042 39.521 500.666 39.014 501.515 38.65C502.364 38.286 503.465 38.078 504.817 38.026L511.538 37.753V40.197L508.08 40.067V40.21C508.626 40.3227 509.077 40.5047 509.432 40.756C509.796 40.9987 510.069 41.315 510.251 41.705C510.433 42.0863 510.524 42.55 510.524 43.096V43.213C510.524 44.4697 510.06 45.4317 509.133 46.099C508.206 46.7577 506.806 47.087 504.934 47.087ZM504.778 53.431H505.142C505.818 53.431 506.377 53.3833 506.819 53.288C507.261 53.2013 507.59 53.0627 507.807 52.872C508.032 52.69 508.145 52.4517 508.145 52.157V52.118C508.145 51.754 508.002 51.4853 507.716 51.312C507.439 51.1473 506.988 51.0347 506.364 50.974L502.633 50.61L503.4 50.571C503.079 50.6317 502.793 50.7227 502.542 50.844C502.299 50.9567 502.109 51.1083 501.97 51.299C501.831 51.4897 501.762 51.7237 501.762 52.001V52.027C501.762 52.3477 501.875 52.612 502.1 52.82C502.325 53.0367 502.663 53.1927 503.114 53.288C503.565 53.3833 504.119 53.431 504.778 53.431ZM504.596 55.94C503.365 55.94 502.312 55.836 501.437 55.628C500.562 55.4287 499.89 55.108 499.422 54.666C498.963 54.224 498.733 53.639 498.733 52.911V52.859C498.733 52.365 498.841 51.949 499.058 51.611C499.275 51.273 499.582 51.0043 499.981 50.805C500.38 50.6057 500.839 50.48 501.359 50.428V50.298C500.7 50.168 500.202 49.9557 499.864 49.661C499.535 49.3577 499.37 48.946 499.37 48.426V48.413C499.37 48.049 499.452 47.7413 499.617 47.49C499.782 47.2387 500.024 47.0393 500.345 46.892C500.674 46.7447 501.077 46.658 501.554 46.632V46.255L504.375 46.957L503.465 46.931C503.066 46.9397 502.789 46.996 502.633 47.1C502.477 47.1953 502.399 47.334 502.399 47.516V47.529C502.399 47.7543 502.52 47.919 502.763 48.023C503.006 48.1183 503.409 48.2007 503.972 48.27L507.027 48.608C508.457 48.7727 509.51 49.1237 510.186 49.661C510.871 50.1983 511.213 51.026 511.213 52.144V52.209C511.213 53.067 510.97 53.769 510.485 54.315C510 54.8697 509.298 55.277 508.379 55.537C507.469 55.8057 506.364 55.94 505.064 55.94H504.596ZM504.843 44.773C505.424 44.773 505.905 44.6907 506.286 44.526C506.676 44.3613 506.966 44.1187 507.157 43.798C507.356 43.4773 507.456 43.0873 507.456 42.628V42.485C507.456 42.0257 507.361 41.64 507.17 41.328C506.979 41.0073 506.693 40.769 506.312 40.613C505.931 40.4483 505.45 40.366 504.869 40.366H504.83C504.215 40.366 503.712 40.4527 503.322 40.626C502.932 40.7907 502.646 41.0333 502.464 41.354C502.282 41.666 502.191 42.043 502.191 42.485V42.628C502.191 43.0873 502.286 43.4773 502.477 43.798C502.676 44.1187 502.971 44.3613 503.361 44.526C503.76 44.6907 504.254 44.773 504.843 44.773Z" fill="white" fill-opacity="0.5"/>
</g>
<g filter="url(#filter2_d_195_890)">
<rect x="196" y="103" width="166" height="82" rx="5" fill="url(#paint2_linear_195_890)" shape-rendering="crispEdges"/>
<path d="M252.197 154H248.765V137.386H252.197V154ZM250.689 151.127H259.386V154H250.689V151.127ZM267.009 154.312C264.825 154.312 263.2 153.809 262.134 152.804C261.068 151.799 260.535 150.343 260.535 148.436V146.772C260.535 144.883 261.033 143.431 262.03 142.417C263.026 141.403 264.474 140.896 266.372 140.896C267.654 140.896 268.725 141.121 269.583 141.572C270.441 142.023 271.082 142.664 271.507 143.496C271.94 144.319 272.157 145.307 272.157 146.46V146.915C272.157 147.227 272.139 147.548 272.105 147.877C272.079 148.198 272.04 148.501 271.988 148.787H268.972C268.998 148.31 269.011 147.86 269.011 147.435C269.019 147.002 269.024 146.612 269.024 146.265C269.024 145.667 268.928 145.16 268.738 144.744C268.547 144.319 268.257 143.999 267.867 143.782C267.477 143.565 266.978 143.457 266.372 143.457C265.479 143.457 264.82 143.704 264.396 144.198C263.971 144.692 263.759 145.394 263.759 146.304V147.487L263.772 147.864V148.865C263.772 149.264 263.832 149.632 263.954 149.97C264.084 150.308 264.296 150.603 264.591 150.854C264.885 151.097 265.275 151.287 265.761 151.426C266.255 151.565 266.87 151.634 267.607 151.634C268.404 151.634 269.162 151.547 269.882 151.374C270.61 151.192 271.299 150.949 271.949 150.646L271.663 153.272C271.082 153.593 270.397 153.844 269.609 154.026C268.829 154.217 267.962 154.312 267.009 154.312ZM262.303 148.787V146.577H271.312V148.787H262.303ZM281.81 154L281.927 150.88L281.836 150.594V146.603L281.823 146.031C281.823 145.199 281.593 144.588 281.134 144.198C280.683 143.808 279.942 143.613 278.911 143.613C278.035 143.613 277.212 143.73 276.441 143.964C275.678 144.189 274.972 144.454 274.322 144.757L274.608 142.105C274.989 141.906 275.422 141.719 275.908 141.546C276.402 141.364 276.952 141.217 277.559 141.104C278.165 140.991 278.82 140.935 279.522 140.935C280.562 140.935 281.441 141.061 282.161 141.312C282.88 141.555 283.452 141.906 283.877 142.365C284.31 142.824 284.622 143.375 284.813 144.016C285.003 144.649 285.099 145.351 285.099 146.122V154H281.81ZM277.637 154.299C276.371 154.299 275.405 153.983 274.738 153.35C274.079 152.717 273.75 151.816 273.75 150.646V150.282C273.75 149.043 274.131 148.128 274.894 147.539C275.656 146.941 276.865 146.529 278.521 146.304L282.135 145.81L282.33 147.955L279.002 148.436C278.274 148.531 277.754 148.705 277.442 148.956C277.138 149.207 276.987 149.576 276.987 150.061V150.191C276.987 150.668 277.134 151.04 277.429 151.309C277.732 151.569 278.204 151.699 278.846 151.699C279.418 151.699 279.907 151.608 280.315 151.426C280.722 151.244 281.056 151.006 281.316 150.711C281.584 150.408 281.775 150.07 281.888 149.697L282.356 151.348H281.784C281.645 151.894 281.42 152.392 281.108 152.843C280.804 153.285 280.375 153.64 279.821 153.909C279.266 154.169 278.538 154.299 277.637 154.299ZM291.073 146.59L290.228 144.367H291.034C291.268 143.336 291.692 142.525 292.308 141.936C292.923 141.347 293.777 141.052 294.869 141.052C295.094 141.052 295.298 141.069 295.48 141.104C295.662 141.13 295.826 141.165 295.974 141.208L296.156 144.536C295.965 144.475 295.744 144.432 295.493 144.406C295.241 144.371 294.977 144.354 294.7 144.354C293.816 144.354 293.062 144.549 292.438 144.939C291.822 145.329 291.367 145.879 291.073 146.59ZM287.836 154V141.247H291.008L290.865 145.16L291.164 145.277V154H287.836ZM306.227 154V146.343C306.227 145.806 306.153 145.342 306.006 144.952C305.867 144.562 305.633 144.259 305.304 144.042C304.974 143.825 304.524 143.717 303.952 143.717C303.449 143.717 303.007 143.808 302.626 143.99C302.253 144.172 301.945 144.419 301.703 144.731C301.469 145.034 301.291 145.381 301.17 145.771L300.65 143.951H301.274C301.412 143.388 301.642 142.881 301.963 142.43C302.292 141.979 302.734 141.624 303.289 141.364C303.852 141.095 304.554 140.961 305.395 140.961C306.374 140.961 307.167 141.147 307.774 141.52C308.38 141.884 308.827 142.43 309.113 143.158C309.407 143.886 309.555 144.787 309.555 145.862V154H306.227ZM297.92 154V141.247H301.248L301.118 144.354L301.248 144.627V154H297.92Z" fill="white" fill-opacity="0.5"/>
</g>
<g filter="url(#filter3_d_195_890)">
<rect x="2" y="103" width="166" height="82" rx="5" fill="url(#paint3_linear_195_890)" shape-rendering="crispEdges"/>
<path d="M63.4408 154.247C62.9035 154.247 62.3661 154.204 61.8288 154.117C61.2915 154.03 60.8061 153.9 60.3728 153.727L60.1258 150.802C60.5418 150.958 60.9578 151.079 61.3738 151.166C61.7985 151.253 62.2361 151.296 62.6868 151.296C63.7008 151.296 64.3898 151.071 64.7538 150.62C65.1265 150.161 65.3128 149.463 65.3128 148.527V137.386H68.7318V148.735C68.7318 150.546 68.3288 151.92 67.5228 152.856C66.7168 153.783 65.3561 154.247 63.4408 154.247ZM77.1513 154.351C75.1753 154.351 73.6759 153.844 72.6533 152.83C71.6393 151.816 71.1323 150.373 71.1323 148.501V146.772C71.1323 144.891 71.6393 143.444 72.6533 142.43C73.6759 141.407 75.1753 140.896 77.1513 140.896C79.1186 140.896 80.6093 141.407 81.6233 142.43C82.6373 143.444 83.1443 144.891 83.1443 146.772V148.501C83.1443 150.373 82.6373 151.816 81.6233 152.83C80.6179 153.844 79.1273 154.351 77.1513 154.351ZM77.1513 151.686C78.0179 151.686 78.6766 151.426 79.1273 150.906C79.5866 150.386 79.8163 149.641 79.8163 148.67V146.603C79.8163 145.615 79.5866 144.861 79.1273 144.341C78.6766 143.812 78.0179 143.548 77.1513 143.548C76.2759 143.548 75.6086 143.812 75.1493 144.341C74.6986 144.861 74.4733 145.615 74.4733 146.603V148.67C74.4733 149.641 74.6986 150.386 75.1493 150.906C75.6086 151.426 76.2759 151.686 77.1513 151.686ZM92.8619 154.299C92.0993 154.299 91.4493 154.178 90.9119 153.935C90.3833 153.684 89.9543 153.333 89.6249 152.882C89.3043 152.431 89.0746 151.903 88.9359 151.296H87.9869L88.8449 148.748C88.8709 149.355 89.0009 149.866 89.2349 150.282C89.4689 150.698 89.7939 151.01 90.2099 151.218C90.6259 151.426 91.1069 151.53 91.6529 151.53C92.4936 151.53 93.1306 151.287 93.5639 150.802C93.9973 150.308 94.2139 149.571 94.2139 148.592V146.525C94.2139 145.572 93.9973 144.852 93.5639 144.367C93.1306 143.882 92.4936 143.639 91.6529 143.639C91.1589 143.639 90.7169 143.734 90.3269 143.925C89.9369 144.107 89.6119 144.354 89.3519 144.666C89.0919 144.978 88.9056 145.338 88.7929 145.745L88.0389 143.951H88.9749C89.1136 143.396 89.3346 142.894 89.6379 142.443C89.9413 141.984 90.3616 141.624 90.8989 141.364C91.4449 141.095 92.1383 140.961 92.9789 140.961C94.4783 140.961 95.6179 141.446 96.3979 142.417C97.1779 143.379 97.5679 144.805 97.5679 146.694V148.462C97.5679 150.369 97.1736 151.82 96.3849 152.817C95.5963 153.805 94.4219 154.299 92.8619 154.299ZM85.5819 154V136.814H88.8969V140.74L88.8319 144.627L88.8449 145.03V150.087L88.7929 150.88L88.9099 154H85.5819ZM104.413 154.312C103.391 154.312 102.481 154.212 101.683 154.013C100.895 153.822 100.223 153.606 99.6684 153.363L99.3694 150.477C100.028 150.78 100.752 151.045 101.54 151.27C102.338 151.495 103.213 151.608 104.166 151.608C104.998 151.608 105.601 151.504 105.973 151.296C106.346 151.079 106.532 150.759 106.532 150.334V150.256C106.532 149.97 106.446 149.736 106.272 149.554C106.108 149.372 105.813 149.207 105.388 149.06C104.964 148.904 104.366 148.739 103.594 148.566C102.528 148.315 101.683 148.024 101.059 147.695C100.444 147.357 100.002 146.945 99.7334 146.46C99.4647 145.966 99.3304 145.377 99.3304 144.692V144.575C99.3304 143.37 99.7594 142.465 100.617 141.858C101.475 141.243 102.745 140.935 104.426 140.935C105.423 140.935 106.303 141.035 107.065 141.234C107.837 141.425 108.478 141.654 108.989 141.923L109.288 144.575C108.682 144.289 108.001 144.051 107.247 143.86C106.493 143.661 105.683 143.561 104.816 143.561C104.253 143.561 103.807 143.609 103.477 143.704C103.157 143.791 102.927 143.916 102.788 144.081C102.65 144.246 102.58 144.445 102.58 144.679V144.744C102.58 145.004 102.654 145.229 102.801 145.42C102.957 145.611 103.239 145.784 103.646 145.94C104.054 146.087 104.626 146.248 105.362 146.421C106.437 146.646 107.299 146.911 107.949 147.214C108.599 147.517 109.072 147.907 109.366 148.384C109.661 148.852 109.808 149.467 109.808 150.23V150.386C109.808 151.703 109.362 152.687 108.469 153.337C107.577 153.987 106.225 154.312 104.413 154.312Z" fill="white" fill-opacity="0.5"/>
</g>
<g filter="url(#filter4_d_195_890)">
<rect x="196" width="166" height="82" rx="5" fill="url(#paint4_linear_195_890)" shape-rendering="crispEdges"/>
<path d="M235.025 51V34.386H238.379V51H235.025ZM236.026 51V48.153H246.231V51H236.026ZM236.975 43.941V41.172H245.932V43.941H236.975ZM236.013 37.207V34.386H246.127V37.207H236.013ZM252.857 51.299C251.357 51.299 250.218 50.8137 249.438 49.843C248.658 48.8723 248.268 47.4423 248.268 45.553V43.798C248.268 41.8827 248.662 40.431 249.451 39.443C250.239 38.455 251.414 37.961 252.974 37.961C253.736 37.961 254.378 38.0823 254.898 38.325C255.426 38.5677 255.851 38.9143 256.172 39.365C256.501 39.8157 256.731 40.3443 256.861 40.951H257.836L256.991 43.421C256.973 42.823 256.848 42.3203 256.614 41.913C256.388 41.497 256.072 41.1807 255.665 40.964C255.257 40.7473 254.776 40.639 254.222 40.639C253.381 40.639 252.735 40.8817 252.285 41.367C251.843 41.8523 251.622 42.576 251.622 43.538V45.644C251.622 46.5973 251.843 47.3167 252.285 47.802C252.735 48.2873 253.39 48.53 254.248 48.53C254.733 48.53 255.166 48.439 255.548 48.257C255.929 48.075 256.245 47.828 256.497 47.516C256.757 47.1953 256.943 46.8357 257.056 46.437L257.849 48.296H256.913C256.774 48.8507 256.549 49.3577 256.237 49.817C255.925 50.2677 255.496 50.6273 254.95 50.896C254.404 51.1647 253.706 51.299 252.857 51.299ZM256.939 51L257.056 47.88L256.991 47.139V41.926L257.004 41.393L256.939 37.74V33.814H260.267V51H256.939ZM266.372 38.247V45.917C266.372 46.4457 266.441 46.9093 266.58 47.308C266.727 47.698 266.966 48.0013 267.295 48.218C267.633 48.426 268.084 48.53 268.647 48.53C269.158 48.53 269.6 48.439 269.973 48.257C270.346 48.075 270.653 47.8323 270.896 47.529C271.139 47.217 271.316 46.8703 271.429 46.489L271.949 48.296H271.325C271.186 48.8507 270.952 49.3577 270.623 49.817C270.302 50.2677 269.86 50.6273 269.297 50.896C268.742 51.1647 268.045 51.299 267.204 51.299C266.233 51.299 265.44 51.1127 264.825 50.74C264.218 50.3673 263.768 49.817 263.473 49.089C263.187 48.361 263.044 47.464 263.044 46.398V38.247H266.372ZM274.679 38.247V51H271.364L271.481 47.906L271.351 47.633V38.247H274.679ZM282.917 51.325C280.949 51.325 279.489 50.805 278.536 49.765C277.591 48.725 277.119 47.2647 277.119 45.384V43.824C277.119 41.952 277.595 40.5003 278.549 39.469C279.502 38.4377 280.958 37.922 282.917 37.922C283.428 37.922 283.905 37.9653 284.347 38.052C284.797 38.13 285.205 38.2383 285.569 38.377C285.941 38.5157 286.266 38.663 286.544 38.819L286.817 41.614C286.392 41.3453 285.915 41.12 285.387 40.938C284.867 40.756 284.264 40.665 283.58 40.665C282.505 40.665 281.716 40.9423 281.214 41.497C280.72 42.043 280.473 42.8403 280.473 43.889V45.267C280.473 46.307 280.728 47.1087 281.24 47.672C281.76 48.2353 282.557 48.517 283.632 48.517C284.316 48.517 284.923 48.4303 285.452 48.257C285.98 48.075 286.474 47.854 286.934 47.594L286.661 50.402C286.236 50.6447 285.703 50.857 285.062 51.039C284.42 51.2297 283.705 51.325 282.917 51.325ZM296.489 51L296.606 47.88L296.515 47.594V43.603L296.502 43.031C296.502 42.199 296.273 41.588 295.813 41.198C295.363 40.808 294.622 40.613 293.59 40.613C292.715 40.613 291.892 40.73 291.12 40.964C290.358 41.1893 289.651 41.4537 289.001 41.757L289.287 39.105C289.669 38.9057 290.102 38.7193 290.587 38.546C291.081 38.364 291.632 38.2167 292.238 38.104C292.845 37.9913 293.499 37.935 294.201 37.935C295.241 37.935 296.121 38.0607 296.84 38.312C297.56 38.5547 298.132 38.9057 298.556 39.365C298.99 39.8243 299.302 40.3747 299.492 41.016C299.683 41.6487 299.778 42.3507 299.778 43.122V51H296.489ZM292.316 51.299C291.051 51.299 290.085 50.9827 289.417 50.35C288.759 49.7173 288.429 48.816 288.429 47.646V47.282C288.429 46.0427 288.811 45.1283 289.573 44.539C290.336 43.941 291.545 43.5293 293.2 43.304L296.814 42.81L297.009 44.955L293.681 45.436C292.953 45.5313 292.433 45.7047 292.121 45.956C291.818 46.2073 291.666 46.5757 291.666 47.061V47.191C291.666 47.6677 291.814 48.0403 292.108 48.309C292.412 48.569 292.884 48.699 293.525 48.699C294.097 48.699 294.587 48.608 294.994 48.426C295.402 48.244 295.735 48.0057 295.995 47.711C296.264 47.4077 296.455 47.0697 296.567 46.697L297.035 48.348H296.463C296.325 48.894 296.099 49.3923 295.787 49.843C295.484 50.285 295.055 50.6403 294.5 50.909C293.946 51.169 293.218 51.299 292.316 51.299ZM307.328 51.273C306.245 51.273 305.378 51.1127 304.728 50.792C304.087 50.4627 303.623 49.9687 303.337 49.31C303.051 48.6513 302.908 47.841 302.908 46.879V39.443H306.21V46.385C306.21 47.0783 306.366 47.5897 306.678 47.919C306.999 48.2397 307.558 48.4 308.355 48.4C308.823 48.4 309.274 48.3523 309.707 48.257C310.141 48.153 310.539 48.0187 310.903 47.854L310.617 50.636C310.184 50.8353 309.686 50.9913 309.122 51.104C308.568 51.2167 307.97 51.273 307.328 51.273ZM301.062 40.977V38.351H310.786L310.5 40.977H301.062ZM302.947 38.598L302.934 35.218L306.249 34.88L306.119 38.598H302.947ZM318.592 51.312C316.408 51.312 314.783 50.8093 313.717 49.804C312.651 48.7987 312.118 47.3427 312.118 45.436V43.772C312.118 41.8827 312.617 40.431 313.613 39.417C314.61 38.403 316.057 37.896 317.955 37.896C319.238 37.896 320.308 38.1213 321.166 38.572C322.024 39.0227 322.666 39.664 323.09 40.496C323.524 41.3193 323.74 42.3073 323.74 43.46V43.915C323.74 44.227 323.723 44.5477 323.688 44.877C323.662 45.1977 323.623 45.501 323.571 45.787H320.555C320.581 45.3103 320.594 44.8597 320.594 44.435C320.603 44.0017 320.607 43.6117 320.607 43.265C320.607 42.667 320.512 42.16 320.321 41.744C320.131 41.3193 319.84 40.9987 319.45 40.782C319.06 40.5653 318.562 40.457 317.955 40.457C317.063 40.457 316.404 40.704 315.979 41.198C315.555 41.692 315.342 42.394 315.342 43.304V44.487L315.355 44.864V45.865C315.355 46.2637 315.416 46.632 315.537 46.97C315.667 47.308 315.88 47.6027 316.174 47.854C316.469 48.0967 316.859 48.2873 317.344 48.426C317.838 48.5647 318.454 48.634 319.19 48.634C319.988 48.634 320.746 48.5473 321.465 48.374C322.193 48.192 322.882 47.9493 323.532 47.646L323.246 50.272C322.666 50.5927 321.981 50.844 321.192 51.026C320.412 51.2167 319.546 51.312 318.592 51.312ZM313.886 45.787V43.577H322.895V45.787H313.886Z" fill="white" fill-opacity="0.5"/>
</g>
<g filter="url(#filter5_d_195_890)">
<rect x="2" y="1" width="166" height="82" rx="5" fill="url(#paint5_linear_195_890)" shape-rendering="crispEdges"/>
<path d="M42.472 35.386L47.698 48.282H47.867L47.724 41.197V35.386H50.987V52H46.281L40.925 38.87H40.756L40.899 46.176V52H37.623V35.386H42.472ZM60.081 52.312C57.897 52.312 56.272 51.8093 55.206 50.804C54.14 49.7987 53.607 48.3427 53.607 46.436V44.772C53.607 42.8827 54.1054 41.431 55.102 40.417C56.0987 39.403 57.546 38.896 59.444 38.896C60.7267 38.896 61.797 39.1213 62.655 39.572C63.513 40.0227 64.1544 40.664 64.579 41.496C65.0124 42.3193 65.229 43.3073 65.229 44.46V44.915C65.229 45.227 65.2117 45.5477 65.177 45.877C65.151 46.1977 65.112 46.501 65.06 46.787H62.044C62.07 46.3103 62.083 45.8597 62.083 45.435C62.0917 45.0017 62.096 44.6117 62.096 44.265C62.096 43.667 62.0007 43.16 61.81 42.744C61.6194 42.3193 61.329 41.9987 60.939 41.782C60.549 41.5653 60.0507 41.457 59.444 41.457C58.5514 41.457 57.8927 41.704 57.468 42.198C57.0434 42.692 56.831 43.394 56.831 44.304V45.487L56.844 45.864V46.865C56.844 47.2637 56.9047 47.632 57.026 47.97C57.156 48.308 57.3684 48.6027 57.663 48.854C57.9577 49.0967 58.3477 49.2873 58.833 49.426C59.327 49.5647 59.9424 49.634 60.679 49.634C61.4764 49.634 62.2347 49.5473 62.954 49.374C63.682 49.192 64.371 48.9493 65.021 48.646L64.735 51.272C64.1544 51.5927 63.4697 51.844 62.681 52.026C61.901 52.2167 61.0344 52.312 60.081 52.312ZM55.375 46.787V44.577H64.384V46.787H55.375ZM72.5904 52.273C71.5071 52.273 70.6404 52.1127 69.9904 51.792C69.3491 51.4627 68.8854 50.9687 68.5994 50.31C68.3134 49.6513 68.1704 48.841 68.1704 47.879V40.443H71.4724V47.385C71.4724 48.0783 71.6284 48.5897 71.9404 48.919C72.2611 49.2397 72.8201 49.4 73.6174 49.4C74.0854 49.4 74.5361 49.3523 74.9694 49.257C75.4028 49.153 75.8014 49.0187 76.1654 48.854L75.8794 51.636C75.4461 51.8353 74.9478 51.9913 74.3844 52.104C73.8298 52.2167 73.2318 52.273 72.5904 52.273ZM66.3244 41.977V39.351H76.0484L75.7624 41.977H66.3244ZM68.2094 39.598L68.1964 36.218L71.5114 35.88L71.3814 39.598H68.2094ZM79.7562 52L77.0002 39.247H80.4062L82.2782 49.634H82.5122L84.4102 39.572H88.7002L90.6112 49.634H90.8322L92.7302 39.247H96.0972L93.3412 52H88.5052L86.9452 43.563L86.6592 41.99H86.4642L86.1782 43.563L84.6052 52H79.7562ZM103.284 52.351C101.308 52.351 99.8086 51.844 98.7859 50.83C97.7719 49.816 97.2649 48.373 97.2649 46.501V44.772C97.2649 42.8913 97.7719 41.444 98.7859 40.43C99.8086 39.4073 101.308 38.896 103.284 38.896C105.251 38.896 106.742 39.4073 107.756 40.43C108.77 41.444 109.277 42.8913 109.277 44.772V46.501C109.277 48.373 108.77 49.816 107.756 50.83C106.751 51.844 105.26 52.351 103.284 52.351ZM103.284 49.686C104.151 49.686 104.809 49.426 105.26 48.906C105.719 48.386 105.949 47.6407 105.949 46.67V44.603C105.949 43.615 105.719 42.861 105.26 42.341C104.809 41.8123 104.151 41.548 103.284 41.548C102.409 41.548 101.741 41.8123 101.282 42.341C100.831 42.861 100.606 43.615 100.606 44.603V46.67C100.606 47.6407 100.831 48.386 101.282 48.906C101.741 49.426 102.409 49.686 103.284 49.686ZM114.952 44.59L114.107 42.367H114.913C115.147 41.3357 115.571 40.5253 116.187 39.936C116.802 39.3467 117.656 39.052 118.748 39.052C118.973 39.052 119.177 39.0693 119.359 39.104C119.541 39.13 119.705 39.1647 119.853 39.208L120.035 42.536C119.844 42.4753 119.623 42.432 119.372 42.406C119.12 42.3713 118.856 42.354 118.579 42.354C117.695 42.354 116.941 42.549 116.317 42.939C115.701 43.329 115.246 43.8793 114.952 44.59ZM111.715 52V39.247H114.887L114.744 43.16L115.043 43.277V52H111.715ZM129.988 52L125.802 46.384H124.671V44.213H125.815L129.845 39.247H133.693L128.519 45.526V44.85L133.888 52H129.988ZM121.798 52V34.814H125.113V52H121.798Z" fill="white" fill-opacity="0.5"/>
</g>
<defs>
<filter id="filter0_d_195_890" x="388" y="103" width="170" height="86" filterUnits="userSpaceOnUse" color-interpolation-filters="sRGB">
<feFlood flood-opacity="0" result="BackgroundImageFix"/>
<feColorMatrix in="SourceAlpha" type="matrix" values="0 0 0 0 0 0 0 0 0 0 0 0 0 0 0 0 0 0 127 0" result="hardAlpha"/>
<feOffset dy="2"/>
<feGaussianBlur stdDeviation="1"/>
<feComposite in2="hardAlpha" operator="out"/>
<feColorMatrix type="matrix" values="0 0 0 0 0 0 0 0 0 0 0 0 0 0 0 0 0 0 0.15 0"/>
<feBlend mode="normal" in2="BackgroundImageFix" result="effect1_dropShadow_195_890"/>
<feBlend mode="normal" in="SourceGraphic" in2="effect1_dropShadow_195_890" result="shape"/>
</filter>
<filter id="filter1_d_195_890" x="388" y="0" width="170" height="86" filterUnits="userSpaceOnUse" color-interpolation-filters="sRGB">
<feFlood flood-opacity="0" result="BackgroundImageFix"/>
<feColorMatrix in="SourceAlpha" type="matrix" values="0 0 0 0 0 0 0 0 0 0 0 0 0 0 0 0 0 0 127 0" result="hardAlpha"/>
<feOffset dy="2"/>
<feGaussianBlur stdDeviation="1"/>
<feComposite in2="hardAlpha" operator="out"/>
<feColorMatrix type="matrix" values="0 0 0 0 0 0 0 0 0 0 0 0 0 0 0 0 0 0 0.15 0"/>
<feBlend mode="normal" in2="BackgroundImageFix" result="effect1_dropShadow_195_890"/>
<feBlend mode="normal" in="SourceGraphic" in2="effect1_dropShadow_195_890" result="shape"/>
</filter>
<filter id="filter2_d_195_890" x="194" y="103" width="170" height="86" filterUnits="userSpaceOnUse" color-interpolation-filters="sRGB">
<feFlood flood-opacity="0" result="BackgroundImageFix"/>
<feColorMatrix in="SourceAlpha" type="matrix" values="0 0 0 0 0 0 0 0 0 0 0 0 0 0 0 0 0 0 127 0" result="hardAlpha"/>
<feOffset dy="2"/>
<feGaussianBlur stdDeviation="1"/>
<feComposite in2="hardAlpha" operator="out"/>
<feColorMatrix type="matrix" values="0 0 0 0 0 0 0 0 0 0 0 0 0 0 0 0 0 0 0.15 0"/>
<feBlend mode="normal" in2="BackgroundImageFix" result="effect1_dropShadow_195_890"/>
<feBlend mode="normal" in="SourceGraphic" in2="effect1_dropShadow_195_890" result="shape"/>
</filter>
<filter id="filter3_d_195_890" x="0" y="103" width="170" height="86" filterUnits="userSpaceOnUse" color-interpolation-filters="sRGB">
<feFlood flood-opacity="0" result="BackgroundImageFix"/>
<feColorMatrix in="SourceAlpha" type="matrix" values="0 0 0 0 0 0 0 0 0 0 0 0 0 0 0 0 0 0 127 0" result="hardAlpha"/>
<feOffset dy="2"/>
<feGaussianBlur stdDeviation="1"/>
<feComposite in2="hardAlpha" operator="out"/>
<feColorMatrix type="matrix" values="0 0 0 0 0 0 0 0 0 0 0 0 0 0 0 0 0 0 0.15 0"/>
<feBlend mode="normal" in2="BackgroundImageFix" result="effect1_dropShadow_195_890"/>
<feBlend mode="normal" in="SourceGraphic" in2="effect1_dropShadow_195_890" result="shape"/>
</filter>
<filter id="filter4_d_195_890" x="194" y="0" width="170" height="86" filterUnits="userSpaceOnUse" color-interpolation-filters="sRGB">
<feFlood flood-opacity="0" result="BackgroundImageFix"/>
<feColorMatrix in="SourceAlpha" type="matrix" values="0 0 0 0 0 0 0 0 0 0 0 0 0 0 0 0 0 0 127 0" result="hardAlpha"/>
<feOffset dy="2"/>
<feGaussianBlur stdDeviation="1"/>
<feComposite in2="hardAlpha" operator="out"/>
<feColorMatrix type="matrix" values="0 0 0 0 0 0 0 0 0 0 0 0 0 0 0 0 0 0 0.15 0"/>
<feBlend mode="normal" in2="BackgroundImageFix" result="effect1_dropShadow_195_890"/>
<feBlend mode="normal" in="SourceGraphic" in2="effect1_dropShadow_195_890" result="shape"/>
</filter>
<filter id="filter5_d_195_890" x="0" y="1" width="170" height="86" filterUnits="userSpaceOnUse" color-interpolation-filters="sRGB">
<feFlood flood-opacity="0" result="BackgroundImageFix"/>
<feColorMatrix in="SourceAlpha" type="matrix" values="0 0 0 0 0 0 0 0 0 0 0 0 0 0 0 0 0 0 127 0" result="hardAlpha"/>
<feOffset dy="2"/>
<feGaussianBlur stdDeviation="1"/>
<feComposite in2="hardAlpha" operator="out"/>
<feColorMatrix type="matrix" values="0 0 0 0 0 0 0 0 0 0 0 0 0 0 0 0 0 0 0.15 0"/>
<feBlend mode="normal" in2="BackgroundImageFix" result="effect1_dropShadow_195_890"/>
<feBlend mode="normal" in="SourceGraphic" in2="effect1_dropShadow_195_890" result="shape"/>
</filter>
<linearGradient id="paint0_linear_195_890" x1="390" y1="103" x2="564.091" y2="160.505" gradientUnits="userSpaceOnUse">
<stop offset="0.0325326" stop-color="#141D3A"/>
<stop offset="1" stop-color="#1D2641"/>
</linearGradient>
<linearGradient id="paint1_linear_195_890" x1="390" y1="0" x2="564.091" y2="57.5051" gradientUnits="userSpaceOnUse">
<stop offset="0.0325326" stop-color="#141D3A"/>
<stop offset="1" stop-color="#1D2641"/>
</linearGradient>
<linearGradient id="paint2_linear_195_890" x1="196" y1="103" x2="370.091" y2="160.505" gradientUnits="userSpaceOnUse">
<stop offset="0.0325326" stop-color="#141D3A"/>
<stop offset="1" stop-color="#1D2641"/>
</linearGradient>
<linearGradient id="paint3_linear_195_890" x1="2" y1="103" x2="176.091" y2="160.505" gradientUnits="userSpaceOnUse">
<stop offset="0.0325326" stop-color="#141D3A"/>
<stop offset="1" stop-color="#1D2641"/>
</linearGradient>
<linearGradient id="paint4_linear_195_890" x1="196" y1="0" x2="370.091" y2="57.5051" gradientUnits="userSpaceOnUse">
<stop offset="0.0325326" stop-color="#141D3A"/>
<stop offset="1" stop-color="#1D2641"/>
</linearGradient>
<linearGradient id="paint5_linear_195_890" x1="2" y1="1" x2="176.091" y2="58.5051" gradientUnits="userSpaceOnUse">
<stop offset="0.0325326" stop-color="#141D3A"/>
<stop offset="1" stop-color="#1D2641"/>
</linearGradient>
</defs>
</svg>
