<svg width="1512" height="1402" viewBox="0 0 1512 1402" fill="none" xmlns="http://www.w3.org/2000/svg">
<rect width="1512" height="1852" fill="#FF9933"/>
<line x1="89.4995" y1="-0.038175" x2="114.5" y2="981.962" stroke="#FFA74F" stroke-width="3"/>
<line x1="90.4994" y1="0.0326042" x2="149.834" y2="2658.94" stroke="#FFA74F" stroke-width="5"/>
<line x1="200.5" y1="0.0404358" x2="251.5" y2="2658.95" stroke="#FFA74F" stroke-width="5"/>
<line x1="371.5" y1="0.111072" x2="347.5" y2="2644.02" stroke="#FFA74F" stroke-width="5"/>
<line x1="511.499" y1="0.151355" x2="444.499" y2="2659.06" stroke="#FFA74F" stroke-width="5"/>
<line x1="654.5" y1="0.120808" x2="620.201" y2="2644.03" stroke="#FFA74F" stroke-width="5"/>
<line x1="821.499" y1="0.162625" x2="742.499" y2="2659.07" stroke="#FFA74F" stroke-width="5"/>
<line x1="905.5" y1="0.0569996" x2="938.688" y2="2643.97" stroke="#FFA74F" stroke-width="5"/>
<line x1="1035.5" y1="0.14196" x2="978.497" y2="2659.05" stroke="#FFA74F" stroke-width="5"/>
<line x1="1153.5" y1="0.0705149" x2="1172.39" y2="2643.98" stroke="#FFA74F" stroke-width="5"/>
<line x1="1313.5" y1="0.0363839" x2="1368.5" y2="2643.95" stroke="#FFA74F" stroke-width="5"/>
<line x1="1474.5" y1="0.160212" x2="1398.5" y2="2644.07" stroke="#FFA74F" stroke-width="5"/>
<line x1="0.0429831" y1="934.589" x2="1512.04" y2="960.589" stroke="#FFA74F" stroke-width="5"/>
<line x1="0.0429831" y1="854.589" x2="1512.04" y2="880.589" stroke="#FFA74F" stroke-width="5"/>
<line x1="-0.0330659" y1="760.589" x2="1511.97" y2="740.589" stroke="#FFA74F" stroke-width="5"/>
<line x1="-0.0330659" y1="680.589" x2="1511.97" y2="660.589" stroke="#FFA74F" stroke-width="5"/>
<line x1="-0.0330659" y1="570.589" x2="1511.97" y2="550.589" stroke="#FFA74F" stroke-width="5"/>
<line x1="-0.0330659" y1="440.589" x2="1511.97" y2="420.589" stroke="#FFA74F" stroke-width="5"/>
<line x1="-0.0330659" y1="330.589" x2="1511.97" y2="310.589" stroke="#FFA74F" stroke-width="5"/>
<line x1="-0.0330659" y1="220.589" x2="1511.97" y2="200.589" stroke="#FFA74F" stroke-width="5"/>
<line x1="-0.0330659" y1="140.589" x2="1511.97" y2="120.589" stroke="#FFA74F" stroke-width="5"/>
<line x1="-0.0330659" y1="30.5886" x2="1511.97" y2="10.5886" stroke="#FFA74F" stroke-width="5"/>
<line x1="-0.0330659" y1="72.5886" x2="1511.97" y2="52.5886" stroke="#FFA74F" stroke-width="5"/>
<line x1="-0.00991977" y1="23.3384" x2="1511.99" y2="3.33844" stroke="#FFA74F" stroke-width="1.5"/>
<line x1="-0.00991977" y1="17.3384" x2="1511.99" y2="-2.66156" stroke="#FFA74F" stroke-width="1.5"/>
<line x1="-0.00991977" y1="41.3384" x2="1511.99" y2="21.3384" stroke="#FFA74F" stroke-width="1.5"/>
<line x1="-0.00991977" y1="51.3384" x2="1511.99" y2="31.3384" stroke="#FFA74F" stroke-width="1.5"/>
<line x1="-0.00991977" y1="61.3384" x2="1511.99" y2="41.3384" stroke="#FFA74F" stroke-width="1.5"/>
<line x1="-0.00991977" y1="81.3384" x2="1511.99" y2="61.3384" stroke="#FFA74F" stroke-width="1.5"/>
<line x1="-0.00991977" y1="91.3384" x2="1511.99" y2="71.3384" stroke="#FFA74F" stroke-width="1.5"/>
<line x1="-0.00991977" y1="101.338" x2="1511.99" y2="81.3384" stroke="#FFA74F" stroke-width="1.5"/>
<line x1="-0.00991977" y1="111.338" x2="1511.99" y2="91.3384" stroke="#FFA74F" stroke-width="1.5"/>
<line x1="-0.00991977" y1="117.338" x2="1511.99" y2="97.3384" stroke="#FFA74F" stroke-width="1.5"/>
<line x1="-0.00991977" y1="141.338" x2="1511.99" y2="121.338" stroke="#FFA74F" stroke-width="1.5"/>
<line x1="-0.00991977" y1="151.338" x2="1511.99" y2="131.338" stroke="#FFA74F" stroke-width="1.5"/>
<line x1="-0.00991977" y1="161.338" x2="1511.99" y2="141.338" stroke="#FFA74F" stroke-width="1.5"/>
<line x1="-0.00991977" y1="181.338" x2="1511.99" y2="161.338" stroke="#FFA74F" stroke-width="1.5"/>
<line x1="-0.00991977" y1="191.338" x2="1511.99" y2="171.338" stroke="#FFA74F" stroke-width="1.5"/>
<line x1="-0.00991977" y1="201.338" x2="1511.99" y2="181.338" stroke="#FFA74F" stroke-width="1.5"/>
<line x1="-0.00991977" y1="211.338" x2="1511.99" y2="191.338" stroke="#FFA74F" stroke-width="1.5"/>
<line x1="-0.00991977" y1="237.338" x2="1511.99" y2="217.338" stroke="#FFA74F" stroke-width="1.5"/>
<line x1="-0.00991977" y1="261.338" x2="1511.99" y2="241.338" stroke="#FFA74F" stroke-width="1.5"/>
<line x1="-0.00991977" y1="271.338" x2="1511.99" y2="251.338" stroke="#FFA74F" stroke-width="1.5"/>
<line x1="-0.00991977" y1="281.338" x2="1511.99" y2="261.338" stroke="#FFA74F" stroke-width="1.5"/>
<line x1="-0.00991977" y1="301.338" x2="1511.99" y2="281.338" stroke="#FFA74F" stroke-width="1.5"/>
<line x1="-0.00991977" y1="311.338" x2="1511.99" y2="291.338" stroke="#FFA74F" stroke-width="1.5"/>
<line x1="-0.00991977" y1="321.338" x2="1511.99" y2="301.338" stroke="#FFA74F" stroke-width="1.5"/>
<line x1="-0.00991977" y1="331.338" x2="1511.99" y2="311.338" stroke="#FFA74F" stroke-width="1.5"/>
<line x1="-0.00991977" y1="337.338" x2="1511.99" y2="317.338" stroke="#FFA74F" stroke-width="1.5"/>
<line x1="-0.00991977" y1="361.338" x2="1511.99" y2="341.338" stroke="#FFA74F" stroke-width="1.5"/>
<line x1="-0.00991977" y1="371.338" x2="1511.99" y2="351.338" stroke="#FFA74F" stroke-width="1.5"/>
<line x1="-0.00991977" y1="381.338" x2="1511.99" y2="361.338" stroke="#FFA74F" stroke-width="1.5"/>
<line x1="-0.00991977" y1="401.338" x2="1511.99" y2="381.338" stroke="#FFA74F" stroke-width="1.5"/>
<line x1="-0.00991977" y1="411.338" x2="1511.99" y2="391.338" stroke="#FFA74F" stroke-width="1.5"/>
<line x1="-0.00991977" y1="421.338" x2="1511.99" y2="401.338" stroke="#FFA74F" stroke-width="1.5"/>
<line x1="-0.00991977" y1="431.338" x2="1511.99" y2="411.338" stroke="#FFA74F" stroke-width="1.5"/>
<line x1="-0.00991977" y1="397.338" x2="1511.99" y2="377.338" stroke="#FFA74F" stroke-width="1.5"/>
<line x1="-0.00991977" y1="421.338" x2="1511.99" y2="401.338" stroke="#FFA74F" stroke-width="1.5"/>
<line x1="-0.00991977" y1="431.338" x2="1511.99" y2="411.338" stroke="#FFA74F" stroke-width="1.5"/>
<line x1="-0.00991977" y1="441.338" x2="1511.99" y2="421.338" stroke="#FFA74F" stroke-width="1.5"/>
<line x1="-0.00991977" y1="461.338" x2="1511.99" y2="441.338" stroke="#FFA74F" stroke-width="1.5"/>
<line x1="-0.00991977" y1="471.338" x2="1511.99" y2="451.338" stroke="#FFA74F" stroke-width="1.5"/>
<line x1="-0.00991977" y1="481.338" x2="1511.99" y2="461.338" stroke="#FFA74F" stroke-width="1.5"/>
<line x1="-0.00991977" y1="491.338" x2="1511.99" y2="471.338" stroke="#FFA74F" stroke-width="1.5"/>
<line x1="-0.00991977" y1="497.338" x2="1511.99" y2="477.338" stroke="#FFA74F" stroke-width="1.5"/>
<line x1="-0.00991977" y1="521.338" x2="1511.99" y2="501.338" stroke="#FFA74F" stroke-width="1.5"/>
<line x1="-0.00991977" y1="531.338" x2="1511.99" y2="511.338" stroke="#FFA74F" stroke-width="1.5"/>
<line x1="-0.00991977" y1="541.338" x2="1511.99" y2="521.338" stroke="#FFA74F" stroke-width="1.5"/>
<line x1="-0.00991977" y1="561.338" x2="1511.99" y2="541.338" stroke="#FFA74F" stroke-width="1.5"/>
<line x1="-0.00991977" y1="571.338" x2="1511.99" y2="551.338" stroke="#FFA74F" stroke-width="1.5"/>
<line x1="-0.00991977" y1="581.338" x2="1511.99" y2="561.338" stroke="#FFA74F" stroke-width="1.5"/>
<line x1="-0.00991977" y1="591.338" x2="1511.99" y2="571.338" stroke="#FFA74F" stroke-width="1.5"/>
<line x1="-0.00991977" y1="617.338" x2="1511.99" y2="597.338" stroke="#FFA74F" stroke-width="1.5"/>
<line x1="-0.00991977" y1="641.338" x2="1511.99" y2="621.338" stroke="#FFA74F" stroke-width="1.5"/>
<line x1="-0.00991977" y1="651.338" x2="1511.99" y2="631.338" stroke="#FFA74F" stroke-width="1.5"/>
<line x1="-0.00991977" y1="661.338" x2="1511.99" y2="641.338" stroke="#FFA74F" stroke-width="1.5"/>
<line x1="-0.00991977" y1="681.338" x2="1511.99" y2="661.338" stroke="#FFA74F" stroke-width="1.5"/>
<line x1="-0.00991977" y1="691.338" x2="1511.99" y2="671.338" stroke="#FFA74F" stroke-width="1.5"/>
<line x1="-0.00991977" y1="701.338" x2="1511.99" y2="681.338" stroke="#FFA74F" stroke-width="1.5"/>
<line x1="-0.00991977" y1="711.338" x2="1511.99" y2="691.338" stroke="#FFA74F" stroke-width="1.5"/>
<line x1="-0.00991977" y1="717.338" x2="1511.99" y2="697.338" stroke="#FFA74F" stroke-width="1.5"/>
<line x1="-0.00991977" y1="741.338" x2="1511.99" y2="721.338" stroke="#FFA74F" stroke-width="1.5"/>
<line x1="-0.00991977" y1="751.338" x2="1511.99" y2="731.338" stroke="#FFA74F" stroke-width="1.5"/>
<line x1="-0.00991977" y1="761.338" x2="1511.99" y2="741.338" stroke="#FFA74F" stroke-width="1.5"/>
<line x1="-0.00991977" y1="781.338" x2="1511.99" y2="761.338" stroke="#FFA74F" stroke-width="1.5"/>
<line x1="-0.00991977" y1="791.338" x2="1511.99" y2="771.338" stroke="#FFA74F" stroke-width="1.5"/>
<line x1="-0.00991977" y1="801.338" x2="1511.99" y2="781.338" stroke="#FFA74F" stroke-width="1.5"/>
<line x1="-0.00991977" y1="811.338" x2="1511.99" y2="791.338" stroke="#FFA74F" stroke-width="1.5"/>
<line x1="-0.0330659" y1="1380.59" x2="1511.97" y2="1360.59" stroke="#FFA74F" stroke-width="5"/>
<line x1="-0.0330659" y1="1250.59" x2="1511.97" y2="1230.59" stroke="#FFA74F" stroke-width="5"/>
<line x1="-0.0330659" y1="1140.59" x2="1511.97" y2="1120.59" stroke="#FFA74F" stroke-width="5"/>
<line x1="-0.0330659" y1="1030.59" x2="1511.97" y2="1010.59" stroke="#FFA74F" stroke-width="5"/>
<line x1="-0.0330659" y1="950.589" x2="1511.97" y2="930.589" stroke="#FFA74F" stroke-width="5"/>
<line x1="-0.0330659" y1="840.589" x2="1511.97" y2="820.589" stroke="#FFA74F" stroke-width="5"/>
<line x1="-0.0330659" y1="882.589" x2="1511.97" y2="862.589" stroke="#FFA74F" stroke-width="5"/>
<line x1="-0.00991977" y1="833.338" x2="1511.99" y2="813.338" stroke="#FFA74F" stroke-width="1.5"/>
<line x1="-0.00991977" y1="827.338" x2="1511.99" y2="807.338" stroke="#FFA74F" stroke-width="1.5"/>
<line x1="-0.00991977" y1="851.338" x2="1511.99" y2="831.338" stroke="#FFA74F" stroke-width="1.5"/>
<line x1="-0.00991977" y1="861.338" x2="1511.99" y2="841.338" stroke="#FFA74F" stroke-width="1.5"/>
<line x1="-0.00991977" y1="871.338" x2="1511.99" y2="851.338" stroke="#FFA74F" stroke-width="1.5"/>
<line x1="-0.00991977" y1="891.338" x2="1511.99" y2="871.338" stroke="#FFA74F" stroke-width="1.5"/>
<line x1="-0.00991977" y1="901.338" x2="1511.99" y2="881.338" stroke="#FFA74F" stroke-width="1.5"/>
<line x1="-0.00991977" y1="911.338" x2="1511.99" y2="891.338" stroke="#FFA74F" stroke-width="1.5"/>
<line x1="-0.00991977" y1="921.338" x2="1511.99" y2="901.338" stroke="#FFA74F" stroke-width="1.5"/>
<line x1="-0.00991977" y1="927.338" x2="1511.99" y2="907.338" stroke="#FFA74F" stroke-width="1.5"/>
<line x1="-0.00991977" y1="951.338" x2="1511.99" y2="931.338" stroke="#FFA74F" stroke-width="1.5"/>
<line x1="-0.00991977" y1="961.338" x2="1511.99" y2="941.338" stroke="#FFA74F" stroke-width="1.5"/>
<line x1="-0.00991977" y1="971.338" x2="1511.99" y2="951.338" stroke="#FFA74F" stroke-width="1.5"/>
<line x1="-0.00991977" y1="991.338" x2="1511.99" y2="971.338" stroke="#FFA74F" stroke-width="1.5"/>
<line x1="-0.00991977" y1="1001.34" x2="1511.99" y2="981.338" stroke="#FFA74F" stroke-width="1.5"/>
<line x1="-0.00991977" y1="1011.34" x2="1511.99" y2="991.338" stroke="#FFA74F" stroke-width="1.5"/>
<line x1="-0.00991977" y1="1021.34" x2="1511.99" y2="1001.34" stroke="#FFA74F" stroke-width="1.5"/>
<line x1="-0.00991977" y1="1047.34" x2="1511.99" y2="1027.34" stroke="#FFA74F" stroke-width="1.5"/>
<line x1="-0.00991977" y1="1071.34" x2="1511.99" y2="1051.34" stroke="#FFA74F" stroke-width="1.5"/>
<line x1="-0.00991977" y1="1081.34" x2="1511.99" y2="1061.34" stroke="#FFA74F" stroke-width="1.5"/>
<line x1="-0.00991977" y1="1091.34" x2="1511.99" y2="1071.34" stroke="#FFA74F" stroke-width="1.5"/>
<line x1="-0.00991977" y1="1111.34" x2="1511.99" y2="1091.34" stroke="#FFA74F" stroke-width="1.5"/>
<line x1="-0.00991977" y1="1121.34" x2="1511.99" y2="1101.34" stroke="#FFA74F" stroke-width="1.5"/>
<line x1="-0.00991977" y1="1131.34" x2="1511.99" y2="1111.34" stroke="#FFA74F" stroke-width="1.5"/>
<line x1="-0.00991977" y1="1141.34" x2="1511.99" y2="1121.34" stroke="#FFA74F" stroke-width="1.5"/>
<line x1="-0.00991977" y1="1147.34" x2="1511.99" y2="1127.34" stroke="#FFA74F" stroke-width="1.5"/>
<line x1="-0.00991977" y1="1171.34" x2="1511.99" y2="1151.34" stroke="#FFA74F" stroke-width="1.5"/>
<line x1="-0.00991977" y1="1181.34" x2="1511.99" y2="1161.34" stroke="#FFA74F" stroke-width="1.5"/>
<line x1="-0.00991977" y1="1191.34" x2="1511.99" y2="1171.34" stroke="#FFA74F" stroke-width="1.5"/>
<line x1="-0.00991977" y1="1211.34" x2="1511.99" y2="1191.34" stroke="#FFA74F" stroke-width="1.5"/>
<line x1="-0.00991977" y1="1221.34" x2="1511.99" y2="1201.34" stroke="#FFA74F" stroke-width="1.5"/>
<line x1="-0.00991977" y1="1231.34" x2="1511.99" y2="1211.34" stroke="#FFA74F" stroke-width="1.5"/>
<line x1="-0.00991977" y1="1241.34" x2="1511.99" y2="1221.34" stroke="#FFA74F" stroke-width="1.5"/>
<line x1="-0.00991977" y1="1207.34" x2="1511.99" y2="1187.34" stroke="#FFA74F" stroke-width="1.5"/>
<line x1="-0.00991977" y1="1231.34" x2="1511.99" y2="1211.34" stroke="#FFA74F" stroke-width="1.5"/>
<line x1="-0.00991977" y1="1241.34" x2="1511.99" y2="1221.34" stroke="#FFA74F" stroke-width="1.5"/>
<line x1="-0.00991977" y1="1251.34" x2="1511.99" y2="1231.34" stroke="#FFA74F" stroke-width="1.5"/>
<line x1="-0.00991977" y1="1271.34" x2="1511.99" y2="1251.34" stroke="#FFA74F" stroke-width="1.5"/>
<line x1="-0.00991977" y1="1281.34" x2="1511.99" y2="1261.34" stroke="#FFA74F" stroke-width="1.5"/>
<line x1="-0.00991977" y1="1291.34" x2="1511.99" y2="1271.34" stroke="#FFA74F" stroke-width="1.5"/>
<line x1="-0.00991977" y1="1301.34" x2="1511.99" y2="1281.34" stroke="#FFA74F" stroke-width="1.5"/>
<line x1="-0.00991977" y1="1307.34" x2="1511.99" y2="1287.34" stroke="#FFA74F" stroke-width="1.5"/>
<line x1="-0.00991977" y1="1331.34" x2="1511.99" y2="1311.34" stroke="#FFA74F" stroke-width="1.5"/>
<line x1="-0.00991977" y1="1341.34" x2="1511.99" y2="1321.34" stroke="#FFA74F" stroke-width="1.5"/>
<line x1="-0.00991977" y1="1351.34" x2="1511.99" y2="1331.34" stroke="#FFA74F" stroke-width="1.5"/>
<line x1="-0.00991977" y1="1371.34" x2="1511.99" y2="1351.34" stroke="#FFA74F" stroke-width="1.5"/>
<line x1="-0.00991977" y1="1381.34" x2="1511.99" y2="1361.34" stroke="#FFA74F" stroke-width="1.5"/>
<line x1="-0.00991977" y1="1391.34" x2="1511.99" y2="1371.34" stroke="#FFA74F" stroke-width="1.5"/>
<line x1="-0.00991977" y1="1401.34" x2="1511.99" y2="1381.34" stroke="#FFA74F" stroke-width="1.5"/>
<line y1="-0.75" x2="2684.53" y2="-0.75" transform="matrix(0.00725431 0.999974 -0.998056 -0.0623225 414.369 18.3125)" stroke="#FFA74F" stroke-width="1.5"/>
<line y1="-0.75" x2="2684.53" y2="-0.75" transform="matrix(0.00725431 0.999974 -0.998056 -0.0623225 403.99 17.4297)" stroke="#FFA74F" stroke-width="1.5"/>
<line y1="-0.75" x2="2684.53" y2="-0.75" transform="matrix(0.00725431 0.999974 -0.998056 -0.0623225 393.611 16.5469)" stroke="#FFA74F" stroke-width="1.5"/>
<line y1="-0.75" x2="2684.52" y2="-0.75" transform="matrix(0.00727768 0.999973 -0.998052 -0.0623904 428.9 19.5486)" stroke="#FFA74F" stroke-width="1.5"/>
<line y1="-0.75" x2="2684.53" y2="-0.75" transform="matrix(0.00725431 0.999974 -0.998056 -0.0623225 403.99 17.4297)" stroke="#FFA74F" stroke-width="1.5"/>
<line y1="-0.75" x2="2684.53" y2="-0.75" transform="matrix(0.00725431 0.999974 -0.998056 -0.0623225 393.611 16.5469)" stroke="#FFA74F" stroke-width="1.5"/>
<line y1="-0.75" x2="2684.53" y2="-0.75" transform="matrix(0.00725431 0.999974 -0.998056 -0.0623225 383.232 15.6642)" stroke="#FFA74F" stroke-width="1.5"/>
<line y1="-0.75" x2="2684.53" y2="-0.75" transform="matrix(0.00725431 0.999974 -0.998056 -0.0623225 362.474 13.8984)" stroke="#FFA74F" stroke-width="1.5"/>
<line y1="-0.75" x2="2684.53" y2="-0.75" transform="matrix(0.00725431 0.999974 -0.998056 -0.0623225 352.094 13.0156)" stroke="#FFA74F" stroke-width="1.5"/>
<line y1="-0.75" x2="2684.53" y2="-0.75" transform="matrix(0.00725431 0.999974 -0.998056 -0.0623225 341.715 12.133)" stroke="#FFA74F" stroke-width="1.5"/>
<line y1="-0.75" x2="2684.53" y2="-0.75" transform="matrix(0.00725431 0.999974 -0.998056 -0.0623225 331.336 11.25)" stroke="#FFA74F" stroke-width="1.5"/>
<line y1="-0.75" x2="2684.53" y2="-0.75" transform="matrix(0.00725431 0.999974 -0.998056 -0.0623225 325.108 10.7204)" stroke="#FFA74F" stroke-width="1.5"/>
<line y1="-0.75" x2="2684.53" y2="-0.75" transform="matrix(0.00725431 0.999974 -0.998056 -0.0623225 300.199 8.60168)" stroke="#FFA74F" stroke-width="1.5"/>
<line y1="-0.75" x2="2684.53" y2="-0.75" transform="matrix(0.00725431 0.999974 -0.998056 -0.0623225 289.819 7.71884)" stroke="#FFA74F" stroke-width="1.5"/>
<line y1="-0.75" x2="2684.53" y2="-0.75" transform="matrix(0.00725431 0.999974 -0.998056 -0.0623225 279.44 6.83603)" stroke="#FFA74F" stroke-width="1.5"/>
<line y1="-0.75" x2="2684.53" y2="-0.75" transform="matrix(0.00725431 0.999974 -0.998056 -0.0623225 258.682 5.07028)" stroke="#FFA74F" stroke-width="1.5"/>
<line y1="-0.75" x2="2684.53" y2="-0.75" transform="matrix(0.00725431 0.999974 -0.998056 -0.0623225 248.303 4.18741)" stroke="#FFA74F" stroke-width="1.5"/>
<line y1="-0.75" x2="2684.53" y2="-0.75" transform="matrix(0.00725431 0.999974 -0.998056 -0.0623225 237.924 3.30472)" stroke="#FFA74F" stroke-width="1.5"/>
<line y1="-0.75" x2="2684.53" y2="-0.75" transform="matrix(0.00725431 0.999974 -0.998056 -0.0623225 227.544 2.42175)" stroke="#FFA74F" stroke-width="1.5"/>
<line y1="-0.75" x2="2684.53" y2="-0.75" transform="matrix(0.00725431 0.999974 -0.998056 -0.0623225 200.558 0.126587)" stroke="#FFA74F" stroke-width="1.5"/>
<line y1="-0.75" x2="2684.53" y2="-0.75" transform="matrix(0.00725431 0.999974 -0.998056 -0.0623225 175.649 -1.99216)" stroke="#FFA74F" stroke-width="1.5"/>
<line y1="-0.75" x2="2684.53" y2="-0.75" transform="matrix(0.00725431 0.999974 -0.998056 -0.0623225 165.269 -2.87503)" stroke="#FFA74F" stroke-width="1.5"/>
<line y1="-0.75" x2="2684.53" y2="-0.75" transform="matrix(0.00725431 0.999974 -0.998056 -0.0623225 154.89 -3.75778)" stroke="#FFA74F" stroke-width="1.5"/>
<line y1="-0.75" x2="2684.53" y2="-0.75" transform="matrix(0.00725431 0.999974 -0.998056 -0.0623225 134.132 -5.5235)" stroke="#FFA74F" stroke-width="1.5"/>
<line y1="-0.75" x2="2684.53" y2="-0.75" transform="matrix(0.00725431 0.999974 -0.998056 -0.0623225 123.753 -6.40634)" stroke="#FFA74F" stroke-width="1.5"/>
<line y1="-0.75" x2="2684.53" y2="-0.75" transform="matrix(0.00725431 0.999974 -0.998056 -0.0623225 113.374 -7.289)" stroke="#FFA74F" stroke-width="1.5"/>
<line y1="-0.75" x2="2684.53" y2="-0.75" transform="matrix(0.00725431 0.999974 -0.998056 -0.0623225 102.994 -8.172)" stroke="#FFA74F" stroke-width="1.5"/>
<line y1="-0.75" x2="2684.53" y2="-0.75" transform="matrix(0.00725431 0.999974 -0.998056 -0.0623225 96.7668 -8.70157)" stroke="#FFA74F" stroke-width="1.5"/>
<line y1="-0.75" x2="2684.53" y2="-0.75" transform="matrix(0.00725431 0.999974 -0.998056 -0.0623225 71.8567 -10.8203)" stroke="#FFA74F" stroke-width="1.5"/>
<line y1="-0.75" x2="2684.53" y2="-0.75" transform="matrix(0.00725431 0.999974 -0.998056 -0.0623225 61.4778 -11.7032)" stroke="#FFA74F" stroke-width="1.5"/>
<line y1="-0.75" x2="2684.53" y2="-0.75" transform="matrix(0.00725431 0.999974 -0.998056 -0.0623225 51.0986 -12.586)" stroke="#FFA74F" stroke-width="1.5"/>
<line y1="-0.75" x2="2684.53" y2="-0.75" transform="matrix(0.00725431 0.999974 -0.998056 -0.0623225 30.3403 -14.3516)" stroke="#FFA74F" stroke-width="1.5"/>
<line y1="-0.75" x2="2684.53" y2="-0.75" transform="matrix(0.00725431 0.999974 -0.998056 -0.0623225 19.9609 -15.2345)" stroke="#FFA74F" stroke-width="1.5"/>
<line y1="-0.75" x2="2684.53" y2="-0.75" transform="matrix(0.00725431 0.999974 -0.998056 -0.0623225 9.58179 -16.1172)" stroke="#FFA74F" stroke-width="1.5"/>
<line y1="-0.75" x2="2684.53" y2="-0.75" transform="matrix(0.00725715 0.999974 -0.998058 -0.0622982 -0.797119 -17)" stroke="#FFA74F" stroke-width="1.5"/>
<line y1="-0.75" x2="2684.53" y2="-0.75" transform="matrix(0.00725431 0.999974 -0.998056 -0.0623225 843.315 17.4297)" stroke="#FFA74F" stroke-width="1.5"/>
<line y1="-0.75" x2="2684.53" y2="-0.75" transform="matrix(0.00725431 0.999974 -0.998056 -0.0623225 832.936 16.5469)" stroke="#FFA74F" stroke-width="1.5"/>
<line y1="-0.75" x2="2684.52" y2="-0.75" transform="matrix(0.00727768 0.999973 -0.998052 -0.0623904 868.225 19.5486)" stroke="#FFA74F" stroke-width="1.5"/>
<line y1="-0.75" x2="2684.53" y2="-0.75" transform="matrix(0.00725431 0.999974 -0.998056 -0.0623225 843.315 17.4297)" stroke="#FFA74F" stroke-width="1.5"/>
<line y1="-0.75" x2="2684.53" y2="-0.75" transform="matrix(0.00725431 0.999974 -0.998056 -0.0623225 832.936 16.5469)" stroke="#FFA74F" stroke-width="1.5"/>
<line y1="-0.75" x2="2684.53" y2="-0.75" transform="matrix(0.00725431 0.999974 -0.998056 -0.0623225 822.556 15.6642)" stroke="#FFA74F" stroke-width="1.5"/>
<line y1="-0.75" x2="2684.53" y2="-0.75" transform="matrix(0.00725431 0.999974 -0.998056 -0.0623225 801.798 13.8984)" stroke="#FFA74F" stroke-width="1.5"/>
<line y1="-0.75" x2="2684.53" y2="-0.75" transform="matrix(0.00725431 0.999974 -0.998056 -0.0623225 791.419 13.0156)" stroke="#FFA74F" stroke-width="1.5"/>
<line y1="-0.75" x2="2684.53" y2="-0.75" transform="matrix(0.00725431 0.999974 -0.998056 -0.0623225 781.04 12.133)" stroke="#FFA74F" stroke-width="1.5"/>
<line y1="-0.75" x2="2684.53" y2="-0.75" transform="matrix(0.00725431 0.999974 -0.998056 -0.0623225 770.661 11.25)" stroke="#FFA74F" stroke-width="1.5"/>
<line y1="-0.75" x2="2684.53" y2="-0.75" transform="matrix(0.00725431 0.999974 -0.998056 -0.0623225 764.433 10.7204)" stroke="#FFA74F" stroke-width="1.5"/>
<line y1="-0.75" x2="2684.53" y2="-0.75" transform="matrix(0.00725431 0.999974 -0.998056 -0.0623225 739.523 8.60168)" stroke="#FFA74F" stroke-width="1.5"/>
<line y1="-0.75" x2="2684.53" y2="-0.75" transform="matrix(0.00725431 0.999974 -0.998056 -0.0623225 729.144 7.71884)" stroke="#FFA74F" stroke-width="1.5"/>
<line y1="-0.75" x2="2684.53" y2="-0.75" transform="matrix(0.00725431 0.999974 -0.998056 -0.0623225 718.765 6.83603)" stroke="#FFA74F" stroke-width="1.5"/>
<line y1="-0.75" x2="2684.53" y2="-0.75" transform="matrix(0.00725431 0.999974 -0.998056 -0.0623225 698.007 5.07028)" stroke="#FFA74F" stroke-width="1.5"/>
<line y1="-0.75" x2="2684.53" y2="-0.75" transform="matrix(0.00725431 0.999974 -0.998056 -0.0623225 687.627 4.18741)" stroke="#FFA74F" stroke-width="1.5"/>
<line y1="-0.75" x2="2684.53" y2="-0.75" transform="matrix(0.00725431 0.999974 -0.998056 -0.0623225 677.248 3.30472)" stroke="#FFA74F" stroke-width="1.5"/>
<line y1="-0.75" x2="2684.53" y2="-0.75" transform="matrix(0.00725431 0.999974 -0.998056 -0.0623225 666.869 2.42175)" stroke="#FFA74F" stroke-width="1.5"/>
<line y1="-0.75" x2="2684.53" y2="-0.75" transform="matrix(0.00725431 0.999974 -0.998056 -0.0623225 639.883 0.126587)" stroke="#FFA74F" stroke-width="1.5"/>
<line y1="-0.75" x2="2684.53" y2="-0.75" transform="matrix(0.00725431 0.999974 -0.998056 -0.0623225 614.973 -1.99216)" stroke="#FFA74F" stroke-width="1.5"/>
<line y1="-0.75" x2="2684.53" y2="-0.75" transform="matrix(0.00725431 0.999974 -0.998056 -0.0623225 604.594 -2.87503)" stroke="#FFA74F" stroke-width="1.5"/>
<line y1="-0.75" x2="2684.53" y2="-0.75" transform="matrix(0.00725431 0.999974 -0.998056 -0.0623225 594.215 -3.75778)" stroke="#FFA74F" stroke-width="1.5"/>
<line y1="-0.75" x2="2684.53" y2="-0.75" transform="matrix(0.00725431 0.999974 -0.998056 -0.0623225 573.456 -5.5235)" stroke="#FFA74F" stroke-width="1.5"/>
<line y1="-0.75" x2="2684.53" y2="-0.75" transform="matrix(0.00725431 0.999974 -0.998056 -0.0623225 563.077 -6.40634)" stroke="#FFA74F" stroke-width="1.5"/>
<line y1="-0.75" x2="2684.53" y2="-0.75" transform="matrix(0.00725431 0.999974 -0.998056 -0.0623225 552.698 -7.289)" stroke="#FFA74F" stroke-width="1.5"/>
<line y1="-0.75" x2="2684.53" y2="-0.75" transform="matrix(0.00725431 0.999974 -0.998056 -0.0623225 542.319 -8.172)" stroke="#FFA74F" stroke-width="1.5"/>
<line y1="-0.75" x2="2684.53" y2="-0.75" transform="matrix(0.00725431 0.999974 -0.998056 -0.0623225 536.092 -8.70157)" stroke="#FFA74F" stroke-width="1.5"/>
<line y1="-0.75" x2="2684.53" y2="-0.75" transform="matrix(0.00725431 0.999974 -0.998056 -0.0623225 511.181 -10.8203)" stroke="#FFA74F" stroke-width="1.5"/>
<line y1="-0.75" x2="2684.53" y2="-0.75" transform="matrix(0.00725431 0.999974 -0.998056 -0.0623225 500.802 -11.7032)" stroke="#FFA74F" stroke-width="1.5"/>
<line y1="-0.75" x2="2684.53" y2="-0.75" transform="matrix(0.00725431 0.999974 -0.998056 -0.0623225 490.423 -12.586)" stroke="#FFA74F" stroke-width="1.5"/>
<line y1="-0.75" x2="2684.53" y2="-0.75" transform="matrix(0.00725431 0.999974 -0.998056 -0.0623225 469.665 -14.3516)" stroke="#FFA74F" stroke-width="1.5"/>
<line y1="-0.75" x2="2684.53" y2="-0.75" transform="matrix(0.00725431 0.999974 -0.998056 -0.0623225 459.286 -15.2345)" stroke="#FFA74F" stroke-width="1.5"/>
<line y1="-0.75" x2="2684.53" y2="-0.75" transform="matrix(0.00725431 0.999974 -0.998056 -0.0623225 448.906 -16.1172)" stroke="#FFA74F" stroke-width="1.5"/>
<line y1="-0.75" x2="2684.53" y2="-0.75" transform="matrix(0.00725715 0.999974 -0.998058 -0.0622982 438.528 -17)" stroke="#FFA74F" stroke-width="1.5"/>
<line y1="-0.75" x2="2684.53" y2="-0.75" transform="matrix(0.00725431 0.999974 -0.998056 -0.0623225 1292.85 17.4297)" stroke="#FFA74F" stroke-width="1.5"/>
<line y1="-0.75" x2="2684.53" y2="-0.75" transform="matrix(0.00725431 0.999974 -0.998056 -0.0623225 1282.48 16.5469)" stroke="#FFA74F" stroke-width="1.5"/>
<line y1="-0.75" x2="2684.52" y2="-0.75" transform="matrix(0.00727768 0.999973 -0.998052 -0.0623904 1317.76 19.5486)" stroke="#FFA74F" stroke-width="1.5"/>
<line y1="-0.75" x2="2684.53" y2="-0.75" transform="matrix(0.00725431 0.999974 -0.998056 -0.0623225 1292.85 17.4297)" stroke="#FFA74F" stroke-width="1.5"/>
<line y1="-0.75" x2="2684.53" y2="-0.75" transform="matrix(0.00725431 0.999974 -0.998056 -0.0623225 1282.48 16.5469)" stroke="#FFA74F" stroke-width="1.5"/>
<line y1="-0.75" x2="2684.53" y2="-0.75" transform="matrix(0.00725431 0.999974 -0.998056 -0.0623225 1272.1 15.6642)" stroke="#FFA74F" stroke-width="1.5"/>
<line y1="-0.75" x2="2684.53" y2="-0.75" transform="matrix(0.00725431 0.999974 -0.998056 -0.0623225 1251.34 13.8984)" stroke="#FFA74F" stroke-width="1.5"/>
<line y1="-0.75" x2="2684.53" y2="-0.75" transform="matrix(0.00725431 0.999974 -0.998056 -0.0623225 1240.96 13.0156)" stroke="#FFA74F" stroke-width="1.5"/>
<line y1="-0.75" x2="2684.53" y2="-0.75" transform="matrix(0.00725431 0.999974 -0.998056 -0.0623225 1230.58 12.133)" stroke="#FFA74F" stroke-width="1.5"/>
<line y1="-0.75" x2="2684.53" y2="-0.75" transform="matrix(0.00725431 0.999974 -0.998056 -0.0623225 1220.2 11.25)" stroke="#FFA74F" stroke-width="1.5"/>
<line y1="-0.75" x2="2684.53" y2="-0.75" transform="matrix(0.00725431 0.999974 -0.998056 -0.0623225 1213.97 10.7204)" stroke="#FFA74F" stroke-width="1.5"/>
<line y1="-0.75" x2="2684.53" y2="-0.75" transform="matrix(0.00725431 0.999974 -0.998056 -0.0623225 1189.06 8.60168)" stroke="#FFA74F" stroke-width="1.5"/>
<line y1="-0.75" x2="2684.53" y2="-0.75" transform="matrix(0.00725431 0.999974 -0.998056 -0.0623225 1178.68 7.71884)" stroke="#FFA74F" stroke-width="1.5"/>
<line y1="-0.75" x2="2684.53" y2="-0.75" transform="matrix(0.00725431 0.999974 -0.998056 -0.0623225 1168.3 6.83603)" stroke="#FFA74F" stroke-width="1.5"/>
<line y1="-0.75" x2="2684.53" y2="-0.75" transform="matrix(0.00725431 0.999974 -0.998056 -0.0623225 1147.55 5.07028)" stroke="#FFA74F" stroke-width="1.5"/>
<line y1="-0.75" x2="2684.53" y2="-0.75" transform="matrix(0.00725431 0.999974 -0.998056 -0.0623225 1137.17 4.18741)" stroke="#FFA74F" stroke-width="1.5"/>
<line y1="-0.75" x2="2684.53" y2="-0.75" transform="matrix(0.00725431 0.999974 -0.998056 -0.0623225 1126.79 3.30472)" stroke="#FFA74F" stroke-width="1.5"/>
<line y1="-0.75" x2="2684.53" y2="-0.75" transform="matrix(0.00725431 0.999974 -0.998056 -0.0623225 1116.41 2.42175)" stroke="#FFA74F" stroke-width="1.5"/>
<line y1="-0.75" x2="2684.53" y2="-0.75" transform="matrix(0.00725431 0.999974 -0.998056 -0.0623225 1089.42 0.126587)" stroke="#FFA74F" stroke-width="1.5"/>
<line y1="-0.75" x2="2684.53" y2="-0.75" transform="matrix(0.00725431 0.999974 -0.998056 -0.0623225 1064.51 -1.99216)" stroke="#FFA74F" stroke-width="1.5"/>
<line y1="-0.75" x2="2684.53" y2="-0.75" transform="matrix(0.00725431 0.999974 -0.998056 -0.0623225 1054.13 -2.87503)" stroke="#FFA74F" stroke-width="1.5"/>
<line y1="-0.75" x2="2684.53" y2="-0.75" transform="matrix(0.00725431 0.999974 -0.998056 -0.0623225 1043.75 -3.75778)" stroke="#FFA74F" stroke-width="1.5"/>
<line y1="-0.75" x2="2684.53" y2="-0.75" transform="matrix(0.00725431 0.999974 -0.998056 -0.0623225 1023 -5.5235)" stroke="#FFA74F" stroke-width="1.5"/>
<line y1="-0.75" x2="2684.53" y2="-0.75" transform="matrix(0.00725431 0.999974 -0.998056 -0.0623225 1012.62 -6.40634)" stroke="#FFA74F" stroke-width="1.5"/>
<line y1="-0.75" x2="2684.53" y2="-0.75" transform="matrix(0.00725431 0.999974 -0.998056 -0.0623225 1002.24 -7.289)" stroke="#FFA74F" stroke-width="1.5"/>
<line y1="-0.75" x2="2684.53" y2="-0.75" transform="matrix(0.00725431 0.999974 -0.998056 -0.0623225 991.861 -8.172)" stroke="#FFA74F" stroke-width="1.5"/>
<line y1="-0.75" x2="2684.53" y2="-0.75" transform="matrix(0.00725431 0.999974 -0.998056 -0.0623225 985.633 -8.70157)" stroke="#FFA74F" stroke-width="1.5"/>
<line y1="-0.75" x2="2684.53" y2="-0.75" transform="matrix(0.00725431 0.999974 -0.998056 -0.0623225 960.723 -10.8203)" stroke="#FFA74F" stroke-width="1.5"/>
<line y1="-0.75" x2="2684.53" y2="-0.75" transform="matrix(0.00725431 0.999974 -0.998056 -0.0623225 950.344 -11.7032)" stroke="#FFA74F" stroke-width="1.5"/>
<line y1="-0.75" x2="2684.53" y2="-0.75" transform="matrix(0.00725431 0.999974 -0.998056 -0.0623225 939.965 -12.586)" stroke="#FFA74F" stroke-width="1.5"/>
<line y1="-0.75" x2="2684.53" y2="-0.75" transform="matrix(0.00725431 0.999974 -0.998056 -0.0623225 919.207 -14.3516)" stroke="#FFA74F" stroke-width="1.5"/>
<line y1="-0.75" x2="2684.53" y2="-0.75" transform="matrix(0.00725431 0.999974 -0.998056 -0.0623225 908.827 -15.2345)" stroke="#FFA74F" stroke-width="1.5"/>
<line y1="-0.75" x2="2684.53" y2="-0.75" transform="matrix(0.00725431 0.999974 -0.998056 -0.0623225 898.448 -16.1172)" stroke="#FFA74F" stroke-width="1.5"/>
<line y1="-0.75" x2="2684.53" y2="-0.75" transform="matrix(0.00725715 0.999974 -0.998058 -0.0622982 888.069 -17)" stroke="#FFA74F" stroke-width="1.5"/>
<line y1="-0.75" x2="2684.53" y2="-0.75" transform="matrix(0.00725431 0.999974 -0.998056 -0.0623225 1493.62 -1.99216)" stroke="#FFA74F" stroke-width="1.5"/>
<line y1="-0.75" x2="2684.53" y2="-0.75" transform="matrix(0.00725431 0.999974 -0.998056 -0.0623225 1483.24 -2.87503)" stroke="#FFA74F" stroke-width="1.5"/>
<line y1="-0.75" x2="2684.53" y2="-0.75" transform="matrix(0.00725431 0.999974 -0.998056 -0.0623225 1472.86 -3.75778)" stroke="#FFA74F" stroke-width="1.5"/>
<line y1="-0.75" x2="2684.53" y2="-0.75" transform="matrix(0.00725431 0.999974 -0.998056 -0.0623225 1452.1 -5.5235)" stroke="#FFA74F" stroke-width="1.5"/>
<line y1="-0.75" x2="2684.53" y2="-0.75" transform="matrix(0.00725431 0.999974 -0.998056 -0.0623225 1441.72 -6.40634)" stroke="#FFA74F" stroke-width="1.5"/>
<line y1="-0.75" x2="2684.53" y2="-0.75" transform="matrix(0.00725431 0.999974 -0.998056 -0.0623225 1431.35 -7.289)" stroke="#FFA74F" stroke-width="1.5"/>
<line y1="-0.75" x2="2684.53" y2="-0.75" transform="matrix(0.00725431 0.999974 -0.998056 -0.0623225 1420.97 -8.172)" stroke="#FFA74F" stroke-width="1.5"/>
<line y1="-0.75" x2="2684.53" y2="-0.75" transform="matrix(0.00725431 0.999974 -0.998056 -0.0623225 1414.74 -8.70157)" stroke="#FFA74F" stroke-width="1.5"/>
<line y1="-0.75" x2="2684.53" y2="-0.75" transform="matrix(0.00725431 0.999974 -0.998056 -0.0623225 1389.83 -10.8203)" stroke="#FFA74F" stroke-width="1.5"/>
<line y1="-0.75" x2="2684.53" y2="-0.75" transform="matrix(0.00725431 0.999974 -0.998056 -0.0623225 1379.45 -11.7032)" stroke="#FFA74F" stroke-width="1.5"/>
<line y1="-0.75" x2="2684.53" y2="-0.75" transform="matrix(0.00725431 0.999974 -0.998056 -0.0623225 1369.07 -12.586)" stroke="#FFA74F" stroke-width="1.5"/>
<line y1="-0.75" x2="2684.53" y2="-0.75" transform="matrix(0.00725431 0.999974 -0.998056 -0.0623225 1348.31 -14.3516)" stroke="#FFA74F" stroke-width="1.5"/>
<line y1="-0.75" x2="2684.53" y2="-0.75" transform="matrix(0.00725431 0.999974 -0.998056 -0.0623225 1337.93 -15.2345)" stroke="#FFA74F" stroke-width="1.5"/>
<line y1="-0.75" x2="2684.53" y2="-0.75" transform="matrix(0.00725431 0.999974 -0.998056 -0.0623225 1327.55 -16.1172)" stroke="#FFA74F" stroke-width="1.5"/>
<line y1="-0.75" x2="2684.53" y2="-0.75" transform="matrix(0.00725715 0.999974 -0.998058 -0.0622982 1317.17 -17)" stroke="#FFA74F" stroke-width="1.5"/>
</svg>
