<svg width="1512" height="821" viewBox="0 0 1512 821" fill="none" xmlns="http://www.w3.org/2000/svg">
<g clip-path="url(#clip0_164_692)">
<rect width="1512" height="821" fill="#FF9933"/>
<line x1="90.4992" y1="-0.063625" x2="115.499" y2="981.936" stroke="#FFA74F" stroke-width="5"/>
<line x1="200.499" y1="-0.063625" x2="225.499" y2="981.936" stroke="#FFA74F" stroke-width="5"/>
<line x1="371.5" y1="0.0407278" x2="355.5" y2="982.041" stroke="#FFA74F" stroke-width="5"/>
<line x1="511.5" y1="0.0407278" x2="495.5" y2="982.041" stroke="#FFA74F" stroke-width="5"/>
<line x1="654.5" y1="0.00509164" x2="652.5" y2="982.005" stroke="#FFA74F" stroke-width="5"/>
<line x1="821.499" y1="0.0737967" x2="792.499" y2="982.074" stroke="#FFA74F" stroke-width="5"/>
<line x1="905.499" y1="-0.0687113" x2="932.499" y2="981.931" stroke="#FFA74F" stroke-width="5"/>
<line x1="1035.5" y1="0.0839648" x2="1002.5" y2="982.084" stroke="#FFA74F" stroke-width="5"/>
<line x1="1153.5" y1="-0.0737968" x2="1182.5" y2="981.926" stroke="#FFA74F" stroke-width="5"/>
<line x1="1313.5" y1="-0.0737968" x2="1342.5" y2="981.926" stroke="#FFA74F" stroke-width="5"/>
<line x1="1474.5" y1="0.0814232" x2="1442.5" y2="982.081" stroke="#FFA74F" stroke-width="5"/>
<line x1="-0.0330659" y1="760.5" x2="1511.97" y2="740.5" stroke="#FFA74F" stroke-width="5"/>
<line x1="-0.0330659" y1="680.5" x2="1511.97" y2="660.5" stroke="#FFA74F" stroke-width="5"/>
<line x1="-0.0330659" y1="570.5" x2="1511.97" y2="550.5" stroke="#FFA74F" stroke-width="5"/>
<line x1="-0.0330659" y1="440.5" x2="1511.97" y2="420.5" stroke="#FFA74F" stroke-width="5"/>
<line x1="-0.0330659" y1="330.5" x2="1511.97" y2="310.5" stroke="#FFA74F" stroke-width="5"/>
<line x1="-0.0330659" y1="220.5" x2="1511.97" y2="200.5" stroke="#FFA74F" stroke-width="5"/>
<line x1="-0.0330659" y1="140.5" x2="1511.97" y2="120.5" stroke="#FFA74F" stroke-width="5"/>
<line x1="-0.0330659" y1="30.5002" x2="1511.97" y2="10.5002" stroke="#FFA74F" stroke-width="5"/>
<line x1="-0.0330659" y1="72.5002" x2="1511.97" y2="52.5002" stroke="#FFA74F" stroke-width="5"/>
<line x1="-0.00991977" y1="23.2501" x2="1511.99" y2="3.25007" stroke="#FFA74F" stroke-width="1.5"/>
<line x1="-0.00991977" y1="17.2501" x2="1511.99" y2="-2.74993" stroke="#FFA74F" stroke-width="1.5"/>
<line x1="-0.00991977" y1="41.2501" x2="1511.99" y2="21.2501" stroke="#FFA74F" stroke-width="1.5"/>
<line x1="-0.00991977" y1="51.2501" x2="1511.99" y2="31.2501" stroke="#FFA74F" stroke-width="1.5"/>
<line x1="-0.00991977" y1="61.2501" x2="1511.99" y2="41.2501" stroke="#FFA74F" stroke-width="1.5"/>
<line x1="-0.00991977" y1="81.2501" x2="1511.99" y2="61.2501" stroke="#FFA74F" stroke-width="1.5"/>
<line x1="-0.00991977" y1="91.2501" x2="1511.99" y2="71.2501" stroke="#FFA74F" stroke-width="1.5"/>
<line x1="-0.00991977" y1="101.25" x2="1511.99" y2="81.2501" stroke="#FFA74F" stroke-width="1.5"/>
<line x1="-0.00991977" y1="111.25" x2="1511.99" y2="91.2501" stroke="#FFA74F" stroke-width="1.5"/>
<line x1="-0.00991977" y1="117.25" x2="1511.99" y2="97.2501" stroke="#FFA74F" stroke-width="1.5"/>
<line x1="-0.00991977" y1="141.25" x2="1511.99" y2="121.25" stroke="#FFA74F" stroke-width="1.5"/>
<line x1="-0.00991977" y1="151.25" x2="1511.99" y2="131.25" stroke="#FFA74F" stroke-width="1.5"/>
<line x1="-0.00991977" y1="161.25" x2="1511.99" y2="141.25" stroke="#FFA74F" stroke-width="1.5"/>
<line x1="-0.00991977" y1="181.25" x2="1511.99" y2="161.25" stroke="#FFA74F" stroke-width="1.5"/>
<line x1="-0.00991977" y1="191.25" x2="1511.99" y2="171.25" stroke="#FFA74F" stroke-width="1.5"/>
<line x1="-0.00991977" y1="201.25" x2="1511.99" y2="181.25" stroke="#FFA74F" stroke-width="1.5"/>
<line x1="-0.00991977" y1="211.25" x2="1511.99" y2="191.25" stroke="#FFA74F" stroke-width="1.5"/>
<line x1="-0.00991977" y1="237.25" x2="1511.99" y2="217.25" stroke="#FFA74F" stroke-width="1.5"/>
<line x1="-0.00991977" y1="261.25" x2="1511.99" y2="241.25" stroke="#FFA74F" stroke-width="1.5"/>
<line x1="-0.00991977" y1="271.25" x2="1511.99" y2="251.25" stroke="#FFA74F" stroke-width="1.5"/>
<line x1="-0.00991977" y1="281.25" x2="1511.99" y2="261.25" stroke="#FFA74F" stroke-width="1.5"/>
<line x1="-0.00991977" y1="301.25" x2="1511.99" y2="281.25" stroke="#FFA74F" stroke-width="1.5"/>
<line x1="-0.00991977" y1="311.25" x2="1511.99" y2="291.25" stroke="#FFA74F" stroke-width="1.5"/>
<line x1="-0.00991977" y1="321.25" x2="1511.99" y2="301.25" stroke="#FFA74F" stroke-width="1.5"/>
<line x1="-0.00991977" y1="331.25" x2="1511.99" y2="311.25" stroke="#FFA74F" stroke-width="1.5"/>
<line x1="-0.00991977" y1="337.25" x2="1511.99" y2="317.25" stroke="#FFA74F" stroke-width="1.5"/>
<line x1="-0.00991977" y1="361.25" x2="1511.99" y2="341.25" stroke="#FFA74F" stroke-width="1.5"/>
<line x1="-0.00991977" y1="371.25" x2="1511.99" y2="351.25" stroke="#FFA74F" stroke-width="1.5"/>
<line x1="-0.00991977" y1="381.25" x2="1511.99" y2="361.25" stroke="#FFA74F" stroke-width="1.5"/>
<line x1="-0.00991977" y1="401.25" x2="1511.99" y2="381.25" stroke="#FFA74F" stroke-width="1.5"/>
<line x1="-0.00991977" y1="411.25" x2="1511.99" y2="391.25" stroke="#FFA74F" stroke-width="1.5"/>
<line x1="-0.00991977" y1="421.25" x2="1511.99" y2="401.25" stroke="#FFA74F" stroke-width="1.5"/>
<line x1="-0.00991977" y1="431.25" x2="1511.99" y2="411.25" stroke="#FFA74F" stroke-width="1.5"/>
<line x1="-0.00991977" y1="397.25" x2="1511.99" y2="377.25" stroke="#FFA74F" stroke-width="1.5"/>
<line x1="-0.00991977" y1="421.25" x2="1511.99" y2="401.25" stroke="#FFA74F" stroke-width="1.5"/>
<line x1="-0.00991977" y1="431.25" x2="1511.99" y2="411.25" stroke="#FFA74F" stroke-width="1.5"/>
<line x1="-0.00991977" y1="441.25" x2="1511.99" y2="421.25" stroke="#FFA74F" stroke-width="1.5"/>
<line x1="-0.00991977" y1="461.25" x2="1511.99" y2="441.25" stroke="#FFA74F" stroke-width="1.5"/>
<line x1="-0.00991977" y1="471.25" x2="1511.99" y2="451.25" stroke="#FFA74F" stroke-width="1.5"/>
<line x1="-0.00991977" y1="481.25" x2="1511.99" y2="461.25" stroke="#FFA74F" stroke-width="1.5"/>
<line x1="-0.00991977" y1="491.25" x2="1511.99" y2="471.25" stroke="#FFA74F" stroke-width="1.5"/>
<line x1="-0.00991977" y1="497.25" x2="1511.99" y2="477.25" stroke="#FFA74F" stroke-width="1.5"/>
<line x1="-0.00991977" y1="521.25" x2="1511.99" y2="501.25" stroke="#FFA74F" stroke-width="1.5"/>
<line x1="-0.00991977" y1="531.25" x2="1511.99" y2="511.25" stroke="#FFA74F" stroke-width="1.5"/>
<line x1="-0.00991977" y1="541.25" x2="1511.99" y2="521.25" stroke="#FFA74F" stroke-width="1.5"/>
<line x1="-0.00991977" y1="561.25" x2="1511.99" y2="541.25" stroke="#FFA74F" stroke-width="1.5"/>
<line x1="-0.00991977" y1="571.25" x2="1511.99" y2="551.25" stroke="#FFA74F" stroke-width="1.5"/>
<line x1="-0.00991977" y1="581.25" x2="1511.99" y2="561.25" stroke="#FFA74F" stroke-width="1.5"/>
<line x1="-0.00991977" y1="591.25" x2="1511.99" y2="571.25" stroke="#FFA74F" stroke-width="1.5"/>
<line x1="-0.00991977" y1="617.25" x2="1511.99" y2="597.25" stroke="#FFA74F" stroke-width="1.5"/>
<line x1="-0.00991977" y1="641.25" x2="1511.99" y2="621.25" stroke="#FFA74F" stroke-width="1.5"/>
<line x1="-0.00991977" y1="651.25" x2="1511.99" y2="631.25" stroke="#FFA74F" stroke-width="1.5"/>
<line x1="-0.00991977" y1="661.25" x2="1511.99" y2="641.25" stroke="#FFA74F" stroke-width="1.5"/>
<line x1="-0.00991977" y1="681.25" x2="1511.99" y2="661.25" stroke="#FFA74F" stroke-width="1.5"/>
<line x1="-0.00991977" y1="691.25" x2="1511.99" y2="671.25" stroke="#FFA74F" stroke-width="1.5"/>
<line x1="-0.00991977" y1="701.25" x2="1511.99" y2="681.25" stroke="#FFA74F" stroke-width="1.5"/>
<line x1="-0.00991977" y1="711.25" x2="1511.99" y2="691.25" stroke="#FFA74F" stroke-width="1.5"/>
<line x1="-0.00991977" y1="717.25" x2="1511.99" y2="697.25" stroke="#FFA74F" stroke-width="1.5"/>
<line x1="-0.00991977" y1="741.25" x2="1511.99" y2="721.25" stroke="#FFA74F" stroke-width="1.5"/>
<line x1="-0.00991977" y1="751.25" x2="1511.99" y2="731.25" stroke="#FFA74F" stroke-width="1.5"/>
<line x1="-0.00991977" y1="761.25" x2="1511.99" y2="741.25" stroke="#FFA74F" stroke-width="1.5"/>
<line x1="-0.00991977" y1="781.25" x2="1511.99" y2="761.25" stroke="#FFA74F" stroke-width="1.5"/>
<line x1="-0.00991977" y1="791.25" x2="1511.99" y2="771.25" stroke="#FFA74F" stroke-width="1.5"/>
<line x1="-0.00991977" y1="801.25" x2="1511.99" y2="781.25" stroke="#FFA74F" stroke-width="1.5"/>
<line x1="-0.00991977" y1="811.25" x2="1511.99" y2="791.25" stroke="#FFA74F" stroke-width="1.5"/>
<line y1="-0.75" x2="841.93" y2="-0.75" transform="matrix(0.0226397 0.999744 -0.9998 -0.0199999 422.505 -6.01608)" stroke="#FFA74F" stroke-width="1.5"/>
<line y1="-0.75" x2="841.93" y2="-0.75" transform="matrix(0.0226397 0.999744 -0.9998 -0.0199999 412.346 -6.29291)" stroke="#FFA74F" stroke-width="1.5"/>
<line y1="-0.75" x2="841.93" y2="-0.75" transform="matrix(0.0226397 0.999744 -0.9998 -0.0199999 402.188 -6.5697)" stroke="#FFA74F" stroke-width="1.5"/>
<line y1="-0.75" x2="841.93" y2="-0.75" transform="matrix(0.0227126 0.999742 -0.9998 -0.0200218 436.728 -5.62854)" stroke="#FFA74F" stroke-width="1.5"/>
<line y1="-0.75" x2="841.93" y2="-0.75" transform="matrix(0.0226397 0.999744 -0.9998 -0.0199999 412.346 -6.29291)" stroke="#FFA74F" stroke-width="1.5"/>
<line y1="-0.75" x2="841.93" y2="-0.75" transform="matrix(0.0226397 0.999744 -0.9998 -0.0199999 402.188 -6.5697)" stroke="#FFA74F" stroke-width="1.5"/>
<line y1="-0.75" x2="841.93" y2="-0.75" transform="matrix(0.0226397 0.999744 -0.9998 -0.0199999 392.028 -6.8465)" stroke="#FFA74F" stroke-width="1.5"/>
<line y1="-0.75" x2="841.93" y2="-0.75" transform="matrix(0.0226397 0.999744 -0.9998 -0.0199999 371.711 -7.40015)" stroke="#FFA74F" stroke-width="1.5"/>
<line y1="-0.75" x2="841.93" y2="-0.75" transform="matrix(0.0226397 0.999744 -0.9998 -0.0199999 361.552 -7.67694)" stroke="#FFA74F" stroke-width="1.5"/>
<line y1="-0.75" x2="841.93" y2="-0.75" transform="matrix(0.0226397 0.999744 -0.9998 -0.0199999 351.393 -7.9537)" stroke="#FFA74F" stroke-width="1.5"/>
<line y1="-0.75" x2="841.93" y2="-0.75" transform="matrix(0.0226397 0.999744 -0.9998 -0.0199999 341.234 -8.23056)" stroke="#FFA74F" stroke-width="1.5"/>
<line y1="-0.75" x2="841.93" y2="-0.75" transform="matrix(0.0226397 0.999744 -0.9998 -0.0199999 335.139 -8.39661)" stroke="#FFA74F" stroke-width="1.5"/>
<line y1="-0.75" x2="841.93" y2="-0.75" transform="matrix(0.0226397 0.999744 -0.9998 -0.0199999 310.757 -9.06094)" stroke="#FFA74F" stroke-width="1.5"/>
<line y1="-0.75" x2="841.93" y2="-0.75" transform="matrix(0.0226397 0.999744 -0.9998 -0.0199999 300.599 -9.33777)" stroke="#FFA74F" stroke-width="1.5"/>
<line y1="-0.75" x2="841.93" y2="-0.75" transform="matrix(0.0226397 0.999744 -0.9998 -0.0199999 290.439 -9.61456)" stroke="#FFA74F" stroke-width="1.5"/>
<line y1="-0.75" x2="841.93" y2="-0.75" transform="matrix(0.0226397 0.999744 -0.9998 -0.0199999 270.122 -10.1682)" stroke="#FFA74F" stroke-width="1.5"/>
<line y1="-0.75" x2="841.93" y2="-0.75" transform="matrix(0.0226397 0.999744 -0.9998 -0.0199999 259.963 -10.445)" stroke="#FFA74F" stroke-width="1.5"/>
<line y1="-0.75" x2="841.93" y2="-0.75" transform="matrix(0.0226397 0.999744 -0.9998 -0.0199999 249.804 -10.7218)" stroke="#FFA74F" stroke-width="1.5"/>
<line y1="-0.75" x2="841.93" y2="-0.75" transform="matrix(0.0226397 0.999744 -0.9998 -0.0199999 239.646 -10.9987)" stroke="#FFA74F" stroke-width="1.5"/>
<line y1="-0.75" x2="841.93" y2="-0.75" transform="matrix(0.0226397 0.999744 -0.9998 -0.0199999 213.232 -11.7183)" stroke="#FFA74F" stroke-width="1.5"/>
<line y1="-0.75" x2="841.93" y2="-0.75" transform="matrix(0.0226397 0.999744 -0.9998 -0.0199999 188.851 -12.3827)" stroke="#FFA74F" stroke-width="1.5"/>
<line y1="-0.75" x2="841.93" y2="-0.75" transform="matrix(0.0226397 0.999744 -0.9998 -0.0199999 178.692 -12.6595)" stroke="#FFA74F" stroke-width="1.5"/>
<line y1="-0.75" x2="841.93" y2="-0.75" transform="matrix(0.0226397 0.999744 -0.9998 -0.0199999 168.533 -12.9363)" stroke="#FFA74F" stroke-width="1.5"/>
<line y1="-0.75" x2="841.93" y2="-0.75" transform="matrix(0.0226397 0.999744 -0.9998 -0.0199999 148.215 -13.4899)" stroke="#FFA74F" stroke-width="1.5"/>
<line y1="-0.75" x2="841.93" y2="-0.75" transform="matrix(0.0226397 0.999744 -0.9998 -0.0199999 138.057 -13.7667)" stroke="#FFA74F" stroke-width="1.5"/>
<line y1="-0.75" x2="841.93" y2="-0.75" transform="matrix(0.0226397 0.999744 -0.9998 -0.0199999 127.898 -14.0435)" stroke="#FFA74F" stroke-width="1.5"/>
<line y1="-0.75" x2="841.93" y2="-0.75" transform="matrix(0.0226397 0.999744 -0.9998 -0.0199999 117.739 -14.3203)" stroke="#FFA74F" stroke-width="1.5"/>
<line y1="-0.75" x2="841.93" y2="-0.75" transform="matrix(0.0226397 0.999744 -0.9998 -0.0199999 111.644 -14.4864)" stroke="#FFA74F" stroke-width="1.5"/>
<line y1="-0.75" x2="841.93" y2="-0.75" transform="matrix(0.0226397 0.999744 -0.9998 -0.0199999 87.2622 -15.1507)" stroke="#FFA74F" stroke-width="1.5"/>
<line y1="-0.75" x2="841.93" y2="-0.75" transform="matrix(0.0226397 0.999744 -0.9998 -0.0199999 77.1035 -15.4276)" stroke="#FFA74F" stroke-width="1.5"/>
<line y1="-0.75" x2="841.93" y2="-0.75" transform="matrix(0.0226397 0.999744 -0.9998 -0.0199999 66.9443 -15.7043)" stroke="#FFA74F" stroke-width="1.5"/>
<line y1="-0.75" x2="841.93" y2="-0.75" transform="matrix(0.0226397 0.999744 -0.9998 -0.0199999 46.627 -16.258)" stroke="#FFA74F" stroke-width="1.5"/>
<line y1="-0.75" x2="841.93" y2="-0.75" transform="matrix(0.0226397 0.999744 -0.9998 -0.0199999 36.4678 -16.5348)" stroke="#FFA74F" stroke-width="1.5"/>
<line y1="-0.75" x2="841.93" y2="-0.75" transform="matrix(0.0226397 0.999744 -0.9998 -0.0199999 26.3091 -16.8116)" stroke="#FFA74F" stroke-width="1.5"/>
<line y1="-0.75" x2="841.93" y2="-0.75" transform="matrix(0.0226397 0.999744 -0.9998 -0.0199999 16.1504 -17.0884)" stroke="#FFA74F" stroke-width="1.5"/>
<line y1="-0.75" x2="841.93" y2="-0.75" transform="matrix(0.0226397 0.999744 -0.9998 -0.0199999 842.346 -6.29291)" stroke="#FFA74F" stroke-width="1.5"/>
<line y1="-0.75" x2="841.93" y2="-0.75" transform="matrix(0.0226397 0.999744 -0.9998 -0.0199999 832.188 -6.5697)" stroke="#FFA74F" stroke-width="1.5"/>
<line y1="-0.75" x2="841.93" y2="-0.75" transform="matrix(0.0227126 0.999742 -0.9998 -0.0200218 866.728 -5.62854)" stroke="#FFA74F" stroke-width="1.5"/>
<line y1="-0.75" x2="841.93" y2="-0.75" transform="matrix(0.0226397 0.999744 -0.9998 -0.0199999 842.346 -6.29291)" stroke="#FFA74F" stroke-width="1.5"/>
<line y1="-0.75" x2="841.93" y2="-0.75" transform="matrix(0.0226397 0.999744 -0.9998 -0.0199999 832.188 -6.5697)" stroke="#FFA74F" stroke-width="1.5"/>
<line y1="-0.75" x2="841.93" y2="-0.75" transform="matrix(0.0226397 0.999744 -0.9998 -0.0199999 822.028 -6.8465)" stroke="#FFA74F" stroke-width="1.5"/>
<line y1="-0.75" x2="841.93" y2="-0.75" transform="matrix(0.0226397 0.999744 -0.9998 -0.0199999 801.711 -7.40015)" stroke="#FFA74F" stroke-width="1.5"/>
<line y1="-0.75" x2="841.93" y2="-0.75" transform="matrix(0.0226397 0.999744 -0.9998 -0.0199999 791.552 -7.67694)" stroke="#FFA74F" stroke-width="1.5"/>
<line y1="-0.75" x2="841.93" y2="-0.75" transform="matrix(0.0226397 0.999744 -0.9998 -0.0199999 781.393 -7.9537)" stroke="#FFA74F" stroke-width="1.5"/>
<line y1="-0.75" x2="841.93" y2="-0.75" transform="matrix(0.0226397 0.999744 -0.9998 -0.0199999 771.234 -8.23056)" stroke="#FFA74F" stroke-width="1.5"/>
<line y1="-0.75" x2="841.93" y2="-0.75" transform="matrix(0.0226397 0.999744 -0.9998 -0.0199999 765.139 -8.39661)" stroke="#FFA74F" stroke-width="1.5"/>
<line y1="-0.75" x2="841.93" y2="-0.75" transform="matrix(0.0226397 0.999744 -0.9998 -0.0199999 740.758 -9.06094)" stroke="#FFA74F" stroke-width="1.5"/>
<line y1="-0.75" x2="841.93" y2="-0.75" transform="matrix(0.0226397 0.999744 -0.9998 -0.0199999 730.599 -9.33777)" stroke="#FFA74F" stroke-width="1.5"/>
<line y1="-0.75" x2="841.93" y2="-0.75" transform="matrix(0.0226397 0.999744 -0.9998 -0.0199999 720.439 -9.61456)" stroke="#FFA74F" stroke-width="1.5"/>
<line y1="-0.75" x2="841.93" y2="-0.75" transform="matrix(0.0226397 0.999744 -0.9998 -0.0199999 700.122 -10.1682)" stroke="#FFA74F" stroke-width="1.5"/>
<line y1="-0.75" x2="841.93" y2="-0.75" transform="matrix(0.0226397 0.999744 -0.9998 -0.0199999 689.963 -10.445)" stroke="#FFA74F" stroke-width="1.5"/>
<line y1="-0.75" x2="841.93" y2="-0.75" transform="matrix(0.0226397 0.999744 -0.9998 -0.0199999 679.804 -10.7218)" stroke="#FFA74F" stroke-width="1.5"/>
<line y1="-0.75" x2="841.93" y2="-0.75" transform="matrix(0.0226397 0.999744 -0.9998 -0.0199999 669.646 -10.9987)" stroke="#FFA74F" stroke-width="1.5"/>
<line y1="-0.75" x2="841.93" y2="-0.75" transform="matrix(0.0226397 0.999744 -0.9998 -0.0199999 643.232 -11.7183)" stroke="#FFA74F" stroke-width="1.5"/>
<line y1="-0.75" x2="841.93" y2="-0.75" transform="matrix(0.0226397 0.999744 -0.9998 -0.0199999 618.851 -12.3827)" stroke="#FFA74F" stroke-width="1.5"/>
<line y1="-0.75" x2="841.93" y2="-0.75" transform="matrix(0.0226397 0.999744 -0.9998 -0.0199999 608.692 -12.6595)" stroke="#FFA74F" stroke-width="1.5"/>
<line y1="-0.75" x2="841.93" y2="-0.75" transform="matrix(0.0226397 0.999744 -0.9998 -0.0199999 598.533 -12.9363)" stroke="#FFA74F" stroke-width="1.5"/>
<line y1="-0.75" x2="841.93" y2="-0.75" transform="matrix(0.0226397 0.999744 -0.9998 -0.0199999 578.215 -13.4899)" stroke="#FFA74F" stroke-width="1.5"/>
<line y1="-0.75" x2="841.93" y2="-0.75" transform="matrix(0.0226397 0.999744 -0.9998 -0.0199999 568.057 -13.7667)" stroke="#FFA74F" stroke-width="1.5"/>
<line y1="-0.75" x2="841.93" y2="-0.75" transform="matrix(0.0226397 0.999744 -0.9998 -0.0199999 557.898 -14.0435)" stroke="#FFA74F" stroke-width="1.5"/>
<line y1="-0.75" x2="841.93" y2="-0.75" transform="matrix(0.0226397 0.999744 -0.9998 -0.0199999 547.739 -14.3203)" stroke="#FFA74F" stroke-width="1.5"/>
<line y1="-0.75" x2="841.93" y2="-0.75" transform="matrix(0.0226397 0.999744 -0.9998 -0.0199999 541.644 -14.4864)" stroke="#FFA74F" stroke-width="1.5"/>
<line y1="-0.75" x2="841.93" y2="-0.75" transform="matrix(0.0226397 0.999744 -0.9998 -0.0199999 517.262 -15.1507)" stroke="#FFA74F" stroke-width="1.5"/>
<line y1="-0.75" x2="841.93" y2="-0.75" transform="matrix(0.0226397 0.999744 -0.9998 -0.0199999 507.104 -15.4276)" stroke="#FFA74F" stroke-width="1.5"/>
<line y1="-0.75" x2="841.93" y2="-0.75" transform="matrix(0.0226397 0.999744 -0.9998 -0.0199999 496.944 -15.7043)" stroke="#FFA74F" stroke-width="1.5"/>
<line y1="-0.75" x2="841.93" y2="-0.75" transform="matrix(0.0226397 0.999744 -0.9998 -0.0199999 476.627 -16.258)" stroke="#FFA74F" stroke-width="1.5"/>
<line y1="-0.75" x2="841.93" y2="-0.75" transform="matrix(0.0226397 0.999744 -0.9998 -0.0199999 466.468 -16.5348)" stroke="#FFA74F" stroke-width="1.5"/>
<line y1="-0.75" x2="841.93" y2="-0.75" transform="matrix(0.0226397 0.999744 -0.9998 -0.0199999 456.309 -16.8116)" stroke="#FFA74F" stroke-width="1.5"/>
<line y1="-0.75" x2="841.93" y2="-0.75" transform="matrix(0.0226397 0.999744 -0.9998 -0.0199999 446.15 -17.0884)" stroke="#FFA74F" stroke-width="1.5"/>
<line y1="-0.75" x2="841.93" y2="-0.75" transform="matrix(0.0226397 0.999744 -0.9998 -0.0199999 1282.35 -6.29291)" stroke="#FFA74F" stroke-width="1.5"/>
<line y1="-0.75" x2="841.93" y2="-0.75" transform="matrix(0.0226397 0.999744 -0.9998 -0.0199999 1272.19 -6.5697)" stroke="#FFA74F" stroke-width="1.5"/>
<line y1="-0.75" x2="841.93" y2="-0.75" transform="matrix(0.0227126 0.999742 -0.9998 -0.0200218 1306.73 -5.62854)" stroke="#FFA74F" stroke-width="1.5"/>
<line y1="-0.75" x2="841.93" y2="-0.75" transform="matrix(0.0226397 0.999744 -0.9998 -0.0199999 1282.35 -6.29291)" stroke="#FFA74F" stroke-width="1.5"/>
<line y1="-0.75" x2="841.93" y2="-0.75" transform="matrix(0.0226397 0.999744 -0.9998 -0.0199999 1272.19 -6.5697)" stroke="#FFA74F" stroke-width="1.5"/>
<line y1="-0.75" x2="841.93" y2="-0.75" transform="matrix(0.0226397 0.999744 -0.9998 -0.0199999 1262.03 -6.8465)" stroke="#FFA74F" stroke-width="1.5"/>
<line y1="-0.75" x2="841.93" y2="-0.75" transform="matrix(0.0226397 0.999744 -0.9998 -0.0199999 1241.71 -7.40015)" stroke="#FFA74F" stroke-width="1.5"/>
<line y1="-0.75" x2="841.93" y2="-0.75" transform="matrix(0.0226397 0.999744 -0.9998 -0.0199999 1231.55 -7.67694)" stroke="#FFA74F" stroke-width="1.5"/>
<line y1="-0.75" x2="841.93" y2="-0.75" transform="matrix(0.0226397 0.999744 -0.9998 -0.0199999 1221.39 -7.9537)" stroke="#FFA74F" stroke-width="1.5"/>
<line y1="-0.75" x2="841.93" y2="-0.75" transform="matrix(0.0226397 0.999744 -0.9998 -0.0199999 1211.23 -8.23056)" stroke="#FFA74F" stroke-width="1.5"/>
<line y1="-0.75" x2="841.93" y2="-0.75" transform="matrix(0.0226397 0.999744 -0.9998 -0.0199999 1205.14 -8.39661)" stroke="#FFA74F" stroke-width="1.5"/>
<line y1="-0.75" x2="841.93" y2="-0.75" transform="matrix(0.0226397 0.999744 -0.9998 -0.0199999 1180.76 -9.06094)" stroke="#FFA74F" stroke-width="1.5"/>
<line y1="-0.75" x2="841.93" y2="-0.75" transform="matrix(0.0226397 0.999744 -0.9998 -0.0199999 1170.6 -9.33777)" stroke="#FFA74F" stroke-width="1.5"/>
<line y1="-0.75" x2="841.93" y2="-0.75" transform="matrix(0.0226397 0.999744 -0.9998 -0.0199999 1160.44 -9.61456)" stroke="#FFA74F" stroke-width="1.5"/>
<line y1="-0.75" x2="841.93" y2="-0.75" transform="matrix(0.0226397 0.999744 -0.9998 -0.0199999 1140.12 -10.1682)" stroke="#FFA74F" stroke-width="1.5"/>
<line y1="-0.75" x2="841.93" y2="-0.75" transform="matrix(0.0226397 0.999744 -0.9998 -0.0199999 1129.96 -10.445)" stroke="#FFA74F" stroke-width="1.5"/>
<line y1="-0.75" x2="841.93" y2="-0.75" transform="matrix(0.0226397 0.999744 -0.9998 -0.0199999 1119.8 -10.7218)" stroke="#FFA74F" stroke-width="1.5"/>
<line y1="-0.75" x2="841.93" y2="-0.75" transform="matrix(0.0226397 0.999744 -0.9998 -0.0199999 1109.65 -10.9987)" stroke="#FFA74F" stroke-width="1.5"/>
<line y1="-0.75" x2="841.93" y2="-0.75" transform="matrix(0.0226397 0.999744 -0.9998 -0.0199999 1083.23 -11.7183)" stroke="#FFA74F" stroke-width="1.5"/>
<line y1="-0.75" x2="841.93" y2="-0.75" transform="matrix(0.0226397 0.999744 -0.9998 -0.0199999 1058.85 -12.3827)" stroke="#FFA74F" stroke-width="1.5"/>
<line y1="-0.75" x2="841.93" y2="-0.75" transform="matrix(0.0226397 0.999744 -0.9998 -0.0199999 1048.69 -12.6595)" stroke="#FFA74F" stroke-width="1.5"/>
<line y1="-0.75" x2="841.93" y2="-0.75" transform="matrix(0.0226397 0.999744 -0.9998 -0.0199999 1038.53 -12.9363)" stroke="#FFA74F" stroke-width="1.5"/>
<line y1="-0.75" x2="841.93" y2="-0.75" transform="matrix(0.0226397 0.999744 -0.9998 -0.0199999 1018.22 -13.4899)" stroke="#FFA74F" stroke-width="1.5"/>
<line y1="-0.75" x2="841.93" y2="-0.75" transform="matrix(0.0226397 0.999744 -0.9998 -0.0199999 1008.06 -13.7667)" stroke="#FFA74F" stroke-width="1.5"/>
<line y1="-0.75" x2="841.93" y2="-0.75" transform="matrix(0.0226397 0.999744 -0.9998 -0.0199999 997.898 -14.0435)" stroke="#FFA74F" stroke-width="1.5"/>
<line y1="-0.75" x2="841.93" y2="-0.75" transform="matrix(0.0226397 0.999744 -0.9998 -0.0199999 987.739 -14.3203)" stroke="#FFA74F" stroke-width="1.5"/>
<line y1="-0.75" x2="841.93" y2="-0.75" transform="matrix(0.0226397 0.999744 -0.9998 -0.0199999 981.644 -14.4864)" stroke="#FFA74F" stroke-width="1.5"/>
<line y1="-0.75" x2="841.93" y2="-0.75" transform="matrix(0.0226397 0.999744 -0.9998 -0.0199999 957.262 -15.1507)" stroke="#FFA74F" stroke-width="1.5"/>
<line y1="-0.75" x2="841.93" y2="-0.75" transform="matrix(0.0226397 0.999744 -0.9998 -0.0199999 947.104 -15.4276)" stroke="#FFA74F" stroke-width="1.5"/>
<line y1="-0.75" x2="841.93" y2="-0.75" transform="matrix(0.0226397 0.999744 -0.9998 -0.0199999 936.944 -15.7043)" stroke="#FFA74F" stroke-width="1.5"/>
<line y1="-0.75" x2="841.93" y2="-0.75" transform="matrix(0.0226397 0.999744 -0.9998 -0.0199999 916.627 -16.258)" stroke="#FFA74F" stroke-width="1.5"/>
<line y1="-0.75" x2="841.93" y2="-0.75" transform="matrix(0.0226397 0.999744 -0.9998 -0.0199999 906.468 -16.5348)" stroke="#FFA74F" stroke-width="1.5"/>
<line y1="-0.75" x2="841.93" y2="-0.75" transform="matrix(0.0226397 0.999744 -0.9998 -0.0199999 896.309 -16.8116)" stroke="#FFA74F" stroke-width="1.5"/>
<line y1="-0.75" x2="841.93" y2="-0.75" transform="matrix(0.0226397 0.999744 -0.9998 -0.0199999 886.15 -17.0884)" stroke="#FFA74F" stroke-width="1.5"/>
<line y1="-0.75" x2="841.93" y2="-0.75" transform="matrix(0.0226397 0.999744 -0.9998 -0.0199999 1503.23 -11.7183)" stroke="#FFA74F" stroke-width="1.5"/>
<line y1="-0.75" x2="841.93" y2="-0.75" transform="matrix(0.0226397 0.999744 -0.9998 -0.0199999 1478.85 -12.3827)" stroke="#FFA74F" stroke-width="1.5"/>
<line y1="-0.75" x2="841.93" y2="-0.75" transform="matrix(0.0226397 0.999744 -0.9998 -0.0199999 1468.69 -12.6595)" stroke="#FFA74F" stroke-width="1.5"/>
<line y1="-0.75" x2="841.93" y2="-0.75" transform="matrix(0.0226397 0.999744 -0.9998 -0.0199999 1458.53 -12.9363)" stroke="#FFA74F" stroke-width="1.5"/>
<line y1="-0.75" x2="841.93" y2="-0.75" transform="matrix(0.0226397 0.999744 -0.9998 -0.0199999 1438.22 -13.4899)" stroke="#FFA74F" stroke-width="1.5"/>
<line y1="-0.75" x2="841.93" y2="-0.75" transform="matrix(0.0226397 0.999744 -0.9998 -0.0199999 1428.06 -13.7667)" stroke="#FFA74F" stroke-width="1.5"/>
<line y1="-0.75" x2="841.93" y2="-0.75" transform="matrix(0.0226397 0.999744 -0.9998 -0.0199999 1417.9 -14.0435)" stroke="#FFA74F" stroke-width="1.5"/>
<line y1="-0.75" x2="841.93" y2="-0.75" transform="matrix(0.0226397 0.999744 -0.9998 -0.0199999 1407.74 -14.3203)" stroke="#FFA74F" stroke-width="1.5"/>
<line y1="-0.75" x2="841.93" y2="-0.75" transform="matrix(0.0226397 0.999744 -0.9998 -0.0199999 1401.64 -14.4864)" stroke="#FFA74F" stroke-width="1.5"/>
<line y1="-0.75" x2="841.93" y2="-0.75" transform="matrix(0.0226397 0.999744 -0.9998 -0.0199999 1377.26 -15.1507)" stroke="#FFA74F" stroke-width="1.5"/>
<line y1="-0.75" x2="841.93" y2="-0.75" transform="matrix(0.0226397 0.999744 -0.9998 -0.0199999 1367.1 -15.4276)" stroke="#FFA74F" stroke-width="1.5"/>
<line y1="-0.75" x2="841.93" y2="-0.75" transform="matrix(0.0226397 0.999744 -0.9998 -0.0199999 1356.94 -15.7043)" stroke="#FFA74F" stroke-width="1.5"/>
<line y1="-0.75" x2="841.93" y2="-0.75" transform="matrix(0.0226397 0.999744 -0.9998 -0.0199999 1336.63 -16.258)" stroke="#FFA74F" stroke-width="1.5"/>
<line y1="-0.75" x2="841.93" y2="-0.75" transform="matrix(0.0226397 0.999744 -0.9998 -0.0199999 1326.47 -16.5348)" stroke="#FFA74F" stroke-width="1.5"/>
<line y1="-0.75" x2="841.93" y2="-0.75" transform="matrix(0.0226397 0.999744 -0.9998 -0.0199999 1316.31 -16.8116)" stroke="#FFA74F" stroke-width="1.5"/>
<line y1="-0.75" x2="841.93" y2="-0.75" transform="matrix(0.0226397 0.999744 -0.9998 -0.0199999 1306.15 -17.0884)" stroke="#FFA74F" stroke-width="1.5"/>
</g>
<defs>
<clipPath id="clip0_164_692">
<rect width="1512" height="821" fill="white"/>
</clipPath>
</defs>
</svg>
