<svg width="24" height="25" viewBox="0 0 24 25" fill="none" xmlns="http://www.w3.org/2000/svg">
<g clip-path="url(#clip0_372_2035)">
<path d="M23.6718 12.9804V18.0194C23.6624 20.4569 22.5281 22.2616 20.5031 23.5366C19.3124 24.2772 17.9999 24.6054 16.6031 24.6054C13.5468 24.6054 10.4953 24.6194 7.43901 24.6054C5.31557 24.5866 3.48744 23.8366 2.03901 22.2616C1.14838 21.2866 0.609318 20.1382 0.454631 18.8116C0.421818 18.5304 0.417131 18.2491 0.417131 17.9679C0.417131 14.6304 0.407756 11.2882 0.417131 7.946C0.421818 5.5085 1.56088 3.69912 3.58588 2.42412C4.78119 1.67412 6.10776 1.35537 7.51401 1.35537C10.5609 1.35537 13.6078 1.34131 16.6546 1.35537C18.7874 1.37412 20.6203 2.12881 22.0687 3.71318C22.9593 4.6835 23.4843 5.83193 23.6343 7.14443C23.6953 7.66006 23.6671 8.17568 23.6718 8.69131V12.9804ZM2.15619 12.9804V18.1366C2.15619 19.3179 2.59213 20.3397 3.39838 21.1835C4.47651 22.3085 5.83588 22.8569 7.38276 22.871C10.4624 22.8851 13.5374 22.871 16.6171 22.871C17.6109 22.871 18.5578 22.6554 19.4203 22.1585C21.0328 21.2304 21.9374 19.871 21.9374 17.9726V7.82412C21.9374 6.65225 21.5156 5.63975 20.7187 4.80068C19.6406 3.66631 18.2812 3.11318 16.7343 3.09912C13.6265 3.07568 10.5187 3.08975 7.40619 3.08975C6.43588 3.08975 5.51713 3.32412 4.67338 3.79287C3.06557 4.73037 2.15619 6.08975 2.15619 7.99287V12.9804Z" fill="white"/>
<path d="M12.0609 17.9492C9.03281 17.9492 6.60938 15.5305 6.60938 12.5117C6.60938 9.57266 9.075 7.16797 12.0797 7.16797C15.0938 7.16797 17.5312 9.59141 17.5312 12.582C17.5312 15.5445 15.075 17.9492 12.0609 17.9492ZM12.0609 16.2148C14.1234 16.2148 15.7969 14.5742 15.7969 12.568C15.7969 10.5523 14.1328 8.90234 12.0797 8.90234C10.0172 8.90234 8.34375 10.543 8.34375 12.5492C8.34375 14.5648 10.0078 16.2148 12.0609 16.2148ZM17.0156 6.72734C17.0156 6.06172 17.5312 5.52734 18.1641 5.52734C18.8016 5.52734 19.3125 6.06641 19.3125 6.72734C19.3125 7.38359 18.7969 7.91328 18.1734 7.91797C17.5359 7.91797 17.0156 7.39297 17.0156 6.72734Z" fill="white"/>
</g>
<defs>
<clipPath id="clip0_372_2035">
<rect width="24" height="24" fill="white" transform="translate(0 0.933594)"/>
</clipPath>
</defs>
</svg>
