<svg width="485" height="339" viewBox="0 0 485 339" fill="none" xmlns="http://www.w3.org/2000/svg">
<rect x="34" width="451" height="305" rx="25" fill="white"/>
<circle cx="389" cy="305" r="34" fill="#FF9933"/>
<rect x="377" y="173" width="78" height="23" rx="5" fill="#FF0000"/>
<rect x="297" y="173" width="73" height="23" rx="5" fill="#050038"/>
<rect x="192" y="173" width="95" height="23" rx="5" fill="#050038"/>
<rect x="66" y="173" width="116" height="23" rx="5" fill="#050038"/>
<circle cx="34" cy="78" r="34" fill="#FF9933"/>
<path d="M213.323 189.368L209.205 189.218C207.6 189.158 206.438 188.792 205.718 188.122C205.003 187.447 204.645 186.457 204.645 185.152V183.247C204.645 181.957 204.983 180.962 205.658 180.262C206.338 179.562 207.34 179.212 208.665 179.212C209.55 179.212 210.29 179.37 210.885 179.685C211.48 179.995 211.928 180.45 212.228 181.05C212.533 181.65 212.685 182.382 212.685 183.247V184.8C212.685 185.245 212.635 185.635 212.535 185.97C212.435 186.305 212.293 186.587 212.108 186.817C211.923 187.047 211.7 187.235 211.44 187.38C211.18 187.52 210.89 187.617 210.57 187.672V187.755L213.323 187.672V189.368ZM208.89 187.575L209.108 187.582C209.328 187.522 209.533 187.432 209.723 187.312C209.913 187.187 210.08 187.03 210.225 186.84C210.37 186.645 210.483 186.41 210.563 186.135C210.643 185.86 210.683 185.54 210.683 185.175V183.165C210.683 182.42 210.515 181.847 210.18 181.447C209.845 181.042 209.34 180.84 208.665 180.84C207.995 180.84 207.493 181.042 207.158 181.447C206.823 181.847 206.655 182.42 206.655 183.165V185.235C206.655 185.98 206.853 186.55 207.248 186.945C207.643 187.335 208.19 187.545 208.89 187.575ZM216.049 181.642V186.067C216.049 186.372 216.089 186.64 216.169 186.87C216.254 187.095 216.392 187.27 216.582 187.395C216.777 187.515 217.037 187.575 217.362 187.575C217.657 187.575 217.912 187.522 218.127 187.417C218.342 187.312 218.519 187.172 218.659 186.997C218.799 186.817 218.902 186.617 218.967 186.397L219.267 187.44H218.907C218.827 187.76 218.692 188.052 218.502 188.317C218.317 188.577 218.062 188.785 217.737 188.94C217.417 189.095 217.014 189.173 216.529 189.173C215.969 189.173 215.512 189.065 215.157 188.85C214.807 188.635 214.547 188.317 214.377 187.898C214.212 187.477 214.129 186.96 214.129 186.345V181.642H216.049ZM220.842 181.642V189H218.929L218.997 187.215L218.922 187.057V181.642H220.842ZM226.788 189L226.856 187.2L226.803 187.035V184.732L226.796 184.402C226.796 183.922 226.663 183.57 226.398 183.345C226.138 183.12 225.711 183.007 225.116 183.007C224.611 183.007 224.136 183.075 223.691 183.21C223.251 183.34 222.843 183.492 222.468 183.667L222.633 182.137C222.853 182.022 223.103 181.915 223.383 181.815C223.668 181.71 223.986 181.625 224.336 181.56C224.686 181.495 225.063 181.463 225.468 181.463C226.068 181.463 226.576 181.535 226.991 181.68C227.406 181.82 227.736 182.022 227.981 182.287C228.231 182.552 228.411 182.87 228.521 183.24C228.631 183.605 228.686 184.01 228.686 184.455V189H226.788ZM224.381 189.173C223.651 189.173 223.093 188.99 222.708 188.625C222.328 188.26 222.138 187.74 222.138 187.065V186.855C222.138 186.14 222.358 185.612 222.798 185.272C223.238 184.927 223.936 184.69 224.891 184.56L226.976 184.275L227.088 185.512L225.168 185.79C224.748 185.845 224.448 185.945 224.268 186.09C224.093 186.235 224.006 186.447 224.006 186.727V186.802C224.006 187.077 224.091 187.292 224.261 187.447C224.436 187.597 224.708 187.672 225.078 187.672C225.408 187.672 225.691 187.62 225.926 187.515C226.161 187.41 226.353 187.272 226.503 187.102C226.658 186.927 226.768 186.732 226.833 186.517L227.103 187.47H226.773C226.693 187.785 226.563 188.072 226.383 188.332C226.208 188.587 225.961 188.792 225.641 188.947C225.321 189.098 224.901 189.173 224.381 189.173ZM230.281 189V179.085H232.209V189H230.281ZM233.933 189V181.642H235.853V189H233.933ZM234.893 180.772C234.528 180.772 234.258 180.687 234.083 180.517C233.913 180.342 233.828 180.102 233.828 179.797V179.76C233.828 179.455 233.913 179.215 234.083 179.04C234.258 178.865 234.528 178.777 234.893 178.777C235.253 178.777 235.52 178.865 235.695 179.04C235.87 179.215 235.958 179.455 235.958 179.76V179.797C235.958 180.107 235.87 180.347 235.695 180.517C235.52 180.687 235.253 180.772 234.893 180.772ZM240.127 178.852C240.517 178.852 240.877 178.885 241.207 178.95C241.537 179.015 241.83 179.095 242.085 179.19L242.257 180.63C242.042 180.565 241.817 180.512 241.582 180.472C241.352 180.427 241.097 180.405 240.817 180.405C240.482 180.405 240.217 180.442 240.022 180.517C239.832 180.592 239.697 180.7 239.617 180.84C239.537 180.98 239.497 181.145 239.497 181.335V181.357C239.497 181.492 239.517 181.62 239.557 181.74C239.597 181.86 239.645 181.967 239.7 182.062L238.447 182.107V181.905C238.217 181.795 238.022 181.632 237.862 181.417C237.702 181.202 237.622 180.935 237.622 180.615V180.577C237.622 180.047 237.825 179.627 238.23 179.317C238.64 179.007 239.272 178.852 240.127 178.852ZM237.877 189V182.505H239.79V189H237.877ZM236.812 183.48V181.957L238.672 181.972L239.422 181.957H242.242L242.077 183.48H236.812ZM247.23 187.41L246.202 187.852L248.04 181.642H250.012L246.855 191.58H244.927L246.082 187.965L246.975 188.685H244.83L242.692 181.642H244.68L246.202 187.41H247.23ZM251.054 189V181.642H252.974V189H251.054ZM252.014 180.772C251.649 180.772 251.379 180.687 251.204 180.517C251.034 180.342 250.949 180.102 250.949 179.797V179.76C250.949 179.455 251.034 179.215 251.204 179.04C251.379 178.865 251.649 178.777 252.014 178.777C252.374 178.777 252.641 178.865 252.816 179.04C252.991 179.215 253.079 179.455 253.079 179.76V179.797C253.079 180.107 252.991 180.347 252.816 180.517C252.641 180.687 252.374 180.772 252.014 180.772ZM259.453 189V184.582C259.453 184.272 259.411 184.005 259.326 183.78C259.246 183.555 259.111 183.38 258.921 183.255C258.731 183.13 258.471 183.067 258.141 183.067C257.851 183.067 257.596 183.12 257.376 183.225C257.161 183.33 256.983 183.472 256.843 183.652C256.708 183.827 256.606 184.027 256.536 184.252L256.236 183.202H256.596C256.676 182.877 256.808 182.585 256.993 182.325C257.183 182.065 257.438 181.86 257.758 181.71C258.083 181.555 258.488 181.477 258.973 181.477C259.538 181.477 259.996 181.585 260.346 181.8C260.696 182.01 260.953 182.325 261.118 182.745C261.288 183.165 261.373 183.685 261.373 184.305V189H259.453ZM254.661 189V181.642H256.581L256.506 183.435L256.581 183.592V189H254.661ZM266.105 186.742C264.99 186.742 264.145 186.522 263.57 186.082C262.995 185.637 262.707 185.015 262.707 184.215V184.102C262.707 183.572 262.822 183.122 263.052 182.752C263.282 182.377 263.642 182.085 264.132 181.875C264.622 181.665 265.257 181.545 266.037 181.515L269.915 181.357V182.767L267.92 182.692V182.775C268.235 182.84 268.495 182.945 268.7 183.09C268.91 183.23 269.067 183.412 269.172 183.637C269.277 183.857 269.33 184.125 269.33 184.44V184.507C269.33 185.232 269.062 185.787 268.527 186.172C267.992 186.552 267.185 186.742 266.105 186.742ZM266.015 190.403H266.225C266.615 190.403 266.937 190.375 267.192 190.32C267.447 190.27 267.637 190.19 267.762 190.08C267.892 189.975 267.957 189.838 267.957 189.668V189.645C267.957 189.435 267.875 189.28 267.71 189.18C267.55 189.085 267.29 189.02 266.93 188.985L264.777 188.775L265.22 188.753C265.035 188.787 264.87 188.84 264.725 188.91C264.585 188.975 264.475 189.063 264.395 189.173C264.315 189.283 264.275 189.418 264.275 189.578V189.593C264.275 189.778 264.34 189.93 264.47 190.05C264.6 190.175 264.795 190.265 265.055 190.32C265.315 190.375 265.635 190.403 266.015 190.403ZM265.91 191.85C265.2 191.85 264.592 191.79 264.087 191.67C263.582 191.555 263.195 191.37 262.925 191.115C262.66 190.86 262.527 190.523 262.527 190.102V190.073C262.527 189.788 262.59 189.548 262.715 189.353C262.84 189.158 263.017 189.003 263.247 188.887C263.477 188.772 263.742 188.7 264.042 188.67V188.595C263.662 188.52 263.375 188.397 263.18 188.227C262.99 188.052 262.895 187.815 262.895 187.515V187.507C262.895 187.297 262.942 187.12 263.037 186.975C263.132 186.83 263.272 186.715 263.457 186.63C263.647 186.545 263.88 186.495 264.155 186.48V186.262L265.782 186.667L265.257 186.652C265.027 186.657 264.867 186.69 264.777 186.75C264.687 186.805 264.642 186.885 264.642 186.99V186.997C264.642 187.127 264.712 187.222 264.852 187.282C264.992 187.337 265.225 187.385 265.55 187.425L267.312 187.62C268.137 187.715 268.745 187.917 269.135 188.227C269.53 188.537 269.727 189.015 269.727 189.66V189.698C269.727 190.193 269.587 190.598 269.307 190.913C269.027 191.233 268.622 191.468 268.092 191.618C267.567 191.773 266.93 191.85 266.18 191.85H265.91ZM266.052 185.407C266.387 185.407 266.665 185.36 266.885 185.265C267.11 185.17 267.277 185.03 267.387 184.845C267.502 184.66 267.56 184.435 267.56 184.17V184.087C267.56 183.822 267.505 183.6 267.395 183.42C267.285 183.235 267.12 183.097 266.9 183.007C266.68 182.912 266.402 182.865 266.067 182.865H266.045C265.69 182.865 265.4 182.915 265.175 183.015C264.95 183.11 264.785 183.25 264.68 183.435C264.575 183.615 264.522 183.832 264.522 184.087V184.17C264.522 184.435 264.577 184.66 264.687 184.845C264.802 185.03 264.972 185.17 265.197 185.265C265.427 185.36 265.712 185.407 266.052 185.407Z" fill="white"/>
<path d="M319.265 186.12V184.515H321.71C322.25 184.515 322.64 184.39 322.88 184.14C323.125 183.885 323.248 183.517 323.248 183.037V182.49C323.248 182 323.128 181.632 322.888 181.387C322.648 181.137 322.258 181.012 321.718 181.012H319.265V179.415H321.83C322.995 179.415 323.848 179.677 324.388 180.202C324.933 180.727 325.205 181.472 325.205 182.437V183.097C325.205 184.062 324.933 184.807 324.388 185.332C323.848 185.857 322.995 186.12 321.83 186.12H319.265ZM317.953 189V179.415H319.888V184.972L319.895 185.865V189H317.953ZM326.56 189V181.642H328.48V189H326.56ZM327.52 180.772C327.155 180.772 326.885 180.687 326.71 180.517C326.54 180.342 326.455 180.102 326.455 179.797V179.76C326.455 179.455 326.54 179.215 326.71 179.04C326.885 178.865 327.155 178.777 327.52 178.777C327.88 178.777 328.147 178.865 328.322 179.04C328.497 179.215 328.585 179.455 328.585 179.76V179.797C328.585 180.107 328.497 180.347 328.322 180.517C328.147 180.687 327.88 180.772 327.52 180.772ZM333.017 189.158C332.392 189.158 331.892 189.065 331.517 188.88C331.147 188.69 330.879 188.405 330.714 188.025C330.549 187.645 330.467 187.177 330.467 186.622V182.332H332.372V186.337C332.372 186.737 332.462 187.032 332.642 187.222C332.827 187.407 333.149 187.5 333.609 187.5C333.879 187.5 334.139 187.472 334.389 187.417C334.639 187.357 334.869 187.28 335.079 187.185L334.914 188.79C334.664 188.905 334.377 188.995 334.052 189.06C333.732 189.125 333.387 189.158 333.017 189.158ZM329.402 183.217V181.702H335.012L334.847 183.217H329.402ZM330.489 181.845L330.482 179.895L332.394 179.7L332.319 181.845H330.489ZM339.127 189.188C337.992 189.188 337.149 188.887 336.599 188.287C336.054 187.687 335.782 186.845 335.782 185.76V184.86C335.782 183.78 336.057 182.942 336.607 182.347C337.157 181.752 337.997 181.455 339.127 181.455C339.422 181.455 339.697 181.48 339.952 181.53C340.212 181.575 340.447 181.637 340.657 181.717C340.872 181.797 341.059 181.882 341.219 181.972L341.377 183.585C341.132 183.43 340.857 183.3 340.552 183.195C340.252 183.09 339.904 183.037 339.509 183.037C338.889 183.037 338.434 183.197 338.144 183.517C337.859 183.832 337.717 184.292 337.717 184.897V185.692C337.717 186.292 337.864 186.755 338.159 187.08C338.459 187.405 338.919 187.567 339.539 187.567C339.934 187.567 340.284 187.517 340.589 187.417C340.894 187.312 341.179 187.185 341.444 187.035L341.287 188.655C341.042 188.795 340.734 188.917 340.364 189.023C339.994 189.133 339.582 189.188 339.127 189.188ZM347.491 189V184.582C347.491 184.272 347.449 184.005 347.364 183.78C347.284 183.555 347.149 183.38 346.959 183.255C346.769 183.13 346.509 183.067 346.179 183.067C345.889 183.067 345.636 183.12 345.421 183.225C345.206 183.33 345.029 183.472 344.889 183.652C344.754 183.827 344.654 184.027 344.589 184.252L344.199 183.202H344.656C344.741 182.877 344.876 182.585 345.061 182.325C345.246 182.065 345.499 181.86 345.819 181.71C346.139 181.555 346.536 181.477 347.011 181.477C347.576 181.477 348.034 181.585 348.384 181.8C348.734 182.01 348.991 182.325 349.156 182.745C349.326 183.165 349.411 183.685 349.411 184.305V189H347.491ZM342.699 189V179.085H344.611V181.35L344.574 183.637L344.619 183.78V189H342.699Z" fill="white"/>
<path d="M404.953 189V179.415H406.918V189H404.953ZM406.078 185.43V183.78H411.043V185.43H406.078ZM405.523 181.072V179.415H411.155V181.072H405.523ZM411.422 189L414.249 179.415H417.242L420.062 189H418.074L415.839 180.712H415.659L413.409 189H411.422ZM413.567 186.555V184.987H417.902V186.555H413.567ZM423.244 189H421.271V179.415H423.244V189ZM427.144 189H425.164V179.415H427.144V189ZM426.274 187.342H431.292V189H426.274V187.342Z" fill="white"/>
<path d="M62.8333 163.5C62.8333 164.973 64.0272 166.167 65.5 166.167C66.9728 166.167 68.1667 164.973 68.1667 163.5C68.1667 162.027 66.9728 160.833 65.5 160.833C64.0272 160.833 62.8333 162.027 62.8333 163.5ZM454.501 164C454.777 164 455.001 163.776 455.001 163.5C455.001 163.224 454.777 163 454.501 163V164ZM65.5 164H454.501V163H65.5V164Z" fill="black"/>
<path d="M105.665 189.218C104.34 189.218 103.338 188.872 102.658 188.182C101.983 187.487 101.645 186.495 101.645 185.205V183.255C101.645 181.96 101.983 180.962 102.658 180.262C103.338 179.562 104.34 179.212 105.665 179.212C106.99 179.212 107.99 179.562 108.665 180.262C109.345 180.962 109.685 181.96 109.685 183.255V185.205C109.685 186.495 109.348 187.487 108.673 188.182C107.998 188.872 106.995 189.218 105.665 189.218ZM105.665 187.582C106.34 187.582 106.845 187.382 107.18 186.982C107.515 186.582 107.683 186.02 107.683 185.295V183.165C107.683 182.415 107.515 181.84 107.18 181.44C106.845 181.035 106.34 180.832 105.665 180.832C104.995 180.832 104.493 181.035 104.158 181.44C103.823 181.84 103.655 182.415 103.655 183.165V185.295C103.655 186.02 103.823 186.582 104.158 186.982C104.493 187.382 104.995 187.582 105.665 187.582ZM115.375 189.173C114.935 189.173 114.562 189.103 114.257 188.962C113.952 188.817 113.705 188.615 113.515 188.355C113.33 188.095 113.197 187.79 113.117 187.44H112.57L113.057 185.97C113.067 186.32 113.137 186.615 113.267 186.855C113.402 187.095 113.587 187.275 113.822 187.395C114.062 187.515 114.342 187.575 114.662 187.575C115.147 187.575 115.517 187.435 115.772 187.155C116.027 186.87 116.155 186.45 116.155 185.895V184.687C116.155 184.137 116.03 183.722 115.78 183.442C115.53 183.162 115.16 183.022 114.67 183.022C114.39 183.022 114.137 183.077 113.912 183.187C113.687 183.292 113.5 183.435 113.35 183.615C113.2 183.795 113.092 184.002 113.027 184.237L112.577 183.202H113.11C113.19 182.882 113.317 182.592 113.492 182.332C113.672 182.067 113.92 181.86 114.235 181.71C114.555 181.555 114.957 181.477 115.442 181.477C116.307 181.477 116.965 181.757 117.415 182.317C117.865 182.872 118.09 183.695 118.09 184.785V185.805C118.09 186.905 117.862 187.742 117.407 188.317C116.957 188.887 116.28 189.173 115.375 189.173ZM111.175 191.58V181.642H113.095L113.02 183.51L113.057 183.847V186.795L113.035 187.14L113.087 189.158V191.58H111.175ZM122.971 189.18C121.711 189.18 120.774 188.89 120.159 188.31C119.544 187.73 119.236 186.89 119.236 185.79V184.83C119.236 183.74 119.524 182.902 120.099 182.317C120.674 181.732 121.509 181.44 122.604 181.44C123.344 181.44 123.961 181.57 124.456 181.83C124.951 182.09 125.321 182.46 125.566 182.94C125.816 183.415 125.941 183.985 125.941 184.65V184.912C125.941 185.092 125.931 185.277 125.911 185.467C125.896 185.652 125.874 185.827 125.844 185.992H124.104C124.119 185.717 124.126 185.457 124.126 185.213C124.131 184.962 124.134 184.737 124.134 184.537C124.134 184.192 124.079 183.9 123.969 183.66C123.859 183.415 123.691 183.23 123.466 183.105C123.241 182.98 122.954 182.917 122.604 182.917C122.089 182.917 121.709 183.06 121.464 183.345C121.219 183.63 121.096 184.035 121.096 184.56V185.242L121.104 185.46V186.037C121.104 186.267 121.139 186.48 121.209 186.675C121.284 186.87 121.406 187.04 121.576 187.185C121.746 187.325 121.971 187.435 122.251 187.515C122.536 187.595 122.891 187.635 123.316 187.635C123.776 187.635 124.214 187.585 124.629 187.485C125.049 187.38 125.446 187.24 125.821 187.065L125.656 188.58C125.321 188.765 124.926 188.91 124.471 189.015C124.021 189.125 123.521 189.18 122.971 189.18ZM120.256 185.992V184.717H125.454V185.992H120.256ZM132.088 189V184.582C132.088 184.272 132.046 184.005 131.961 183.78C131.881 183.555 131.746 183.38 131.556 183.255C131.366 183.13 131.106 183.067 130.776 183.067C130.486 183.067 130.231 183.12 130.011 183.225C129.796 183.33 129.618 183.472 129.478 183.652C129.343 183.827 129.241 184.027 129.171 184.252L128.871 183.202H129.231C129.311 182.877 129.443 182.585 129.628 182.325C129.818 182.065 130.073 181.86 130.393 181.71C130.718 181.555 131.123 181.477 131.608 181.477C132.173 181.477 132.631 181.585 132.981 181.8C133.331 182.01 133.588 182.325 133.753 182.745C133.923 183.165 134.008 183.685 134.008 184.305V189H132.088ZM127.296 189V181.642H129.216L129.141 183.435L129.216 183.592V189H127.296ZM139.077 189.18C137.817 189.18 136.88 188.89 136.265 188.31C135.65 187.73 135.342 186.89 135.342 185.79V184.83C135.342 183.74 135.63 182.902 136.205 182.317C136.78 181.732 137.615 181.44 138.71 181.44C139.45 181.44 140.067 181.57 140.562 181.83C141.057 182.09 141.427 182.46 141.672 182.94C141.922 183.415 142.047 183.985 142.047 184.65V184.912C142.047 185.092 142.037 185.277 142.017 185.467C142.002 185.652 141.98 185.827 141.95 185.992H140.21C140.225 185.717 140.232 185.457 140.232 185.213C140.237 184.962 140.24 184.737 140.24 184.537C140.24 184.192 140.185 183.9 140.075 183.66C139.965 183.415 139.797 183.23 139.572 183.105C139.347 182.98 139.06 182.917 138.71 182.917C138.195 182.917 137.815 183.06 137.57 183.345C137.325 183.63 137.202 184.035 137.202 184.56V185.242L137.21 185.46V186.037C137.21 186.267 137.245 186.48 137.315 186.675C137.39 186.87 137.512 187.04 137.682 187.185C137.852 187.325 138.077 187.435 138.357 187.515C138.642 187.595 138.997 187.635 139.422 187.635C139.882 187.635 140.32 187.585 140.735 187.485C141.155 187.38 141.552 187.24 141.927 187.065L141.762 188.58C141.427 188.765 141.032 188.91 140.577 189.015C140.127 189.125 139.627 189.18 139.077 189.18ZM136.362 185.992V184.717H141.56V185.992H136.362ZM145.27 184.725L144.782 183.442H145.247C145.382 182.847 145.627 182.38 145.982 182.04C146.337 181.7 146.83 181.53 147.46 181.53C147.59 181.53 147.707 181.54 147.812 181.56C147.917 181.575 148.012 181.595 148.097 181.62L148.202 183.54C148.092 183.505 147.965 183.48 147.82 183.465C147.675 183.445 147.522 183.435 147.362 183.435C146.852 183.435 146.417 183.547 146.057 183.772C145.702 183.997 145.44 184.315 145.27 184.725ZM143.402 189V181.642H145.232L145.15 183.9L145.322 183.967V189H143.402Z" fill="white"/>
</svg>
