<svg width="140" height="24" viewBox="0 0 140 24" fill="none" xmlns="http://www.w3.org/2000/svg">
<g clip-path="url(#clip0_358_1998)">
<path d="M54.9187 2.14145C54.9187 0.956817 55.8705 0 57.0399 0C58.2144 0 59.1712 0.956817 59.1712 2.14145C59.1712 3.32608 58.2144 4.2829 57.0399 4.2829C55.8705 4.2829 54.9187 3.32608 54.9187 2.14145Z" fill="#BDB9C5"/>
<path d="M88.4834 16.3823C88.4834 15.2028 89.4352 14.2409 90.6046 14.2409C91.7791 14.2409 92.7359 15.2028 92.7359 16.3823C92.7359 17.567 91.7791 18.5238 90.6046 18.5238C89.4352 18.5238 88.4834 17.567 88.4834 16.3823Z" fill="#BDB9C5"/>
<path d="M20.0025 15.461C18.1699 15.461 16.8992 13.9979 16.8992 11.9121C16.8992 9.82131 18.1699 8.3633 20.0025 8.3633C21.8453 8.3633 23.1312 9.82131 23.1312 11.9121C23.1312 14.0333 21.8706 15.461 20.0025 15.461ZM20.0025 5.24478C16.1246 5.24478 13.3149 8.04942 13.3149 11.9121C13.3149 15.7748 16.1246 18.5744 20.0025 18.5744C23.8956 18.5744 26.7205 15.7748 26.7205 11.9121C26.7205 8.04942 23.8956 5.24478 20.0025 5.24478Z" fill="#BDB9C5"/>
<path d="M50.798 12.2463C50.6461 11.9577 50.474 11.7198 50.2917 11.5274L50.1702 11.4008L50.2968 11.2844C50.474 11.0971 50.6562 10.8743 50.8334 10.6111L54.2506 5.50804H50.0993L47.5276 9.50237C47.3858 9.715 47.0922 9.82131 46.6517 9.82131H46.0645V2.27308C46.0645 0.764448 45.1279 0.556885 44.1154 0.556885H42.384V18.382H46.0645V13.036H46.4087C46.8289 13.036 47.1124 13.0816 47.2441 13.3094L49.2741 17.1569C49.8411 18.1998 50.4081 18.382 51.4713 18.382H54.2911L52.1901 14.894L50.798 12.2463Z" fill="#BDB9C5"/>
<path d="M68.6584 5.21442C66.7853 5.21442 65.5956 6.04973 64.9223 6.75849L64.6995 6.9863L64.6236 6.67749C64.4261 5.91811 63.7629 5.50298 62.7656 5.50298H61.1152L61.1254 18.377H64.7805V12.4437C64.7805 11.8615 64.8564 11.3603 65.0083 10.8996C65.4133 9.5125 66.5524 8.64681 67.9699 8.64681C69.109 8.64681 69.5545 9.24925 69.5545 10.8136V16.4178C69.5545 17.7492 70.167 18.377 71.4985 18.377H73.2349L73.2299 10.1909C73.2299 6.93567 71.6504 5.21442 68.6584 5.21442Z" fill="#BDB9C5"/>
<path d="M57.0905 5.50803H55.3591L55.3693 15.461V18.377H57.2171C57.2373 18.377 57.2576 18.382 57.2829 18.382L58.1435 18.377H58.9991V18.3719H59.0042L59.0143 7.46216C59.0143 6.14591 58.3865 5.50803 57.0905 5.50803Z" fill="#BDB9C5"/>
<path d="M34.3598 15.461C32.5272 15.461 31.2514 13.9979 31.2514 11.9121C31.2514 9.82131 32.5272 8.3633 34.3598 8.3633C36.1975 8.3633 37.4885 9.82131 37.4885 11.9121C37.4885 14.0333 36.2279 15.461 34.3598 15.461ZM34.3598 5.24478C30.4769 5.24478 27.6621 8.04942 27.6621 11.9121C27.6621 15.7748 30.4769 18.5744 34.3598 18.5744C38.2428 18.5744 41.0727 15.7748 41.0727 11.9121C41.0727 8.04942 38.2428 5.24478 34.3598 5.24478Z" fill="#BDB9C5"/>
<path d="M112.687 15.461C110.86 15.461 109.584 13.9979 109.584 11.9121C109.584 9.82131 110.86 8.3633 112.687 8.3633C114.53 8.3633 115.821 9.82131 115.821 11.9121C115.821 14.0333 114.56 15.461 112.687 15.461ZM112.687 5.24478C108.809 5.24478 105.995 8.04942 105.995 11.9121C105.995 15.7748 108.809 18.5744 112.687 18.5744C116.575 18.5744 119.405 15.7748 119.405 11.9121C119.405 8.04942 116.575 5.24478 112.687 5.24478Z" fill="#BDB9C5"/>
<path d="M80.935 14.894C78.9403 14.894 78.2265 13.1423 78.2265 11.5021C78.2265 10.7781 78.4088 8.42404 80.7426 8.42404C81.907 8.42404 83.451 8.75817 83.451 11.6236C83.451 14.3269 82.0842 14.894 80.935 14.894ZM85.3495 5.47259C84.6559 5.47259 84.1193 5.75103 83.856 6.25728L83.7548 6.45472L83.5827 6.30791C82.9954 5.79659 81.9373 5.18909 80.2211 5.18909C76.8039 5.18909 74.5005 7.76591 74.5005 11.5982C74.5005 15.4306 76.8799 18.1036 80.287 18.1036C81.4513 18.1036 82.3727 17.8353 83.1017 17.2784L83.3802 17.0658V17.4252C83.3802 19.1414 82.2715 20.0932 80.2667 20.0932C79.2896 20.0932 78.4037 19.8552 77.8114 19.6375C77.0318 19.4047 76.5812 19.597 76.2673 20.3767L75.9737 21.1006L75.5636 22.1486L75.8167 22.2852C77.1026 22.9737 78.7783 23.3787 80.287 23.3787C83.4004 23.3787 87.0353 21.779 87.0353 17.2784L87.0454 5.47259H85.3495Z" fill="#BDB9C5"/>
<path d="M6.39441 15.3091H3.41764V11.74C3.41764 10.9756 3.71127 10.5756 4.36434 10.4845H6.39441C7.84229 10.4845 8.77886 11.4008 8.77886 12.8841C8.77886 14.408 7.86254 15.3091 6.39441 15.3142V15.3091ZM3.41764 5.68016V4.73854C3.41764 3.91841 3.76696 3.52353 4.52634 3.4729H6.05016C7.35123 3.4729 8.13592 4.25759 8.13592 5.57385C8.13592 6.57117 7.59929 7.74061 6.09572 7.74061H3.41764V5.68016ZM10.1913 9.24418L9.65468 8.94043L10.1255 8.53543C10.6722 8.06462 11.5835 7.00655 11.5835 5.17391C11.5835 2.37433 9.4218 0.567013 6.07041 0.567013H2.2482V0.561951H1.81282C0.820567 0.602451 0.0257501 1.41246 0.015625 2.41484V18.3162H1.77232H1.77738H6.14635C9.87237 18.3162 12.272 16.2811 12.272 13.1271C12.272 11.4312 11.4974 9.97825 10.1913 9.24418Z" fill="#BDB9C5"/>
<path d="M135.732 5.25998C134.213 5.25998 132.75 5.96873 131.808 7.16855L131.54 7.50268L131.333 7.12805C130.659 5.88773 129.49 5.25998 127.875 5.25998C126.174 5.25998 125.035 6.21173 124.503 6.77367L124.159 7.15336L124.027 6.65724C123.835 5.94342 123.202 5.54854 122.24 5.54854H120.706L120.691 18.3719H124.179V12.712C124.179 12.2159 124.245 11.7248 124.367 11.2135C124.701 9.84663 125.617 8.37343 127.156 8.52025C128.103 8.61137 128.568 9.3505 128.568 10.7731V18.3719H132.082V12.712C132.082 12.0944 132.138 11.6286 132.279 11.1629C132.563 9.85675 133.52 8.52025 135.003 8.52025C136.076 8.52025 136.476 9.13281 136.476 10.7731V16.4988C136.476 17.7948 137.048 18.3719 138.339 18.3719H139.979L139.984 10.1858C139.984 6.91543 138.552 5.25998 135.727 5.25998" fill="#BDB9C5"/>
<path d="M103.975 13.922C103.965 13.9321 102.466 15.5217 100.487 15.5217C98.6843 15.5217 96.8669 14.413 96.8669 11.9375C96.8669 9.796 98.2743 8.30256 100.294 8.30256C100.952 8.30256 101.697 8.5405 101.813 8.93537L101.833 9.00119C102.102 9.90232 102.917 9.95294 103.074 9.95294H104.987V8.27218C104.987 6.05986 102.183 5.25998 100.294 5.25998C96.2594 5.25998 93.3333 8.07981 93.3333 11.9628C93.3333 15.8457 96.229 18.6656 100.223 18.6656C103.686 18.6656 105.569 16.3773 105.59 16.352L105.691 16.2305L104.177 13.7093L103.975 13.922Z" fill="#BDB9C5"/>
</g>
<defs>
<clipPath id="clip0_358_1998">
<rect width="139.969" height="23.3281" fill="white" transform="translate(0.015625)"/>
</clipPath>
</defs>
</svg>
