<svg width="1512" height="821" viewBox="0 0 1512 821" fill="none" xmlns="http://www.w3.org/2000/svg">
<g clip-path="url(#clip0_118_497)">
<rect width="1512" height="821" fill="#FF9933"/>
<line x1="89.4995" y1="-0.038175" x2="114.5" y2="981.962" stroke="#FFA74F" stroke-width="3"/>
<line x1="199.5" y1="-0.038175" x2="224.5" y2="981.962" stroke="#FFA74F" stroke-width="3"/>
<line x1="370.5" y1="0.0244367" x2="354.5" y2="982.024" stroke="#FFA74F" stroke-width="3"/>
<line x1="510.5" y1="0.0244367" x2="494.5" y2="982.024" stroke="#FFA74F" stroke-width="3"/>
<line x1="653.5" y1="0.00305498" x2="651.5" y2="982.003" stroke="#FFA74F" stroke-width="3"/>
<line x1="820.499" y1="0.044278" x2="791.499" y2="982.044" stroke="#FFA74F" stroke-width="3"/>
<line x1="904.499" y1="-0.0412268" x2="931.499" y2="981.959" stroke="#FFA74F" stroke-width="3"/>
<line x1="1034.5" y1="0.0503789" x2="1001.5" y2="982.05" stroke="#FFA74F" stroke-width="3"/>
<line x1="1152.5" y1="-0.0442781" x2="1181.5" y2="981.956" stroke="#FFA74F" stroke-width="3"/>
<line x1="1312.5" y1="-0.0442781" x2="1341.5" y2="981.956" stroke="#FFA74F" stroke-width="3"/>
<line x1="1473.5" y1="0.0488539" x2="1441.5" y2="982.049" stroke="#FFA74F" stroke-width="3"/>
<line x1="-0.0198395" y1="761.5" x2="1511.98" y2="741.5" stroke="#FFA74F" stroke-width="3"/>
<line x1="-0.0198395" y1="681.5" x2="1511.98" y2="661.5" stroke="#FFA74F" stroke-width="3"/>
<line x1="-0.0198395" y1="571.5" x2="1511.98" y2="551.5" stroke="#FFA74F" stroke-width="3"/>
<line x1="-0.0198395" y1="441.5" x2="1511.98" y2="421.5" stroke="#FFA74F" stroke-width="3"/>
<line x1="-0.0198395" y1="331.5" x2="1511.98" y2="311.5" stroke="#FFA74F" stroke-width="3"/>
<line x1="-0.0198395" y1="221.5" x2="1511.98" y2="201.5" stroke="#FFA74F" stroke-width="3"/>
<line x1="-0.0198395" y1="141.5" x2="1511.98" y2="121.5" stroke="#FFA74F" stroke-width="3"/>
<line x1="-0.0198395" y1="31.5001" x2="1511.98" y2="11.5001" stroke="#FFA74F" stroke-width="3"/>
</g>
<defs>
<clipPath id="clip0_118_497">
<rect width="1512" height="821" fill="white"/>
</clipPath>
</defs>
</svg>
