<svg width="24" height="25" viewBox="0 0 24 25" fill="none" xmlns="http://www.w3.org/2000/svg">
<path d="M0 0.933594V24.9336H24V0.933594H0ZM7.36961 20.7328C7.36961 21.0385 7.12183 21.2862 6.81618 21.2862H4.46105C4.1554 21.2862 3.90762 21.0385 3.90762 20.7328V10.6857C3.90762 10.38 4.1554 10.1322 4.46105 10.1322H6.81618C7.12183 10.1322 7.36961 10.38 7.36961 10.6857V20.7328ZM5.6348 8.59553C4.56532 8.61718 3.62545 7.72391 3.62566 6.58445C3.62566 5.47933 4.53578 4.57774 5.64833 4.57864C6.74756 4.57953 7.65415 5.48744 7.65178 6.59214C7.64914 7.74882 6.68921 8.62071 5.6348 8.59553ZM20.3743 21.0588C20.3743 21.1857 20.2714 21.2885 20.1445 21.2885L17.1347 21.2878C17.0079 21.2877 16.905 21.1849 16.905 21.058V14.854C16.905 14.3177 16.6877 13.8319 16.3362 13.4806C15.98 13.1242 15.4857 12.9057 14.9405 12.9119C13.8726 12.9239 13.0208 13.8107 13.0208 14.8787V21.0573C13.0208 21.1842 12.9179 21.287 12.791 21.287L9.78862 21.2862C9.66175 21.2862 9.55895 21.1833 9.55895 21.0565V10.362C9.55895 10.2351 9.6618 10.1322 9.78872 10.1322H12.727C12.8539 10.1322 12.9568 10.2351 12.9568 10.362V11.5953C12.9571 11.5947 12.9686 11.5962 12.9883 11.5992C13.0451 11.4965 13.1069 11.397 13.1737 11.3012C13.7861 10.4224 14.8042 9.84743 15.9565 9.84743H16.5606C18.6669 9.84743 20.3744 11.5549 20.3744 13.6613V21.0588H20.3743Z" fill="white"/>
</svg>
