<svg width="45" height="48" viewBox="0 0 45 48" fill="none" xmlns="http://www.w3.org/2000/svg">
<g filter="url(#filter0_d_372_2043)">
<g filter="url(#filter1_d_372_2043)">
<rect y="0.132812" width="41" height="43" rx="8" fill="white"/>
</g>
<g filter="url(#filter2_i_372_2043)">
<path d="M14.6106 23.3368L13.7286 21.3838H14.4846C14.6526 20.5298 14.9781 19.8613 15.4611 19.3783C15.9511 18.8883 16.6406 18.6433 17.5296 18.6433C17.6836 18.6433 17.8236 18.6538 17.9496 18.6748C18.0826 18.6958 18.2086 18.7203 18.3276 18.7483L18.4851 21.9928C18.3381 21.9508 18.1666 21.9228 17.9706 21.9088C17.7746 21.8878 17.5751 21.8773 17.3721 21.8773C16.6861 21.8773 16.1086 22.0068 15.6396 22.2658C15.1706 22.5178 14.8276 22.8748 14.6106 23.3368ZM11.4606 29.1328V18.8113H14.4846L14.3481 22.1083L14.6736 22.1503V29.1328H11.4606ZM26.4228 29.1328V23.0638C26.4228 22.6858 26.3738 22.3603 26.2758 22.0873C26.1778 21.8073 26.0133 21.5938 25.7823 21.4468C25.5583 21.2998 25.2433 21.2263 24.8373 21.2263C24.5083 21.2263 24.2178 21.2858 23.9658 21.4048C23.7138 21.5168 23.5038 21.6743 23.3358 21.8773C23.1748 22.0733 23.0488 22.2973 22.9578 22.5493L22.3068 21.0478H23.0523C23.1573 20.5788 23.3358 20.1588 23.5878 19.7878C23.8398 19.4168 24.1863 19.1228 24.6273 18.9058C25.0753 18.6818 25.6353 18.5698 26.3073 18.5698C27.0773 18.5698 27.7073 18.7203 28.1973 19.0213C28.6873 19.3153 29.0478 19.7563 29.2788 20.3443C29.5168 20.9323 29.6358 21.6673 29.6358 22.5493V29.1328H26.4228ZM19.7868 29.1328V15.2623H22.9788V18.3493L22.9263 21.7513L22.9998 22.0033V29.1328H19.7868Z" fill="#FF9933"/>
</g>
</g>
<defs>
<filter id="filter0_d_372_2043" x="-2" y="0.132812" width="45" height="47" filterUnits="userSpaceOnUse" color-interpolation-filters="sRGB">
<feFlood flood-opacity="0" result="BackgroundImageFix"/>
<feColorMatrix in="SourceAlpha" type="matrix" values="0 0 0 0 0 0 0 0 0 0 0 0 0 0 0 0 0 0 127 0" result="hardAlpha"/>
<feOffset dy="2"/>
<feGaussianBlur stdDeviation="1"/>
<feComposite in2="hardAlpha" operator="out"/>
<feColorMatrix type="matrix" values="0 0 0 0 0 0 0 0 0 0 0 0 0 0 0 0 0 0 0.15 0"/>
<feBlend mode="normal" in2="BackgroundImageFix" result="effect1_dropShadow_372_2043"/>
<feBlend mode="normal" in="SourceGraphic" in2="effect1_dropShadow_372_2043" result="shape"/>
</filter>
<filter id="filter1_d_372_2043" x="-4" y="0.132812" width="49" height="51" filterUnits="userSpaceOnUse" color-interpolation-filters="sRGB">
<feFlood flood-opacity="0" result="BackgroundImageFix"/>
<feColorMatrix in="SourceAlpha" type="matrix" values="0 0 0 0 0 0 0 0 0 0 0 0 0 0 0 0 0 0 127 0" result="hardAlpha"/>
<feOffset dy="4"/>
<feGaussianBlur stdDeviation="2"/>
<feComposite in2="hardAlpha" operator="out"/>
<feColorMatrix type="matrix" values="0 0 0 0 0 0 0 0 0 0 0 0 0 0 0 0 0 0 0.1 0"/>
<feBlend mode="normal" in2="BackgroundImageFix" result="effect1_dropShadow_372_2043"/>
<feBlend mode="normal" in="SourceGraphic" in2="effect1_dropShadow_372_2043" result="shape"/>
</filter>
<filter id="filter2_i_372_2043" x="9.46069" y="15.2622" width="20.175" height="17.8706" filterUnits="userSpaceOnUse" color-interpolation-filters="sRGB">
<feFlood flood-opacity="0" result="BackgroundImageFix"/>
<feBlend mode="normal" in="SourceGraphic" in2="BackgroundImageFix" result="shape"/>
<feColorMatrix in="SourceAlpha" type="matrix" values="0 0 0 0 0 0 0 0 0 0 0 0 0 0 0 0 0 0 127 0" result="hardAlpha"/>
<feOffset dx="-2" dy="4"/>
<feGaussianBlur stdDeviation="2"/>
<feComposite in2="hardAlpha" operator="arithmetic" k2="-1" k3="1"/>
<feColorMatrix type="matrix" values="0 0 0 0 0.470833 0 0 0 0 0.459062 0 0 0 0 0.459062 0 0 0 0.05 0"/>
<feBlend mode="darken" in2="shape" result="effect1_innerShadow_372_2043"/>
</filter>
</defs>
</svg>
