<svg width="46" height="46" viewBox="0 0 46 46" fill="none" xmlns="http://www.w3.org/2000/svg">
<g clip-path="url(#clip0_372_2012)">
<path fill-rule="evenodd" clip-rule="evenodd" d="M22.811 4.7553C17.8222 4.7553 13.1201 6.69845 9.60305 10.2255C6.0669 13.7526 4.13635 18.4433 4.13635 23.434C4.13635 28.4265 6.0669 33.1172 9.60305 36.6462C13.1201 40.1714 17.8222 42.1126 22.811 42.1126C27.7999 42.1126 32.502 40.1695 36.019 36.6424C43.3207 29.3589 43.3207 17.509 36.019 10.2255C32.502 6.69845 27.7999 4.7553 22.811 4.7553ZM22.8111 45.9336C16.7901 45.9336 11.1514 43.5949 6.88892 39.3475C2.64554 35.0963 0.294478 29.4446 0.313592 23.4336C0.313592 17.4207 2.64554 11.7709 6.88892 7.52348C11.1514 3.27416 16.8092 0.933594 22.8111 0.933594C28.8322 0.933594 34.4709 3.27416 38.7334 7.52348C47.5068 16.2954 47.5068 30.5718 38.7334 39.3437C34.4709 43.593 28.8322 45.9336 22.8111 45.9336Z" fill="white"/>
<path fill-rule="evenodd" clip-rule="evenodd" d="M12.2985 34.8958C12.05 34.8958 11.8206 34.8022 11.6295 34.6149C5.45553 28.4511 5.45553 18.4182 11.6295 12.2506C17.8034 6.08867 27.8384 6.08867 33.9932 12.2506C40.1671 18.4163 40.1671 28.4473 33.9932 34.6111C33.63 34.9856 33.0184 34.9856 32.6552 34.6111C32.2729 34.2385 32.2729 33.6348 32.6552 33.2603C38.0646 27.8416 38.0646 19.022 32.6552 13.6014C27.2267 8.18276 18.3959 8.18276 12.9866 13.6014C7.55811 19.0239 7.55811 27.8435 12.9866 33.2641C13.3498 33.6386 13.3498 34.2423 12.9866 34.6149C12.7954 34.8022 12.547 34.8958 12.2985 34.8958Z" fill="white"/>
<path fill-rule="evenodd" clip-rule="evenodd" d="M22.8109 32.7354C20.7465 32.7354 19.0645 34.4111 19.0645 36.4784C19.0645 38.5438 20.7465 40.2176 22.8109 40.2176C24.8752 40.2176 26.5573 38.5438 26.5573 36.4784C26.5573 34.4111 24.8752 32.7354 22.8109 32.7354Z" fill="white"/>
<path fill-rule="evenodd" clip-rule="evenodd" d="M23.2158 37.7523C23.9613 37.7523 24.6494 37.3319 24.9743 36.6231L32.1422 20.6213C32.5627 19.6583 32.1422 18.5272 31.1674 18.0954C30.2117 17.6597 29.0839 18.0992 28.6443 19.0583L21.4764 35.0602C21.0559 36.0231 21.4764 37.1542 22.4512 37.5861C22.6997 37.6988 22.9673 37.7523 23.2158 37.7523Z" fill="white"/>
</g>
<defs>
<clipPath id="clip0_372_2012">
<rect width="45" height="45" fill="white" transform="translate(0.3125 0.933594)"/>
</clipPath>
</defs>
</svg>
