<svg width="390" height="1323" viewBox="0 0 390 1323" fill="none" xmlns="http://www.w3.org/2000/svg">
<path d="M-411.333 30.0001C-411.333 32.9456 -408.946 35.3334 -406 35.3334C-403.054 35.3334 -400.667 32.9456 -400.667 30.0001C-400.667 27.0545 -403.054 24.6667 -406 24.6667C-408.946 24.6667 -411.333 27.0545 -411.333 30.0001ZM-405.012 31.0001C-404.459 31.0001 -404.012 30.5523 -404.012 30.0001C-404.012 29.4478 -404.459 29.0001 -405.012 29.0001V31.0001ZM-395.129 29.0001C-395.682 29.0001 -396.129 29.4478 -396.129 30.0001C-396.129 30.5523 -395.682 31.0001 -395.129 31.0001V29.0001ZM-383.271 31.0001C-382.718 31.0001 -382.271 30.5523 -382.271 30.0001C-382.271 29.4478 -382.718 29.0001 -383.271 29.0001V31.0001ZM-367.459 29.0001C-368.011 29.0001 -368.459 29.4478 -368.459 30.0001C-368.459 30.5523 -368.011 31.0001 -367.459 31.0001V29.0001ZM-365.482 31.0001C-364.93 31.0001 -364.482 30.5523 -364.482 30.0001C-364.482 29.4478 -364.93 29.0001 -365.482 29.0001V31.0001ZM-355.6 29.0001C-356.152 29.0001 -356.6 29.4478 -356.6 30.0001C-356.6 30.5523 -356.152 31.0001 -355.6 31.0001V29.0001ZM-343.741 31.0001C-343.189 31.0001 -342.741 30.5523 -342.741 30.0001C-342.741 29.4478 -343.189 29.0001 -343.741 29.0001V31.0001ZM-327.929 29.0001C-328.482 29.0001 -328.929 29.4478 -328.929 30.0001C-328.929 30.5523 -328.482 31.0001 -327.929 31.0001V29.0001ZM-325.953 31.0001C-325.401 31.0001 -324.953 30.5523 -324.953 30.0001C-324.953 29.4478 -325.401 29.0001 -325.953 29.0001V31.0001ZM-316.071 29.0001C-316.623 29.0001 -317.071 29.4478 -317.071 30.0001C-317.071 30.5523 -316.623 31.0001 -316.071 31.0001V29.0001ZM-304.212 31.0001C-303.659 31.0001 -303.212 30.5523 -303.212 30.0001C-303.212 29.4478 -303.659 29.0001 -304.212 29.0001V31.0001ZM-288.4 29.0001C-288.952 29.0001 -289.4 29.4478 -289.4 30.0001C-289.4 30.5523 -288.952 31.0001 -288.4 31.0001V29.0001ZM-286.424 31.0001C-285.871 31.0001 -285.424 30.5523 -285.424 30.0001C-285.424 29.4478 -285.871 29.0001 -286.424 29.0001V31.0001ZM-276.541 29.0001C-277.093 29.0001 -277.541 29.4478 -277.541 30.0001C-277.541 30.5523 -277.093 31.0001 -276.541 31.0001V29.0001ZM-264.682 31.0001C-264.13 31.0001 -263.682 30.5523 -263.682 30.0001C-263.682 29.4478 -264.13 29.0001 -264.682 29.0001V31.0001ZM-248.871 29.0001C-249.423 29.0001 -249.871 29.4478 -249.871 30.0001C-249.871 30.5523 -249.423 31.0001 -248.871 31.0001V29.0001ZM-246.894 31.0001C-246.342 31.0001 -245.894 30.5523 -245.894 30.0001C-245.894 29.4478 -246.342 29.0001 -246.894 29.0001V31.0001ZM-237.012 29.0001C-237.564 29.0001 -238.012 29.4478 -238.012 30.0001C-238.012 30.5523 -237.564 31.0001 -237.012 31.0001V29.0001ZM-225.153 31.0001C-224.601 31.0001 -224.153 30.5523 -224.153 30.0001C-224.153 29.4478 -224.601 29.0001 -225.153 29.0001V31.0001ZM-209.341 29.0001C-209.893 29.0001 -210.341 29.4478 -210.341 30.0001C-210.341 30.5523 -209.893 31.0001 -209.341 31.0001V29.0001ZM-207.365 31.0001C-206.812 31.0001 -206.365 30.5523 -206.365 30.0001C-206.365 29.4478 -206.812 29.0001 -207.365 29.0001V31.0001ZM-197.482 29.0001C-198.035 29.0001 -198.482 29.4478 -198.482 30.0001C-198.482 30.5523 -198.035 31.0001 -197.482 31.0001V29.0001ZM-185.624 31.0001C-185.071 31.0001 -184.624 30.5523 -184.624 30.0001C-184.624 29.4478 -185.071 29.0001 -185.624 29.0001V31.0001ZM-169.812 29.0001C-170.364 29.0001 -170.812 29.4478 -170.812 30.0001C-170.812 30.5523 -170.364 31.0001 -169.812 31.0001V29.0001ZM-167.835 31.0001C-167.283 31.0001 -166.835 30.5523 -166.835 30.0001C-166.835 29.4478 -167.283 29.0001 -167.835 29.0001V31.0001ZM-157.953 29.0001C-158.505 29.0001 -158.953 29.4478 -158.953 30.0001C-158.953 30.5523 -158.505 31.0001 -157.953 31.0001V29.0001ZM-146.094 31.0001C-145.542 31.0001 -145.094 30.5523 -145.094 30.0001C-145.094 29.4478 -145.542 29.0001 -146.094 29.0001V31.0001ZM-130.282 29.0001C-130.835 29.0001 -131.282 29.4478 -131.282 30.0001C-131.282 30.5523 -130.835 31.0001 -130.282 31.0001V29.0001ZM-128.306 31.0001C-127.754 31.0001 -127.306 30.5523 -127.306 30.0001C-127.306 29.4478 -127.754 29.0001 -128.306 29.0001V31.0001ZM-118.423 29.0001C-118.976 29.0001 -119.423 29.4478 -119.423 30.0001C-119.423 30.5523 -118.976 31.0001 -118.423 31.0001V29.0001ZM-106.565 31.0001C-106.012 31.0001 -105.565 30.5523 -105.565 30.0001C-105.565 29.4478 -106.012 29.0001 -106.565 29.0001V31.0001ZM-90.7529 29.0001C-91.3052 29.0001 -91.7529 29.4478 -91.7529 30.0001C-91.7529 30.5523 -91.3052 31.0001 -90.7529 31.0001V29.0001ZM-88.7764 31.0001C-88.2242 31.0001 -87.7764 30.5523 -87.7764 30.0001C-87.7764 29.4478 -88.2242 29.0001 -88.7764 29.0001V31.0001ZM-78.8941 29.0001C-79.4464 29.0001 -79.8941 29.4478 -79.8941 30.0001C-79.8941 30.5523 -79.4464 31.0001 -78.8941 31.0001V29.0001ZM-67.0352 31.0001C-66.483 31.0001 -66.0352 30.5523 -66.0352 30.0001C-66.0352 29.4478 -66.483 29.0001 -67.0352 29.0001V31.0001ZM-51.2235 29.0001C-51.7758 29.0001 -52.2235 29.4478 -52.2235 30.0001C-52.2235 30.5523 -51.7758 31.0001 -51.2235 31.0001V29.0001ZM-49.247 31.0001C-48.6947 31.0001 -48.247 30.5523 -48.247 30.0001C-48.247 29.4478 -48.6947 29.0001 -49.247 29.0001V31.0001ZM-39.3647 29.0001C-39.9169 29.0001 -40.3647 29.4478 -40.3647 30.0001C-40.3647 30.5523 -39.9169 31.0001 -39.3647 31.0001V29.0001ZM-27.5058 31.0001C-26.9535 31.0001 -26.5058 30.5523 -26.5058 30.0001C-26.5058 29.4478 -26.9535 29.0001 -27.5058 29.0001V31.0001ZM-11.694 29.0001C-12.2463 29.0001 -12.694 29.4478 -12.694 30.0001C-12.694 30.5523 -12.2463 31.0001 -11.694 31.0001V29.0001ZM-9.71759 31.0001C-9.16531 31.0001 -8.71759 30.5523 -8.71759 30.0001C-8.71759 29.4478 -9.16531 29.0001 -9.71759 29.0001V31.0001ZM0.164764 29.0001C-0.387543 29.0001 -0.835236 29.4478 -0.835236 30.0001C-0.835236 30.5523 -0.387543 31.0001 0.164764 31.0001V29.0001ZM12.0236 31.0001C12.5759 31.0001 13.0236 30.5523 13.0236 30.0001C13.0236 29.4478 12.5759 29.0001 12.0236 29.0001V31.0001ZM27.8354 29.0001C27.2831 29.0001 26.8354 29.4478 26.8354 30.0001C26.8354 30.5523 27.2831 31.0001 27.8354 31.0001V29.0001ZM29.8118 31.0001C30.3641 31.0001 30.8118 30.5523 30.8118 30.0001C30.8118 29.4478 30.3641 29.0001 29.8118 29.0001V31.0001ZM39.6942 29.0001C39.1419 29.0001 38.6942 29.4478 38.6942 30.0001C38.6942 30.5523 39.1419 31.0001 39.6942 31.0001V29.0001ZM51.553 31.0001C52.1053 31.0001 52.553 30.5523 52.553 30.0001C52.553 29.4478 52.1053 29.0001 51.553 29.0001V31.0001ZM67.3648 29.0001C66.8125 29.0001 66.3648 29.4478 66.3648 30.0001C66.3648 30.5523 66.8125 31.0001 67.3648 31.0001V29.0001ZM69.3412 31.0001C69.8935 31.0001 70.3412 30.5523 70.3412 30.0001C70.3412 29.4478 69.8935 29.0001 69.3412 29.0001V31.0001ZM79.2236 29.0001C78.6713 29.0001 78.2236 29.4478 78.2236 30.0001C78.2236 30.5523 78.6713 31.0001 79.2236 31.0001V29.0001ZM91.0824 31.0001C91.6347 31.0001 92.0824 30.5523 92.0824 30.0001C92.0824 29.4478 91.6347 29.0001 91.0824 29.0001V31.0001ZM106.894 29.0001C106.342 29.0001 105.894 29.4478 105.894 30.0001C105.894 30.5523 106.342 31.0001 106.894 31.0001V29.0001ZM108.871 31.0001C109.423 31.0001 109.871 30.5523 109.871 30.0001C109.871 29.4478 109.423 29.0001 108.871 29.0001V31.0001ZM118.753 29.0001C118.201 29.0001 117.753 29.4478 117.753 30.0001C117.753 30.5523 118.201 31.0001 118.753 31.0001V29.0001ZM130.612 31.0001C131.164 31.0001 131.612 30.5523 131.612 30.0001C131.612 29.4478 131.164 29.0001 130.612 29.0001V31.0001ZM146.424 29.0001C145.871 29.0001 145.424 29.4478 145.424 30.0001C145.424 30.5523 145.871 31.0001 146.424 31.0001V29.0001ZM148.4 31.0001C148.952 31.0001 149.4 30.5523 149.4 30.0001C149.4 29.4478 148.952 29.0001 148.4 29.0001V31.0001ZM158.282 29.0001C157.73 29.0001 157.282 29.4478 157.282 30.0001C157.282 30.5523 157.73 31.0001 158.282 31.0001V29.0001ZM170.141 31.0001C170.693 31.0001 171.141 30.5523 171.141 30.0001C171.141 29.4478 170.693 29.0001 170.141 29.0001V31.0001ZM185.953 29.0001C185.401 29.0001 184.953 29.4478 184.953 30.0001C184.953 30.5523 185.401 31.0001 185.953 31.0001V29.0001ZM187.929 31.0001C188.482 31.0001 188.929 30.5523 188.929 30.0001C188.929 29.4478 188.482 29.0001 187.929 29.0001V31.0001ZM197.812 29.0001C197.259 29.0001 196.812 29.4478 196.812 30.0001C196.812 30.5523 197.259 31.0001 197.812 31.0001V29.0001ZM209.67 31.0001C210.223 31.0001 210.67 30.5523 210.67 30.0001C210.67 29.4478 210.223 29.0001 209.67 29.0001V31.0001ZM225.482 29.0001C224.93 29.0001 224.482 29.4478 224.482 30.0001C224.482 30.5523 224.93 31.0001 225.482 31.0001V29.0001ZM227.459 31.0001C228.011 31.0001 228.459 30.5523 228.459 30.0001C228.459 29.4478 228.011 29.0001 227.459 29.0001V31.0001ZM237.341 29.0001C236.789 29.0001 236.341 29.4478 236.341 30.0001C236.341 30.5523 236.789 31.0001 237.341 31.0001V29.0001ZM249.2 31.0001C249.752 31.0001 250.2 30.5523 250.2 30.0001C250.2 29.4478 249.752 29.0001 249.2 29.0001V31.0001ZM265.012 29.0001C264.459 29.0001 264.012 29.4478 264.012 30.0001C264.012 30.5523 264.459 31.0001 265.012 31.0001V29.0001ZM-406 31.0001H-405.012V29.0001H-406V31.0001ZM-395.129 31.0001H-383.271V29.0001H-395.129V31.0001ZM-367.459 31.0001H-365.482V29.0001H-367.459V31.0001ZM-355.6 31.0001H-343.741V29.0001H-355.6V31.0001ZM-327.929 31.0001H-325.953V29.0001H-327.929V31.0001ZM-316.071 31.0001H-304.212V29.0001H-316.071V31.0001ZM-288.4 31.0001H-286.424V29.0001H-288.4V31.0001ZM-276.541 31.0001H-264.682V29.0001H-276.541V31.0001ZM-248.871 31.0001H-246.894V29.0001H-248.871V31.0001ZM-237.012 31.0001H-225.153V29.0001H-237.012V31.0001ZM-209.341 31.0001H-207.365V29.0001H-209.341V31.0001ZM-197.482 31.0001H-185.624V29.0001H-197.482V31.0001ZM-169.812 31.0001H-167.835V29.0001H-169.812V31.0001ZM-157.953 31.0001H-146.094V29.0001H-157.953V31.0001ZM-130.282 31.0001H-128.306V29.0001H-130.282V31.0001ZM-118.423 31.0001H-106.565V29.0001H-118.423V31.0001ZM-90.7529 31.0001H-88.7764V29.0001H-90.7529V31.0001ZM-78.8941 31.0001H-67.0352V29.0001H-78.8941V31.0001ZM-51.2235 31.0001H-49.247V29.0001H-51.2235V31.0001ZM-39.3647 31.0001H-27.5058V29.0001H-39.3647V31.0001ZM-11.694 31.0001H-9.71759V29.0001H-11.694V31.0001ZM0.164764 31.0001H12.0236V29.0001H0.164764V31.0001ZM27.8354 31.0001H29.8118V29.0001H27.8354V31.0001ZM39.6942 31.0001H51.553V29.0001H39.6942V31.0001ZM67.3648 31.0001H69.3412V29.0001H67.3648V31.0001ZM79.2236 31.0001H91.0824V29.0001H79.2236V31.0001ZM106.894 31.0001H108.871V29.0001H106.894V31.0001ZM118.753 31.0001H130.612V29.0001H118.753V31.0001ZM146.424 31.0001H148.4V29.0001H146.424V31.0001ZM158.282 31.0001H170.141V29.0001H158.282V31.0001ZM185.953 31.0001H187.929V29.0001H185.953V31.0001ZM197.812 31.0001H209.67V29.0001H197.812V31.0001ZM225.482 31.0001H227.459V29.0001H225.482V31.0001ZM237.341 31.0001H249.2V29.0001H237.341V31.0001ZM265.012 31.0001H266V29.0001H265.012V31.0001ZM-416.667 30.0001C-416.667 35.8911 -411.891 40.6667 -406 40.6667C-400.109 40.6667 -395.333 35.8911 -395.333 30.0001C-395.333 24.109 -400.109 19.3334 -406 19.3334C-411.891 19.3334 -416.667 24.109 -416.667 30.0001ZM-405.012 32.0001C-403.907 32.0001 -403.012 31.1046 -403.012 30.0001C-403.012 28.8955 -403.907 28.0001 -405.012 28.0001V32.0001ZM-395.129 28.0001C-396.234 28.0001 -397.129 28.8955 -397.129 30.0001C-397.129 31.1046 -396.234 32.0001 -395.129 32.0001V28.0001ZM-383.271 32.0001C-382.166 32.0001 -381.271 31.1046 -381.271 30.0001C-381.271 28.8955 -382.166 28.0001 -383.271 28.0001V32.0001ZM-367.459 28.0001C-368.563 28.0001 -369.459 28.8955 -369.459 30.0001C-369.459 31.1046 -368.563 32.0001 -367.459 32.0001V28.0001ZM-365.482 32.0001C-364.378 32.0001 -363.482 31.1046 -363.482 30.0001C-363.482 28.8955 -364.378 28.0001 -365.482 28.0001V32.0001ZM-355.6 28.0001C-356.705 28.0001 -357.6 28.8955 -357.6 30.0001C-357.6 31.1046 -356.705 32.0001 -355.6 32.0001V28.0001ZM-343.741 32.0001C-342.637 32.0001 -341.741 31.1046 -341.741 30.0001C-341.741 28.8955 -342.637 28.0001 -343.741 28.0001V32.0001ZM-327.929 28.0001C-329.034 28.0001 -329.929 28.8955 -329.929 30.0001C-329.929 31.1046 -329.034 32.0001 -327.929 32.0001V28.0001ZM-325.953 32.0001C-324.848 32.0001 -323.953 31.1046 -323.953 30.0001C-323.953 28.8955 -324.848 28.0001 -325.953 28.0001V32.0001ZM-316.071 28.0001C-317.175 28.0001 -318.071 28.8955 -318.071 30.0001C-318.071 31.1046 -317.175 32.0001 -316.071 32.0001V28.0001ZM-304.212 32.0001C-303.107 32.0001 -302.212 31.1046 -302.212 30.0001C-302.212 28.8955 -303.107 28.0001 -304.212 28.0001V32.0001ZM-288.4 28.0001C-289.505 28.0001 -290.4 28.8955 -290.4 30.0001C-290.4 31.1046 -289.505 32.0001 -288.4 32.0001V28.0001ZM-286.424 32.0001C-285.319 32.0001 -284.424 31.1046 -284.424 30.0001C-284.424 28.8955 -285.319 28.0001 -286.424 28.0001V32.0001ZM-276.541 28.0001C-277.646 28.0001 -278.541 28.8955 -278.541 30.0001C-278.541 31.1046 -277.646 32.0001 -276.541 32.0001V28.0001ZM-264.682 32.0001C-263.578 32.0001 -262.682 31.1046 -262.682 30.0001C-262.682 28.8955 -263.578 28.0001 -264.682 28.0001V32.0001ZM-248.871 28.0001C-249.975 28.0001 -250.871 28.8955 -250.871 30.0001C-250.871 31.1046 -249.975 32.0001 -248.871 32.0001V28.0001ZM-246.894 32.0001C-245.79 32.0001 -244.894 31.1046 -244.894 30.0001C-244.894 28.8955 -245.79 28.0001 -246.894 28.0001V32.0001ZM-237.012 28.0001C-238.116 28.0001 -239.012 28.8955 -239.012 30.0001C-239.012 31.1046 -238.116 32.0001 -237.012 32.0001V28.0001ZM-225.153 32.0001C-224.048 32.0001 -223.153 31.1046 -223.153 30.0001C-223.153 28.8955 -224.048 28.0001 -225.153 28.0001V32.0001ZM-209.341 28.0001C-210.446 28.0001 -211.341 28.8955 -211.341 30.0001C-211.341 31.1046 -210.446 32.0001 -209.341 32.0001V28.0001ZM-207.365 32.0001C-206.26 32.0001 -205.365 31.1046 -205.365 30.0001C-205.365 28.8955 -206.26 28.0001 -207.365 28.0001V32.0001ZM-197.482 28.0001C-198.587 28.0001 -199.482 28.8955 -199.482 30.0001C-199.482 31.1046 -198.587 32.0001 -197.482 32.0001V28.0001ZM-185.624 32.0001C-184.519 32.0001 -183.624 31.1046 -183.624 30.0001C-183.624 28.8955 -184.519 28.0001 -185.624 28.0001V32.0001ZM-169.812 28.0001C-170.916 28.0001 -171.812 28.8955 -171.812 30.0001C-171.812 31.1046 -170.916 32.0001 -169.812 32.0001V28.0001ZM-167.835 32.0001C-166.731 32.0001 -165.835 31.1046 -165.835 30.0001C-165.835 28.8955 -166.731 28.0001 -167.835 28.0001V32.0001ZM-157.953 28.0001C-159.057 28.0001 -159.953 28.8955 -159.953 30.0001C-159.953 31.1046 -159.057 32.0001 -157.953 32.0001V28.0001ZM-146.094 32.0001C-144.99 32.0001 -144.094 31.1046 -144.094 30.0001C-144.094 28.8955 -144.99 28.0001 -146.094 28.0001V32.0001ZM-130.282 28.0001C-131.387 28.0001 -132.282 28.8955 -132.282 30.0001C-132.282 31.1046 -131.387 32.0001 -130.282 32.0001V28.0001ZM-128.306 32.0001C-127.201 32.0001 -126.306 31.1046 -126.306 30.0001C-126.306 28.8955 -127.201 28.0001 -128.306 28.0001V32.0001ZM-118.423 28.0001C-119.528 28.0001 -120.423 28.8955 -120.423 30.0001C-120.423 31.1046 -119.528 32.0001 -118.423 32.0001V28.0001ZM-106.565 32.0001C-105.46 32.0001 -104.565 31.1046 -104.565 30.0001C-104.565 28.8955 -105.46 28.0001 -106.565 28.0001V32.0001ZM-90.7529 28.0001C-91.8575 28.0001 -92.7529 28.8955 -92.7529 30.0001C-92.7529 31.1046 -91.8575 32.0001 -90.7529 32.0001V28.0001ZM-88.7764 32.0001C-87.6718 32.0001 -86.7764 31.1046 -86.7764 30.0001C-86.7764 28.8955 -87.6718 28.0001 -88.7764 28.0001V32.0001ZM-78.8941 28.0001C-79.9987 28.0001 -80.8941 28.8955 -80.8941 30.0001C-80.8941 31.1046 -79.9987 32.0001 -78.8941 32.0001V28.0001ZM-67.0352 32.0001C-65.9307 32.0001 -65.0352 31.1046 -65.0352 30.0001C-65.0352 28.8955 -65.9307 28.0001 -67.0352 28.0001V32.0001ZM-51.2235 28.0001C-52.3281 28.0001 -53.2235 28.8955 -53.2235 30.0001C-53.2235 31.1046 -52.3281 32.0001 -51.2235 32.0001V28.0001ZM-49.247 32.0001C-48.1425 32.0001 -47.247 31.1046 -47.247 30.0001C-47.247 28.8955 -48.1425 28.0001 -49.247 28.0001V32.0001ZM-39.3647 28.0001C-40.4692 28.0001 -41.3647 28.8955 -41.3647 30.0001C-41.3647 31.1046 -40.4692 32.0001 -39.3647 32.0001V28.0001ZM-27.5058 32.0001C-26.4012 32.0001 -25.5058 31.1046 -25.5058 30.0001C-25.5058 28.8955 -26.4012 28.0001 -27.5058 28.0001V32.0001ZM-11.694 28.0001C-12.7986 28.0001 -13.694 28.8955 -13.694 30.0001C-13.694 31.1046 -12.7986 32.0001 -11.694 32.0001V28.0001ZM-9.71759 32.0001C-8.61304 32.0001 -7.71759 31.1046 -7.71759 30.0001C-7.71759 28.8955 -8.61304 28.0001 -9.71759 28.0001V32.0001ZM0.164764 28.0001C-0.939819 28.0001 -1.83524 28.8955 -1.83524 30.0001C-1.83524 31.1046 -0.939819 32.0001 0.164764 32.0001V28.0001ZM12.0236 32.0001C13.1282 32.0001 14.0236 31.1046 14.0236 30.0001C14.0236 28.8955 13.1282 28.0001 12.0236 28.0001V32.0001ZM27.8354 28.0001C26.7308 28.0001 25.8354 28.8955 25.8354 30.0001C25.8354 31.1046 26.7308 32.0001 27.8354 32.0001V28.0001ZM29.8118 32.0001C30.9164 32.0001 31.8118 31.1046 31.8118 30.0001C31.8118 28.8955 30.9164 28.0001 29.8118 28.0001V32.0001ZM39.6942 28.0001C38.5896 28.0001 37.6942 28.8955 37.6942 30.0001C37.6942 31.1046 38.5896 32.0001 39.6942 32.0001V28.0001ZM51.553 32.0001C52.6576 32.0001 53.553 31.1046 53.553 30.0001C53.553 28.8955 52.6576 28.0001 51.553 28.0001V32.0001ZM67.3648 28.0001C66.2602 28.0001 65.3648 28.8955 65.3648 30.0001C65.3648 31.1046 66.2602 32.0001 67.3648 32.0001V28.0001ZM69.3412 32.0001C70.4458 32.0001 71.3412 31.1046 71.3412 30.0001C71.3412 28.8955 70.4458 28.0001 69.3412 28.0001V32.0001ZM79.2236 28.0001C78.119 28.0001 77.2236 28.8955 77.2236 30.0001C77.2236 31.1046 78.119 32.0001 79.2236 32.0001V28.0001ZM91.0824 32.0001C92.187 32.0001 93.0824 31.1046 93.0824 30.0001C93.0824 28.8955 92.187 28.0001 91.0824 28.0001V32.0001ZM106.894 28.0001C105.79 28.0001 104.894 28.8955 104.894 30.0001C104.894 31.1046 105.79 32.0001 106.894 32.0001V28.0001ZM108.871 32.0001C109.975 32.0001 110.871 31.1046 110.871 30.0001C110.871 28.8955 109.975 28.0001 108.871 28.0001V32.0001ZM118.753 28.0001C117.648 28.0001 116.753 28.8955 116.753 30.0001C116.753 31.1046 117.648 32.0001 118.753 32.0001V28.0001ZM130.612 32.0001C131.716 32.0001 132.612 31.1046 132.612 30.0001C132.612 28.8955 131.716 28.0001 130.612 28.0001V32.0001ZM146.424 28.0001C145.319 28.0001 144.424 28.8955 144.424 30.0001C144.424 31.1046 145.319 32.0001 146.424 32.0001V28.0001ZM148.4 32.0001C149.505 32.0001 150.4 31.1046 150.4 30.0001C150.4 28.8955 149.505 28.0001 148.4 28.0001V32.0001ZM158.282 28.0001C157.178 28.0001 156.282 28.8955 156.282 30.0001C156.282 31.1046 157.178 32.0001 158.282 32.0001V28.0001ZM170.141 32.0001C171.246 32.0001 172.141 31.1046 172.141 30.0001C172.141 28.8955 171.246 28.0001 170.141 28.0001V32.0001ZM185.953 28.0001C184.848 28.0001 183.953 28.8955 183.953 30.0001C183.953 31.1046 184.848 32.0001 185.953 32.0001V28.0001ZM187.929 32.0001C189.034 32.0001 189.929 31.1046 189.929 30.0001C189.929 28.8955 189.034 28.0001 187.929 28.0001V32.0001ZM197.812 28.0001C196.707 28.0001 195.812 28.8955 195.812 30.0001C195.812 31.1046 196.707 32.0001 197.812 32.0001V28.0001ZM209.67 32.0001C210.775 32.0001 211.67 31.1046 211.67 30.0001C211.67 28.8955 210.775 28.0001 209.67 28.0001V32.0001ZM225.482 28.0001C224.378 28.0001 223.482 28.8955 223.482 30.0001C223.482 31.1046 224.378 32.0001 225.482 32.0001V28.0001ZM227.459 32.0001C228.563 32.0001 229.459 31.1046 229.459 30.0001C229.459 28.8955 228.563 28.0001 227.459 28.0001V32.0001ZM237.341 28.0001C236.236 28.0001 235.341 28.8955 235.341 30.0001C235.341 31.1046 236.236 32.0001 237.341 32.0001V28.0001ZM249.2 32.0001C250.304 32.0001 251.2 31.1046 251.2 30.0001C251.2 28.8955 250.304 28.0001 249.2 28.0001V32.0001ZM265.012 28.0001C263.907 28.0001 263.012 28.8955 263.012 30.0001C263.012 31.1046 263.907 32.0001 265.012 32.0001V28.0001ZM-406 32.0001H-405.012V28.0001H-406V32.0001ZM-395.129 32.0001H-383.271V28.0001H-395.129V32.0001ZM-367.459 32.0001H-365.482V28.0001H-367.459V32.0001ZM-355.6 32.0001H-343.741V28.0001H-355.6V32.0001ZM-327.929 32.0001H-325.953V28.0001H-327.929V32.0001ZM-316.071 32.0001H-304.212V28.0001H-316.071V32.0001ZM-288.4 32.0001H-286.424V28.0001H-288.4V32.0001ZM-276.541 32.0001H-264.682V28.0001H-276.541V32.0001ZM-248.871 32.0001H-246.894V28.0001H-248.871V32.0001ZM-237.012 32.0001H-225.153V28.0001H-237.012V32.0001ZM-209.341 32.0001H-207.365V28.0001H-209.341V32.0001ZM-197.482 32.0001H-185.624V28.0001H-197.482V32.0001ZM-169.812 32.0001H-167.835V28.0001H-169.812V32.0001ZM-157.953 32.0001H-146.094V28.0001H-157.953V32.0001ZM-130.282 32.0001H-128.306V28.0001H-130.282V32.0001ZM-118.423 32.0001H-106.565V28.0001H-118.423V32.0001ZM-90.7529 32.0001H-88.7764V28.0001H-90.7529V32.0001ZM-78.8941 32.0001H-67.0352V28.0001H-78.8941V32.0001ZM-51.2235 32.0001H-49.247V28.0001H-51.2235V32.0001ZM-39.3647 32.0001H-27.5058V28.0001H-39.3647V32.0001ZM-11.694 32.0001H-9.71759V28.0001H-11.694V32.0001ZM0.164764 32.0001H12.0236V28.0001H0.164764V32.0001ZM27.8354 32.0001H29.8118V28.0001H27.8354V32.0001ZM39.6942 32.0001H51.553V28.0001H39.6942V32.0001ZM67.3648 32.0001H69.3412V28.0001H67.3648V32.0001ZM79.2236 32.0001H91.0824V28.0001H79.2236V32.0001ZM106.894 32.0001H108.871V28.0001H106.894V32.0001ZM118.753 32.0001H130.612V28.0001H118.753V32.0001ZM146.424 32.0001H148.4V28.0001H146.424V32.0001ZM158.282 32.0001H170.141V28.0001H158.282V32.0001ZM185.953 32.0001H187.929V28.0001H185.953V32.0001ZM197.812 32.0001H209.67V28.0001H197.812V32.0001ZM225.482 32.0001H227.459V28.0001H225.482V32.0001ZM237.341 32.0001H249.2V28.0001H237.341V32.0001ZM265.012 32.0001H266V28.0001H265.012V32.0001Z" fill="#9CAFC6"/>
<rect x="54" y="6.10352e-05" width="56.3054" height="56.3054" rx="28.1527" fill="#FFA74F"/>
<path d="M71 39.4037H93H71ZM74.1778 24.1468H72.2222C71.55 24.1468 71 24.6509 71 25.267V34.923C71 35.5391 71.55 36.0432 72.2222 36.0432H74.1778C74.85 36.0432 75.4 35.5391 75.4 34.923V25.267C75.4 24.6509 74.85 24.1468 74.1778 24.1468ZM82.9778 20.5734H81.0222C80.35 20.5734 79.8 21.0775 79.8 21.6936V34.923C79.8 35.5391 80.35 36.0432 81.0222 36.0432H82.9778C83.65 36.0432 84.2 35.5391 84.2 34.923V21.6936C84.2 21.0775 83.65 20.5734 82.9778 20.5734ZM91.7778 17.0001H89.8222C89.15 17.0001 88.6 17.5041 88.6 18.1202V34.923C88.6 35.5391 89.15 36.0432 89.8222 36.0432H91.7778C92.45 36.0432 93 35.5391 93 34.923V18.1202C93 17.5041 92.45 17.0001 91.7778 17.0001Z" fill="white"/>
<path d="M266 30.0001V30.0001C318.467 30.0001 361 72.533 361 125V128" stroke="#9CAFC6" stroke-width="3.7" stroke-dasharray="4 10 12 16"/>
<rect x="203" y="24.0001" width="11.3054" height="11.3054" rx="5.65271" fill="#FFA74F"/>
<path d="M361 1299.33C363.946 1299.33 366.333 1296.95 366.333 1294C366.333 1291.05 363.946 1288.67 361 1288.67C358.054 1288.67 355.667 1291.05 355.667 1294C355.667 1296.95 358.054 1299.33 361 1299.33ZM362 1292.99C362 1292.44 361.552 1291.99 361 1291.99C360.448 1291.99 360 1292.44 360 1292.99L362 1292.99ZM360 1282.94C360 1283.5 360.448 1283.94 361 1283.94C361.552 1283.94 362 1283.5 362 1282.94L360 1282.94ZM362 1270.88C362 1270.33 361.552 1269.88 361 1269.88C360.448 1269.88 360 1270.33 360 1270.88L362 1270.88ZM360 1254.8C360 1255.35 360.448 1255.8 361 1255.8C361.552 1255.8 362 1255.35 362 1254.8L360 1254.8ZM362 1252.79C362 1252.24 361.552 1251.79 361 1251.79C360.448 1251.79 360 1252.24 360 1252.79L362 1252.79ZM360 1242.74C360 1243.29 360.448 1243.74 361 1243.74C361.552 1243.74 362 1243.29 362 1242.74L360 1242.74ZM362 1230.67C362 1230.12 361.552 1229.67 361 1229.67C360.448 1229.67 360 1230.12 360 1230.67L362 1230.67ZM360 1214.59C360 1215.14 360.448 1215.59 361 1215.59C361.552 1215.59 362 1215.14 362 1214.59L360 1214.59ZM362 1212.58C362 1212.03 361.552 1211.58 361 1211.58C360.448 1211.58 360 1212.03 360 1212.58L362 1212.58ZM360 1202.53C360 1203.08 360.448 1203.53 361 1203.53C361.552 1203.53 362 1203.08 362 1202.53L360 1202.53ZM362 1190.47C362 1189.92 361.552 1189.47 361 1189.47C360.448 1189.47 360 1189.92 360 1190.47L362 1190.47ZM360 1174.38C360 1174.94 360.448 1175.38 361 1175.38C361.552 1175.38 362 1174.94 362 1174.38L360 1174.38ZM362 1172.37C362 1171.82 361.552 1171.37 361 1171.37C360.448 1171.37 360 1171.82 360 1172.37L362 1172.37ZM360 1162.32C360 1162.87 360.448 1163.32 361 1163.32C361.552 1163.32 362 1162.87 362 1162.32L360 1162.32ZM362 1150.26C362 1149.71 361.552 1149.26 361 1149.26C360.448 1149.26 360 1149.71 360 1150.26L362 1150.26ZM360 1134.18C360 1134.73 360.448 1135.18 361 1135.18C361.552 1135.18 362 1134.73 362 1134.18L360 1134.18ZM362 1132.17C362 1131.61 361.552 1131.17 361 1131.17C360.448 1131.17 360 1131.61 360 1132.17L362 1132.17ZM360 1122.12C360 1122.67 360.448 1123.12 361 1123.12C361.552 1123.12 362 1122.67 362 1122.12L360 1122.12ZM362 1110.05C362 1109.5 361.552 1109.05 361 1109.05C360.448 1109.05 360 1109.5 360 1110.05L362 1110.05ZM360 1093.97C360 1094.52 360.448 1094.97 361 1094.97C361.552 1094.97 362 1094.52 362 1093.97L360 1093.97ZM362 1091.96C362 1091.41 361.552 1090.96 361 1090.96C360.448 1090.96 360 1091.41 360 1091.96L362 1091.96ZM360 1081.91C360 1082.46 360.448 1082.91 361 1082.91C361.552 1082.91 362 1082.46 362 1081.91L360 1081.91ZM362 1069.85C362 1069.29 361.552 1068.85 361 1068.85C360.448 1068.85 360 1069.29 360 1069.85L362 1069.85ZM360 1053.76C360 1054.32 360.448 1054.76 361 1054.76C361.552 1054.76 362 1054.32 362 1053.76L360 1053.76ZM362 1051.75C362 1051.2 361.552 1050.75 361 1050.75C360.448 1050.75 360 1051.2 360 1051.75L362 1051.75ZM360 1041.7C360 1042.25 360.448 1042.7 361 1042.7C361.552 1042.7 362 1042.25 362 1041.7L360 1041.7ZM362 1029.64C362 1029.09 361.552 1028.64 361 1028.64C360.448 1028.64 360 1029.09 360 1029.64L362 1029.64ZM360 1013.56C360 1014.11 360.448 1014.56 361 1014.56C361.552 1014.56 362 1014.11 362 1013.56L360 1013.56ZM362 1011.55C362 1010.99 361.552 1010.55 361 1010.55C360.448 1010.55 360 1010.99 360 1011.55L362 1011.55ZM360 1001.49C360 1002.05 360.448 1002.49 361 1002.49C361.552 1002.49 362 1002.05 362 1001.49L360 1001.49ZM362 989.433C362 988.88 361.552 988.433 361 988.433C360.448 988.433 360 988.88 360 989.433L362 989.433ZM360 973.35C360 973.902 360.448 974.35 361 974.35C361.552 974.35 362 973.902 362 973.35L360 973.35ZM362 971.34C362 970.787 361.552 970.34 361 970.34C360.448 970.34 360 970.787 360 971.34L362 971.34ZM360 961.288C360 961.84 360.448 962.288 361 962.288C361.552 962.288 362 961.84 362 961.288L360 961.288ZM362 949.226C362 948.674 361.552 948.226 361 948.226C360.448 948.226 360 948.674 360 949.226L362 949.226ZM360 933.143C360 933.695 360.448 934.143 361 934.143C361.552 934.143 362 933.695 362 933.143L360 933.143ZM362 931.133C362 930.58 361.552 930.133 361 930.133C360.448 930.133 360 930.58 360 931.133L362 931.133ZM360 921.081C360 921.633 360.448 922.081 361 922.081C361.552 922.081 362 921.633 362 921.081L360 921.081ZM362 909.019C362 908.467 361.552 908.019 361 908.019C360.448 908.019 360 908.467 360 909.019L362 909.019ZM360 892.936C360 893.488 360.448 893.936 361 893.936C361.552 893.936 362 893.488 362 892.936L360 892.936ZM362 890.926C362 890.374 361.552 889.926 361 889.926C360.448 889.926 360 890.374 360 890.926L362 890.926ZM360 880.874C360 881.426 360.448 881.874 361 881.874C361.552 881.874 362 881.426 362 880.874L360 880.874ZM362 868.812C362 868.26 361.552 867.812 361 867.812C360.448 867.812 360 868.26 360 868.812L362 868.812ZM360 852.729C360 853.282 360.448 853.729 361 853.729C361.552 853.729 362 853.282 362 852.729L360 852.729ZM362 850.719C362 850.167 361.552 849.719 361 849.719C360.448 849.719 360 850.167 360 850.719L362 850.719ZM360 840.667C360 841.219 360.448 841.667 361 841.667C361.552 841.667 362 841.219 362 840.667L360 840.667ZM362 828.605C362 828.053 361.552 827.605 361 827.605C360.448 827.605 360 828.053 360 828.605L362 828.605ZM360 812.522C360 813.075 360.448 813.522 361 813.522C361.552 813.522 362 813.075 362 812.522L360 812.522ZM362 810.512C362 809.96 361.552 809.512 361 809.512C360.448 809.512 360 809.96 360 810.512L362 810.512ZM360 800.46C360 801.013 360.448 801.46 361 801.46C361.552 801.46 362 801.013 362 800.46L360 800.46ZM362 788.398C362 787.846 361.552 787.398 361 787.398C360.448 787.398 360 787.846 360 788.398L362 788.398ZM360 772.315C360 772.868 360.448 773.315 361 773.315C361.552 773.315 362 772.868 362 772.315L360 772.315ZM362 770.305C362 769.753 361.552 769.305 361 769.305C360.448 769.305 360 769.753 360 770.305L362 770.305ZM360 760.253C360 760.806 360.448 761.253 361 761.253C361.552 761.253 362 760.806 362 760.253L360 760.253ZM362 748.191C362 747.639 361.552 747.191 361 747.191C360.448 747.191 360 747.639 360 748.191L362 748.191ZM360 732.109C360 732.661 360.448 733.109 361 733.109C361.552 733.109 362 732.661 362 732.109L360 732.109ZM362 730.098C362 729.546 361.552 729.098 361 729.098C360.448 729.098 360 729.546 360 730.098L362 730.098ZM360 720.047C360 720.599 360.448 721.047 361 721.047C361.552 721.047 362 720.599 362 720.047L360 720.047ZM362 707.985C362 707.432 361.552 706.985 361 706.985C360.448 706.985 360 707.432 360 707.985L362 707.985ZM360 691.902C360 692.454 360.448 692.902 361 692.902C361.552 692.902 362 692.454 362 691.902L360 691.902ZM362 689.891C362 689.339 361.552 688.891 361 688.891C360.448 688.891 360 689.339 360 689.891L362 689.891ZM360 679.84C360 680.392 360.448 680.84 361 680.84C361.552 680.84 362 680.392 362 679.84L360 679.84ZM362 667.778C362 667.225 361.552 666.778 361 666.778C360.448 666.778 360 667.225 360 667.778L362 667.778ZM360 651.695C360 652.247 360.448 652.695 361 652.695C361.552 652.695 362 652.247 362 651.695L360 651.695ZM362 649.685C362 649.132 361.552 648.685 361 648.685C360.448 648.685 360 649.132 360 649.685L362 649.685ZM360 639.633C360 640.185 360.448 640.633 361 640.633C361.552 640.633 362 640.185 362 639.633L360 639.633ZM362 627.571C362 627.019 361.552 626.571 361 626.571C360.448 626.571 360 627.019 360 627.571L362 627.571ZM360 611.488C360 612.04 360.448 612.488 361 612.488C361.552 612.488 362 612.04 362 611.488L360 611.488ZM362 609.478C362 608.925 361.552 608.478 361 608.478C360.448 608.478 360 608.925 360 609.478L362 609.478ZM360 599.426C360 599.978 360.448 600.426 361 600.426C361.552 600.426 362 599.978 362 599.426L360 599.426ZM362 587.364C362 586.812 361.552 586.364 361 586.364C360.448 586.364 360 586.812 360 587.364L362 587.364ZM360 571.281C360 571.834 360.448 572.281 361 572.281C361.552 572.281 362 571.834 362 571.281L360 571.281ZM362 569.271C362 568.719 361.552 568.271 361 568.271C360.448 568.271 360 568.719 360 569.271L362 569.271ZM360 559.219C360 559.772 360.448 560.219 361 560.219C361.552 560.219 362 559.772 362 559.219L360 559.219ZM362 547.157C362 546.605 361.552 546.157 361 546.157C360.448 546.157 360 546.605 360 547.157L362 547.157ZM360 531.074C360 531.627 360.448 532.074 361 532.074C361.552 532.074 362 531.627 362 531.074L360 531.074ZM362 529.064C362 528.512 361.552 528.064 361 528.064C360.448 528.064 360 528.512 360 529.064L362 529.064ZM360 519.012C360 519.565 360.448 520.012 361 520.012C361.552 520.012 362 519.565 362 519.012L360 519.012ZM362 506.95C362 506.398 361.552 505.95 361 505.95C360.448 505.95 360 506.398 360 506.95L362 506.95ZM360 490.868C360 491.42 360.448 491.868 361 491.868C361.552 491.868 362 491.42 362 490.868L360 490.868ZM362 488.857C362 488.305 361.552 487.857 361 487.857C360.448 487.857 360 488.305 360 488.857L362 488.857ZM360 478.806C360 479.358 360.448 479.806 361 479.806C361.552 479.806 362 479.358 362 478.806L360 478.806ZM362 466.743C362 466.191 361.552 465.743 361 465.743C360.448 465.743 360 466.191 360 466.743L362 466.743ZM360 450.661C360 451.213 360.448 451.661 361 451.661C361.552 451.661 362 451.213 362 450.661L360 450.661ZM362 448.65C362 448.098 361.552 447.65 361 447.65C360.448 447.65 360 448.098 360 448.65L362 448.65ZM360 438.599C360 439.151 360.448 439.599 361 439.599C361.552 439.599 362 439.151 362 438.599L360 438.599ZM362 426.537C362 425.984 361.552 425.537 361 425.537C360.448 425.537 360 425.984 360 426.537L362 426.537ZM360 410.454C360 411.006 360.448 411.454 361 411.454C361.552 411.454 362 411.006 362 410.454L360 410.454ZM362 408.444C362 407.891 361.552 407.444 361 407.444C360.448 407.444 360 407.891 360 408.444L362 408.444ZM360 398.392C360 398.944 360.448 399.392 361 399.392C361.552 399.392 362 398.944 362 398.392L360 398.392ZM362 386.33C362 385.777 361.552 385.33 361 385.33C360.448 385.33 360 385.777 360 386.33L362 386.33ZM360 370.247C360 370.799 360.448 371.247 361 371.247C361.552 371.247 362 370.799 362 370.247L360 370.247ZM362 368.237C362 367.684 361.552 367.237 361 367.237C360.448 367.237 360 367.684 360 368.237L362 368.237ZM360 358.185C360 358.737 360.448 359.185 361 359.185C361.552 359.185 362 358.737 362 358.185L360 358.185ZM362 346.123C362 345.571 361.552 345.123 361 345.123C360.448 345.123 360 345.571 360 346.123L362 346.123ZM360 330.04C360 330.592 360.448 331.04 361 331.04C361.552 331.04 362 330.592 362 330.04L360 330.04ZM362 328.03C362 327.478 361.552 327.03 361 327.03C360.448 327.03 360 327.478 360 328.03L362 328.03ZM360 317.978C360 318.53 360.448 318.978 361 318.978C361.552 318.978 362 318.53 362 317.978L360 317.978ZM362 305.916C362 305.364 361.552 304.916 361 304.916C360.448 304.916 360 305.364 360 305.916L362 305.916ZM360 289.833C360 290.386 360.448 290.833 361 290.833C361.552 290.833 362 290.386 362 289.833L360 289.833ZM362 287.823C362 287.271 361.552 286.823 361 286.823C360.448 286.823 360 287.271 360 287.823L362 287.823ZM360 277.771C360 278.324 360.448 278.771 361 278.771C361.552 278.771 362 278.324 362 277.771L360 277.771ZM362 265.709C362 265.157 361.552 264.709 361 264.709C360.448 264.709 360 265.157 360 265.709L362 265.709ZM360 249.626C360 250.179 360.448 250.626 361 250.626C361.552 250.626 362 250.179 362 249.626L360 249.626ZM362 247.616C362 247.064 361.552 246.616 361 246.616C360.448 246.616 360 247.064 360 247.616L362 247.616ZM360 237.564C360 238.117 360.448 238.564 361 238.564C361.552 238.564 362 238.117 362 237.564L360 237.564ZM362 225.502C362 224.95 361.552 224.502 361 224.502C360.448 224.502 360 224.95 360 225.502L362 225.502ZM360 209.42C360 209.972 360.448 210.42 361 210.42C361.552 210.42 362 209.972 362 209.42L360 209.42ZM362 207.409C362 206.857 361.552 206.409 361 206.409C360.448 206.409 360 206.857 360 207.409L362 207.409ZM360 197.357C360 197.91 360.448 198.357 361 198.357C361.552 198.357 362 197.91 362 197.357L360 197.357ZM362 185.295C362 184.743 361.552 184.295 361 184.295C360.448 184.295 360 184.743 360 185.295L362 185.295ZM360 169.213C360 169.765 360.448 170.213 361 170.213C361.552 170.213 362 169.765 362 169.213L360 169.213ZM362 167.202C362 166.65 361.552 166.202 361 166.202C360.448 166.202 360 166.65 360 167.202L362 167.202ZM360 157.151C360 157.703 360.448 158.151 361 158.151C361.552 158.151 362 157.703 362 157.151L360 157.151ZM362 145.088C362 144.536 361.552 144.088 361 144.088C360.448 144.088 360 144.536 360 145.088L362 145.088ZM360 129.006C360 129.558 360.448 130.006 361 130.006C361.552 130.006 362 129.558 362 129.006L360 129.006ZM362 1294L362 1292.99L360 1292.99L360 1294L362 1294ZM362 1282.94L362 1270.88L360 1270.88L360 1282.94L362 1282.94ZM362 1254.8L362 1252.79L360 1252.79L360 1254.8L362 1254.8ZM362 1242.74L362 1230.67L360 1230.67L360 1242.74L362 1242.74ZM362 1214.59L362 1212.58L360 1212.58L360 1214.59L362 1214.59ZM362 1202.53L362 1190.47L360 1190.47L360 1202.53L362 1202.53ZM362 1174.38L362 1172.37L360 1172.37L360 1174.38L362 1174.38ZM362 1162.32L362 1150.26L360 1150.26L360 1162.32L362 1162.32ZM362 1134.18L362 1132.17L360 1132.17L360 1134.18L362 1134.18ZM362 1122.12L362 1110.05L360 1110.05L360 1122.12L362 1122.12ZM362 1093.97L362 1091.96L360 1091.96L360 1093.97L362 1093.97ZM362 1081.91L362 1069.85L360 1069.85L360 1081.91L362 1081.91ZM362 1053.76L362 1051.75L360 1051.75L360 1053.76L362 1053.76ZM362 1041.7L362 1029.64L360 1029.64L360 1041.7L362 1041.7ZM362 1013.56L362 1011.55L360 1011.55L360 1013.56L362 1013.56ZM362 1001.49L362 989.433L360 989.433L360 1001.49L362 1001.49ZM362 973.35L362 971.34L360 971.34L360 973.35L362 973.35ZM362 961.288L362 949.226L360 949.226L360 961.288L362 961.288ZM362 933.143L362 931.133L360 931.133L360 933.143L362 933.143ZM362 921.081L362 909.019L360 909.019L360 921.081L362 921.081ZM362 892.936L362 890.926L360 890.926L360 892.936L362 892.936ZM362 880.874L362 868.812L360 868.812L360 880.874L362 880.874ZM362 852.729L362 850.719L360 850.719L360 852.729L362 852.729ZM362 840.667L362 828.605L360 828.605L360 840.667L362 840.667ZM362 812.522L362 810.512L360 810.512L360 812.522L362 812.522ZM362 800.46L362 788.398L360 788.398L360 800.46L362 800.46ZM362 772.315L362 770.305L360 770.305L360 772.315L362 772.315ZM362 760.253L362 748.191L360 748.191L360 760.253L362 760.253ZM362 732.109L362 730.098L360 730.098L360 732.109L362 732.109ZM362 720.047L362 707.985L360 707.985L360 720.047L362 720.047ZM362 691.902L362 689.891L360 689.891L360 691.902L362 691.902ZM362 679.84L362 667.778L360 667.778L360 679.84L362 679.84ZM362 651.695L362 649.685L360 649.685L360 651.695L362 651.695ZM362 639.633L362 627.571L360 627.571L360 639.633L362 639.633ZM362 611.488L362 609.478L360 609.478L360 611.488L362 611.488ZM362 599.426L362 587.364L360 587.364L360 599.426L362 599.426ZM362 571.281L362 569.271L360 569.271L360 571.281L362 571.281ZM362 559.219L362 547.157L360 547.157L360 559.219L362 559.219ZM362 531.074L362 529.064L360 529.064L360 531.074L362 531.074ZM362 519.012L362 506.95L360 506.95L360 519.012L362 519.012ZM362 490.868L362 488.857L360 488.857L360 490.868L362 490.868ZM362 478.806L362 466.743L360 466.743L360 478.806L362 478.806ZM362 450.661L362 448.65L360 448.65L360 450.661L362 450.661ZM362 438.599L362 426.537L360 426.537L360 438.599L362 438.599ZM362 410.454L362 408.444L360 408.444L360 410.454L362 410.454ZM362 398.392L362 386.33L360 386.33L360 398.392L362 398.392ZM362 370.247L362 368.237L360 368.237L360 370.247L362 370.247ZM362 358.185L362 346.123L360 346.123L360 358.185L362 358.185ZM362 330.04L362 328.03L360 328.03L360 330.04L362 330.04ZM362 317.978L362 305.916L360 305.916L360 317.978L362 317.978ZM362 289.833L362 287.823L360 287.823L360 289.833L362 289.833ZM362 277.771L362 265.709L360 265.709L360 277.771L362 277.771ZM362 249.626L362 247.616L360 247.616L360 249.626L362 249.626ZM362 237.564L362 225.502L360 225.502L360 237.564L362 237.564ZM362 209.42L362 207.409L360 207.409L360 209.42L362 209.42ZM362 197.357L362 185.295L360 185.295L360 197.357L362 197.357ZM362 169.213L362 167.202L360 167.202L360 169.213L362 169.213ZM362 157.151L362 145.088L360 145.088L360 157.151L362 157.151ZM362 129.006L362 128L360 128L360 129.006L362 129.006ZM361 1304.67C366.891 1304.67 371.667 1299.89 371.667 1294C371.667 1288.11 366.891 1283.33 361 1283.33C355.109 1283.33 350.333 1288.11 350.333 1294C350.333 1299.89 355.109 1304.67 361 1304.67ZM363 1292.99C363 1291.89 362.105 1290.99 361 1290.99C359.895 1290.99 359 1291.89 359 1292.99L363 1292.99ZM359 1282.94C359 1284.05 359.895 1284.94 361 1284.94C362.105 1284.94 363 1284.05 363 1282.94L359 1282.94ZM363 1270.88C363 1269.78 362.105 1268.88 361 1268.88C359.895 1268.88 359 1269.78 359 1270.88L363 1270.88ZM359 1254.8C359 1255.9 359.895 1256.8 361 1256.8C362.105 1256.8 363 1255.9 363 1254.8L359 1254.8ZM363 1252.79C363 1251.68 362.105 1250.79 361 1250.79C359.895 1250.79 359 1251.68 359 1252.79L363 1252.79ZM359 1242.74C359 1243.84 359.895 1244.74 361 1244.74C362.105 1244.74 363 1243.84 363 1242.74L359 1242.74ZM363 1230.67C363 1229.57 362.105 1228.67 361 1228.67C359.895 1228.67 359 1229.57 359 1230.67L363 1230.67ZM359 1214.59C359 1215.7 359.895 1216.59 361 1216.59C362.105 1216.59 363 1215.7 363 1214.59L359 1214.59ZM363 1212.58C363 1211.48 362.105 1210.58 361 1210.58C359.895 1210.58 359 1211.48 359 1212.58L363 1212.58ZM359 1202.53C359 1203.63 359.895 1204.53 361 1204.53C362.105 1204.53 363 1203.63 363 1202.53L359 1202.53ZM363 1190.47C363 1189.36 362.105 1188.47 361 1188.47C359.895 1188.47 359 1189.36 359 1190.47L363 1190.47ZM359 1174.38C359 1175.49 359.895 1176.38 361 1176.38C362.105 1176.38 363 1175.49 363 1174.38L359 1174.38ZM363 1172.37C363 1171.27 362.105 1170.37 361 1170.37C359.895 1170.37 359 1171.27 359 1172.37L363 1172.37ZM359 1162.32C359 1163.43 359.895 1164.32 361 1164.32C362.105 1164.32 363 1163.43 363 1162.32L359 1162.32ZM363 1150.26C363 1149.16 362.105 1148.26 361 1148.26C359.895 1148.26 359 1149.16 359 1150.26L363 1150.26ZM359 1134.18C359 1135.28 359.895 1136.18 361 1136.18C362.105 1136.18 363 1135.28 363 1134.18L359 1134.18ZM363 1132.17C363 1131.06 362.105 1130.17 361 1130.17C359.895 1130.17 359 1131.06 359 1132.17L363 1132.17ZM359 1122.12C359 1123.22 359.895 1124.12 361 1124.12C362.105 1124.12 363 1123.22 363 1122.12L359 1122.12ZM363 1110.05C363 1108.95 362.105 1108.05 361 1108.05C359.895 1108.05 359 1108.95 359 1110.05L363 1110.05ZM359 1093.97C359 1095.08 359.895 1095.97 361 1095.97C362.105 1095.97 363 1095.08 363 1093.97L359 1093.97ZM363 1091.96C363 1090.86 362.105 1089.96 361 1089.96C359.895 1089.96 359 1090.86 359 1091.96L363 1091.96ZM359 1081.91C359 1083.01 359.895 1083.91 361 1083.91C362.105 1083.91 363 1083.01 363 1081.91L359 1081.91ZM363 1069.85C363 1068.74 362.105 1067.85 361 1067.85C359.895 1067.85 359 1068.74 359 1069.85L363 1069.85ZM359 1053.76C359 1054.87 359.895 1055.76 361 1055.76C362.105 1055.76 363 1054.87 363 1053.76L359 1053.76ZM363 1051.75C363 1050.65 362.105 1049.75 361 1049.75C359.895 1049.75 359 1050.65 359 1051.75L363 1051.75ZM359 1041.7C359 1042.81 359.895 1043.7 361 1043.7C362.105 1043.7 363 1042.81 363 1041.7L359 1041.7ZM363 1029.64C363 1028.54 362.105 1027.64 361 1027.64C359.895 1027.64 359 1028.54 359 1029.64L363 1029.64ZM359 1013.56C359 1014.66 359.895 1015.56 361 1015.56C362.105 1015.56 363 1014.66 363 1013.56L359 1013.56ZM363 1011.55C363 1010.44 362.105 1009.55 361 1009.55C359.895 1009.55 359 1010.44 359 1011.55L363 1011.55ZM359 1001.49C359 1002.6 359.895 1003.49 361 1003.49C362.105 1003.49 363 1002.6 363 1001.49L359 1001.49ZM363 989.433C363 988.328 362.105 987.433 361 987.433C359.895 987.433 359 988.328 359 989.433L363 989.433ZM359 973.35C359 974.455 359.895 975.35 361 975.35C362.105 975.35 363 974.455 363 973.35L359 973.35ZM363 971.34C363 970.235 362.105 969.34 361 969.34C359.895 969.34 359 970.235 359 971.34L363 971.34ZM359 961.288C359 962.392 359.895 963.288 361 963.288C362.105 963.288 363 962.392 363 961.288L359 961.288ZM363 949.226C363 948.121 362.105 947.226 361 947.226C359.895 947.226 359 948.121 359 949.226L363 949.226ZM359 933.143C359 934.248 359.895 935.143 361 935.143C362.105 935.143 363 934.248 363 933.143L359 933.143ZM363 931.133C363 930.028 362.105 929.133 361 929.133C359.895 929.133 359 930.028 359 931.133L363 931.133ZM359 921.081C359 922.186 359.895 923.081 361 923.081C362.105 923.081 363 922.186 363 921.081L359 921.081ZM363 909.019C363 907.914 362.105 907.019 361 907.019C359.895 907.019 359 907.914 359 909.019L363 909.019ZM359 892.936C359 894.041 359.895 894.936 361 894.936C362.105 894.936 363 894.041 363 892.936L359 892.936ZM363 890.926C363 889.821 362.105 888.926 361 888.926C359.895 888.926 359 889.821 359 890.926L363 890.926ZM359 880.874C359 881.979 359.895 882.874 361 882.874C362.105 882.874 363 881.979 363 880.874L359 880.874ZM363 868.812C363 867.707 362.105 866.812 361 866.812C359.895 866.812 359 867.707 359 868.812L363 868.812ZM359 852.729C359 853.834 359.895 854.729 361 854.729C362.105 854.729 363 853.834 363 852.729L359 852.729ZM363 850.719C363 849.614 362.105 848.719 361 848.719C359.895 848.719 359 849.614 359 850.719L363 850.719ZM359 840.667C359 841.772 359.895 842.667 361 842.667C362.105 842.667 363 841.772 363 840.667L359 840.667ZM363 828.605C363 827.501 362.105 826.605 361 826.605C359.895 826.605 359 827.501 359 828.605L363 828.605ZM359 812.522C359 813.627 359.895 814.522 361 814.522C362.105 814.522 363 813.627 363 812.522L359 812.522ZM363 810.512C363 809.407 362.105 808.512 361 808.512C359.895 808.512 359 809.407 359 810.512L363 810.512ZM359 800.46C359 801.565 359.895 802.46 361 802.46C362.105 802.46 363 801.565 363 800.46L359 800.46ZM363 788.398C363 787.294 362.105 786.398 361 786.398C359.895 786.398 359 787.294 359 788.398L363 788.398ZM359 772.315C359 773.42 359.895 774.315 361 774.315C362.105 774.315 363 773.42 363 772.315L359 772.315ZM363 770.305C363 769.201 362.105 768.305 361 768.305C359.895 768.305 359 769.201 359 770.305L363 770.305ZM359 760.253C359 761.358 359.895 762.253 361 762.253C362.105 762.253 363 761.358 363 760.253L359 760.253ZM363 748.191C363 747.087 362.105 746.191 361 746.191C359.895 746.191 359 747.087 359 748.191L363 748.191ZM359 732.109C359 733.213 359.895 734.109 361 734.109C362.105 734.109 363 733.213 363 732.109L359 732.109ZM363 730.098C363 728.994 362.105 728.098 361 728.098C359.895 728.098 359 728.994 359 730.098L363 730.098ZM359 720.047C359 721.151 359.895 722.047 361 722.047C362.105 722.047 363 721.151 363 720.047L359 720.047ZM363 707.985C363 706.88 362.105 705.985 361 705.985C359.895 705.985 359 706.88 359 707.985L363 707.985ZM359 691.902C359 693.006 359.895 693.902 361 693.902C362.105 693.902 363 693.006 363 691.902L359 691.902ZM363 689.891C363 688.787 362.105 687.891 361 687.891C359.895 687.891 359 688.787 359 689.891L363 689.891ZM359 679.84C359 680.944 359.895 681.84 361 681.84C362.105 681.84 363 680.944 363 679.84L359 679.84ZM363 667.778C363 666.673 362.105 665.778 361 665.778C359.895 665.778 359 666.673 359 667.778L363 667.778ZM359 651.695C359 652.799 359.895 653.695 361 653.695C362.105 653.695 363 652.799 363 651.695L359 651.695ZM363 649.685C363 648.58 362.105 647.685 361 647.685C359.895 647.685 359 648.58 359 649.685L363 649.685ZM359 639.633C359 640.737 359.895 641.633 361 641.633C362.105 641.633 363 640.737 363 639.633L359 639.633ZM363 627.571C363 626.466 362.105 625.571 361 625.571C359.895 625.571 359 626.466 359 627.571L363 627.571ZM359 611.488C359 612.593 359.895 613.488 361 613.488C362.105 613.488 363 612.593 363 611.488L359 611.488ZM363 609.478C363 608.373 362.105 607.478 361 607.478C359.895 607.478 359 608.373 359 609.478L363 609.478ZM359 599.426C359 600.531 359.895 601.426 361 601.426C362.105 601.426 363 600.531 363 599.426L359 599.426ZM363 587.364C363 586.259 362.105 585.364 361 585.364C359.895 585.364 359 586.259 359 587.364L363 587.364ZM359 571.281C359 572.386 359.895 573.281 361 573.281C362.105 573.281 363 572.386 363 571.281L359 571.281ZM363 569.271C363 568.166 362.105 567.271 361 567.271C359.895 567.271 359 568.166 359 569.271L363 569.271ZM359 559.219C359 560.324 359.895 561.219 361 561.219C362.105 561.219 363 560.324 363 559.219L359 559.219ZM363 547.157C363 546.053 362.105 545.157 361 545.157C359.895 545.157 359 546.053 359 547.157L363 547.157ZM359 531.074C359 532.179 359.895 533.074 361 533.074C362.105 533.074 363 532.179 363 531.074L359 531.074ZM363 529.064C363 527.959 362.105 527.064 361 527.064C359.895 527.064 359 527.959 359 529.064L363 529.064ZM359 519.012C359 520.117 359.895 521.012 361 521.012C362.105 521.012 363 520.117 363 519.012L359 519.012ZM363 506.95C363 505.846 362.105 504.95 361 504.95C359.895 504.95 359 505.846 359 506.95L363 506.95ZM359 490.868C359 491.972 359.895 492.868 361 492.868C362.105 492.868 363 491.972 363 490.868L359 490.868ZM363 488.857C363 487.753 362.105 486.857 361 486.857C359.895 486.857 359 487.753 359 488.857L363 488.857ZM359 478.806C359 479.91 359.895 480.806 361 480.806C362.105 480.806 363 479.91 363 478.806L359 478.806ZM363 466.743C363 465.639 362.105 464.743 361 464.743C359.895 464.743 359 465.639 359 466.743L363 466.743ZM359 450.661C359 451.765 359.895 452.661 361 452.661C362.105 452.661 363 451.765 363 450.661L359 450.661ZM363 448.65C363 447.546 362.105 446.65 361 446.65C359.895 446.65 359 447.546 359 448.65L363 448.65ZM359 438.599C359 439.703 359.895 440.599 361 440.599C362.105 440.599 363 439.703 363 438.599L359 438.599ZM363 426.537C363 425.432 362.105 424.537 361 424.537C359.895 424.537 359 425.432 359 426.537L363 426.537ZM359 410.454C359 411.558 359.895 412.454 361 412.454C362.105 412.454 363 411.558 363 410.454L359 410.454ZM363 408.444C363 407.339 362.105 406.444 361 406.444C359.895 406.444 359 407.339 359 408.444L363 408.444ZM359 398.392C359 399.496 359.895 400.392 361 400.392C362.105 400.392 363 399.496 363 398.392L359 398.392ZM363 386.33C363 385.225 362.105 384.33 361 384.33C359.895 384.33 359 385.225 359 386.33L363 386.33ZM359 370.247C359 371.352 359.895 372.247 361 372.247C362.105 372.247 363 371.352 363 370.247L359 370.247ZM363 368.237C363 367.132 362.105 366.237 361 366.237C359.895 366.237 359 367.132 359 368.237L363 368.237ZM359 358.185C359 359.29 359.895 360.185 361 360.185C362.105 360.185 363 359.29 363 358.185L359 358.185ZM363 346.123C363 345.018 362.105 344.123 361 344.123C359.895 344.123 359 345.018 359 346.123L363 346.123ZM359 330.04C359 331.145 359.895 332.04 361 332.04C362.105 332.04 363 331.145 363 330.04L359 330.04ZM363 328.03C363 326.925 362.105 326.03 361 326.03C359.895 326.03 359 326.925 359 328.03L363 328.03ZM359 317.978C359 319.083 359.895 319.978 361 319.978C362.105 319.978 363 319.083 363 317.978L359 317.978ZM363 305.916C363 304.812 362.105 303.916 361 303.916C359.895 303.916 359 304.812 359 305.916L363 305.916ZM359 289.833C359 290.938 359.895 291.833 361 291.833C362.105 291.833 363 290.938 363 289.833L359 289.833ZM363 287.823C363 286.718 362.105 285.823 361 285.823C359.895 285.823 359 286.718 359 287.823L363 287.823ZM359 277.771C359 278.876 359.895 279.771 361 279.771C362.105 279.771 363 278.876 363 277.771L359 277.771ZM363 265.709C363 264.605 362.105 263.709 361 263.709C359.895 263.709 359 264.605 359 265.709L363 265.709ZM359 249.626C359 250.731 359.895 251.626 361 251.626C362.105 251.626 363 250.731 363 249.626L359 249.626ZM363 247.616C363 246.512 362.105 245.616 361 245.616C359.895 245.616 359 246.512 359 247.616L363 247.616ZM359 237.564C359 238.669 359.895 239.564 361 239.564C362.105 239.564 363 238.669 363 237.564L359 237.564ZM363 225.502C363 224.398 362.105 223.502 361 223.502C359.895 223.502 359 224.398 359 225.502L363 225.502ZM359 209.42C359 210.524 359.895 211.42 361 211.42C362.105 211.42 363 210.524 363 209.42L359 209.42ZM363 207.409C363 206.305 362.105 205.409 361 205.409C359.895 205.409 359 206.305 359 207.409L363 207.409ZM359 197.357C359 198.462 359.895 199.357 361 199.357C362.105 199.357 363 198.462 363 197.357L359 197.357ZM363 185.295C363 184.191 362.105 183.295 361 183.295C359.895 183.295 359 184.191 359 185.295L363 185.295ZM359 169.213C359 170.317 359.895 171.213 361 171.213C362.105 171.213 363 170.317 363 169.213L359 169.213ZM363 167.202C363 166.098 362.105 165.202 361 165.202C359.895 165.202 359 166.098 359 167.202L363 167.202ZM359 157.151C359 158.255 359.895 159.151 361 159.151C362.105 159.151 363 158.255 363 157.151L359 157.151ZM363 145.088C363 143.984 362.105 143.088 361 143.088C359.895 143.088 359 143.984 359 145.088L363 145.088ZM359 129.006C359 130.11 359.895 131.006 361 131.006C362.105 131.006 363 130.11 363 129.006L359 129.006ZM363 1294L363 1292.99L359 1292.99L359 1294L363 1294ZM363 1282.94L363 1270.88L359 1270.88L359 1282.94L363 1282.94ZM363 1254.8L363 1252.79L359 1252.79L359 1254.8L363 1254.8ZM363 1242.74L363 1230.67L359 1230.67L359 1242.74L363 1242.74ZM363 1214.59L363 1212.58L359 1212.58L359 1214.59L363 1214.59ZM363 1202.53L363 1190.47L359 1190.47L359 1202.53L363 1202.53ZM363 1174.38L363 1172.37L359 1172.37L359 1174.38L363 1174.38ZM363 1162.32L363 1150.26L359 1150.26L359 1162.32L363 1162.32ZM363 1134.18L363 1132.17L359 1132.17L359 1134.18L363 1134.18ZM363 1122.12L363 1110.05L359 1110.05L359 1122.12L363 1122.12ZM363 1093.97L363 1091.96L359 1091.96L359 1093.97L363 1093.97ZM363 1081.91L363 1069.85L359 1069.85L359 1081.91L363 1081.91ZM363 1053.76L363 1051.75L359 1051.75L359 1053.76L363 1053.76ZM363 1041.7L363 1029.64L359 1029.64L359 1041.7L363 1041.7ZM363 1013.56L363 1011.55L359 1011.55L359 1013.56L363 1013.56ZM363 1001.49L363 989.433L359 989.433L359 1001.49L363 1001.49ZM363 973.35L363 971.34L359 971.34L359 973.35L363 973.35ZM363 961.288L363 949.226L359 949.226L359 961.288L363 961.288ZM363 933.143L363 931.133L359 931.133L359 933.143L363 933.143ZM363 921.081L363 909.019L359 909.019L359 921.081L363 921.081ZM363 892.936L363 890.926L359 890.926L359 892.936L363 892.936ZM363 880.874L363 868.812L359 868.812L359 880.874L363 880.874ZM363 852.729L363 850.719L359 850.719L359 852.729L363 852.729ZM363 840.667L363 828.605L359 828.605L359 840.667L363 840.667ZM363 812.522L363 810.512L359 810.512L359 812.522L363 812.522ZM363 800.46L363 788.398L359 788.398L359 800.46L363 800.46ZM363 772.315L363 770.305L359 770.305L359 772.315L363 772.315ZM363 760.253L363 748.191L359 748.191L359 760.253L363 760.253ZM363 732.109L363 730.098L359 730.098L359 732.109L363 732.109ZM363 720.047L363 707.985L359 707.985L359 720.047L363 720.047ZM363 691.902L363 689.891L359 689.891L359 691.902L363 691.902ZM363 679.84L363 667.778L359 667.778L359 679.84L363 679.84ZM363 651.695L363 649.685L359 649.685L359 651.695L363 651.695ZM363 639.633L363 627.571L359 627.571L359 639.633L363 639.633ZM363 611.488L363 609.478L359 609.478L359 611.488L363 611.488ZM363 599.426L363 587.364L359 587.364L359 599.426L363 599.426ZM363 571.281L363 569.271L359 569.271L359 571.281L363 571.281ZM363 559.219L363 547.157L359 547.157L359 559.219L363 559.219ZM363 531.074L363 529.064L359 529.064L359 531.074L363 531.074ZM363 519.012L363 506.95L359 506.95L359 519.012L363 519.012ZM363 490.868L363 488.857L359 488.857L359 490.868L363 490.868ZM363 478.806L363 466.743L359 466.743L359 478.806L363 478.806ZM363 450.661L363 448.65L359 448.65L359 450.661L363 450.661ZM363 438.599L363 426.537L359 426.537L359 438.599L363 438.599ZM363 410.454L363 408.444L359 408.444L359 410.454L363 410.454ZM363 398.392L363 386.33L359 386.33L359 398.392L363 398.392ZM363 370.247L363 368.237L359 368.237L359 370.247L363 370.247ZM363 358.185L363 346.123L359 346.123L359 358.185L363 358.185ZM363 330.04L363 328.03L359 328.03L359 330.04L363 330.04ZM363 317.978L363 305.916L359 305.916L359 317.978L363 317.978ZM363 289.833L363 287.823L359 287.823L359 289.833L363 289.833ZM363 277.771L363 265.709L359 265.709L359 277.771L363 277.771ZM363 249.626L363 247.616L359 247.616L359 249.626L363 249.626ZM363 237.564L363 225.502L359 225.502L359 237.564L363 237.564ZM363 209.42L363 207.409L359 207.409L359 209.42L363 209.42ZM363 197.357L363 185.295L359 185.295L359 197.357L363 197.357ZM363 169.213L363 167.202L359 167.202L359 169.213L363 169.213ZM363 157.151L363 145.088L359 145.088L359 157.151L363 157.151ZM363 129.006L363 128L359 128L359 129.006L363 129.006Z" fill="#9CAFC6"/>
<rect x="333" y="859" width="56.3054" height="56.3054" rx="28.1527" fill="#FFA74F"/>
<g clip-path="url(#clip0_692_114)">
<path d="M364.16 885.568L370.528 881.358C371.169 880.936 371.338 880.07 370.91 879.447L368.863 876.437C368.435 875.804 367.558 875.638 366.928 876.06L360.56 880.269L364.16 885.568Z" fill="white" stroke="white" stroke-width="3.11538" stroke-linecap="round" stroke-linejoin="round"/>
<path d="M360.947 880.803L355.572 884.357L358.452 888.601L363.827 885.047L360.947 880.802V880.803ZM353.81 891.266L358.254 888.334L355.734 884.624L351.29 887.556C350.773 887.9 350.638 888.589 350.987 889.1L352.258 890.966C352.595 891.466 353.293 891.599 353.81 891.266ZM360.808 887.156L355.757 898.042L360.808 887.156ZM360.752 887.156L365.747 898.042L360.752 887.156Z" fill="white"/>
<path d="M360.808 887.156L355.757 898.042M360.752 887.156L365.747 898.042M360.947 880.803L355.572 884.357L358.452 888.601L363.827 885.047L360.947 880.802V880.803ZM353.81 891.266L358.254 888.334L355.734 884.624L351.29 887.556C350.773 887.9 350.638 888.589 350.987 889.1L352.258 890.966C352.595 891.466 353.293 891.599 353.81 891.266V891.266Z" stroke="white" stroke-width="2.59615" stroke-linecap="round" stroke-linejoin="round"/>
</g>
<path d="M353.08 715.91L359.6 722.43C360.37 723.2 361.63 723.2 362.4 722.43L368.92 715.91" stroke="#9CAFC6" stroke-width="3.5" stroke-miterlimit="10" stroke-linecap="round" stroke-linejoin="round"/>
<rect x="333" y="1266" width="56.3054" height="56.3054" rx="28.1527" fill="#FFA74F"/>
<rect x="358.857" y="1280" width="4.28571" height="28.5714" rx="2.14286" fill="url(#paint0_linear_692_114)"/>
<rect x="369.571" y="1305" width="4.28571" height="21.4286" rx="2.14286" transform="rotate(-180 369.571 1305)" fill="url(#paint1_linear_692_114)"/>
<rect x="356.714" y="1305" width="4.28571" height="21.4286" rx="2.14286" transform="rotate(-180 356.714 1305)" fill="url(#paint2_linear_692_114)"/>
<rect x="346" y="1287.14" width="4.28571" height="14.2857" rx="2.14286" fill="url(#paint3_linear_692_114)"/>
<rect x="371.714" y="1287.14" width="4.28571" height="14.2857" rx="2.14286" fill="url(#paint4_linear_692_114)"/>
<rect x="358.857" y="1280" width="4.28571" height="28.5714" rx="2.14286" fill="url(#paint5_linear_692_114)"/>
<rect x="369.571" y="1305" width="4.28571" height="21.4286" rx="2.14286" transform="rotate(-180 369.571 1305)" fill="url(#paint6_linear_692_114)"/>
<rect x="356.714" y="1305" width="4.28571" height="21.4286" rx="2.14286" transform="rotate(-180 356.714 1305)" fill="url(#paint7_linear_692_114)"/>
<rect x="346" y="1287.14" width="4.28571" height="14.2857" rx="2.14286" fill="url(#paint8_linear_692_114)"/>
<rect x="371.714" y="1287.14" width="4.28571" height="14.2857" rx="2.14286" fill="url(#paint9_linear_692_114)"/>
<path d="M353.08 273.91L359.6 280.43C360.37 281.2 361.63 281.2 362.4 280.43L368.92 273.91" stroke="#9CAFC6" stroke-width="3.5" stroke-miterlimit="10" stroke-linecap="round" stroke-linejoin="round"/>
<path d="M353.08 1077.91L359.6 1084.43C360.37 1085.2 361.63 1085.2 362.4 1084.43L368.92 1077.91" stroke="#9CAFC6" stroke-width="3.5" stroke-miterlimit="10" stroke-linecap="round" stroke-linejoin="round"/>
<rect x="355" y="190" width="11.3054" height="11.3054" rx="5.65271" fill="#FFA74F"/>
<rect x="355" y="656" width="11.3054" height="11.3054" rx="5.65271" fill="#FFA74F"/>
<rect x="355" y="1157" width="11.3054" height="11.3054" rx="5.65271" fill="#FFA74F"/>
<path d="M-411.333 446.024C-411.32 448.969 -408.922 451.346 -405.976 451.333C-403.031 451.32 -400.654 448.922 -400.667 445.976C-400.68 443.031 -403.078 440.654 -406.024 440.667C-408.969 440.68 -411.346 443.078 -411.333 446.024ZM-405.007 446.996C-404.455 446.993 -404.009 446.544 -404.012 445.991C-404.014 445.439 -404.464 444.993 -405.016 444.996L-405.007 446.996ZM-395.134 444.952C-395.686 444.954 -396.132 445.404 -396.129 445.956C-396.127 446.509 -395.677 446.954 -395.125 446.952L-395.134 444.952ZM-383.266 446.899C-382.714 446.897 -382.268 446.447 -382.271 445.895C-382.273 445.342 -382.723 444.897 -383.275 444.899L-383.266 446.899ZM-367.463 444.829C-368.016 444.831 -368.461 445.281 -368.459 445.833C-368.456 446.386 -368.007 446.831 -367.454 446.829L-367.463 444.829ZM-365.478 446.82C-364.926 446.818 -364.48 446.368 -364.482 445.816C-364.485 445.264 -364.935 444.818 -365.487 444.82L-365.478 446.82ZM-355.604 444.776C-356.157 444.779 -356.602 445.229 -356.6 445.781C-356.598 446.333 -356.148 446.779 -355.596 446.776L-355.604 444.776ZM-343.737 446.724C-343.184 446.721 -342.739 446.272 -342.741 445.719C-342.744 445.167 -343.193 444.721 -343.746 444.724L-343.737 446.724ZM-327.934 444.654C-328.486 444.656 -328.932 445.106 -328.929 445.658C-328.927 446.21 -328.477 446.656 -327.925 446.654L-327.934 444.654ZM-325.948 446.645C-325.396 446.642 -324.95 446.193 -324.953 445.64C-324.955 445.088 -325.405 444.642 -325.957 444.645L-325.948 446.645ZM-316.075 444.601C-316.627 444.603 -317.073 445.053 -317.071 445.605C-317.068 446.158 -316.618 446.603 -316.066 446.601L-316.075 444.601ZM-304.207 446.548C-303.655 446.546 -303.209 446.096 -303.212 445.544C-303.214 444.992 -303.664 444.546 -304.216 444.548L-304.207 446.548ZM-288.404 444.478C-288.957 444.481 -289.402 444.93 -289.4 445.483C-289.398 446.035 -288.948 446.481 -288.396 446.478L-288.404 444.478ZM-286.419 446.469C-285.867 446.467 -285.421 446.017 -285.424 445.465C-285.426 444.913 -285.876 444.467 -286.428 444.469L-286.419 446.469ZM-276.546 444.426C-277.098 444.428 -277.544 444.878 -277.541 445.43C-277.539 445.982 -277.089 446.428 -276.537 446.426L-276.546 444.426ZM-264.678 446.373C-264.126 446.37 -263.68 445.921 -263.682 445.368C-263.685 444.816 -264.134 444.37 -264.687 444.373L-264.678 446.373ZM-248.875 444.303C-249.427 444.305 -249.873 444.755 -249.871 445.307C-249.868 445.859 -249.418 446.305 -248.866 446.303L-248.875 444.303ZM-246.89 446.294C-246.337 446.292 -245.892 445.842 -245.894 445.29C-245.897 444.737 -246.346 444.292 -246.899 444.294L-246.89 446.294ZM-237.016 444.25C-237.568 444.253 -238.014 444.702 -238.012 445.255C-238.009 445.807 -237.56 446.253 -237.007 446.25L-237.016 444.25ZM-225.148 446.197C-224.596 446.195 -224.15 445.745 -224.153 445.193C-224.155 444.641 -224.605 444.195 -225.157 444.197L-225.148 446.197ZM-209.346 444.127C-209.898 444.13 -210.344 444.579 -210.341 445.132C-210.339 445.684 -209.889 446.13 -209.337 446.127L-209.346 444.127ZM-207.36 446.119C-206.808 446.116 -206.362 445.666 -206.365 445.114C-206.367 444.562 -206.817 444.116 -207.369 444.119L-207.36 446.119ZM-197.487 444.075C-198.039 444.077 -198.485 444.527 -198.482 445.079C-198.48 445.631 -198.03 446.077 -197.478 446.075L-197.487 444.075ZM-185.619 446.022C-185.067 446.02 -184.621 445.57 -184.624 445.018C-184.626 444.465 -185.076 444.02 -185.628 444.022L-185.619 446.022ZM-169.816 443.952C-170.368 443.954 -170.814 444.404 -170.812 444.956C-170.809 445.509 -170.36 445.954 -169.807 445.952L-169.816 443.952ZM-167.831 445.943C-167.279 445.941 -166.833 445.491 -166.835 444.939C-166.838 444.386 -167.287 443.941 -167.84 443.943L-167.831 445.943ZM-157.957 443.899C-158.51 443.902 -158.955 444.351 -158.953 444.904C-158.95 445.456 -158.501 445.902 -157.948 445.899L-157.957 443.899ZM-146.09 445.847C-145.537 445.844 -145.092 445.394 -145.094 444.842C-145.097 444.29 -145.546 443.844 -146.099 443.847L-146.09 445.847ZM-130.287 443.776C-130.839 443.779 -131.285 444.229 -131.282 444.781C-131.28 445.333 -130.83 445.779 -130.278 445.776L-130.287 443.776ZM-128.301 445.768C-127.749 445.765 -127.303 445.316 -127.306 444.763C-127.308 444.211 -127.758 443.765 -128.31 443.768L-128.301 445.768ZM-118.428 443.724C-118.98 443.726 -119.426 444.176 -119.424 444.728C-119.421 445.281 -118.971 445.726 -118.419 445.724L-118.428 443.724ZM-106.56 445.671C-106.008 445.669 -105.562 445.219 -105.565 444.667C-105.567 444.114 -106.017 443.669 -106.569 443.671L-106.56 445.671ZM-90.7574 443.601C-91.3096 443.603 -91.7554 444.053 -91.7529 444.605C-91.7505 445.158 -91.3008 445.603 -90.7485 445.601L-90.7574 443.601ZM-88.772 445.592C-88.2197 445.59 -87.774 445.14 -87.7764 444.588C-87.7789 444.036 -88.2286 443.59 -88.7809 443.592L-88.772 445.592ZM-78.8985 443.548C-79.4508 443.551 -79.8965 444.001 -79.8941 444.553C-79.8916 445.105 -79.4419 445.551 -78.8896 445.548L-78.8985 443.548ZM-67.0308 445.496C-66.4785 445.493 -66.0328 445.044 -66.0352 444.491C-66.0377 443.939 -66.4874 443.493 -67.0397 443.496L-67.0308 445.496ZM-51.2279 443.426C-51.7802 443.428 -52.2259 443.878 -52.2235 444.43C-52.221 444.982 -51.7713 445.428 -51.219 445.426L-51.2279 443.426ZM-49.2425 445.417C-48.6903 445.414 -48.2445 444.965 -48.247 444.412C-48.2494 443.86 -48.6991 443.414 -49.2514 443.417L-49.2425 445.417ZM-39.3691 443.373C-39.9214 443.375 -40.3671 443.825 -40.3646 444.377C-40.3622 444.93 -39.9125 445.375 -39.3602 445.373L-39.3691 443.373ZM-27.5014 445.32C-26.9491 445.318 -26.5034 444.868 -26.5058 444.316C-26.5083 443.764 -26.958 443.318 -27.5103 443.32L-27.5014 445.32ZM-11.6985 443.25C-12.2508 443.253 -12.6965 443.702 -12.6941 444.255C-12.6916 444.807 -12.2419 445.253 -11.6896 445.25L-11.6985 443.25ZM-9.71314 445.241C-9.16087 445.239 -8.71514 444.789 -8.71759 444.237C-8.72004 443.685 -9.16975 443.239 -9.72202 443.241L-9.71314 445.241ZM0.16036 443.198C-0.391941 443.2 -0.837643 443.65 -0.835192 444.202C-0.832741 444.754 -0.383066 445.2 0.169236 445.198L0.16036 443.198ZM12.028 445.145C12.5803 445.142 13.026 444.693 13.0236 444.14C13.0211 443.588 12.5714 443.142 12.0192 443.145L12.028 445.145ZM27.8309 443.075C27.2786 443.077 26.8329 443.527 26.8354 444.079C26.8378 444.631 27.2875 445.077 27.8398 445.075L27.8309 443.075ZM29.8163 445.066C30.3686 445.064 30.8143 444.614 30.8118 444.062C30.8094 443.509 30.3597 443.064 29.8074 443.066L29.8163 445.066ZM39.6898 443.022C39.1375 443.025 38.6918 443.474 38.6942 444.027C38.6967 444.579 39.1464 445.025 39.6986 445.022L39.6898 443.022ZM51.5575 444.969C52.1098 444.967 52.5555 444.517 52.553 443.965C52.5506 443.413 52.1009 442.967 51.5486 442.97L51.5575 444.969ZM67.3604 442.899C66.8081 442.902 66.3623 443.351 66.3648 443.904C66.3673 444.456 66.817 444.902 67.3692 444.899L67.3604 442.899ZM69.3457 444.891C69.898 444.888 70.3437 444.438 70.3413 443.886C70.3388 443.334 69.8891 442.888 69.3368 442.891L69.3457 444.891ZM79.2192 442.847C78.6669 442.849 78.2212 443.299 78.2236 443.851C78.2261 444.403 78.6758 444.849 79.2281 444.847L79.2192 442.847ZM91.0869 444.794C91.6392 444.792 92.0849 444.342 92.0824 443.79C92.08 443.237 91.6303 442.792 91.078 442.794L91.0869 444.794ZM106.89 442.724C106.338 442.726 105.892 443.176 105.894 443.728C105.897 444.281 106.346 444.726 106.899 444.724L106.89 442.724ZM108.875 444.715C109.427 444.713 109.873 444.263 109.871 443.711C109.868 443.158 109.419 442.713 108.866 442.715L108.875 444.715ZM118.749 442.671C118.196 442.674 117.751 443.123 117.753 443.676C117.756 444.228 118.205 444.674 118.758 444.671L118.749 442.671ZM130.616 444.619C131.169 444.616 131.614 444.166 131.612 443.614C131.609 443.062 131.16 442.616 130.607 442.619L130.616 444.619ZM146.419 442.548C145.867 442.551 145.421 443.001 145.424 443.553C145.426 444.105 145.876 444.551 146.428 444.548L146.419 442.548ZM148.405 444.54C148.957 444.537 149.403 444.088 149.4 443.535C149.398 442.983 148.948 442.537 148.396 442.54L148.405 444.54ZM158.278 442.496C157.726 442.498 157.28 442.948 157.283 443.5C157.285 444.053 157.735 444.498 158.287 444.496L158.278 442.496ZM170.146 444.443C170.698 444.441 171.144 443.991 171.141 443.439C171.139 442.887 170.689 442.441 170.137 442.443L170.146 444.443ZM185.949 442.373C185.396 442.376 184.951 442.825 184.953 443.377C184.956 443.93 185.405 444.375 185.958 444.373L185.949 442.373ZM187.934 444.364C188.486 444.362 188.932 443.912 188.93 443.36C188.927 442.808 188.478 442.362 187.925 442.364L187.934 444.364ZM197.808 442.32C197.255 442.323 196.81 442.773 196.812 443.325C196.814 443.877 197.264 444.323 197.816 444.32L197.808 442.32ZM209.675 444.268C210.228 444.265 210.673 443.816 210.671 443.263C210.668 442.711 210.219 442.265 209.666 442.268L209.675 444.268ZM225.478 442.198C224.926 442.2 224.48 442.65 224.483 443.202C224.485 443.754 224.935 444.2 225.487 444.198L225.478 442.198ZM227.464 444.189C228.016 444.186 228.462 443.737 228.459 443.184C228.457 442.632 228.007 442.186 227.455 442.189L227.464 444.189ZM237.337 442.145C236.785 442.147 236.339 442.597 236.341 443.149C236.344 443.702 236.794 444.147 237.346 444.145L237.337 442.145ZM249.205 444.092C249.757 444.09 250.203 443.64 250.2 443.088C250.198 442.536 249.748 442.09 249.196 442.092L249.205 444.092ZM265.008 442.022C264.455 442.025 264.01 442.474 264.012 443.027C264.015 443.579 264.464 444.025 265.017 444.022L265.008 442.022ZM-405.996 447L-405.007 446.996L-405.016 444.996L-406.004 445L-405.996 447ZM-395.125 446.952L-383.266 446.899L-383.275 444.899L-395.134 444.952L-395.125 446.952ZM-367.454 446.829L-365.478 446.82L-365.487 444.82L-367.463 444.829L-367.454 446.829ZM-355.596 446.776L-343.737 446.724L-343.746 444.724L-355.604 444.776L-355.596 446.776ZM-327.925 446.654L-325.948 446.645L-325.957 444.645L-327.934 444.654L-327.925 446.654ZM-316.066 446.601L-304.207 446.548L-304.216 444.548L-316.075 444.601L-316.066 446.601ZM-288.396 446.478L-286.419 446.469L-286.428 444.469L-288.404 444.478L-288.396 446.478ZM-276.537 446.426L-264.678 446.373L-264.687 444.373L-276.546 444.426L-276.537 446.426ZM-248.866 446.303L-246.89 446.294L-246.899 444.294L-248.875 444.303L-248.866 446.303ZM-237.007 446.25L-225.148 446.197L-225.157 444.197L-237.016 444.25L-237.007 446.25ZM-209.337 446.127L-207.36 446.119L-207.369 444.119L-209.346 444.127L-209.337 446.127ZM-197.478 446.075L-185.619 446.022L-185.628 444.022L-197.487 444.075L-197.478 446.075ZM-169.807 445.952L-167.831 445.943L-167.84 443.943L-169.816 443.952L-169.807 445.952ZM-157.948 445.899L-146.09 445.847L-146.099 443.847L-157.957 443.899L-157.948 445.899ZM-130.278 445.776L-128.301 445.768L-128.31 443.768L-130.287 443.776L-130.278 445.776ZM-118.419 445.724L-106.56 445.671L-106.569 443.671L-118.428 443.724L-118.419 445.724ZM-90.7485 445.601L-88.772 445.592L-88.7809 443.592L-90.7574 443.601L-90.7485 445.601ZM-78.8896 445.548L-67.0308 445.496L-67.0397 443.496L-78.8985 443.548L-78.8896 445.548ZM-51.219 445.426L-49.2425 445.417L-49.2514 443.417L-51.2279 443.426L-51.219 445.426ZM-39.3602 445.373L-27.5014 445.32L-27.5103 443.32L-39.3691 443.373L-39.3602 445.373ZM-11.6896 445.25L-9.71314 445.241L-9.72202 443.241L-11.6985 443.25L-11.6896 445.25ZM0.169236 445.198L12.028 445.145L12.0192 443.145L0.16036 443.198L0.169236 445.198ZM27.8398 445.075L29.8163 445.066L29.8074 443.066L27.8309 443.075L27.8398 445.075ZM39.6986 445.022L51.5575 444.969L51.5486 442.97L39.6898 443.022L39.6986 445.022ZM67.3692 444.899L69.3457 444.891L69.3368 442.891L67.3604 442.899L67.3692 444.899ZM79.2281 444.847L91.0869 444.794L91.078 442.794L79.2192 442.847L79.2281 444.847ZM106.899 444.724L108.875 444.715L108.866 442.715L106.89 442.724L106.899 444.724ZM118.758 444.671L130.616 444.619L130.607 442.619L118.749 442.671L118.758 444.671ZM146.428 444.548L148.405 444.54L148.396 442.54L146.419 442.548L146.428 444.548ZM158.287 444.496L170.146 444.443L170.137 442.443L158.278 442.496L158.287 444.496ZM185.958 444.373L187.934 444.364L187.925 442.364L185.949 442.373L185.958 444.373ZM197.816 444.32L209.675 444.268L209.666 442.268L197.808 442.32L197.816 444.32ZM225.487 444.198L227.464 444.189L227.455 442.189L225.478 442.198L225.487 444.198ZM237.346 444.145L249.205 444.092L249.196 442.092L237.337 442.145L237.346 444.145ZM265.017 444.022L266.004 444.018L265.996 442.018L265.008 442.022L265.017 444.022ZM-416.667 446.047C-416.64 451.938 -411.844 456.693 -405.953 456.667C-400.062 456.64 -395.307 451.844 -395.333 445.953C-395.36 440.062 -400.156 435.307 -406.047 435.333C-411.938 435.36 -416.693 440.156 -416.667 446.047ZM-405.003 447.996C-403.898 447.991 -403.007 447.091 -403.012 445.987C-403.017 444.882 -403.916 443.991 -405.021 443.996L-405.003 447.996ZM-395.138 443.952C-396.243 443.957 -397.134 444.856 -397.129 445.961C-397.124 447.065 -396.225 447.957 -395.121 447.952L-395.138 443.952ZM-383.262 447.899C-382.157 447.894 -381.266 446.995 -381.271 445.89C-381.276 444.786 -382.175 443.894 -383.279 443.899L-383.262 447.899ZM-367.468 443.829C-368.572 443.834 -369.464 444.733 -369.459 445.838C-369.454 446.942 -368.555 447.834 -367.45 447.829L-367.468 443.829ZM-365.473 447.82C-364.369 447.815 -363.477 446.916 -363.482 445.811C-363.487 444.707 -364.387 443.815 -365.491 443.82L-365.473 447.82ZM-355.609 443.776C-356.713 443.781 -357.605 444.681 -357.6 445.785C-357.595 446.89 -356.696 447.781 -355.591 447.776L-355.609 443.776ZM-343.732 447.724C-342.628 447.719 -341.736 446.819 -341.741 445.715C-341.746 444.61 -342.645 443.719 -343.75 443.724L-343.732 447.724ZM-327.938 443.654C-329.043 443.659 -329.934 444.558 -329.929 445.662C-329.924 446.767 -329.025 447.658 -327.921 447.654L-327.938 443.654ZM-325.944 447.645C-324.84 447.64 -323.948 446.741 -323.953 445.636C-323.958 444.531 -324.857 443.64 -325.962 443.645L-325.944 447.645ZM-316.079 443.601C-317.184 443.606 -318.075 444.505 -318.071 445.61C-318.066 446.714 -317.166 447.606 -316.062 447.601L-316.079 443.601ZM-304.203 447.548C-303.098 447.543 -302.207 446.644 -302.212 445.539C-302.217 444.435 -303.116 443.543 -304.221 443.548L-304.203 447.548ZM-288.409 443.478C-289.513 443.483 -290.405 444.382 -290.4 445.487C-290.395 446.592 -289.496 447.483 -288.391 447.478L-288.409 443.478ZM-286.415 447.469C-285.31 447.464 -284.419 446.565 -284.424 445.461C-284.428 444.356 -285.328 443.465 -286.432 443.469L-286.415 447.469ZM-276.55 443.426C-277.655 443.43 -278.546 444.33 -278.541 445.434C-278.536 446.539 -277.637 447.43 -276.532 447.426L-276.55 443.426ZM-264.673 447.373C-263.569 447.368 -262.677 446.469 -262.682 445.364C-262.687 444.259 -263.587 443.368 -264.691 443.373L-264.673 447.373ZM-248.879 443.303C-249.984 443.308 -250.875 444.207 -250.871 445.312C-250.866 446.416 -249.966 447.308 -248.862 447.303L-248.879 443.303ZM-246.885 447.294C-245.781 447.289 -244.889 446.39 -244.894 445.285C-244.899 444.181 -245.798 443.289 -246.903 443.294L-246.885 447.294ZM-237.021 443.25C-238.125 443.255 -239.017 444.154 -239.012 445.259C-239.007 446.364 -238.107 447.255 -237.003 447.25L-237.021 443.25ZM-225.144 447.197C-224.039 447.193 -223.148 446.293 -223.153 445.189C-223.158 444.084 -224.057 443.193 -225.162 443.198L-225.144 447.197ZM-209.35 443.127C-210.455 443.132 -211.346 444.032 -211.341 445.136C-211.336 446.241 -210.437 447.132 -209.332 447.127L-209.35 443.127ZM-207.356 447.119C-206.251 447.114 -205.36 446.214 -205.365 445.11C-205.37 444.005 -206.269 443.114 -207.374 443.119L-207.356 447.119ZM-197.491 443.075C-198.596 443.08 -199.487 443.979 -199.482 445.084C-199.477 446.188 -198.578 447.08 -197.473 447.075L-197.491 443.075ZM-185.615 447.022C-184.51 447.017 -183.619 446.118 -183.624 445.013C-183.628 443.909 -184.528 443.017 -185.632 443.022L-185.615 447.022ZM-169.821 442.952C-170.925 442.957 -171.817 443.856 -171.812 444.961C-171.807 446.065 -170.907 446.957 -169.803 446.952L-169.821 442.952ZM-167.826 446.943C-166.722 446.938 -165.83 446.039 -165.835 444.934C-165.84 443.83 -166.74 442.938 -167.844 442.943L-167.826 446.943ZM-157.962 442.899C-159.066 442.904 -159.958 443.804 -159.953 444.908C-159.948 446.013 -159.049 446.904 -157.944 446.899L-157.962 442.899ZM-146.085 446.847C-144.981 446.842 -144.089 445.942 -144.094 444.838C-144.099 443.733 -144.998 442.842 -146.103 442.847L-146.085 446.847ZM-130.291 442.776C-131.396 442.781 -132.287 443.681 -132.282 444.785C-132.277 445.89 -131.378 446.781 -130.273 446.776L-130.291 442.776ZM-128.297 446.768C-127.192 446.763 -126.301 445.863 -126.306 444.759C-126.311 443.654 -127.21 442.763 -128.315 442.768L-128.297 446.768ZM-118.432 442.724C-119.537 442.729 -120.428 443.628 -120.423 444.733C-120.419 445.837 -119.519 446.729 -118.415 446.724L-118.432 442.724ZM-106.556 446.671C-105.451 446.666 -104.56 445.767 -104.565 444.662C-104.57 443.558 -105.469 442.666 -106.574 442.671L-106.556 446.671ZM-90.7618 442.601C-91.8664 442.606 -92.7578 443.505 -92.7529 444.61C-92.748 445.714 -91.8486 446.606 -90.744 446.601L-90.7618 442.601ZM-88.7676 446.592C-87.663 446.587 -86.7716 445.688 -86.7765 444.583C-86.7814 443.479 -87.6808 442.587 -88.7853 442.592L-88.7676 446.592ZM-78.903 442.548C-80.0075 442.553 -80.899 443.453 -80.8941 444.557C-80.8892 445.662 -79.9898 446.553 -78.8852 446.548L-78.903 442.548ZM-67.0263 446.496C-65.9218 446.491 -65.0303 445.591 -65.0352 444.487C-65.0401 443.382 -65.9396 442.491 -67.0441 442.496L-67.0263 446.496ZM-51.2323 442.426C-52.3369 442.431 -53.2283 443.33 -53.2234 444.434C-53.2185 445.539 -52.3192 446.43 -51.2146 446.426L-51.2323 442.426ZM-49.2381 446.417C-48.1336 446.412 -47.2421 445.513 -47.247 444.408C-47.2519 443.303 -48.1513 442.412 -49.2559 442.417L-49.2381 446.417ZM-39.3735 442.373C-40.4781 442.378 -41.3695 443.277 -41.3646 444.382C-41.3597 445.486 -40.4604 446.378 -39.3558 446.373L-39.3735 442.373ZM-27.497 446.32C-26.3924 446.315 -25.5009 445.416 -25.5058 444.311C-25.5107 443.207 -26.4101 442.315 -27.5147 442.32L-27.497 446.32ZM-11.7029 442.25C-12.8075 442.255 -13.6989 443.154 -13.694 444.259C-13.6891 445.364 -12.7897 446.255 -11.6852 446.25L-11.7029 442.25ZM-9.70871 446.241C-8.60413 446.236 -7.7127 445.337 -7.7176 444.233C-7.7225 443.128 -8.62188 442.237 -9.72646 442.241L-9.70871 446.241ZM0.155922 442.198C-0.94865 442.202 -1.84008 443.102 -1.83518 444.206C-1.83028 445.311 -0.930899 446.202 0.173674 446.198L0.155922 442.198ZM12.0325 446.145C13.137 446.14 14.0285 445.241 14.0236 444.136C14.0187 443.031 13.1193 442.14 12.0147 442.145L12.0325 446.145ZM27.8265 442.075C26.7219 442.08 25.8305 442.979 25.8354 444.084C25.8403 445.188 26.7397 446.08 27.8442 446.075L27.8265 442.075ZM29.8207 446.066C30.9253 446.061 31.8167 445.162 31.8118 444.057C31.8069 442.953 30.9075 442.061 29.803 442.066L29.8207 446.066ZM39.6853 442.022C38.5807 442.027 37.6893 442.926 37.6942 444.031C37.6991 445.136 38.5985 446.027 39.7031 446.022L39.6853 442.022ZM51.5619 445.969C52.6665 445.965 53.5579 445.065 53.553 443.961C53.5481 442.856 52.6487 441.965 51.5442 441.97L51.5619 445.969ZM67.3559 441.899C66.2514 441.904 65.3599 442.804 65.3648 443.908C65.3697 445.013 66.2691 445.904 67.3737 445.899L67.3559 441.899ZM69.3501 445.891C70.4547 445.886 71.3462 444.986 71.3413 443.882C71.3364 442.777 70.437 441.886 69.3324 441.891L69.3501 445.891ZM79.2147 441.847C78.1102 441.852 77.2187 442.751 77.2236 443.856C77.2285 444.96 78.1279 445.852 79.2325 445.847L79.2147 441.847ZM91.0913 445.794C92.1959 445.789 93.0873 444.89 93.0824 443.785C93.0775 442.681 92.1781 441.789 91.0736 441.794L91.0913 445.794ZM106.885 441.724C105.781 441.729 104.889 442.628 104.894 443.733C104.899 444.837 105.799 445.729 106.903 445.724L106.885 441.724ZM108.88 445.715C109.984 445.71 110.876 444.811 110.871 443.706C110.866 442.602 109.966 441.71 108.862 441.715L108.88 445.715ZM118.744 441.671C117.64 441.676 116.748 442.576 116.753 443.68C116.758 444.785 117.657 445.676 118.762 445.671L118.744 441.671ZM130.621 445.619C131.725 445.614 132.617 444.714 132.612 443.61C132.607 442.505 131.708 441.614 130.603 441.619L130.621 445.619ZM146.415 441.548C145.31 441.553 144.419 442.453 144.424 443.557C144.429 444.662 145.328 445.553 146.433 445.548L146.415 441.548ZM148.409 445.54C149.514 445.535 150.405 444.635 150.4 443.531C150.395 442.426 149.496 441.535 148.391 441.54L148.409 445.54ZM158.274 441.496C157.169 441.501 156.278 442.4 156.283 443.505C156.287 444.609 157.187 445.501 158.291 445.496L158.274 441.496ZM170.15 445.443C171.255 445.438 172.146 444.539 172.141 443.434C172.136 442.33 171.237 441.438 170.132 441.443L170.15 445.443ZM185.944 441.373C184.84 441.378 183.948 442.277 183.953 443.382C183.958 444.486 184.857 445.378 185.962 445.373L185.944 441.373ZM187.939 445.364C189.043 445.359 189.935 444.46 189.93 443.355C189.925 442.251 189.025 441.359 187.921 441.364L187.939 445.364ZM197.803 441.32C196.699 441.325 195.807 442.225 195.812 443.329C195.817 444.434 196.716 445.325 197.821 445.32L197.803 441.32ZM209.68 445.268C210.784 445.263 211.676 444.363 211.671 443.259C211.666 442.154 210.766 441.263 209.662 441.268L209.68 445.268ZM225.474 441.198C224.369 441.203 223.478 442.102 223.483 443.206C223.488 444.311 224.387 445.203 225.491 445.198L225.474 441.198ZM227.468 445.189C228.573 445.184 229.464 444.285 229.459 443.18C229.454 442.075 228.555 441.184 227.45 441.189L227.468 445.189ZM237.333 441.145C236.228 441.15 235.337 442.049 235.341 443.154C235.346 444.258 236.246 445.15 237.35 445.145L237.333 441.145ZM249.209 445.092C250.314 445.087 251.205 444.188 251.2 443.083C251.195 441.979 250.296 441.087 249.191 441.092L249.209 445.092ZM265.003 441.022C263.899 441.027 263.007 441.927 263.012 443.031C263.017 444.136 263.916 445.027 265.021 445.022L265.003 441.022ZM-405.991 448L-405.003 447.996L-405.021 443.996L-406.009 444L-405.991 448ZM-395.121 447.952L-383.262 447.899L-383.279 443.899L-395.138 443.952L-395.121 447.952ZM-367.45 447.829L-365.473 447.82L-365.491 443.82L-367.468 443.829L-367.45 447.829ZM-355.591 447.776L-343.732 447.724L-343.75 443.724L-355.609 443.776L-355.591 447.776ZM-327.921 447.654L-325.944 447.645L-325.962 443.645L-327.938 443.654L-327.921 447.654ZM-316.062 447.601L-304.203 447.548L-304.221 443.548L-316.079 443.601L-316.062 447.601ZM-288.391 447.478L-286.415 447.469L-286.432 443.469L-288.409 443.478L-288.391 447.478ZM-276.532 447.426L-264.673 447.373L-264.691 443.373L-276.55 443.426L-276.532 447.426ZM-248.862 447.303L-246.885 447.294L-246.903 443.294L-248.879 443.303L-248.862 447.303ZM-237.003 447.25L-225.144 447.197L-225.162 443.198L-237.021 443.25L-237.003 447.25ZM-209.332 447.127L-207.356 447.119L-207.374 443.119L-209.35 443.127L-209.332 447.127ZM-197.473 447.075L-185.615 447.022L-185.632 443.022L-197.491 443.075L-197.473 447.075ZM-169.803 446.952L-167.826 446.943L-167.844 442.943L-169.821 442.952L-169.803 446.952ZM-157.944 446.899L-146.085 446.847L-146.103 442.847L-157.962 442.899L-157.944 446.899ZM-130.273 446.776L-128.297 446.768L-128.315 442.768L-130.291 442.776L-130.273 446.776ZM-118.415 446.724L-106.556 446.671L-106.574 442.671L-118.432 442.724L-118.415 446.724ZM-90.744 446.601L-88.7676 446.592L-88.7853 442.592L-90.7618 442.601L-90.744 446.601ZM-78.8852 446.548L-67.0263 446.496L-67.0441 442.496L-78.903 442.548L-78.8852 446.548ZM-51.2146 446.426L-49.2381 446.417L-49.2559 442.417L-51.2323 442.426L-51.2146 446.426ZM-39.3558 446.373L-27.497 446.32L-27.5147 442.32L-39.3735 442.373L-39.3558 446.373ZM-11.6852 446.25L-9.70871 446.241L-9.72646 442.241L-11.7029 442.25L-11.6852 446.25ZM0.173674 446.198L12.0325 446.145L12.0147 442.145L0.155922 442.198L0.173674 446.198ZM27.8442 446.075L29.8207 446.066L29.803 442.066L27.8265 442.075L27.8442 446.075ZM39.7031 446.022L51.5619 445.969L51.5442 441.97L39.6853 442.022L39.7031 446.022ZM67.3737 445.899L69.3501 445.891L69.3324 441.891L67.3559 441.899L67.3737 445.899ZM79.2325 445.847L91.0913 445.794L91.0736 441.794L79.2147 441.847L79.2325 445.847ZM106.903 445.724L108.88 445.715L108.862 441.715L106.885 441.724L106.903 445.724ZM118.762 445.671L130.621 445.619L130.603 441.619L118.744 441.671L118.762 445.671ZM146.433 445.548L148.409 445.54L148.391 441.54L146.415 441.548L146.433 445.548ZM158.291 445.496L170.15 445.443L170.132 441.443L158.274 441.496L158.291 445.496ZM185.962 445.373L187.939 445.364L187.921 441.364L185.944 441.373L185.962 445.373ZM197.821 445.32L209.68 445.268L209.662 441.268L197.803 441.32L197.821 445.32ZM225.491 445.198L227.468 445.189L227.45 441.189L225.474 441.198L225.491 445.198ZM237.35 445.145L249.209 445.092L249.191 441.092L237.333 441.145L237.35 445.145ZM265.021 445.022L266.009 445.018L265.991 441.018L265.003 441.022L265.021 445.022Z" fill="#9CAFC6"/>
<rect x="54" y="416" width="56.3054" height="56.3054" rx="28.1527" fill="#FFA74F"/>
<path d="M266 443V443C318.467 443 361 485.533 361 538V541" stroke="#9CAFC6" stroke-width="3.7" stroke-dasharray="4 10 12 16"/>
<path d="M75.4465 444.721C74.6806 444.394 73.8338 444.224 72.975 444.225C66.2501 444.624 66.2501 452.853 72.975 453.251H88.9106C90.8505 453.263 92.7185 452.659 94.1411 451.56C98.8686 448.092 96.3396 441.12 90.1176 440.455C87.876 429.133 68.4343 433.435 73.0468 444.225" fill="white"/>
<path d="M87.7755 440.987C88.5227 440.673 89.3418 440.503 90.1752 440.491L87.7755 440.987Z" fill="white"/>
<rect x="169" y="438" width="11.3054" height="11.3054" rx="5.65271" fill="#FFA74F"/>
<defs>
<linearGradient id="paint0_linear_692_114" x1="361" y1="1281.5" x2="361" y2="1308.57" gradientUnits="userSpaceOnUse">
<stop stop-color="white"/>
<stop offset="1" stop-color="white"/>
</linearGradient>
<linearGradient id="paint1_linear_692_114" x1="371.714" y1="1306.13" x2="371.714" y2="1326.43" gradientUnits="userSpaceOnUse">
<stop stop-color="white"/>
<stop offset="1" stop-color="white"/>
</linearGradient>
<linearGradient id="paint2_linear_692_114" x1="358.857" y1="1306.13" x2="358.857" y2="1326.43" gradientUnits="userSpaceOnUse">
<stop stop-color="white"/>
<stop offset="1" stop-color="white"/>
</linearGradient>
<linearGradient id="paint3_linear_692_114" x1="348.143" y1="1287.89" x2="348.143" y2="1301.43" gradientUnits="userSpaceOnUse">
<stop stop-color="white"/>
<stop offset="1" stop-color="white"/>
</linearGradient>
<linearGradient id="paint4_linear_692_114" x1="373.857" y1="1287.89" x2="373.857" y2="1301.43" gradientUnits="userSpaceOnUse">
<stop stop-color="white"/>
<stop offset="1" stop-color="white"/>
</linearGradient>
<linearGradient id="paint5_linear_692_114" x1="361" y1="1281.5" x2="361" y2="1308.57" gradientUnits="userSpaceOnUse">
<stop stop-color="#FF9933" stop-opacity="0.8"/>
<stop offset="1" stop-color="white"/>
</linearGradient>
<linearGradient id="paint6_linear_692_114" x1="371.714" y1="1306.13" x2="371.714" y2="1326.43" gradientUnits="userSpaceOnUse">
<stop stop-color="#FF9933" stop-opacity="0.8"/>
<stop offset="1" stop-color="white"/>
</linearGradient>
<linearGradient id="paint7_linear_692_114" x1="358.857" y1="1306.13" x2="358.857" y2="1326.43" gradientUnits="userSpaceOnUse">
<stop stop-color="#FF9933" stop-opacity="0.8"/>
<stop offset="1" stop-color="white"/>
</linearGradient>
<linearGradient id="paint8_linear_692_114" x1="348.143" y1="1287.89" x2="348.143" y2="1301.43" gradientUnits="userSpaceOnUse">
<stop stop-color="#FF9933" stop-opacity="0.8"/>
<stop offset="1" stop-color="white"/>
</linearGradient>
<linearGradient id="paint9_linear_692_114" x1="373.857" y1="1287.89" x2="373.857" y2="1301.43" gradientUnits="userSpaceOnUse">
<stop stop-color="#FF9933" stop-opacity="0.8"/>
<stop offset="1" stop-color="white"/>
</linearGradient>
<clipPath id="clip0_692_114">
<rect width="27" height="26.6582" fill="white" transform="translate(348 874)"/>
</clipPath>
</defs>
</svg>
