<svg width="80" height="24" viewBox="0 0 80 24" fill="none" xmlns="http://www.w3.org/2000/svg">
<g clip-path="url(#clip0_358_2016)">
<path d="M78.7895 21.7699V21.9946H78.5047V23.0134H78.2353V21.9946H77.933V21.7699H78.7895ZM79.7247 21.7699L79.453 22.4581L79.1765 21.7687H78.9V23.0134H79.1765V22.3229L79.4247 22.937H79.4718L79.72 22.3229V23.0134H80V21.7687L79.7247 21.7699Z" fill="#BDB9C5"/>
<path d="M6.47059 0.329926H0C0 0.329926 0.730588 1.38051 0.730588 3.37816V19.924C0.730588 21.924 0 22.9723 0 22.9723H4.83765C4.83765 22.9723 4.10706 21.9217 4.10706 19.924V15.2099H6.47059C7.64972 15.2099 8.78061 14.7418 9.61472 13.9083C10.4488 13.0749 10.9179 11.9444 10.9188 10.7652V4.77463C10.9176 3.59559 10.4484 2.46525 9.61438 1.63188C8.78034 0.798504 7.64963 0.330237 6.47059 0.329926V0.329926ZM7.53882 10.8276C7.5382 11.2542 7.36844 11.6632 7.06675 11.9649C6.76506 12.2666 6.35606 12.4364 5.92941 12.437H4.10706V3.10287H5.93412C6.36097 3.10349 6.77015 3.27341 7.07187 3.57536C7.37359 3.8773 7.54322 4.2866 7.54353 4.71345L7.53882 10.8276ZM24.2671 5.60757C24.2658 4.42904 23.7972 3.29911 22.9639 2.46565C22.1307 1.63219 21.0009 1.16325 19.8224 1.16169H18.1612C16.9824 1.16294 15.8523 1.63174 15.0188 2.46523C14.1853 3.29873 13.7165 4.42883 13.7153 5.60757V19.924C13.7153 21.924 12.9847 22.9723 12.9847 22.9723H17.8224C17.8224 22.9723 17.0918 21.9217 17.0918 19.924V16.0299H20.8906V19.924C20.8906 21.924 20.16 22.9723 20.16 22.9723H24.9976C24.9976 22.9723 24.2671 21.9217 24.2671 19.924V5.60757ZM17.0906 13.2723V5.53698C17.0909 5.32522 17.1329 5.1156 17.2143 4.9201C17.2956 4.72459 17.4147 4.54703 17.5647 4.39757C17.7148 4.2481 17.8927 4.12967 18.0885 4.04902C18.2843 3.96838 18.4941 3.92711 18.7059 3.92757H19.2859C19.7125 3.92819 20.1215 4.09796 20.4232 4.39965C20.7249 4.70133 20.8947 5.11033 20.8953 5.53698V13.2711L17.0906 13.2723ZM52.1588 16.8782C52.1588 15.7973 51.7629 14.754 51.0459 13.9452C51.4727 13.5321 51.8121 13.0374 52.0439 12.4905C52.2757 11.9436 52.3952 11.3557 52.3953 10.7617V5.60757C52.3937 4.42913 51.925 3.29939 51.0918 2.46599C50.2587 1.6326 49.129 1.16356 47.9506 1.16169H41.48C41.48 1.16169 42.2071 2.21228 42.2071 4.21228V19.924C42.2071 21.924 41.4765 22.9723 41.4765 22.9723H46.3141C46.3141 22.9723 45.5835 21.9217 45.5835 19.924V15.2076H47.1835C47.6087 15.2097 48.0158 15.3801 48.3158 15.6814C48.6158 15.9828 48.7844 16.3906 48.7847 16.8158V21.3017C48.8659 22.4358 49.4059 22.9723 49.4059 22.9723H52.8918C52.8918 22.9723 52.16 21.9217 52.16 19.924L52.1588 16.8782ZM47.4118 3.93581C47.8382 3.93643 48.247 4.10603 48.5487 4.40746C48.8503 4.7089 49.0202 5.1176 49.0212 5.54404V10.824C49.0206 11.2493 48.8519 11.657 48.552 11.9585C48.2521 12.2599 47.8452 12.4307 47.42 12.4335H45.5847V3.93581H47.4118ZM34.1376 1.16169H27.6671C27.6671 1.16169 28.3941 2.21228 28.3941 4.21228V19.924C28.3941 21.924 27.6624 22.9723 27.6624 22.9723H34.1329C34.7174 22.9731 35.2962 22.8587 35.8364 22.6357C36.3766 22.4128 36.8676 22.0856 37.2813 21.6728C37.695 21.2601 38.0234 20.7699 38.2476 20.2302C38.4719 19.6905 38.5876 19.112 38.5882 18.5276V5.60757C38.587 4.42802 38.1175 3.2972 37.283 2.46357C36.4485 1.62994 35.3172 1.16169 34.1376 1.16169ZM35.2059 18.5899C35.2056 19.0167 35.0359 19.4258 34.7342 19.7276C34.4324 20.0294 34.0232 20.199 33.5965 20.1993H31.7647V3.93581H33.5918C34.0185 3.93612 34.4277 4.10578 34.7294 4.40754C35.0312 4.70929 35.2009 5.11847 35.2012 5.54522L35.2059 18.5899ZM77.9271 13.1158V19.5864C77.9261 20.4958 77.5646 21.3676 76.9217 22.0107C76.2787 22.6539 75.407 23.0157 74.4977 23.017H71.4024C70.493 23.0157 69.6213 22.6539 68.9784 22.0107C68.3354 21.3676 67.9739 20.4958 67.9729 19.5864V16.6735H71.5094C71.5094 16.6735 70.9729 17.1346 70.9729 19.1323V19.2358C70.9733 19.5057 71.0805 19.7645 71.2713 19.9555C71.462 20.1464 71.7207 20.254 71.9906 20.2546H73.5294C73.7994 20.254 74.0582 20.1465 74.2492 19.9555C74.4401 19.7646 74.5476 19.5058 74.5482 19.2358V13.5523C74.5479 13.4255 74.4973 13.304 74.4076 13.2145C74.3178 13.1249 74.1962 13.0746 74.0694 13.0746H70.5753C69.833 13.0737 69.1213 12.7784 68.5964 12.2535C68.0715 11.7286 67.7762 11.0169 67.7753 10.2746V3.80404C67.7756 2.89397 68.137 2.0212 68.7802 1.37735C69.4234 0.733493 70.2958 0.371172 71.2059 0.369926H74.3C75.2095 0.371171 76.0813 0.733006 76.7244 1.3761C77.3675 2.01919 77.7293 2.89105 77.7306 3.80051V6.64993H74.1941C74.1941 6.64993 74.7306 6.18875 74.7306 4.1911V4.08757C74.7306 3.81736 74.6233 3.55822 74.4322 3.36716C74.2411 3.17609 73.982 3.06875 73.7118 3.06875H72.1694C71.8993 3.06906 71.6403 3.1765 71.4493 3.3675C71.2583 3.5585 71.1509 3.81746 71.1506 4.08757V9.83816C71.1509 9.96495 71.2015 10.0864 71.2913 10.176C71.381 10.2655 71.5026 10.3158 71.6294 10.3158H75.1271C75.8695 10.3164 76.5813 10.6116 77.1063 11.1366C77.6312 11.6616 77.9264 12.3734 77.9271 13.1158ZM59.6071 3.92757V10.6946H60.8635C62.8635 10.6946 63.9094 9.96404 63.9094 9.96404V14.1805C63.9094 14.1805 62.8588 13.4511 60.8635 13.4511H59.6071V20.2123H62.2553C63.8647 20.2123 64.8106 19.5064 64.8106 19.5064L64.2459 22.9664H55.5035C55.5035 22.9664 56.2341 21.917 56.2341 19.9217V4.21228C56.2341 2.21228 55.5035 1.16757 55.5035 1.16757H64.2459L64.8106 4.62757C64.8106 4.62757 63.8694 3.92169 62.2553 3.92169L59.6071 3.92757Z" fill="#BDB9C5"/>
</g>
<defs>
<clipPath id="clip0_358_2016">
<rect width="80" height="22.7059" fill="white" transform="translate(0 0.320526)"/>
</clipPath>
</defs>
</svg>
