<svg width="84" height="19" viewBox="0 0 84 19" fill="none" xmlns="http://www.w3.org/2000/svg">
<path d="M3.693 10.59L2.848 8.367H3.654C3.888 7.33567 4.31267 6.52533 4.928 5.936C5.54333 5.34667 6.397 5.052 7.489 5.052C7.71433 5.052 7.918 5.06933 8.1 5.104C8.282 5.13 8.44667 5.16467 8.594 5.208L8.776 8.536C8.58533 8.47533 8.36433 8.432 8.113 8.406C7.86167 8.37133 7.59733 8.354 7.32 8.354C6.436 8.354 5.682 8.549 5.058 8.939C4.44267 9.329 3.98767 9.87933 3.693 10.59ZM0.456 18V5.247H3.628L3.485 9.16L3.784 9.277V18H0.456ZM18.8469 18V10.343C18.8469 9.80567 18.7732 9.342 18.6259 8.952C18.4872 8.562 18.2532 8.25867 17.9239 8.042C17.5946 7.82533 17.1439 7.717 16.5719 7.717C16.0692 7.717 15.6316 7.808 15.2589 7.99C14.8862 8.172 14.5786 8.419 14.3359 8.731C14.1019 9.03433 13.9286 9.381 13.8159 9.771L13.1399 7.951H13.9329C14.0802 7.38767 14.3142 6.88067 14.6349 6.43C14.9556 5.97933 15.3932 5.624 15.9479 5.364C16.5026 5.09533 17.1916 4.961 18.0149 4.961C18.9942 4.961 19.7872 5.14733 20.3939 5.52C21.0006 5.884 21.4469 6.43 21.7329 7.158C22.0276 7.886 22.1749 8.78733 22.1749 9.862V18H18.8469ZM10.5399 18V0.814H13.8549V4.74L13.7899 8.705L13.8679 8.952V18H10.5399ZM30.9586 18.312C28.7746 18.312 27.1496 17.8093 26.0836 16.804C25.0176 15.7987 24.4846 14.3427 24.4846 12.436V10.772C24.4846 8.88267 24.9829 7.431 25.9796 6.417C26.9762 5.403 28.4236 4.896 30.3216 4.896C31.6042 4.896 32.6746 5.12133 33.5326 5.572C34.3906 6.02267 35.0319 6.664 35.4566 7.496C35.8899 8.31933 36.1066 9.30733 36.1066 10.46V10.915C36.1066 11.227 36.0892 11.5477 36.0546 11.877C36.0286 12.1977 35.9896 12.501 35.9376 12.787H32.9216C32.9476 12.3103 32.9606 11.8597 32.9606 11.435C32.9692 11.0017 32.9736 10.6117 32.9736 10.265C32.9736 9.667 32.8782 9.16 32.6876 8.744C32.4969 8.31933 32.2066 7.99867 31.8166 7.782C31.4266 7.56533 30.9282 7.457 30.3216 7.457C29.4289 7.457 28.7702 7.704 28.3456 8.198C27.9209 8.692 27.7086 9.394 27.7086 10.304V11.487L27.7216 11.864V12.865C27.7216 13.2637 27.7822 13.632 27.9036 13.97C28.0336 14.308 28.2459 14.6027 28.5406 14.854C28.8352 15.0967 29.2252 15.2873 29.7106 15.426C30.2046 15.5647 30.8199 15.634 31.5566 15.634C32.3539 15.634 33.1122 15.5473 33.8316 15.374C34.5596 15.192 35.2486 14.9493 35.8986 14.646L35.6126 17.272C35.0319 17.5927 34.3472 17.844 33.5586 18.026C32.7786 18.2167 31.9119 18.312 30.9586 18.312ZM26.2526 12.787V10.577H35.2616V12.787H26.2526ZM43.468 18.273C42.3846 18.273 41.518 18.1127 40.868 17.792C40.2266 17.4627 39.763 16.9687 39.477 16.31C39.191 15.6513 39.048 14.841 39.048 13.879V6.443H42.35V13.385C42.35 14.0783 42.506 14.5897 42.818 14.919C43.1386 15.2397 43.6976 15.4 44.495 15.4C44.963 15.4 45.4136 15.3523 45.847 15.257C46.2803 15.153 46.679 15.0187 47.043 14.854L46.757 17.636C46.3236 17.8353 45.8253 17.9913 45.262 18.104C44.7073 18.2167 44.1093 18.273 43.468 18.273ZM37.202 7.977V5.351H46.926L46.64 7.977H37.202ZM39.087 5.598L39.074 2.218L42.389 1.88L42.259 5.598H39.087ZM54.2768 18.351C52.3008 18.351 50.8015 17.844 49.7788 16.83C48.7648 15.816 48.2578 14.373 48.2578 12.501V10.772C48.2578 8.89133 48.7648 7.444 49.7788 6.43C50.8015 5.40733 52.3008 4.896 54.2768 4.896C56.2442 4.896 57.7348 5.40733 58.7488 6.43C59.7628 7.444 60.2698 8.89133 60.2698 10.772V12.501C60.2698 14.373 59.7628 15.816 58.7488 16.83C57.7435 17.844 56.2528 18.351 54.2768 18.351ZM54.2768 15.686C55.1435 15.686 55.8022 15.426 56.2528 14.906C56.7122 14.386 56.9418 13.6407 56.9418 12.67V10.603C56.9418 9.615 56.7122 8.861 56.2528 8.341C55.8022 7.81233 55.1435 7.548 54.2768 7.548C53.4015 7.548 52.7342 7.81233 52.2748 8.341C51.8242 8.861 51.5988 9.615 51.5988 10.603V12.67C51.5988 13.6407 51.8242 14.386 52.2748 14.906C52.7342 15.426 53.4015 15.686 54.2768 15.686ZM65.9445 10.59L65.0995 8.367H65.9055C66.1395 7.33567 66.5641 6.52533 67.1795 5.936C67.7948 5.34667 68.6485 5.052 69.7405 5.052C69.9658 5.052 70.1695 5.06933 70.3515 5.104C70.5335 5.13 70.6981 5.16467 70.8455 5.208L71.0275 8.536C70.8368 8.47533 70.6158 8.432 70.3645 8.406C70.1131 8.37133 69.8488 8.354 69.5715 8.354C68.6875 8.354 67.9335 8.549 67.3095 8.939C66.6941 9.329 66.2391 9.87933 65.9445 10.59ZM62.7075 18V5.247H65.8795L65.7365 9.16L66.0355 9.277V18H62.7075ZM79.8707 18L79.9877 14.88L79.8967 14.594V10.603L79.8837 10.031C79.8837 9.199 79.654 8.588 79.1947 8.198C78.744 7.808 78.003 7.613 76.9717 7.613C76.0963 7.613 75.273 7.73 74.5017 7.964C73.739 8.18933 73.0327 8.45367 72.3827 8.757L72.6687 6.105C73.05 5.90567 73.4833 5.71933 73.9687 5.546C74.4627 5.364 75.013 5.21667 75.6197 5.104C76.2263 4.99133 76.8807 4.935 77.5827 4.935C78.6227 4.935 79.5023 5.06067 80.2217 5.312C80.941 5.55467 81.513 5.90567 81.9377 6.365C82.371 6.82433 82.683 7.37467 82.8737 8.016C83.0643 8.64867 83.1597 9.35067 83.1597 10.122V18H79.8707ZM75.6977 18.299C74.4323 18.299 73.466 17.9827 72.7987 17.35C72.14 16.7173 71.8107 15.816 71.8107 14.646V14.282C71.8107 13.0427 72.192 12.1283 72.9547 11.539C73.7173 10.941 74.9263 10.5293 76.5817 10.304L80.1957 9.81L80.3907 11.955L77.0627 12.436C76.3347 12.5313 75.8147 12.7047 75.5027 12.956C75.1993 13.2073 75.0477 13.5757 75.0477 14.061V14.191C75.0477 14.6677 75.195 15.0403 75.4897 15.309C75.793 15.569 76.2653 15.699 76.9067 15.699C77.4787 15.699 77.9683 15.608 78.3757 15.426C78.783 15.244 79.1167 15.0057 79.3767 14.711C79.6453 14.4077 79.836 14.0697 79.9487 13.697L80.4167 15.348H79.8447C79.706 15.894 79.4807 16.3923 79.1687 16.843C78.8653 17.285 78.4363 17.6403 77.8817 17.909C77.327 18.169 76.599 18.299 75.6977 18.299Z" fill="#050038"/>
</svg>
