<svg width="611" height="507" viewBox="0 0 611 507" fill="none" xmlns="http://www.w3.org/2000/svg">
<path fill-rule="evenodd" clip-rule="evenodd" d="M508.703 268.032L509.448 270.792L510.218 273.574L511.011 276.382L511.826 279.217L512.659 282.081L513.508 284.976L514.368 287.904L515.237 290.866L516.111 293.863L516.985 296.896L517.856 299.966L518.719 303.074L519.569 306.219L520.403 309.402L521.216 312.623L522.003 315.882L522.761 319.177L523.484 322.509L524.169 325.875L524.81 329.276L525.405 332.709L525.949 336.173L526.438 339.666L526.868 343.186L527.235 346.731L527.535 350.299L527.765 353.887L527.921 357.492L528 361.111L527.997 364.741L527.91 368.378L527.734 372.019L527.467 375.66L527.104 379.296L526.643 382.924L526.081 386.538L525.416 390.135L524.646 393.709L523.769 397.257L522.783 400.773L521.688 404.253L520.482 407.693L519.165 411.088L517.737 414.432L516.198 417.723L514.548 420.955L512.788 424.123L510.918 427.225L508.941 430.254L506.857 433.208L504.669 436.083L502.378 438.874L499.987 441.578L497.498 444.192L494.914 446.712L492.237 449.136L489.472 451.46L486.621 453.682L483.689 455.8L480.677 457.811L477.592 459.714L474.436 461.507L471.214 463.188L467.93 464.757L464.588 466.212L461.193 467.554L457.749 468.781L454.262 469.895L450.735 470.894L447.173 471.781L443.581 472.557L439.965 473.221L436.327 473.777L432.673 474.226L429.008 474.569L425.336 474.811L421.662 474.954L417.989 475L414.322 474.954L410.666 474.818L407.023 474.598L403.396 474.294L399.79 473.912L396.207 473.454L392.648 472.921L389.117 472.318L385.616 471.645L382.146 470.906L378.709 470.102L375.307 469.236L371.941 468.31L368.613 467.326L365.324 466.287L362.076 465.195L358.869 464.053L355.705 462.864L352.585 461.63L349.509 460.355L346.479 459.041L343.496 457.693L340.558 456.314L337.668 454.908L334.825 453.479L332.03 452.031L329.281 450.569L326.579 449.097L323.924 447.619L321.314 446.141L318.748 444.666L316.225 443.199L313.744 441.745L311.303 440.308L308.901 438.893L306.534 437.503L304.201 436.144L301.899 434.818L299.626 433.529L297.379 432.281L295.154 431.077L292.948 429.92L290.759 428.812L288.583 427.756L286.416 426.754L284.255 425.806L282.096 424.914L279.936 424.079L277.772 423.302L275.6 422.581L273.416 421.917L271.217 421.309L269 420.756L266.763 420.255L264.501 419.805L262.213 419.404L259.897 419.048L257.548 418.735L255.167 418.462L252.751 418.224L250.298 418.018L247.807 417.84L245.278 417.686L242.709 417.55L240.1 417.429L237.452 417.318L234.764 417.211L232.036 417.105L229.27 416.994L226.467 416.873L223.627 416.738L220.752 416.584L217.845 416.406L214.905 416.201L211.937 415.963L208.942 415.688L205.921 415.375L202.877 415.018L199.81 414.618L196.723 414.17L193.616 413.676L190.49 413.132L187.346 412.538L184.184 411.894L181.005 411.199L177.808 410.453L174.595 409.656L171.366 408.806L168.119 407.905L164.857 406.951L161.578 405.944L158.284 404.883L154.975 403.768L151.651 402.598L148.315 401.371L144.966 400.086L141.608 398.743L138.243 397.338L134.873 395.87L131.502 394.337L128.134 392.736L124.773 391.065L121.424 389.322L118.093 387.505L114.782 385.612L111.498 383.642L108.244 381.593L105.027 379.465L101.85 377.257L98.7175 374.969L95.635 372.6L92.6065 370.151L89.6363 367.622L86.7285 365.014L83.887 362.328L81.1156 359.565L78.4179 356.726L75.7972 353.813L73.2565 350.828L70.7987 347.773L68.4265 344.649L66.1422 341.46L63.9478 338.207L61.8454 334.894L59.8364 331.522L57.9222 328.095L56.1041 324.616L54.3828 321.086L52.7591 317.51L51.2334 313.889L49.8061 310.227L48.4772 306.527L47.2468 302.791L46.1147 299.023L45.0804 295.225L44.1437 291.4L43.304 287.551L42.5607 283.68L41.9131 279.791L41.3607 275.884L40.9026 271.964L40.5382 268.032L40.2668 264.092L40.0876 260.144L40 256.192L40.0034 252.238L40.0971 248.284L40.2806 244.333L40.5536 240.386L40.9154 236.445L41.366 232.514L41.9049 228.593L42.5323 224.686L43.2478 220.794L44.0518 216.92L44.9441 213.066L45.925 209.235L46.9947 205.429L48.1532 201.649L49.4008 197.9L50.7376 194.183L52.1636 190.501L53.6787 186.856L55.2828 183.251L56.9755 179.689L58.7562 176.172L60.6243 172.703L62.5788 169.284L64.6184 165.917L66.7416 162.605L68.9468 159.35L71.2317 156.153L73.5939 153.017L76.0308 149.942L78.5393 146.931L81.1161 143.984L83.7581 141.102L86.4616 138.285L89.2231 135.534L92.0389 132.85L94.905 130.231L97.8175 127.677L100.772 125.188L103.765 122.763L106.792 120.4L109.849 118.099L112.931 115.856L116.035 113.67L119.156 111.539L122.289 109.459L125.431 107.428L128.578 105.443L131.725 103.499L134.87 101.594L138.008 99.7228L141.136 97.8817L144.251 96.0664L147.35 94.2722L150.43 92.4946L153.49 90.7289L156.526 88.9704L159.538 87.2143L162.524 85.4558L165.482 83.6903L168.413 81.9131L171.316 80.1198L174.191 78.3062L177.039 76.4681L179.86 74.6018L182.657 72.7038L185.429 70.771L188.18 68.8005L190.913 66.79L193.628 64.7377L196.33 62.6421L199.022 60.5023L201.707 58.3181L204.389 56.0895L207.072 53.8174L209.76 51.5033L212.457 49.1491L215.168 46.7576L217.896 44.3327L220.647 41.8792L223.426 39.4034L226.238 36.9123L229.086 34.4144L231.976 31.9185L234.912 29.4347L237.897 26.9737L240.935 24.5466L244.029 22.1653L247.181 19.8419L250.392 17.5889L253.664 15.4189L256.997 13.3445L260.391 11.3782L263.844 9.53246L267.354 7.81914L270.92 6.24974L274.537 4.83516L278.202 3.58556L281.91 2.51023L285.656 1.61754L289.434 0.914741L293.238 0.407914L297.062 0.101846L300.898 0L304.74 0.104744L308.58 0.417475L312.411 0.938609L316.225 1.66757L320.016 2.60281L323.776 3.74177L327.498 5.08096L331.174 6.61592L334.8 8.34129L338.367 10.2508L341.871 12.3374L345.306 14.5932L348.667 17.0096L351.949 19.5773L355.149 22.2863L358.264 25.1263L361.29 28.0862L364.225 31.1548L367.069 34.3203L369.819 37.5708L372.477 40.8942L375.043 44.2783L377.517 47.7108L379.902 51.1797L382.2 54.6728L384.414 58.1783L386.548 61.6848L388.606 65.181L390.592 68.6563L392.512 72.1004L394.371 75.5037L396.175 78.857L397.931 82.1519L399.643 85.3808L401.321 88.5366L402.969 91.6132L404.595 94.6051L406.206 97.5078L407.809 100.318L409.41 103.031L411.016 105.647L412.634 108.164L414.269 110.582L415.928 112.9L417.615 115.121L419.336 117.245L421.095 119.277L422.897 121.219L424.743 123.076L426.637 124.855L428.578 126.562L430.568 128.204L432.605 129.789L434.687 131.326L436.812 132.824L438.977 134.292L441.176 135.739L443.404 137.174L445.657 138.607L447.928 140.045L450.209 141.497L452.495 142.972L454.776 144.475L457.047 146.016L459.299 147.598L461.524 149.228L463.716 150.91L465.867 152.647L467.97 154.443L470.019 156.3L472.009 158.218L473.936 160.198L475.795 162.238L477.584 164.339L479.299 166.497L480.94 168.711L482.504 170.978L483.99 173.296L485.398 175.661L486.729 178.071L487.981 180.522L489.158 183.011L490.26 185.534L491.29 188.087L492.25 190.667L493.142 193.27L493.972 195.893L494.741 198.533L495.455 201.186L496.118 203.85L496.734 206.521L497.309 209.198L497.847 211.877L498.353 214.557L498.833 217.237L499.292 219.915L499.734 222.59L500.165 225.261L500.591 227.928L501.014 230.591L501.441 233.25L501.875 235.906L502.32 238.559L502.78 241.211L503.258 243.863L503.756 246.516L504.279 249.173L504.826 251.834L505.401 254.503L506.004 257.181L506.635 259.871L507.296 262.574L507.985 265.294L508.703 268.032Z" fill="url(#paint0_linear_332_3998)"/>
<path d="M431.027 186.683C417.154 158.635 442.224 122.388 454.558 110.282C494.352 61.683 502.986 116.183 516.858 144.231C531.722 168.009 529.857 201.01 503.631 213.981C477.405 226.952 444.899 214.73 431.027 186.683Z" fill="#FB7800" fill-opacity="0.05"/>
<path d="M454.846 110.576L454.862 110.56L454.876 110.543C464.812 98.4081 472.735 92.801 479.208 91.5433C485.622 90.2971 490.726 93.3068 495.108 98.7711C499.5 104.247 503.104 112.119 506.487 120.415C507.441 122.755 508.378 125.13 509.31 127.492C511.67 133.475 513.997 139.373 516.49 144.413L516.499 144.431L516.51 144.449C523.895 156.264 527.117 170.361 525.246 183.099C523.377 195.826 516.426 207.194 503.449 213.613C477.449 226.472 445.178 214.368 431.395 186.5C424.537 172.635 427.287 156.702 433.342 142.667C439.395 128.639 448.714 116.595 454.846 110.576Z" stroke="#FB7800" stroke-opacity="0.35" stroke-width="0.821969"/>
<g filter="url(#filter0_d_332_3998)">
<g clip-path="url(#clip0_332_3998)">
<rect x="56" y="230" width="120" height="102" rx="10" fill="white"/>
<path d="M100.99 300V291.054H102.39V300H100.99ZM101.788 296.402V295.226H106.408V296.402H101.788ZM101.396 292.23V291.054H106.513V292.23H101.396ZM109.194 295.863L108.9 294.792H109.236C109.38 294.251 109.623 293.826 109.964 293.518C110.304 293.205 110.769 293.049 111.357 293.049C111.497 293.049 111.62 293.061 111.728 293.084C111.84 293.103 111.94 293.126 112.029 293.154L112.113 294.491C112.001 294.454 111.875 294.426 111.735 294.407C111.595 294.384 111.443 294.372 111.28 294.372C110.78 294.372 110.349 294.5 109.985 294.757C109.621 295.014 109.357 295.382 109.194 295.863ZM107.878 300V293.154H109.215L109.152 295.149L109.25 295.247V300H107.878ZM115.805 300.175C114.797 300.175 114.032 299.907 113.509 299.37C112.986 298.833 112.725 298.061 112.725 297.053V296.08C112.725 295.077 112.986 294.309 113.509 293.777C114.032 293.24 114.797 292.972 115.805 292.972C116.813 292.972 117.576 293.24 118.094 293.777C118.617 294.309 118.878 295.077 118.878 296.08V297.053C118.878 298.061 118.617 298.833 118.094 299.37C117.576 299.907 116.813 300.175 115.805 300.175ZM115.805 299.062C116.36 299.062 116.783 298.896 117.072 298.565C117.361 298.234 117.506 297.758 117.506 297.137V295.996C117.506 295.38 117.361 294.909 117.072 294.582C116.783 294.251 116.36 294.085 115.805 294.085C115.25 294.085 114.827 294.251 114.538 294.582C114.249 294.909 114.104 295.38 114.104 295.996V297.137C114.104 297.758 114.249 298.234 114.538 298.565C114.827 298.896 115.25 299.062 115.805 299.062ZM128.852 300V295.737C128.852 295.415 128.81 295.135 128.726 294.897C128.646 294.654 128.511 294.468 128.32 294.337C128.133 294.206 127.879 294.141 127.557 294.141C127.249 294.141 126.983 294.202 126.759 294.323C126.535 294.444 126.353 294.608 126.213 294.813C126.077 295.018 125.979 295.252 125.919 295.513L125.737 294.561H125.898C125.982 294.286 126.11 294.029 126.283 293.791C126.455 293.553 126.689 293.362 126.983 293.217C127.277 293.072 127.648 293 128.096 293C128.6 293 129.008 293.1 129.321 293.301C129.633 293.497 129.862 293.789 130.007 294.176C130.151 294.559 130.224 295.028 130.224 295.583V300H128.852ZM120.347 300V293.154H121.719L121.663 294.757L121.719 294.841V300H120.347ZM124.603 300V295.737C124.603 295.415 124.561 295.135 124.477 294.897C124.397 294.654 124.262 294.468 124.071 294.337C123.884 294.206 123.63 294.141 123.308 294.141C123 294.141 122.734 294.202 122.51 294.323C122.286 294.444 122.104 294.608 121.964 294.813C121.828 295.018 121.73 295.252 121.67 295.513L121.446 294.561H121.74C121.814 294.272 121.936 294.01 122.104 293.777C122.276 293.539 122.505 293.35 122.79 293.21C123.074 293.07 123.424 293 123.84 293C124.474 293 124.955 293.163 125.282 293.49C125.608 293.817 125.814 294.293 125.898 294.918C125.921 295.007 125.937 295.107 125.947 295.219C125.961 295.331 125.968 295.441 125.968 295.548V300H124.603ZM90.901 315V306.299H92.308V315H90.901ZM88.269 307.23V306.054H94.933V307.23H88.269ZM98.2685 315.161C97.1765 315.161 96.3575 314.902 95.8115 314.384C95.2701 313.861 94.9995 313.11 94.9995 312.13V311.01C94.9995 310.044 95.2515 309.297 95.7555 308.77C96.2641 308.238 97.0038 307.972 97.9745 307.972C98.6325 307.972 99.1808 308.093 99.6195 308.336C100.058 308.574 100.387 308.912 100.606 309.351C100.826 309.79 100.935 310.31 100.935 310.912V311.171C100.935 311.33 100.928 311.491 100.914 311.654C100.9 311.817 100.882 311.974 100.858 312.123H99.5985C99.6078 311.88 99.6125 311.652 99.6125 311.437C99.6171 311.222 99.6195 311.026 99.6195 310.849C99.6195 310.471 99.5588 310.151 99.4375 309.89C99.3161 309.629 99.1341 309.43 98.8915 309.295C98.6488 309.155 98.3431 309.085 97.9745 309.085C97.4285 309.085 97.0225 309.241 96.7565 309.554C96.4905 309.862 96.3575 310.303 96.3575 310.877V311.521L96.3645 311.682V312.291C96.3645 312.548 96.4018 312.781 96.4765 312.991C96.5558 313.201 96.6795 313.383 96.8475 313.537C97.0201 313.686 97.2418 313.803 97.5125 313.887C97.7831 313.966 98.1121 314.006 98.4995 314.006C98.9381 314.006 99.3488 313.95 99.7315 313.838C100.119 313.726 100.483 313.577 100.823 313.39L100.697 314.559C100.389 314.741 100.03 314.888 99.6195 315C99.2135 315.107 98.7631 315.161 98.2685 315.161ZM95.7275 312.123V311.094H100.578V312.123H95.7275ZM110.852 315V310.737C110.852 310.415 110.81 310.135 110.726 309.897C110.647 309.654 110.512 309.468 110.32 309.337C110.134 309.206 109.879 309.141 109.557 309.141C109.249 309.141 108.983 309.202 108.759 309.323C108.535 309.444 108.353 309.608 108.213 309.813C108.078 310.018 107.98 310.252 107.919 310.513L107.737 309.561H107.898C107.982 309.286 108.111 309.029 108.283 308.791C108.456 308.553 108.689 308.362 108.983 308.217C109.277 308.072 109.648 308 110.096 308C110.6 308 111.009 308.1 111.321 308.301C111.634 308.497 111.863 308.789 112.007 309.176C112.152 309.559 112.224 310.028 112.224 310.583V315H110.852ZM102.347 315V308.154H103.719L103.663 309.757L103.719 309.841V315H102.347ZM106.603 315V310.737C106.603 310.415 106.561 310.135 106.477 309.897C106.398 309.654 106.263 309.468 106.071 309.337C105.885 309.206 105.63 309.141 105.308 309.141C105 309.141 104.734 309.202 104.51 309.323C104.286 309.444 104.104 309.608 103.964 309.813C103.829 310.018 103.731 310.252 103.67 310.513L103.446 309.561H103.74C103.815 309.272 103.936 309.01 104.104 308.777C104.277 308.539 104.506 308.35 104.79 308.21C105.075 308.07 105.425 308 105.84 308C106.475 308 106.956 308.163 107.282 308.49C107.609 308.817 107.814 309.293 107.898 309.918C107.922 310.007 107.938 310.107 107.947 310.219C107.961 310.331 107.968 310.441 107.968 310.548V315H106.603ZM117.436 315.154C117.03 315.154 116.68 315.091 116.386 314.965C116.097 314.834 115.861 314.652 115.679 314.419C115.497 314.181 115.364 313.906 115.28 313.593H114.825L115.21 312.298C115.224 312.681 115.306 313 115.455 313.257C115.604 313.509 115.81 313.698 116.071 313.824C116.337 313.95 116.643 314.013 116.988 314.013C117.515 314.013 117.919 313.861 118.199 313.558C118.479 313.25 118.619 312.8 118.619 312.207V310.898C118.619 310.315 118.479 309.871 118.199 309.568C117.924 309.265 117.52 309.113 116.988 309.113C116.671 309.113 116.388 309.174 116.141 309.295C115.894 309.416 115.688 309.582 115.525 309.792C115.366 309.997 115.254 310.233 115.189 310.499L114.867 309.561H115.266C115.345 309.272 115.471 309.01 115.644 308.777C115.817 308.539 116.052 308.35 116.351 308.21C116.654 308.07 117.035 308 117.492 308C118.309 308 118.929 308.257 119.354 308.77C119.783 309.283 119.998 310.032 119.998 311.017V312.102C119.998 313.096 119.783 313.854 119.354 314.377C118.925 314.895 118.285 315.154 117.436 315.154ZM113.873 317.408V308.154H115.245L115.189 309.757L115.21 310.163V313.033L115.203 313.299L115.238 315.238V317.408H113.873ZM121.502 315V305.732H122.874V315H121.502ZM128.658 315L128.714 313.376L128.665 313.166V311.01L128.672 310.667C128.672 310.14 128.536 309.752 128.266 309.505C128 309.258 127.57 309.134 126.978 309.134C126.497 309.134 126.051 309.202 125.641 309.337C125.23 309.472 124.859 309.629 124.528 309.806L124.654 308.658C124.84 308.551 125.06 308.446 125.312 308.343C125.564 308.24 125.848 308.156 126.166 308.091C126.483 308.026 126.831 307.993 127.209 307.993C127.727 307.993 128.165 308.056 128.525 308.182C128.884 308.303 129.173 308.481 129.393 308.714C129.612 308.947 129.771 309.227 129.869 309.554C129.971 309.881 130.023 310.245 130.023 310.646V315H128.658ZM126.341 315.154C125.664 315.154 125.146 314.988 124.787 314.657C124.427 314.321 124.248 313.845 124.248 313.229V313.019C124.248 312.366 124.448 311.883 124.85 311.57C125.256 311.253 125.893 311.033 126.761 310.912L128.819 310.618L128.896 311.612L126.922 311.892C126.45 311.957 126.114 312.072 125.914 312.235C125.713 312.394 125.613 312.629 125.613 312.942V313.04C125.613 313.353 125.708 313.593 125.9 313.761C126.096 313.929 126.392 314.013 126.789 314.013C127.153 314.013 127.465 313.952 127.727 313.831C127.988 313.71 128.2 313.549 128.364 313.348C128.527 313.143 128.639 312.916 128.7 312.669L128.889 313.586H128.637C128.562 313.866 128.438 314.125 128.266 314.363C128.093 314.601 127.85 314.792 127.538 314.937C127.23 315.082 126.831 315.154 126.341 315.154ZM134.126 315.14C133.58 315.14 133.141 315.058 132.81 314.895C132.479 314.727 132.238 314.477 132.089 314.146C131.94 313.81 131.865 313.392 131.865 312.893V308.707H133.223V312.732C133.223 313.152 133.319 313.46 133.51 313.656C133.701 313.852 134.023 313.95 134.476 313.95C134.747 313.95 135.006 313.922 135.253 313.866C135.5 313.81 135.729 313.731 135.939 313.628L135.82 314.79C135.596 314.902 135.337 314.988 135.043 315.049C134.749 315.11 134.443 315.14 134.126 315.14ZM130.794 309.33V308.238H135.876L135.757 309.33H130.794ZM131.879 308.357L131.872 306.474L133.244 306.313L133.188 308.357H131.879ZM139.954 315.161C138.862 315.161 138.043 314.902 137.497 314.384C136.956 313.861 136.685 313.11 136.685 312.13V311.01C136.685 310.044 136.937 309.297 137.441 308.77C137.95 308.238 138.689 307.972 139.66 307.972C140.318 307.972 140.866 308.093 141.305 308.336C141.744 308.574 142.073 308.912 142.292 309.351C142.511 309.79 142.621 310.31 142.621 310.912V311.171C142.621 311.33 142.614 311.491 142.6 311.654C142.586 311.817 142.567 311.974 142.544 312.123H141.284C141.293 311.88 141.298 311.652 141.298 311.437C141.303 311.222 141.305 311.026 141.305 310.849C141.305 310.471 141.244 310.151 141.123 309.89C141.002 309.629 140.82 309.43 140.577 309.295C140.334 309.155 140.029 309.085 139.66 309.085C139.114 309.085 138.708 309.241 138.442 309.554C138.176 309.862 138.043 310.303 138.043 310.877V311.521L138.05 311.682V312.291C138.05 312.548 138.087 312.781 138.162 312.991C138.241 313.201 138.365 313.383 138.533 313.537C138.706 313.686 138.927 313.803 139.198 313.887C139.469 313.966 139.798 314.006 140.185 314.006C140.624 314.006 141.034 313.95 141.417 313.838C141.804 313.726 142.168 313.577 142.509 313.39L142.383 314.559C142.075 314.741 141.716 314.888 141.305 315C140.899 315.107 140.449 315.161 139.954 315.161ZM137.413 312.123V311.094H142.264V312.123H137.413Z" fill="#252051"/>
<path d="M123.583 257.167H119.25M112.75 257.167H108.417M106.25 259.5C106.825 259.5 107.376 259.254 107.782 258.816C108.188 258.379 108.417 257.785 108.417 257.167C108.417 256.548 108.188 255.954 107.782 255.517C107.376 255.079 106.825 254.833 106.25 254.833C105.675 254.833 105.124 255.079 104.718 255.517C104.312 255.954 104.083 256.548 104.083 257.167C104.083 257.785 104.312 258.379 104.718 258.816C105.124 259.254 105.675 259.5 106.25 259.5V259.5ZM125.75 259.5C126.325 259.5 126.876 259.254 127.282 258.816C127.688 258.379 127.917 257.785 127.917 257.167C127.917 256.548 127.688 255.954 127.282 255.517C126.876 255.079 126.325 254.833 125.75 254.833C125.175 254.833 124.624 255.079 124.218 255.517C123.812 255.954 123.583 256.548 123.583 257.167C123.583 257.785 123.812 258.379 124.218 258.816C124.624 259.254 125.175 259.5 125.75 259.5V259.5ZM111.125 268.25V270.583C111.125 271.295 110.724 271.913 110.161 272.17C109.955 272.277 109.729 272.333 109.5 272.333H107.333C106.434 272.333 105.708 271.552 105.708 270.583V268.25C105.708 267.282 106.434 266.5 107.333 266.5H109.5C110.399 266.5 111.125 267.282 111.125 268.25ZM126.292 268.25V270.583C126.292 271.552 125.566 272.333 124.667 272.333H122.5C122.271 272.333 122.045 272.277 121.839 272.17C121.276 271.913 120.875 271.295 120.875 270.583V268.25C120.875 267.282 121.601 266.5 122.5 266.5H124.667C125.566 266.5 126.292 267.282 126.292 268.25ZM119.25 255.417V258.917C119.25 259.873 118.513 260.667 117.625 260.667H114.375C113.487 260.667 112.75 259.873 112.75 258.917V255.417C112.75 254.46 113.487 253.667 114.375 253.667H117.625C118.513 253.667 119.25 254.46 119.25 255.417Z" stroke="#050038" stroke-width="1.5" stroke-miterlimit="10" stroke-linecap="round" stroke-linejoin="round"/>
<path d="M119.25 258.019C121.818 259.419 123.583 262.429 123.583 265.917C123.583 266.115 123.573 266.302 123.551 266.5M108.449 266.5C108.428 266.302 108.417 266.115 108.417 265.917C108.417 262.429 110.183 259.419 112.75 258.019" stroke="#050038" stroke-width="1.5" stroke-miterlimit="10" stroke-linecap="round" stroke-linejoin="round"/>
</g>
</g>
<g filter="url(#filter1_d_332_3998)">
<rect x="407" y="320" width="119" height="46" rx="7" fill="white"/>
<rect x="418" y="346" width="97" height="9" rx="4.5" fill="#E9ECF4"/>
<rect x="443" y="330" width="46" height="8" rx="4" fill="#B6CCFE"/>
</g>
<g filter="url(#filter2_d_332_3998)">
<rect x="350" y="181" width="119" height="68" rx="7" fill="white"/>
<rect x="355" y="212" width="86" height="10" rx="5" fill="#E9ECF4"/>
<rect x="355" y="225" width="52" height="10" rx="5" fill="#E9ECF4"/>
<rect x="355" y="190" width="45" height="10" rx="5" fill="#B6CCFE"/>
<rect x="448" y="235" width="16" height="10" rx="3" fill="#E9ECF4"/>
</g>
<g filter="url(#filter3_d_332_3998)">
<rect x="208" y="185" width="119" height="46" rx="7" fill="white"/>
<rect x="219" y="211" width="97" height="9" rx="4.5" fill="#E9ECF4"/>
<rect x="244" y="195" width="46" height="8" rx="4" fill="#FFC8B7"/>
</g>
<g filter="url(#filter4_d_332_3998)">
<rect x="208" y="240" width="119" height="84" rx="7" fill="white"/>
<rect x="213" y="271" width="86" height="10" rx="5" fill="#E9ECF4"/>
<rect x="213" y="284" width="100" height="10" rx="5" fill="#E9ECF4"/>
<rect x="213" y="297" width="52" height="10" rx="5" fill="#E9ECF4"/>
<rect x="213" y="249" width="45" height="10" rx="5" fill="#C2E7CF"/>
<rect x="306" y="308" width="16" height="10" rx="3" fill="#E9ECF4"/>
</g>
<g filter="url(#filter5_d_332_3998)">
<rect x="350" y="256" width="119" height="46" rx="7" fill="white"/>
<rect x="361" y="282" width="97" height="9" rx="4.5" fill="#E9ECF4"/>
<rect x="386" y="266" width="46" height="8" rx="4" fill="#C2E7CF"/>
</g>
<g filter="url(#filter6_d_332_3998)">
<rect x="236" y="81" width="119" height="84" rx="7" fill="white"/>
<rect x="241" y="112" width="86" height="10" rx="5" fill="#E9ECF4"/>
<rect x="241" y="125" width="100" height="10" rx="5" fill="#E9ECF4"/>
<rect x="241" y="138" width="52" height="10" rx="5" fill="#E9ECF4"/>
<rect x="273" y="90" width="45" height="10" rx="5" fill="#C2E7CF"/>
<rect x="334" y="149" width="16" height="10" rx="3" fill="#E9ECF4"/>
</g>
<g filter="url(#filter7_d_332_3998)">
<rect x="279" y="335" width="119" height="68" rx="7" fill="white"/>
<rect x="284" y="366" width="86" height="10" rx="5" fill="#E9ECF4"/>
<rect x="284" y="379" width="52" height="10" rx="5" fill="#E9ECF4"/>
<rect x="284" y="344" width="45" height="10" rx="5" fill="#FFC8B7"/>
<rect x="377" y="389" width="16" height="10" rx="3" fill="#E9ECF4"/>
</g>
<circle cx="267" cy="231" r="1" fill="white" fill-opacity="0.75" stroke="white" stroke-opacity="0.75"/>
<circle cx="267" cy="324" r="1" fill="white" fill-opacity="0.75" stroke="white" stroke-opacity="0.75"/>
<circle cx="410" cy="249" r="1" fill="white" stroke="white" stroke-opacity="0.75"/>
<g filter="url(#filter8_d_332_3998)">
<g clip-path="url(#clip1_332_3998)">
<rect x="55" y="117" width="120" height="102" rx="10" fill="white"/>
<path d="M99.034 187V178.054H100.434V187H99.034ZM99.832 183.402V182.226H104.452V183.402H99.832ZM99.44 179.23V178.054H104.557V179.23H99.44ZM107.238 182.863L106.944 181.792H107.28C107.424 181.251 107.667 180.826 108.008 180.518C108.348 180.205 108.813 180.049 109.401 180.049C109.541 180.049 109.664 180.061 109.772 180.084C109.884 180.103 109.984 180.126 110.073 180.154L110.157 181.491C110.045 181.454 109.919 181.426 109.779 181.407C109.639 181.384 109.487 181.372 109.324 181.372C108.824 181.372 108.393 181.5 108.029 181.757C107.665 182.014 107.401 182.382 107.238 182.863ZM105.922 187V180.154H107.259L107.196 182.149L107.294 182.247V187H105.922ZM113.849 187.175C112.841 187.175 112.076 186.907 111.553 186.37C111.03 185.833 110.769 185.061 110.769 184.053V183.08C110.769 182.077 111.03 181.309 111.553 180.777C112.076 180.24 112.841 179.972 113.849 179.972C114.857 179.972 115.62 180.24 116.138 180.777C116.661 181.309 116.922 182.077 116.922 183.08V184.053C116.922 185.061 116.661 185.833 116.138 186.37C115.62 186.907 114.857 187.175 113.849 187.175ZM113.849 186.062C114.404 186.062 114.827 185.896 115.116 185.565C115.405 185.234 115.55 184.758 115.55 184.137V182.996C115.55 182.38 115.405 181.909 115.116 181.582C114.827 181.251 114.404 181.085 113.849 181.085C113.294 181.085 112.871 181.251 112.582 181.582C112.293 181.909 112.148 182.38 112.148 182.996V184.137C112.148 184.758 112.293 185.234 112.582 185.565C112.871 185.896 113.294 186.062 113.849 186.062ZM126.895 187V182.737C126.895 182.415 126.853 182.135 126.769 181.897C126.69 181.654 126.555 181.468 126.363 181.337C126.177 181.206 125.922 181.141 125.6 181.141C125.292 181.141 125.026 181.202 124.802 181.323C124.578 181.444 124.396 181.608 124.256 181.813C124.121 182.018 124.023 182.252 123.962 182.513L123.78 181.561H123.941C124.025 181.286 124.154 181.029 124.326 180.791C124.499 180.553 124.732 180.362 125.026 180.217C125.32 180.072 125.691 180 126.139 180C126.643 180 127.052 180.1 127.364 180.301C127.677 180.497 127.906 180.789 128.05 181.176C128.195 181.559 128.267 182.028 128.267 182.583V187H126.895ZM118.39 187V180.154H119.762L119.706 181.757L119.762 181.841V187H118.39ZM122.646 187V182.737C122.646 182.415 122.604 182.135 122.52 181.897C122.441 181.654 122.306 181.468 122.114 181.337C121.928 181.206 121.673 181.141 121.351 181.141C121.043 181.141 120.777 181.202 120.553 181.323C120.329 181.444 120.147 181.608 120.007 181.813C119.872 182.018 119.774 182.252 119.713 182.513L119.489 181.561H119.783C119.858 181.272 119.979 181.01 120.147 180.777C120.32 180.539 120.549 180.35 120.833 180.21C121.118 180.07 121.468 180 121.883 180C122.518 180 122.999 180.163 123.325 180.49C123.652 180.817 123.857 181.293 123.941 181.918C123.965 182.007 123.981 182.107 123.99 182.219C124.004 182.331 124.011 182.441 124.011 182.548V187H122.646ZM96.2638 202.168C95.8392 202.168 95.4472 202.135 95.0878 202.07C94.7285 202.005 94.4065 201.923 94.1218 201.825C93.8418 201.727 93.6038 201.629 93.4078 201.531L93.2748 200.152C93.6342 200.357 94.0588 200.539 94.5488 200.698C95.0435 200.857 95.5778 200.936 96.1518 200.936C96.8052 200.936 97.2858 200.829 97.5938 200.614C97.9018 200.395 98.0558 200.066 98.0558 199.627V199.522C98.0558 199.237 97.9928 199.004 97.8668 198.822C97.7455 198.635 97.5378 198.477 97.2438 198.346C96.9498 198.211 96.5508 198.082 96.0468 197.961C95.3842 197.798 94.8475 197.606 94.4368 197.387C94.0308 197.163 93.7345 196.885 93.5478 196.554C93.3612 196.218 93.2678 195.8 93.2678 195.301V195.231C93.2678 194.48 93.5175 193.901 94.0168 193.495C94.5162 193.089 95.2652 192.886 96.2638 192.886C96.9032 192.886 97.4492 192.949 97.9018 193.075C98.3592 193.196 98.7348 193.334 99.0288 193.488L99.1548 194.769C98.8142 194.573 98.4222 194.41 97.9788 194.279C97.5355 194.144 97.0362 194.076 96.4808 194.076C96.0468 194.076 95.6992 194.125 95.4378 194.223C95.1765 194.316 94.9875 194.454 94.8708 194.636C94.7542 194.813 94.6958 195.028 94.6958 195.28V195.308C94.6958 195.569 94.7542 195.793 94.8708 195.98C94.9875 196.167 95.1928 196.332 95.4868 196.477C95.7855 196.617 96.2078 196.757 96.7538 196.897C97.4025 197.06 97.9252 197.245 98.3218 197.45C98.7232 197.651 99.0172 197.914 99.2038 198.241C99.3905 198.563 99.4838 198.988 99.4838 199.515V199.655C99.4838 200.481 99.2155 201.106 98.6788 201.531C98.1422 201.956 97.3372 202.168 96.2638 202.168ZM103.675 202.161C102.658 202.161 101.902 201.893 101.407 201.356C100.917 200.815 100.672 200.052 100.672 199.067V198.08C100.672 197.091 100.92 196.328 101.414 195.791C101.909 195.254 102.663 194.986 103.675 194.986C103.955 194.986 104.212 195.012 104.445 195.063C104.683 195.114 104.898 195.182 105.089 195.266C105.281 195.345 105.444 195.429 105.579 195.518L105.698 196.694C105.474 196.535 105.215 196.402 104.921 196.295C104.627 196.183 104.284 196.127 103.892 196.127C103.267 196.127 102.803 196.297 102.499 196.638C102.201 196.974 102.051 197.464 102.051 198.108V199.032C102.051 199.662 102.201 200.147 102.499 200.488C102.803 200.829 103.267 200.999 103.892 200.999C104.289 200.999 104.639 200.945 104.942 200.838C105.246 200.726 105.519 200.591 105.761 200.432L105.642 201.622C105.428 201.757 105.152 201.881 104.816 201.993C104.485 202.105 104.105 202.161 103.675 202.161ZM108.366 197.863L108.072 196.792H108.408C108.552 196.251 108.795 195.826 109.136 195.518C109.476 195.205 109.941 195.049 110.529 195.049C110.669 195.049 110.792 195.061 110.9 195.084C111.012 195.103 111.112 195.126 111.201 195.154L111.285 196.491C111.173 196.454 111.047 196.426 110.907 196.407C110.767 196.384 110.615 196.372 110.452 196.372C109.952 196.372 109.521 196.5 109.157 196.757C108.793 197.014 108.529 197.382 108.366 197.863ZM107.05 202V195.154H108.387L108.324 197.149L108.422 197.247V202H107.05ZM116.188 202L116.244 200.376L116.195 200.166V198.01L116.202 197.667C116.202 197.14 116.067 196.752 115.796 196.505C115.53 196.258 115.101 196.134 114.508 196.134C114.027 196.134 113.582 196.202 113.171 196.337C112.76 196.472 112.389 196.629 112.058 196.806L112.184 195.658C112.371 195.551 112.59 195.446 112.842 195.343C113.094 195.24 113.379 195.156 113.696 195.091C114.013 195.026 114.361 194.993 114.739 194.993C115.257 194.993 115.696 195.056 116.055 195.182C116.414 195.303 116.704 195.481 116.923 195.714C117.142 195.947 117.301 196.227 117.399 196.554C117.502 196.881 117.553 197.245 117.553 197.646V202H116.188ZM113.871 202.154C113.194 202.154 112.676 201.988 112.317 201.657C111.958 201.321 111.778 200.845 111.778 200.229V200.019C111.778 199.366 111.979 198.883 112.38 198.57C112.786 198.253 113.423 198.033 114.291 197.912L116.349 197.618L116.426 198.612L114.452 198.892C113.981 198.957 113.645 199.072 113.444 199.235C113.243 199.394 113.143 199.629 113.143 199.942V200.04C113.143 200.353 113.239 200.593 113.43 200.761C113.626 200.929 113.922 201.013 114.319 201.013C114.683 201.013 114.996 200.952 115.257 200.831C115.518 200.71 115.731 200.549 115.894 200.348C116.057 200.143 116.169 199.916 116.23 199.669L116.419 200.586H116.167C116.092 200.866 115.969 201.125 115.796 201.363C115.623 201.601 115.381 201.792 115.068 201.937C114.76 202.082 114.361 202.154 113.871 202.154ZM121.656 202.14C121.11 202.14 120.672 202.058 120.34 201.895C120.009 201.727 119.769 201.477 119.619 201.146C119.47 200.81 119.395 200.392 119.395 199.893V195.707H120.753V199.732C120.753 200.152 120.849 200.46 121.04 200.656C121.232 200.852 121.554 200.95 122.006 200.95C122.277 200.95 122.536 200.922 122.783 200.866C123.031 200.81 123.259 200.731 123.469 200.628L123.35 201.79C123.126 201.902 122.867 201.988 122.573 202.049C122.279 202.11 121.974 202.14 121.656 202.14ZM118.324 196.33V195.238H123.406L123.287 196.33H118.324ZM119.409 195.357L119.402 193.474L120.774 193.313L120.718 195.357H119.409ZM127.218 202.161C126.201 202.161 125.445 201.893 124.95 201.356C124.46 200.815 124.215 200.052 124.215 199.067V198.08C124.215 197.091 124.463 196.328 124.957 195.791C125.452 195.254 126.206 194.986 127.218 194.986C127.498 194.986 127.755 195.012 127.988 195.063C128.226 195.114 128.441 195.182 128.632 195.266C128.824 195.345 128.987 195.429 129.122 195.518L129.241 196.694C129.017 196.535 128.758 196.402 128.464 196.295C128.17 196.183 127.827 196.127 127.435 196.127C126.81 196.127 126.346 196.297 126.042 196.638C125.744 196.974 125.594 197.464 125.594 198.108V199.032C125.594 199.662 125.744 200.147 126.042 200.488C126.346 200.829 126.81 200.999 127.435 200.999C127.832 200.999 128.182 200.945 128.485 200.838C128.789 200.726 129.062 200.591 129.304 200.432L129.185 201.622C128.971 201.757 128.695 201.881 128.359 201.993C128.028 202.105 127.648 202.161 127.218 202.161ZM135.129 202V197.772C135.129 197.441 135.082 197.154 134.989 196.911C134.9 196.668 134.751 196.479 134.541 196.344C134.335 196.209 134.053 196.141 133.694 196.141C133.362 196.141 133.075 196.202 132.833 196.323C132.595 196.444 132.401 196.608 132.252 196.813C132.102 197.018 131.995 197.252 131.93 197.513L131.657 196.561H132C132.079 196.272 132.21 196.01 132.392 195.777C132.574 195.539 132.816 195.35 133.12 195.21C133.423 195.07 133.794 195 134.233 195C134.769 195 135.203 195.103 135.535 195.308C135.866 195.509 136.109 195.803 136.263 196.19C136.421 196.577 136.501 197.053 136.501 197.618V202H135.129ZM130.593 202V192.732H131.958V194.916L131.923 196.89L131.965 196.988V202H130.593Z" fill="#252051"/>
<path d="M115.349 140.699C115.192 140.57 114.999 140.5 114.8 140.5C114.601 140.5 114.408 140.57 114.251 140.699C112.541 142.077 107.492 146.57 107.519 151.805C107.519 156.042 110.786 159.5 114.809 159.5C118.832 159.5 122.099 156.051 122.099 151.814C122.108 146.656 117.05 142.086 115.349 140.699V140.699Z" stroke="#050038" stroke-width="1.5" stroke-miterlimit="10"/>
<path d="M114.8 140.5V159.5M114.8 156.612L121.73 153.059M114.8 151.862L121.433 148.461M114.8 147.112L119.327 144.784" stroke="#050038" stroke-width="1.5" stroke-linecap="round" stroke-linejoin="round"/>
</g>
</g>
<path d="M408.646 181.354C408.842 181.549 409.158 181.549 409.354 181.354L412.536 178.172C412.731 177.976 412.731 177.66 412.536 177.464C412.34 177.269 412.024 177.269 411.828 177.464L409 180.293L406.172 177.464C405.976 177.269 405.66 177.269 405.464 177.464C405.269 177.66 405.269 177.976 405.464 178.172L408.646 181.354ZM357 123.5H404V122.5H357V123.5ZM408.5 128V181H409.5V128H408.5ZM404 123.5C406.485 123.5 408.5 125.515 408.5 128H409.5C409.5 124.962 407.038 122.5 404 122.5V123.5Z" fill="white" fill-opacity="0.75"/>
<circle cx="355" cy="123" r="2" fill="white" fill-opacity="0.75" stroke="white" stroke-opacity="0.75"/>
<path d="M266.646 185.354C266.842 185.549 267.158 185.549 267.354 185.354L270.536 182.172C270.731 181.976 270.731 181.66 270.536 181.464C270.34 181.269 270.024 181.269 269.828 181.464L267 184.293L264.172 181.464C263.976 181.269 263.66 181.269 263.464 181.464C263.269 181.66 263.269 181.976 263.464 182.172L266.646 185.354ZM267.5 185V179.061H266.5V185H267.5ZM272 174.561H290V173.561H272V174.561ZM295.5 169.061V166H294.5V169.061H295.5ZM290 174.561C293.038 174.561 295.5 172.098 295.5 169.061H294.5C294.5 171.546 292.485 173.561 290 173.561V174.561ZM267.5 179.061C267.5 176.575 269.515 174.561 272 174.561V173.561C268.962 173.561 266.5 176.023 266.5 179.061H267.5Z" fill="white" fill-opacity="0.75"/>
<circle cx="295" cy="165" r="1" fill="white" fill-opacity="0.75" stroke="white" stroke-opacity="0.75"/>
<path d="M266.646 240.354C266.842 240.549 267.158 240.549 267.354 240.354L270.536 237.172C270.731 236.976 270.731 236.66 270.536 236.464C270.34 236.269 270.024 236.269 269.828 236.464L267 239.293L264.172 236.464C263.976 236.269 263.66 236.269 263.464 236.464C263.269 236.66 263.269 236.976 263.464 237.172L266.646 240.354ZM266.5 232V240H267.5V232H266.5Z" fill="white" fill-opacity="0.75"/>
<path d="M409.646 256.354C409.842 256.549 410.158 256.549 410.354 256.354L413.536 253.172C413.731 252.976 413.731 252.66 413.536 252.464C413.34 252.269 413.024 252.269 412.828 252.464L410 255.293L407.172 252.464C406.976 252.269 406.66 252.269 406.464 252.464C406.269 252.66 406.269 252.976 406.464 253.172L409.646 256.354ZM409.5 250V256H410.5V250H409.5Z" fill="white" fill-opacity="0.75"/>
<path d="M338.146 334.854C338.342 335.049 338.658 335.049 338.854 334.854L342.036 331.672C342.231 331.476 342.231 331.16 342.036 330.964C341.84 330.769 341.524 330.769 341.328 330.964L338.5 333.793L335.672 330.964C335.476 330.769 335.16 330.769 334.964 330.964C334.769 331.16 334.769 331.476 334.964 331.672L338.146 334.854ZM270.667 328.667H333.5V327.667H270.667V328.667ZM338 333.167V334.5H339V333.167H338ZM333.5 328.667C335.985 328.667 338 330.681 338 333.167H339C339 330.129 336.538 327.667 333.5 327.667V328.667ZM267 325C267 327.025 268.642 328.667 270.667 328.667V327.667C269.194 327.667 268 326.473 268 325H267Z" fill="white" fill-opacity="0.75"/>
<path d="M337.646 335.354C337.842 335.549 338.158 335.549 338.354 335.354L341.536 332.172C341.731 331.976 341.731 331.66 341.536 331.464C341.34 331.269 341.024 331.269 340.828 331.464L338 334.293L335.172 331.464C334.976 331.269 334.66 331.269 334.464 331.464C334.269 331.66 334.269 331.976 334.464 332.172L337.646 335.354ZM338.5 335V322.644H337.5V335H338.5ZM343 318.144H404V317.144H343V318.144ZM409.5 312.644V303H408.5V312.644H409.5ZM404 318.144C407.038 318.144 409.5 315.682 409.5 312.644H408.5C408.5 315.129 406.485 317.144 404 317.144V318.144ZM338.5 322.644C338.5 320.159 340.515 318.144 343 318.144V317.144C339.962 317.144 337.5 319.607 337.5 322.644H338.5Z" fill="white" fill-opacity="0.75"/>
<circle cx="409" cy="302" r="1" fill="white" fill-opacity="0.75" stroke="white" stroke-opacity="0.75"/>
<path d="M466.146 319.854C466.342 320.049 466.658 320.049 466.854 319.854L470.036 316.672C470.231 316.476 470.231 316.16 470.036 315.964C469.84 315.769 469.524 315.769 469.328 315.964L466.5 318.793L463.672 315.964C463.476 315.769 463.16 315.769 462.964 315.964C462.769 316.16 462.769 316.476 462.964 316.672L466.146 319.854ZM408.5 303V304.828H409.5V303H408.5ZM414 310.328H461.5V309.328H414V310.328ZM466 314.828V319.5H467V314.828H466ZM461.5 310.328C463.985 310.328 466 312.342 466 314.828H467C467 311.79 464.538 309.328 461.5 309.328V310.328ZM408.5 304.828C408.5 307.865 410.962 310.328 414 310.328V309.328C411.515 309.328 409.5 307.313 409.5 304.828H408.5Z" fill="white" fill-opacity="0.75"/>
<rect x="135" y="361" width="90" height="90" rx="45" fill="#FFA74F"/>
<path d="M161 397.247V414.117M170.5 391.623V419.741M180 386V425.364M189.5 391.623V419.741M199 397.247V414.117" stroke="white" stroke-width="5" stroke-linecap="round" stroke-linejoin="round"/>
<defs>
<filter id="filter0_d_332_3998" x="52" y="228" width="128" height="110" filterUnits="userSpaceOnUse" color-interpolation-filters="sRGB">
<feFlood flood-opacity="0" result="BackgroundImageFix"/>
<feColorMatrix in="SourceAlpha" type="matrix" values="0 0 0 0 0 0 0 0 0 0 0 0 0 0 0 0 0 0 127 0" result="hardAlpha"/>
<feOffset dy="2"/>
<feGaussianBlur stdDeviation="2"/>
<feComposite in2="hardAlpha" operator="out"/>
<feColorMatrix type="matrix" values="0 0 0 0 0 0 0 0 0 0 0 0 0 0 0 0 0 0 0.25 0"/>
<feBlend mode="normal" in2="BackgroundImageFix" result="effect1_dropShadow_332_3998"/>
<feBlend mode="normal" in="SourceGraphic" in2="effect1_dropShadow_332_3998" result="shape"/>
</filter>
<filter id="filter1_d_332_3998" x="403" y="318" width="127" height="54" filterUnits="userSpaceOnUse" color-interpolation-filters="sRGB">
<feFlood flood-opacity="0" result="BackgroundImageFix"/>
<feColorMatrix in="SourceAlpha" type="matrix" values="0 0 0 0 0 0 0 0 0 0 0 0 0 0 0 0 0 0 127 0" result="hardAlpha"/>
<feOffset dy="2"/>
<feGaussianBlur stdDeviation="2"/>
<feComposite in2="hardAlpha" operator="out"/>
<feColorMatrix type="matrix" values="0 0 0 0 0 0 0 0 0 0 0 0 0 0 0 0 0 0 0.25 0"/>
<feBlend mode="normal" in2="BackgroundImageFix" result="effect1_dropShadow_332_3998"/>
<feBlend mode="normal" in="SourceGraphic" in2="effect1_dropShadow_332_3998" result="shape"/>
</filter>
<filter id="filter2_d_332_3998" x="346" y="179" width="127" height="76" filterUnits="userSpaceOnUse" color-interpolation-filters="sRGB">
<feFlood flood-opacity="0" result="BackgroundImageFix"/>
<feColorMatrix in="SourceAlpha" type="matrix" values="0 0 0 0 0 0 0 0 0 0 0 0 0 0 0 0 0 0 127 0" result="hardAlpha"/>
<feOffset dy="2"/>
<feGaussianBlur stdDeviation="2"/>
<feComposite in2="hardAlpha" operator="out"/>
<feColorMatrix type="matrix" values="0 0 0 0 0 0 0 0 0 0 0 0 0 0 0 0 0 0 0.25 0"/>
<feBlend mode="normal" in2="BackgroundImageFix" result="effect1_dropShadow_332_3998"/>
<feBlend mode="normal" in="SourceGraphic" in2="effect1_dropShadow_332_3998" result="shape"/>
</filter>
<filter id="filter3_d_332_3998" x="204" y="183" width="127" height="54" filterUnits="userSpaceOnUse" color-interpolation-filters="sRGB">
<feFlood flood-opacity="0" result="BackgroundImageFix"/>
<feColorMatrix in="SourceAlpha" type="matrix" values="0 0 0 0 0 0 0 0 0 0 0 0 0 0 0 0 0 0 127 0" result="hardAlpha"/>
<feOffset dy="2"/>
<feGaussianBlur stdDeviation="2"/>
<feComposite in2="hardAlpha" operator="out"/>
<feColorMatrix type="matrix" values="0 0 0 0 0 0 0 0 0 0 0 0 0 0 0 0 0 0 0.25 0"/>
<feBlend mode="normal" in2="BackgroundImageFix" result="effect1_dropShadow_332_3998"/>
<feBlend mode="normal" in="SourceGraphic" in2="effect1_dropShadow_332_3998" result="shape"/>
</filter>
<filter id="filter4_d_332_3998" x="204" y="238" width="127" height="92" filterUnits="userSpaceOnUse" color-interpolation-filters="sRGB">
<feFlood flood-opacity="0" result="BackgroundImageFix"/>
<feColorMatrix in="SourceAlpha" type="matrix" values="0 0 0 0 0 0 0 0 0 0 0 0 0 0 0 0 0 0 127 0" result="hardAlpha"/>
<feOffset dy="2"/>
<feGaussianBlur stdDeviation="2"/>
<feComposite in2="hardAlpha" operator="out"/>
<feColorMatrix type="matrix" values="0 0 0 0 0 0 0 0 0 0 0 0 0 0 0 0 0 0 0.25 0"/>
<feBlend mode="normal" in2="BackgroundImageFix" result="effect1_dropShadow_332_3998"/>
<feBlend mode="normal" in="SourceGraphic" in2="effect1_dropShadow_332_3998" result="shape"/>
</filter>
<filter id="filter5_d_332_3998" x="346" y="254" width="127" height="54" filterUnits="userSpaceOnUse" color-interpolation-filters="sRGB">
<feFlood flood-opacity="0" result="BackgroundImageFix"/>
<feColorMatrix in="SourceAlpha" type="matrix" values="0 0 0 0 0 0 0 0 0 0 0 0 0 0 0 0 0 0 127 0" result="hardAlpha"/>
<feOffset dy="2"/>
<feGaussianBlur stdDeviation="2"/>
<feComposite in2="hardAlpha" operator="out"/>
<feColorMatrix type="matrix" values="0 0 0 0 0 0 0 0 0 0 0 0 0 0 0 0 0 0 0.25 0"/>
<feBlend mode="normal" in2="BackgroundImageFix" result="effect1_dropShadow_332_3998"/>
<feBlend mode="normal" in="SourceGraphic" in2="effect1_dropShadow_332_3998" result="shape"/>
</filter>
<filter id="filter6_d_332_3998" x="232" y="79" width="127" height="92" filterUnits="userSpaceOnUse" color-interpolation-filters="sRGB">
<feFlood flood-opacity="0" result="BackgroundImageFix"/>
<feColorMatrix in="SourceAlpha" type="matrix" values="0 0 0 0 0 0 0 0 0 0 0 0 0 0 0 0 0 0 127 0" result="hardAlpha"/>
<feOffset dy="2"/>
<feGaussianBlur stdDeviation="2"/>
<feComposite in2="hardAlpha" operator="out"/>
<feColorMatrix type="matrix" values="0 0 0 0 0 0 0 0 0 0 0 0 0 0 0 0 0 0 0.25 0"/>
<feBlend mode="normal" in2="BackgroundImageFix" result="effect1_dropShadow_332_3998"/>
<feBlend mode="normal" in="SourceGraphic" in2="effect1_dropShadow_332_3998" result="shape"/>
</filter>
<filter id="filter7_d_332_3998" x="275" y="333" width="127" height="76" filterUnits="userSpaceOnUse" color-interpolation-filters="sRGB">
<feFlood flood-opacity="0" result="BackgroundImageFix"/>
<feColorMatrix in="SourceAlpha" type="matrix" values="0 0 0 0 0 0 0 0 0 0 0 0 0 0 0 0 0 0 127 0" result="hardAlpha"/>
<feOffset dy="2"/>
<feGaussianBlur stdDeviation="2"/>
<feComposite in2="hardAlpha" operator="out"/>
<feColorMatrix type="matrix" values="0 0 0 0 0 0 0 0 0 0 0 0 0 0 0 0 0 0 0.25 0"/>
<feBlend mode="normal" in2="BackgroundImageFix" result="effect1_dropShadow_332_3998"/>
<feBlend mode="normal" in="SourceGraphic" in2="effect1_dropShadow_332_3998" result="shape"/>
</filter>
<filter id="filter8_d_332_3998" x="51" y="115" width="128" height="110" filterUnits="userSpaceOnUse" color-interpolation-filters="sRGB">
<feFlood flood-opacity="0" result="BackgroundImageFix"/>
<feColorMatrix in="SourceAlpha" type="matrix" values="0 0 0 0 0 0 0 0 0 0 0 0 0 0 0 0 0 0 127 0" result="hardAlpha"/>
<feOffset dy="2"/>
<feGaussianBlur stdDeviation="2"/>
<feComposite in2="hardAlpha" operator="out"/>
<feColorMatrix type="matrix" values="0 0 0 0 0 0 0 0 0 0 0 0 0 0 0 0 0 0 0.25 0"/>
<feBlend mode="normal" in2="BackgroundImageFix" result="effect1_dropShadow_332_3998"/>
<feBlend mode="normal" in="SourceGraphic" in2="effect1_dropShadow_332_3998" result="shape"/>
</filter>
<linearGradient id="paint0_linear_332_3998" x1="196.773" y1="-3.50819e-06" x2="506.124" y2="501.513" gradientUnits="userSpaceOnUse">
<stop offset="0.063679" stop-color="#FFA74F"/>
<stop offset="0.985778" stop-color="#FFA74F" stop-opacity="0.07"/>
</linearGradient>
<clipPath id="clip0_332_3998">
<rect x="56" y="230" width="120" height="102" rx="10" fill="white"/>
</clipPath>
<clipPath id="clip1_332_3998">
<rect x="55" y="117" width="120" height="102" rx="10" fill="white"/>
</clipPath>
</defs>
</svg>
