<svg width="41" height="46" viewBox="0 0 41 46" fill="none" xmlns="http://www.w3.org/2000/svg">
<g clip-path="url(#clip0_372_2005)">
<path fill-rule="evenodd" clip-rule="evenodd" d="M19.9756 4.44131C15.1881 4.44131 10.471 5.20343 5.92993 6.70833C4.76826 7.07443 3.81782 8.35579 3.81782 9.51746V26.8897C3.81782 28.3946 4.75067 31.0453 5.96515 32.3285C12.3368 38.8655 16.4554 42.4139 19.9756 42.4139C23.4782 42.4139 27.5969 38.8637 33.9861 32.3109C35.2005 31.0453 36.1158 28.3946 36.1334 26.8756V9.52098C36.1334 8.39803 35.1301 7.06035 34.0389 6.71537C29.4802 5.20343 24.7455 4.44131 19.9756 4.44131ZM19.976 45.9336C15.1885 45.9336 10.6474 42.1758 3.43095 34.771C1.47724 32.7205 0.297969 29.1633 0.297969 26.898V9.52049C0.280367 6.82753 2.25169 4.17681 4.83905 3.35836C14.5901 0.130325 25.3267 0.118004 35.1305 3.3654C37.6475 4.16273 39.654 6.87153 39.654 9.52049V26.884C39.6364 29.1651 38.4571 32.7275 36.521 34.7552C29.287 42.174 24.7635 45.9336 19.976 45.9336Z" fill="white"/>
<path fill-rule="evenodd" clip-rule="evenodd" d="M8.2179 10.6V26.8564C8.2179 27.3827 8.79874 28.9139 9.11556 29.2519C11.6677 31.8709 17.6521 38.0137 19.9754 38.0137C22.2812 38.0137 28.2303 31.9061 30.7825 29.2994C31.1521 28.9069 31.7153 27.3615 31.7329 26.8705V10.5948C24.1117 8.27142 15.9096 8.2591 8.2179 10.6ZM19.9757 39.7734C17.1419 39.7734 12.4424 35.1812 7.8485 30.4747C7.16206 29.7566 6.47561 27.7765 6.45801 26.8683V9.95187C6.45801 9.56993 6.70443 9.23023 7.05645 9.11406C15.4874 6.40702 24.5519 6.4211 32.8772 9.11054C33.2469 9.22847 33.4933 9.56641 33.4933 9.94835V26.8841C33.4757 27.7958 32.754 29.776 32.0676 30.4941C27.4737 35.2059 22.7918 39.7734 19.9757 39.7734Z" fill="white"/>
<path fill-rule="evenodd" clip-rule="evenodd" d="M18.2339 27.7948C17.7411 27.7948 17.2834 27.5977 16.949 27.2474L14.0624 24.2165C13.3936 23.5125 13.4288 22.3983 14.1329 21.7277C14.8369 21.0589 15.9458 21.0835 16.6146 21.7893L18.1283 23.3787L23.2502 17.1444C23.8662 16.3963 24.9751 16.2819 25.7144 16.8997C26.4712 17.5175 26.5768 18.6264 25.9608 19.378L19.5892 27.1506C19.2724 27.5396 18.7971 27.7754 18.2867 27.793L18.2339 27.7948Z" fill="white"/>
</g>
<defs>
<clipPath id="clip0_372_2005">
<rect width="40" height="45" fill="white" transform="translate(0.296875 0.933594)"/>
</clipPath>
</defs>
</svg>
