<svg width="72" height="23" viewBox="0 0 72 23" fill="none" xmlns="http://www.w3.org/2000/svg">
<g clip-path="url(#clip0_358_1986)">
<path d="M3.31832 15.7596C2.89493 15.5948 2.66281 15.52 2.23083 15.52C1.76559 15.52 1.21659 15.6858 1.21659 16.2889C1.21659 17.3969 3.70938 17.1412 3.70938 19.0416C3.70938 20.2726 2.75794 20.7622 1.59053 20.7622C1.18328 20.7622 0.784672 20.6457 0.403137 20.5217L0.48591 19.7528C0.771322 19.8693 1.26704 20.0369 1.69042 20.0369C2.16617 20.0369 2.83213 19.7726 2.83213 19.0899C2.83213 17.8002 0.340332 18.1553 0.340332 16.3609C0.340332 15.3363 1.15379 14.79 2.20134 14.79C2.62189 14.7931 3.03906 14.8648 3.43633 15.0021L3.32024 15.7596" fill="#B9BEC7"/>
<path d="M8.01297 20.4941C7.71329 20.6021 7.37268 20.7678 6.67525 20.7678C5.17199 20.7678 4.48218 19.8578 4.48218 18.4857C4.48218 17.2367 5.27091 16.3523 6.46789 16.3523C7.87978 16.3523 8.33649 17.3778 8.33649 18.7339H5.31281C5.30935 18.918 5.34297 19.1009 5.41172 19.2719C5.48043 19.4429 5.58286 19.5984 5.71291 19.7293C5.84303 19.8603 5.99812 19.964 6.1691 20.0344C6.34015 20.1048 6.52353 20.1403 6.70861 20.139C7.22328 20.139 7.82176 19.8749 8.01297 19.7176V20.4941ZM7.50587 18.1543C7.50587 17.5095 7.12527 16.981 6.45068 16.981C5.68953 16.981 5.3708 17.6089 5.30898 18.1543H7.50587Z" fill="#B9BEC7"/>
<path d="M12.0745 17.1611C11.8067 17.0467 11.5191 16.9849 11.2277 16.9793C10.3552 16.9793 9.86523 17.7558 9.86523 18.5578C9.86523 19.3106 10.2725 20.1373 11.2772 20.1373C11.5736 20.135 11.8638 20.0521 12.1164 19.8977L12.1744 20.5918C11.8638 20.7181 11.5297 20.7775 11.1944 20.7661C9.91474 20.7661 9.03467 19.7652 9.03467 18.5578C9.03467 17.2767 9.89853 16.3506 11.1944 16.3506C11.5186 16.3528 11.8402 16.4088 12.1459 16.5163L12.0793 17.1611" fill="#B9BEC7"/>
<path d="M16.8186 20.6665H16.0631V19.9961H16.046C15.8138 20.4761 15.2486 20.7659 14.6588 20.7659C13.5618 20.7659 13.0718 20.0879 13.0718 18.9545V16.4498H13.853V18.6324C13.853 19.6163 14.0689 20.0955 14.7501 20.1372C15.6388 20.1372 16.0374 19.426 16.0374 18.4005V16.4498H16.8186V20.6665Z" fill="#B9BEC7"/>
<path d="M18.1477 16.4498H18.8794V17.1031H18.8955C19.103 16.6647 19.552 16.3503 20.0002 16.3503C20.1738 16.3493 20.3468 16.3687 20.5159 16.4081V17.1031C20.3781 17.0506 20.2314 17.0252 20.0839 17.0283C19.3855 17.0283 18.9289 17.6912 18.9289 18.7479V20.6664H18.1477V16.4498Z" fill="#B9BEC7"/>
<path d="M22.3103 15.5067H21.4292V14.6308H22.3103V15.5067ZM21.4796 16.4536H22.2599V20.6703H21.4796V16.4536Z" fill="#B9BEC7"/>
<path d="M25.941 17.0785H24.8192V19.3843C24.8192 19.8728 25.118 20.1418 25.4757 20.1418C25.6637 20.1445 25.8485 20.0928 26.0076 19.9931V20.656C25.7922 20.7255 25.568 20.7647 25.3416 20.7724C24.5358 20.7724 24.0372 20.3936 24.0372 19.5481V17.086H23.0857V16.4573H24.0372V15.4754L24.8183 15.2282V16.4516H25.9401V17.0804" fill="#B9BEC7"/>
<path d="M26.6049 21.8075C26.7225 21.848 26.8458 21.8701 26.9702 21.8728C27.6686 21.8728 27.9008 20.9146 27.9008 20.8313C27.9008 20.7479 27.8056 20.5254 27.7514 20.3853L26.3147 16.4498H27.171L28.3127 19.9382H28.3299L29.4925 16.4498H30.2812L28.7199 20.7573C28.4288 21.567 28.1215 22.5016 27.0921 22.5016C26.9132 22.5008 26.735 22.4814 26.5602 22.4438L26.6096 21.8075" fill="#B9BEC7"/>
<path d="M0.336635 8.83454C1.3068 9.34564 2.38823 9.61196 3.48591 9.61008C4.39073 9.61008 5.43446 9.43108 5.43446 8.61579C5.43446 6.71437 0.0340966 7.80519 0.0340966 3.92288C0.0340966 1.3586 2.4127 0.703293 4.56011 0.703293C5.6701 0.697085 6.77432 0.862891 7.83308 1.19476L7.56663 3.48159C6.81406 3.17197 5.86074 2.86043 4.78557 2.86043C4.06347 2.86043 2.94928 2.90776 2.94928 3.83855C2.94928 5.51839 8.37823 4.64917 8.37823 8.37432C8.37823 11.1374 5.8626 11.7681 3.48591 11.7681C2.30856 11.7646 1.13799 11.5901 0.0112305 11.2502L0.337618 8.83454H0.336635ZM18.1201 0.907848H9.12511V3.07062H12.1973V11.5607H15.0517V3.07062H18.1219L18.1201 0.907848ZM68.6573 0.907848L66.5856 5.18129L64.4845 0.907848H61.2017L65.1585 7.5467V11.5626H68.0126V7.5467L71.9407 0.907848H68.6573ZM30.4185 0.907848V11.5626H33.1643V5.81669L37.8216 11.5589H40.1555V9.95852L32.7666 0.907848H30.4185ZM40.1555 6.30531V0.907848H35.7855L40.1555 6.30531ZM55.0169 7.25222H59.5162V5.12641H55.0169V3.00244H59.9648V0.907848H52.0914V11.5626H60.1292V9.43771H55.0169V7.25222ZM45.6853 0.907848H42.7596V11.5626H50.3666V9.36767H45.6853V0.907848ZM25.1446 9.4302H21.1381L20.4111 11.5589H17.6272L21.552 0.907848H24.8667L28.8495 11.5626H25.8458L25.1446 9.4302ZM24.5156 7.41601L23.1837 3.13787L21.7955 7.41601H24.5156Z" fill="#B9BEC7"/>
<path d="M70.1562 10.6814C70.1562 10.501 70.2101 10.3247 70.3108 10.1748C70.411 10.0247 70.5543 9.90788 70.7221 9.83891C70.8892 9.76987 71.0732 9.75185 71.2516 9.78702C71.4287 9.8222 71.592 9.90901 71.7204 10.0366C71.848 10.1641 71.9357 10.3266 71.9707 10.5035C72.0064 10.6804 71.9882 10.8637 71.9194 11.0303C71.8499 11.197 71.7322 11.3394 71.5814 11.4396C71.4306 11.5398 71.2541 11.5932 71.0726 11.5932C70.8297 11.5928 70.5969 11.4965 70.4254 11.3256C70.2533 11.1547 70.1569 10.9231 70.1562 10.6814ZM71.766 10.6814C71.766 10.2553 71.4556 9.94656 71.0726 9.94656C70.6889 9.94656 70.3797 10.2553 70.3797 10.6814C70.3797 11.1075 70.6901 11.4171 71.0726 11.4171C71.455 11.4171 71.766 11.1084 71.766 10.6814ZM70.7196 10.1615H71.1051C71.353 10.1615 71.485 10.2477 71.485 10.4645C71.485 10.6416 71.3836 10.7268 71.2134 10.7429L71.4932 11.1946H71.2954L71.0256 10.7505H70.9123V11.1946H70.7227L70.7196 10.1615ZM70.9098 10.6037H71.0838C71.1984 10.6037 71.2966 10.5885 71.2966 10.4493C71.2966 10.3281 71.1858 10.3083 71.087 10.3083H70.9123L70.9098 10.6037Z" fill="#B9BEC7"/>
</g>
<defs>
<clipPath id="clip0_358_1986">
<rect width="71.9777" height="21.9062" fill="white" transform="translate(0.0112305 0.703125)"/>
</clipPath>
</defs>
</svg>
