<svg width="24" height="20" viewBox="0 0 24 20" fill="none" xmlns="http://www.w3.org/2000/svg">
<path d="M23.456 2.37658C23.079 2.5438 22.6914 2.68494 22.2953 2.79952C22.7642 2.2692 23.1217 1.6452 23.34 0.962358C23.3889 0.809299 23.3382 0.641764 23.2124 0.541661C23.0867 0.44148 22.9122 0.42948 22.7738 0.511467C21.9326 1.01036 21.0251 1.36889 20.0736 1.57854C19.115 0.641919 17.8132 0.108887 16.4673 0.108887C13.6264 0.108887 11.3151 2.42009 11.3151 5.26091C11.3151 5.48465 11.3293 5.70716 11.3573 5.92656C7.83202 5.61704 4.55463 3.88432 2.30405 1.12362C2.22384 1.02522 2.10028 0.97219 1.97378 0.982332C1.8472 0.992242 1.73347 1.06362 1.66952 1.17333C1.21306 1.95658 0.97174 2.8524 0.97174 3.76385C0.97174 5.00527 1.41497 6.18313 2.19791 7.10349C1.95984 7.02104 1.72882 6.918 1.50833 6.7956C1.38996 6.72971 1.24549 6.73072 1.12789 6.79815C1.01022 6.86558 0.936436 6.98961 0.93334 7.12517C0.932798 7.14801 0.932798 7.17085 0.932798 7.194C0.932798 9.04703 1.93011 10.7153 3.45489 11.6246C3.32389 11.6115 3.19298 11.5926 3.06291 11.5677C2.92882 11.5421 2.79094 11.5891 2.70051 11.6914C2.60993 11.7936 2.57997 11.936 2.6217 12.0661C3.18609 13.8281 4.63917 15.1242 6.39582 15.5194C4.93886 16.4319 3.27272 16.9099 1.52366 16.9099C1.15871 16.9099 0.791662 16.8884 0.432436 16.8459C0.253985 16.8247 0.0833524 16.9301 0.0225782 17.0998C-0.038196 17.2696 0.0262169 17.4589 0.178036 17.5562C2.42498 18.9969 5.02309 19.7584 7.69135 19.7584C12.9368 19.7584 16.2182 17.2848 18.0473 15.2098C20.328 12.6223 21.6361 9.19753 21.6361 5.81361C21.6361 5.67224 21.634 5.52948 21.6296 5.38718C22.5295 4.70922 23.3042 3.88873 23.9346 2.94569C24.0304 2.80246 24.02 2.61317 23.9091 2.48133C23.7983 2.3494 23.6136 2.30674 23.456 2.37658Z" fill="white"/>
</svg>
