<svg xmlns="http://www.w3.org/2000/svg" fill="none" viewBox="32.03 0.77 523.37 393.81">
<path fill-rule="evenodd" clip-rule="evenodd" d="M507.354 265.896L506.373 269.288L505.375 272.679L504.36 276.069L503.327 279.459L502.273 282.849L501.198 286.238L500.1 289.627L498.976 293.014L497.823 296.398L496.638 299.779L495.419 303.155L494.162 306.523L492.863 309.883L491.52 313.231L490.127 316.564L488.683 319.881L487.182 323.177L485.622 326.449L483.998 329.693L482.308 332.905L480.548 336.082L478.716 339.218L476.807 342.309L474.821 345.351L472.754 348.339L470.604 351.268L468.371 354.132L466.051 356.928L463.646 359.651L461.154 362.295L458.575 364.857L455.909 367.331L453.157 369.714L450.321 372.001L447.402 374.189L444.403 376.275L441.325 378.256L438.172 380.129L434.947 381.891L431.654 383.542L428.296 385.08L424.877 386.503L421.402 387.81L417.874 389.001L414.299 390.075L410.68 391.032L407.022 391.873L403.329 392.598L399.607 393.208L395.86 393.704L392.092 394.088L388.309 394.361L384.515 394.527L380.715 394.586L376.913 394.543L373.113 394.399L369.321 394.158L365.539 393.824L361.773 393.401L358.027 392.891L354.303 392.3L350.605 391.632L346.938 390.89L343.303 390.081L339.704 389.207L336.144 388.275L332.625 387.288L329.149 386.253L325.718 385.173L322.334 384.054L318.999 382.901L315.713 381.718L312.478 380.51L309.294 379.282L306.162 378.039L303.081 376.786L300.053 375.525L297.076 374.263L294.15 373.002L291.275 371.747L288.45 370.502L285.673 369.269L282.943 368.051L280.259 366.853L277.62 365.676L275.024 364.523L272.468 363.396L269.951 362.296L267.472 361.225L265.027 360.184L262.616 359.173L260.235 358.193L257.883 357.245L255.558 356.327L253.258 355.44L250.98 354.583L248.723 353.755L246.485 352.955L244.264 352.182L242.058 351.434L239.866 350.71L237.686 350.008L235.517 349.326L233.357 348.663L231.206 348.017L229.062 347.385L226.923 346.766L224.79 346.158L222.662 345.559L220.536 344.968L218.414 344.383L216.294 343.803L214.175 343.226L212.057 342.651L209.939 342.078L207.821 341.505L205.702 340.934L203.58 340.363L201.456 339.792L199.328 339.221L197.196 338.65L195.059 338.078L192.915 337.506L190.765 336.934L188.608 336.36L186.442 335.784L184.267 335.206L182.082 334.626L179.887 334.043L177.682 333.456L175.464 332.864L173.234 332.268L170.992 331.666L168.736 331.057L166.467 330.441L164.184 329.816L161.886 329.182L159.574 328.536L157.248 327.88L154.906 327.21L152.551 326.525L150.181 325.825L147.796 325.108L145.398 324.372L142.987 323.616L140.563 322.839L138.127 322.038L135.68 321.212L133.222 320.36L130.755 319.48L128.28 318.569L125.798 317.628L123.311 316.653L120.82 315.643L118.327 314.597L115.834 313.514L113.342 312.39L110.854 311.226L108.371 310.02L105.895 308.77L103.43 307.475L100.977 306.134L98.5383 304.745L96.1167 303.309L93.7143 301.824L91.3333 300.289L88.9758 298.705L86.644 297.071L84.3398 295.386L82.0652 293.652L79.822 291.868L77.612 290.034L75.4369 288.151L73.2983 286.219L71.1977 284.239L69.1366 282.212L67.1164 280.138L65.1384 278.018L63.204 275.853L61.3142 273.644L59.4704 271.392L57.6737 269.098L55.9252 266.762L54.226 264.387L52.5774 261.972L50.9803 259.52L49.436 257.031L47.9457 254.507L46.5106 251.948L45.1321 249.355L43.8116 246.731L42.5506 244.076L41.3507 241.39L40.2138 238.677L39.1416 235.936L38.1364 233.169L37.2003 230.377L36.3355 227.563L35.5442 224.726L34.8284 221.87L34.1901 218.995L33.631 216.104L33.1529 213.199L32.7573 210.281L32.4457 207.353L32.2193 204.417L32.0792 201.475L32.0263 198.53L32.0614 195.584L32.1851 192.639L32.3978 189.698L32.6996 186.763L33.0907 183.837L33.5706 180.923L34.1392 178.023L34.7959 175.138L35.5397 172.273L36.3698 169.429L37.285 166.609L38.2839 163.814L39.365 161.048L40.5264 158.312L41.7664 155.608L43.0829 152.939L44.4735 150.306L45.9359 147.711L47.4676 145.156L49.0658 142.642L50.7279 140.171L52.4509 137.744L54.2317 135.362L56.0674 133.026L57.9547 130.737L59.8905 128.495L61.8714 126.301L63.8942 124.156L65.9555 122.059L68.0521 120.011L70.1805 118.012L72.3374 116.061L74.5197 114.158L76.7241 112.303L78.9473 110.494L81.1863 108.732L83.4382 107.015L85.6998 105.342L87.9686 103.713L90.2416 102.125L92.5163 100.579L94.7902 99.0715L97.0608 97.6022L99.3261 96.1693L101.584 94.7712L103.832 93.4063L106.068 92.073L108.292 90.7695L110.5 89.4939L112.693 88.2447L114.868 87.02L117.024 85.8179L119.16 84.6366L121.276 83.4744L123.371 82.3295L125.444 81.2L127.494 80.0842L129.521 78.9804L131.526 77.8867L133.507 76.8016L135.464 75.7232L137.399 74.6499L139.31 73.5802L141.198 72.5122L143.063 71.4444L144.906 70.3752L146.727 69.303L148.526 68.226L150.304 67.1427L152.061 66.0518L153.799 64.9521L155.518 63.8424L157.221 62.7221L158.907 61.5906L160.579 60.4475L162.239 59.2927L163.888 58.1264L165.528 56.9489L167.161 55.7608L168.789 54.563L170.415 53.3565L172.04 52.1427L173.666 50.923L175.295 49.6993L176.93 48.4734L178.572 47.2475L180.223 46.0239L181.885 44.8051L183.56 43.5937L185.25 42.3924L186.955 41.204L188.678 40.0315L190.418 38.8779L192.178 37.7463L193.959 36.6395L195.76 35.5609L197.582 34.5132L199.427 33.4996L201.293 32.5229L203.18 31.5859L205.09 30.6913L207.02 29.8417L208.971 29.0394L210.942 28.2867L212.932 27.5856L214.94 26.9377L216.965 26.3448L219.005 25.808L221.059 25.3285L223.126 24.907L225.204 24.5439L227.291 24.2396L229.386 23.9937L231.487 23.806L233.593 23.6755L235.702 23.6007L237.811 23.5801L239.92 23.6113L242.027 23.692L244.131 23.8192L246.229 23.9898L248.322 24.2004L250.409 24.4471L252.488 24.7261L254.558 25.0332L256.621 25.3642L258.675 25.7146L260.721 26.0799L262.759 26.4556L264.789 26.8372L266.814 27.22L268.833 27.5996L270.847 27.9716L272.86 28.3318L274.871 28.676L276.884 29.0005L278.9 29.3016L280.921 29.5759L282.95 29.8204L284.99 30.0322L287.043 30.2091L289.111 30.349L291.199 30.4503L293.307 30.5119L295.439 30.533L297.598 30.5134L299.787 30.4531L302.007 30.353L304.262 30.2138L306.553 30.0369L308.883 29.8237L311.254 29.5759L313.668 29.2958L316.127 28.9854L318.632 28.6475L321.185 28.2847L323.788 27.9002L326.441 27.4972L329.144 27.079L331.9 26.6493L334.708 26.2119L337.569 25.7706L340.481 25.3296L343.446 24.893L346.463 24.465L349.53 24.0499L352.647 23.6523L355.812 23.2763L359.024 22.9266L362.281 22.6074L365.582 22.3232L368.923 22.0784L372.302 21.8771L375.717 21.7237L379.165 21.6221L382.643 21.5765L386.147 21.5905L389.674 21.668L393.221 21.8125L396.784 22.0272L400.358 22.3154L403.941 22.6801L407.527 23.1239L411.113 23.6494L414.695 24.2589L418.268 24.9544L421.828 25.7377L425.371 26.6105L428.893 27.5739L432.389 28.6291L435.855 29.7769L439.288 31.0177L442.682 32.3519L446.035 33.7794L449.342 35.3L452.6 36.9131L455.806 38.6178L458.956 40.413L462.047 42.2976L465.077 44.2699L468.044 46.3283L470.944 48.4709L473.776 50.6958L476.538 53.0007L479.228 55.3835L481.845 57.8417L484.386 60.3728L486.852 62.9744L489.241 65.6438L491.553 68.3784L493.786 71.1756L495.94 74.0326L498.015 76.9467L500.011 79.9153L501.928 82.9358L503.765 86.0054L505.523 89.1216L507.202 92.2818L508.802 95.4836L510.323 98.7244L511.766 102.002L513.131 105.314L514.418 108.658L515.627 112.032L516.758 115.434L517.811 118.861L518.786 122.313L519.684 125.786L520.504 129.278L521.246 132.789L521.912 136.315L522.501 139.854L523.015 143.406L523.454 146.968L523.819 150.537L524.112 154.113L524.335 157.693L524.488 161.275L524.573 164.859L524.593 168.443L524.549 172.024L524.443 175.603L524.277 179.177L524.054 182.746L523.775 186.308L523.444 189.863L523.063 193.41L522.633 196.948L522.158 200.477L521.64 203.996L521.082 207.506L520.485 211.005L519.852 214.495L519.186 217.974L518.489 221.444L517.763 224.904L517.009 228.356L516.23 231.798L515.428 235.233L514.604 238.661L513.76 242.081L512.896 245.496L512.014 248.905L511.115 252.31L510.199 255.71L509.267 259.108L508.318 262.503L507.354 265.896Z" fill="url(#paint0_linear_591_2084)"/>
<path d="M445.494 90.8709C437.436 51.7647 466.928 18.3391 485.5 7.50023C517.5 -18.9998 504 39.5 539 67.0001C565 90.8708 560.02 141.088 524.463 148.414C488.907 155.74 453.551 129.977 445.494 90.8709Z" fill="#FB7800" fill-opacity="0.05"/>
<path d="M485.752 7.93207L485.787 7.91143L485.819 7.88532C489.798 4.58986 493.03 2.65135 495.703 1.79679C498.357 0.948456 500.441 1.17267 502.187 2.18299C503.959 3.20785 505.451 5.07984 506.82 7.66395C508.187 10.2432 509.403 13.4764 510.651 17.1607C511.202 18.7851 511.758 20.4951 512.335 22.2706C516.976 36.5439 522.994 55.051 538.676 67.3813C551.528 79.1906 556.738 97.5319 554.321 113.838C551.904 130.139 541.885 144.314 524.362 147.924C489.119 155.186 453.994 129.651 445.983 90.77C441.986 71.3707 447.298 53.3648 455.941 38.841C464.587 24.3107 476.543 13.3067 485.752 7.93207Z" stroke="#FB7800" stroke-opacity="0.35"/>
<g filter="url(#filter0_d_591_2084)">
<rect x="324" y="109" width="150" height="150" rx="10" fill="white"/>
<path d="M375.976 155L376.344 144.776H378.784L380.984 151.784H381.088L383.288 144.776H385.728L386.096 155H384.536L384.416 150.912L384.304 146.464H384.176L381.84 153.816H380.232L377.896 146.464H377.768L377.648 150.92L377.536 155H375.976ZM391.255 155.2C390.103 155.2 389.228 154.893 388.631 154.28C388.034 153.667 387.735 152.784 387.735 151.632V150.52C387.735 149.373 388.034 148.496 388.631 147.888C389.228 147.275 390.103 146.968 391.255 146.968C392.407 146.968 393.279 147.275 393.871 147.888C394.468 148.496 394.767 149.373 394.767 150.52V151.632C394.767 152.784 394.468 153.667 393.871 154.28C393.279 154.893 392.407 155.2 391.255 155.2ZM391.255 153.928C391.89 153.928 392.372 153.739 392.703 153.36C393.034 152.981 393.199 152.437 393.199 151.728V150.424C393.199 149.72 393.034 149.181 392.703 148.808C392.372 148.429 391.89 148.24 391.255 148.24C390.62 148.24 390.138 148.429 389.807 148.808C389.476 149.181 389.311 149.72 389.311 150.424V151.728C389.311 152.437 389.476 152.981 389.807 153.36C390.138 153.739 390.62 153.928 391.255 153.928ZM399.573 155.184C398.41 155.184 397.546 154.877 396.981 154.264C396.421 153.645 396.141 152.773 396.141 151.648V150.52C396.141 149.389 396.424 148.517 396.989 147.904C397.554 147.291 398.416 146.984 399.573 146.984C399.893 146.984 400.186 147.013 400.453 147.072C400.725 147.131 400.97 147.208 401.189 147.304C401.408 147.395 401.594 147.491 401.749 147.592L401.885 148.936C401.629 148.755 401.333 148.603 400.997 148.48C400.661 148.352 400.269 148.288 399.821 148.288C399.106 148.288 398.576 148.483 398.229 148.872C397.888 149.256 397.717 149.816 397.717 150.552V151.608C397.717 152.328 397.888 152.883 398.229 153.272C398.576 153.661 399.106 153.856 399.821 153.856C400.274 153.856 400.674 153.795 401.021 153.672C401.368 153.544 401.68 153.389 401.957 153.208L401.821 154.568C401.576 154.723 401.261 154.864 400.877 154.992C400.498 155.12 400.064 155.184 399.573 155.184ZM408.502 155L405.63 151.472H404.854V150.256H405.638L408.39 147.176H410.222L406.798 150.976V150.632L410.358 155H408.502ZM403.43 155V144.408H404.99V155H403.43ZM418.547 155.2C417.241 155.2 416.262 154.837 415.611 154.112C414.966 153.387 414.643 152.355 414.643 151.016V148.744C414.643 147.411 414.966 146.384 415.611 145.664C416.262 144.939 417.241 144.576 418.547 144.576C418.947 144.576 419.313 144.611 419.643 144.68C419.974 144.749 420.27 144.84 420.531 144.952C420.793 145.064 421.017 145.181 421.203 145.304L421.331 146.776C421.017 146.563 420.651 146.376 420.235 146.216C419.819 146.056 419.329 145.976 418.763 145.976C417.942 145.976 417.321 146.219 416.899 146.704C416.483 147.189 416.275 147.877 416.275 148.768V150.96C416.275 151.845 416.486 152.533 416.907 153.024C417.334 153.515 417.969 153.76 418.811 153.76C419.366 153.76 419.857 153.683 420.283 153.528C420.715 153.368 421.091 153.173 421.411 152.944L421.283 154.456C421.097 154.579 420.867 154.699 420.595 154.816C420.329 154.928 420.022 155.019 419.675 155.088C419.334 155.163 418.958 155.2 418.547 155.2ZM427.545 155L427.609 153.144L427.553 152.904V150.44L427.561 150.048C427.561 149.445 427.406 149.003 427.097 148.72C426.793 148.437 426.302 148.296 425.625 148.296C425.076 148.296 424.566 148.373 424.097 148.528C423.628 148.683 423.204 148.861 422.825 149.064L422.969 147.752C423.182 147.629 423.433 147.509 423.721 147.392C424.009 147.275 424.334 147.179 424.697 147.104C425.06 147.029 425.457 146.992 425.889 146.992C426.481 146.992 426.982 147.064 427.393 147.208C427.804 147.347 428.134 147.549 428.385 147.816C428.636 148.083 428.817 148.403 428.929 148.776C429.046 149.149 429.105 149.565 429.105 150.024V155H427.545ZM424.897 155.176C424.124 155.176 423.532 154.987 423.121 154.608C422.71 154.224 422.505 153.68 422.505 152.976V152.736C422.505 151.989 422.734 151.437 423.193 151.08C423.657 150.717 424.385 150.467 425.377 150.328L427.729 149.992L427.817 151.128L425.561 151.448C425.022 151.523 424.638 151.653 424.409 151.84C424.18 152.021 424.065 152.291 424.065 152.648V152.76C424.065 153.117 424.174 153.392 424.393 153.584C424.617 153.776 424.956 153.872 425.409 153.872C425.825 153.872 426.182 153.803 426.481 153.664C426.78 153.525 427.022 153.341 427.209 153.112C427.396 152.877 427.524 152.619 427.593 152.336L427.809 153.384H427.521C427.436 153.704 427.294 154 427.097 154.272C426.9 154.544 426.622 154.763 426.265 154.928C425.913 155.093 425.457 155.176 424.897 155.176ZM430.993 155V144.408H432.561V155H430.993ZM434.712 155V144.408H436.28V155H434.712ZM440.817 155.184C440.188 155.184 439.636 155.12 439.161 154.992C438.686 154.859 438.289 154.715 437.969 154.56L437.825 153.128C438.22 153.325 438.654 153.499 439.129 153.648C439.604 153.792 440.137 153.864 440.729 153.864C441.3 153.864 441.721 153.781 441.993 153.616C442.27 153.445 442.409 153.195 442.409 152.864V152.8C442.409 152.587 442.353 152.411 442.241 152.272C442.129 152.128 441.929 152 441.641 151.888C441.358 151.776 440.956 151.661 440.433 151.544C439.777 151.395 439.26 151.219 438.881 151.016C438.502 150.813 438.23 150.565 438.065 150.272C437.905 149.973 437.825 149.616 437.825 149.2V149.128C437.825 148.424 438.07 147.891 438.561 147.528C439.052 147.165 439.788 146.984 440.769 146.984C441.388 146.984 441.926 147.051 442.385 147.184C442.844 147.317 443.222 147.469 443.521 147.64L443.665 148.944C443.308 148.752 442.9 148.592 442.441 148.464C441.988 148.331 441.484 148.264 440.929 148.264C440.55 148.264 440.246 148.301 440.017 148.376C439.788 148.445 439.622 148.547 439.521 148.68C439.42 148.808 439.369 148.963 439.369 149.144V149.2C439.369 149.397 439.422 149.571 439.529 149.72C439.636 149.864 439.825 149.995 440.097 150.112C440.374 150.224 440.758 150.333 441.249 150.44C441.91 150.579 442.438 150.741 442.833 150.928C443.228 151.115 443.513 151.355 443.689 151.648C443.865 151.936 443.953 152.309 443.953 152.768V152.888C443.953 153.651 443.692 154.224 443.169 154.608C442.646 154.992 441.862 155.184 440.817 155.184Z" fill="#566075"/>
<path d="M358.906 151.344L357.75 152.5C357.506 152.744 357.119 152.744 356.869 152.506C356.8 152.438 356.731 152.375 356.662 152.306C356.03 151.67 355.448 150.987 354.919 150.263C354.406 149.55 353.994 148.838 353.694 148.131C353.4 147.419 353.25 146.737 353.25 146.088C353.25 145.662 353.325 145.256 353.475 144.881C353.625 144.5 353.863 144.15 354.194 143.838C354.594 143.444 355.031 143.25 355.494 143.25C355.669 143.25 355.844 143.288 356 143.363C356.163 143.438 356.306 143.55 356.419 143.713L357.869 145.756C357.981 145.913 358.062 146.056 358.119 146.194C358.175 146.325 358.206 146.456 358.206 146.575C358.206 146.725 358.163 146.875 358.075 147.019C357.994 147.162 357.875 147.312 357.725 147.462L357.25 147.956C357.181 148.025 357.15 148.106 357.15 148.206C357.15 148.256 357.156 148.3 357.169 148.35C357.188 148.4 357.206 148.438 357.219 148.475C357.331 148.681 357.525 148.95 357.8 149.275C358.081 149.6 358.381 149.931 358.706 150.263C358.769 150.325 358.838 150.388 358.9 150.45C359.15 150.694 359.156 151.094 358.906 151.344ZM365.731 153.456C365.73 153.692 365.677 153.925 365.575 154.137C365.469 154.363 365.331 154.575 365.15 154.775C364.844 155.113 364.506 155.356 364.125 155.513C364.119 155.513 364.113 155.519 364.106 155.519C363.738 155.669 363.338 155.75 362.906 155.75C362.269 155.75 361.587 155.6 360.869 155.294C360.15 154.988 359.431 154.575 358.719 154.056C358.475 153.875 358.231 153.694 358 153.5L360.044 151.456C360.219 151.587 360.375 151.688 360.506 151.756C360.537 151.769 360.575 151.787 360.619 151.806C360.669 151.825 360.719 151.831 360.775 151.831C360.881 151.831 360.963 151.794 361.031 151.725L361.506 151.256C361.663 151.1 361.812 150.981 361.956 150.906C362.1 150.819 362.244 150.775 362.4 150.775C362.519 150.775 362.644 150.8 362.781 150.856C362.919 150.912 363.062 150.994 363.219 151.1L365.288 152.569C365.45 152.681 365.562 152.812 365.631 152.969C365.694 153.125 365.731 153.281 365.731 153.456Z" fill="#62616F"/>
<path d="M355.49 200.39C354 200.39 352.725 200.1 351.665 199.52C350.615 198.93 349.81 198.06 349.25 196.91C348.7 195.75 348.425 194.31 348.425 192.59V188.48C348.425 185.94 349.055 183.975 350.315 182.585C351.585 181.185 353.445 180.485 355.895 180.485C357.075 180.485 358.085 180.605 358.925 180.845C359.765 181.085 360.475 181.35 361.055 181.64L361.355 184.34C360.925 184.1 360.47 183.885 359.99 183.695C359.51 183.505 358.975 183.355 358.385 183.245C357.805 183.135 357.14 183.08 356.39 183.08C354.73 183.08 353.485 183.54 352.655 184.46C351.825 185.38 351.41 186.75 351.41 188.57V192.935C351.41 194.035 351.57 194.955 351.89 195.695C352.22 196.425 352.69 196.975 353.3 197.345C353.92 197.705 354.67 197.885 355.55 197.885C356.79 197.885 357.705 197.555 358.295 196.895C358.895 196.235 359.195 195.39 359.195 194.36V193.58C359.195 192.86 359.085 192.24 358.865 191.72C358.645 191.19 358.285 190.785 357.785 190.505C357.295 190.215 356.635 190.07 355.805 190.07C355.065 190.07 354.39 190.21 353.78 190.49C353.18 190.76 352.665 191.155 352.235 191.675C351.805 192.185 351.485 192.795 351.275 193.505L351.065 190.925H351.56C351.77 190.305 352.09 189.75 352.52 189.26C352.95 188.77 353.51 188.385 354.2 188.105C354.89 187.815 355.72 187.67 356.69 187.67C358.51 187.67 359.875 188.185 360.785 189.215C361.705 190.235 362.165 191.675 362.165 193.535V194.405C362.165 196.215 361.6 197.665 360.47 198.755C359.35 199.845 357.69 200.39 355.49 200.39ZM369.979 200.345C369.159 200.345 368.404 200.285 367.714 200.165C367.034 200.045 366.434 199.9 365.914 199.73C365.394 199.55 364.959 199.38 364.609 199.22L364.324 196.31C365.004 196.68 365.799 197.005 366.709 197.285C367.629 197.565 368.634 197.705 369.724 197.705C370.724 197.705 371.524 197.585 372.124 197.345C372.724 197.105 373.159 196.76 373.429 196.31C373.699 195.85 373.834 195.295 373.834 194.645V194.36C373.834 193.69 373.704 193.145 373.444 192.725C373.194 192.295 372.779 191.975 372.199 191.765C371.629 191.555 370.859 191.44 369.889 191.42L366.754 191.36V188.975L369.904 188.9C370.844 188.88 371.594 188.76 372.154 188.54C372.714 188.31 373.114 187.99 373.354 187.58C373.604 187.16 373.729 186.66 373.729 186.08V185.87C373.729 184.94 373.439 184.235 372.859 183.755C372.279 183.275 371.289 183.035 369.889 183.035C368.829 183.035 367.829 183.18 366.889 183.47C365.959 183.75 365.144 184.075 364.444 184.445L364.699 181.835C365.319 181.485 366.099 181.175 367.039 180.905C367.989 180.625 369.109 180.485 370.399 180.485C372.579 180.485 374.184 180.915 375.214 181.775C376.254 182.635 376.774 183.845 376.774 185.405V185.705C376.774 186.455 376.649 187.12 376.399 187.7C376.159 188.27 375.784 188.74 375.274 189.11C374.764 189.47 374.104 189.72 373.294 189.86V190.31L373.204 189.995C374.514 190.245 375.459 190.715 376.039 191.405C376.629 192.085 376.924 193.06 376.924 194.33V194.84C376.924 196.56 376.359 197.91 375.229 198.89C374.109 199.86 372.359 200.345 369.979 200.345Z" fill="#050038"/>
<path d="M352.44 230V223.216L352.496 220.888H352.288L349.024 226.632V227.336L348.408 226.752H355.272V228.096H347.432V226.528L351.328 219.776H353.968V230H352.44ZM361.692 230V225.168C361.692 224.789 361.638 224.461 361.532 224.184C361.43 223.907 361.26 223.691 361.02 223.536C360.785 223.381 360.462 223.304 360.052 223.304C359.673 223.304 359.345 223.373 359.068 223.512C358.796 223.651 358.574 223.837 358.404 224.072C358.233 224.307 358.11 224.573 358.036 224.872L357.724 223.784H358.116C358.206 223.453 358.356 223.155 358.564 222.888C358.772 222.616 359.049 222.4 359.396 222.24C359.742 222.08 360.166 222 360.668 222C361.281 222 361.777 222.117 362.156 222.352C362.534 222.581 362.812 222.917 362.988 223.36C363.169 223.803 363.26 224.347 363.26 224.992V230H361.692ZM356.508 230V219.408H358.068V221.904L358.028 224.16L358.076 224.272V230H356.508ZM366.652 225.272L366.316 224.048H366.7C366.866 223.429 367.143 222.944 367.532 222.592C367.922 222.235 368.452 222.056 369.124 222.056C369.284 222.056 369.426 222.069 369.548 222.096C369.676 222.117 369.791 222.144 369.892 222.176L369.988 223.704C369.86 223.661 369.716 223.629 369.556 223.608C369.396 223.581 369.223 223.568 369.036 223.568C368.466 223.568 367.972 223.715 367.556 224.008C367.14 224.301 366.839 224.723 366.652 225.272ZM365.148 230V222.176H366.676L366.604 224.456L366.716 224.568V230H365.148ZM377.02 230V220.056H378.628V230H377.02ZM374.012 221.12V219.776H381.628V221.12H374.012ZM384.043 225.272L383.707 224.048H384.091C384.256 223.429 384.534 222.944 384.923 222.592C385.312 222.235 385.843 222.056 386.515 222.056C386.675 222.056 386.816 222.069 386.939 222.096C387.067 222.117 387.182 222.144 387.283 222.176L387.379 223.704C387.251 223.661 387.107 223.629 386.947 223.608C386.787 223.581 386.614 223.568 386.427 223.568C385.856 223.568 385.363 223.715 384.947 224.008C384.531 224.301 384.23 224.723 384.043 225.272ZM382.539 230V222.176H384.067L383.995 224.456L384.107 224.568V230H382.539ZM392.983 230L393.047 228.144L392.991 227.904V225.44L392.999 225.048C392.999 224.445 392.844 224.003 392.535 223.72C392.231 223.437 391.74 223.296 391.063 223.296C390.513 223.296 390.004 223.373 389.535 223.528C389.065 223.683 388.641 223.861 388.263 224.064L388.407 222.752C388.62 222.629 388.871 222.509 389.159 222.392C389.447 222.275 389.772 222.179 390.135 222.104C390.497 222.029 390.895 221.992 391.327 221.992C391.919 221.992 392.42 222.064 392.831 222.208C393.241 222.347 393.572 222.549 393.823 222.816C394.073 223.083 394.255 223.403 394.367 223.776C394.484 224.149 394.543 224.565 394.543 225.024V230H392.983ZM390.335 230.176C389.561 230.176 388.969 229.987 388.559 229.608C388.148 229.224 387.943 228.68 387.943 227.976V227.736C387.943 226.989 388.172 226.437 388.631 226.08C389.095 225.717 389.823 225.467 390.815 225.328L393.167 224.992L393.255 226.128L390.999 226.448C390.46 226.523 390.076 226.653 389.847 226.84C389.617 227.021 389.503 227.291 389.503 227.648V227.76C389.503 228.117 389.612 228.392 389.831 228.584C390.055 228.776 390.393 228.872 390.847 228.872C391.263 228.872 391.62 228.803 391.919 228.664C392.217 228.525 392.46 228.341 392.647 228.112C392.833 227.877 392.961 227.619 393.031 227.336L393.247 228.384H392.959C392.873 228.704 392.732 229 392.535 229.272C392.337 229.544 392.06 229.763 391.703 229.928C391.351 230.093 390.895 230.176 390.335 230.176ZM396.422 230V222.176H397.99V230H396.422ZM397.206 221.024C396.897 221.024 396.665 220.947 396.51 220.792C396.361 220.632 396.286 220.413 396.286 220.136V220.104C396.286 219.827 396.361 219.611 396.51 219.456C396.665 219.296 396.897 219.216 397.206 219.216C397.516 219.216 397.745 219.296 397.894 219.456C398.049 219.611 398.126 219.827 398.126 220.104V220.136C398.126 220.419 398.049 220.637 397.894 220.792C397.745 220.947 397.516 221.024 397.206 221.024ZM405.176 230V225.168C405.176 224.789 405.123 224.461 405.016 224.184C404.915 223.907 404.744 223.691 404.504 223.536C404.269 223.381 403.947 223.304 403.536 223.304C403.157 223.304 402.829 223.373 402.552 223.512C402.275 223.651 402.048 223.837 401.872 224.072C401.701 224.307 401.579 224.573 401.504 224.872L401.248 223.784H401.584C401.675 223.453 401.824 223.155 402.032 222.888C402.24 222.616 402.517 222.4 402.864 222.24C403.211 222.08 403.64 222 404.152 222C404.765 222 405.261 222.117 405.64 222.352C406.019 222.581 406.296 222.917 406.472 223.36C406.653 223.803 406.744 224.347 406.744 224.992V230H405.176ZM399.992 230V222.176H401.56L401.496 224.008L401.56 224.104V230H399.992ZM408.657 230V222.176H410.225V230H408.657ZM409.441 221.024C409.131 221.024 408.899 220.947 408.745 220.792C408.595 220.632 408.521 220.413 408.521 220.136V220.104C408.521 219.827 408.595 219.611 408.745 219.456C408.899 219.296 409.131 219.216 409.441 219.216C409.75 219.216 409.979 219.296 410.129 219.456C410.283 219.611 410.361 219.827 410.361 220.104V220.136C410.361 220.419 410.283 220.637 410.129 220.792C409.979 220.947 409.75 221.024 409.441 221.024ZM417.41 230V225.168C417.41 224.789 417.357 224.461 417.25 224.184C417.149 223.907 416.978 223.691 416.738 223.536C416.504 223.381 416.181 223.304 415.77 223.304C415.392 223.304 415.064 223.373 414.786 223.512C414.509 223.651 414.282 223.837 414.106 224.072C413.936 224.307 413.813 224.573 413.738 224.872L413.482 223.784H413.818C413.909 223.453 414.058 223.155 414.266 222.888C414.474 222.616 414.752 222.4 415.098 222.24C415.445 222.08 415.874 222 416.386 222C417 222 417.496 222.117 417.874 222.352C418.253 222.581 418.53 222.917 418.706 223.36C418.888 223.803 418.978 224.347 418.978 224.992V230H417.41ZM412.226 230V222.176H413.794L413.73 224.008L413.794 224.104V230H412.226ZM424.011 227.632C422.912 227.632 422.07 227.397 421.483 226.928C420.896 226.459 420.603 225.789 420.603 224.92V224.792C420.603 224.243 420.718 223.768 420.947 223.368C421.176 222.963 421.542 222.648 422.043 222.424C422.55 222.195 423.211 222.067 424.027 222.04L428.091 221.904V223.128L425.915 223.032V223.12C426.224 223.2 426.48 223.325 426.683 223.496C426.891 223.661 427.048 223.869 427.155 224.12C427.262 224.371 427.315 224.667 427.315 225.008V225.096C427.315 225.917 427.035 226.547 426.475 226.984C425.92 227.416 425.099 227.632 424.011 227.632ZM423.947 231.768H424.147C424.6 231.768 424.984 231.736 425.299 231.672C425.614 231.608 425.854 231.507 426.019 231.368C426.19 231.229 426.275 231.045 426.275 230.816V230.792C426.275 230.52 426.179 230.315 425.987 230.176C425.795 230.043 425.462 229.955 424.987 229.912L422.731 229.696L423.123 229.68C422.867 229.723 422.64 229.789 422.443 229.88C422.251 229.965 422.099 230.077 421.987 230.216C421.88 230.36 421.827 230.536 421.827 230.744V230.76C421.827 231.005 421.91 231.203 422.075 231.352C422.246 231.501 422.488 231.608 422.803 231.672C423.123 231.736 423.504 231.768 423.947 231.768ZM423.851 233.016C423.131 233.016 422.51 232.952 421.987 232.824C421.47 232.701 421.07 232.501 420.787 232.224C420.51 231.952 420.371 231.589 420.371 231.136V231.104C420.371 230.8 420.438 230.544 420.571 230.336C420.71 230.128 420.896 229.963 421.131 229.84C421.371 229.712 421.638 229.627 421.931 229.584V229.504C421.542 229.424 421.251 229.293 421.059 229.112C420.872 228.925 420.779 228.685 420.779 228.392V228.384C420.779 228.181 420.824 228.008 420.915 227.864C421.006 227.715 421.142 227.597 421.323 227.512C421.51 227.421 421.742 227.363 422.019 227.336V227.16L423.667 227.56L423.067 227.536C422.752 227.541 422.534 227.581 422.411 227.656C422.294 227.731 422.235 227.837 422.235 227.976V227.984C422.235 228.144 422.323 228.264 422.499 228.344C422.68 228.419 422.984 228.48 423.411 228.528L425.315 228.736C426.158 228.827 426.774 229.032 427.163 229.352C427.552 229.672 427.747 230.157 427.747 230.808V230.848C427.747 231.349 427.6 231.76 427.307 232.08C427.019 232.4 426.603 232.635 426.059 232.784C425.52 232.939 424.872 233.016 424.115 233.016H423.851ZM423.987 226.48C424.398 226.48 424.739 226.421 425.011 226.304C425.288 226.181 425.496 226 425.635 225.76C425.774 225.52 425.843 225.227 425.843 224.88V224.76C425.843 224.419 425.774 224.131 425.635 223.896C425.502 223.661 425.299 223.483 425.027 223.36C424.76 223.237 424.422 223.176 424.011 223.176H423.971C423.528 223.176 423.168 223.243 422.891 223.376C422.614 223.504 422.411 223.688 422.283 223.928C422.16 224.163 422.099 224.443 422.099 224.768V224.88C422.099 225.227 422.168 225.52 422.307 225.76C422.446 226 422.654 226.181 422.931 226.304C423.214 226.421 423.566 226.48 423.987 226.48Z" fill="#939BAF"/>
<rect x="324.5" y="109.5" width="149" height="149" rx="9.5" stroke="#ECEEF6"/>
</g>
<g filter="url(#filter1_d_591_2084)">
<rect x="152" y="77" width="150" height="150" rx="10" fill="white"/>
<path d="M209.856 114.208C208.523 114.208 207.509 113.845 206.816 113.12C206.128 112.395 205.784 111.357 205.784 110.008V107.76C205.784 106.416 206.128 105.381 206.816 104.656C207.509 103.931 208.523 103.568 209.856 103.568C211.189 103.568 212.2 103.931 212.888 104.656C213.581 105.381 213.928 106.416 213.928 107.76V110.008C213.928 111.357 213.581 112.395 212.888 113.12C212.2 113.845 211.189 114.208 209.856 114.208ZM209.856 112.872C210.667 112.872 211.275 112.629 211.68 112.144C212.091 111.653 212.296 110.963 212.296 110.072V107.696C212.296 106.8 212.091 106.112 211.68 105.632C211.275 105.147 210.667 104.904 209.856 104.904C209.045 104.904 208.435 105.147 208.024 105.632C207.619 106.112 207.416 106.8 207.416 107.696V110.072C207.416 110.963 207.619 111.653 208.024 112.144C208.435 112.629 209.045 112.872 209.856 112.872ZM219.783 114.176C219.319 114.176 218.919 114.104 218.583 113.96C218.247 113.811 217.972 113.603 217.759 113.336C217.551 113.064 217.399 112.749 217.303 112.392H216.783L217.239 110.912C217.26 111.349 217.359 111.715 217.535 112.008C217.711 112.296 217.951 112.512 218.255 112.656C218.559 112.8 218.905 112.872 219.295 112.872C219.892 112.872 220.348 112.699 220.663 112.352C220.977 112 221.135 111.477 221.135 110.784V109.32C221.135 108.648 220.975 108.139 220.655 107.792C220.34 107.445 219.881 107.272 219.279 107.272C218.911 107.272 218.585 107.341 218.303 107.48C218.02 107.619 217.785 107.808 217.599 108.048C217.417 108.283 217.289 108.552 217.215 108.856L216.871 107.784H217.319C217.409 107.453 217.551 107.155 217.743 106.888C217.94 106.616 218.209 106.4 218.551 106.24C218.892 106.08 219.324 106 219.847 106C220.78 106 221.489 106.293 221.975 106.88C222.465 107.467 222.711 108.323 222.711 109.448V110.688C222.711 111.824 222.463 112.691 221.967 113.288C221.471 113.88 220.743 114.176 219.783 114.176ZM215.711 114V103.408H217.271V105.904L217.231 108.152L217.239 108.424V111.672L217.215 112.168L217.279 114H215.711ZM224.591 112.64V106.176H226.159V112.64H224.591ZM225.375 105.024C225.066 105.024 224.834 104.947 224.679 104.792C224.53 104.632 224.455 104.413 224.455 104.136V104.104C224.455 103.827 224.53 103.611 224.679 103.456C224.834 103.296 225.066 103.216 225.375 103.216C225.684 103.216 225.914 103.296 226.063 103.456C226.218 103.611 226.295 103.827 226.295 104.104V104.136C226.295 104.419 226.218 104.637 226.063 104.792C225.914 104.947 225.684 105.024 225.375 105.024ZM223.791 116.864C223.562 116.864 223.346 116.845 223.143 116.808C222.935 116.771 222.759 116.725 222.615 116.672L222.487 115.4C222.626 115.459 222.772 115.504 222.927 115.536C223.076 115.568 223.234 115.584 223.399 115.584C223.858 115.584 224.17 115.461 224.335 115.216C224.506 114.971 224.591 114.621 224.591 114.168V111.912H226.159V114.248C226.159 114.787 226.082 115.251 225.927 115.64C225.778 116.035 225.53 116.336 225.183 116.544C224.836 116.757 224.372 116.864 223.791 116.864ZM231.596 114.184C230.348 114.184 229.412 113.888 228.788 113.296C228.169 112.699 227.86 111.84 227.86 110.72V109.44C227.86 108.336 228.148 107.483 228.724 106.88C229.305 106.272 230.151 105.968 231.26 105.968C232.012 105.968 232.639 106.107 233.14 106.384C233.641 106.656 234.017 107.043 234.268 107.544C234.519 108.045 234.644 108.64 234.644 109.328V109.624C234.644 109.805 234.636 109.989 234.62 110.176C234.604 110.363 234.583 110.541 234.556 110.712H233.116C233.127 110.435 233.132 110.173 233.132 109.928C233.137 109.683 233.14 109.459 233.14 109.256C233.14 108.824 233.071 108.459 232.932 108.16C232.793 107.861 232.585 107.635 232.308 107.48C232.031 107.32 231.681 107.24 231.26 107.24C230.636 107.24 230.172 107.419 229.868 107.776C229.564 108.128 229.412 108.632 229.412 109.288V110.024L229.42 110.208V110.904C229.42 111.197 229.463 111.464 229.548 111.704C229.639 111.944 229.78 112.152 229.972 112.328C230.169 112.499 230.423 112.632 230.732 112.728C231.041 112.819 231.417 112.864 231.86 112.864C232.361 112.864 232.831 112.8 233.268 112.672C233.711 112.544 234.127 112.373 234.516 112.16L234.372 113.496C234.02 113.704 233.609 113.872 233.14 114C232.676 114.123 232.161 114.184 231.596 114.184ZM228.692 110.712V109.536H234.236V110.712H228.692ZM239.37 114.184C238.207 114.184 237.343 113.877 236.778 113.264C236.218 112.645 235.938 111.773 235.938 110.648V109.52C235.938 108.389 236.221 107.517 236.786 106.904C237.351 106.291 238.213 105.984 239.37 105.984C239.69 105.984 239.983 106.013 240.25 106.072C240.522 106.131 240.767 106.208 240.986 106.304C241.205 106.395 241.391 106.491 241.546 106.592L241.682 107.936C241.426 107.755 241.13 107.603 240.794 107.48C240.458 107.352 240.066 107.288 239.618 107.288C238.903 107.288 238.373 107.483 238.026 107.872C237.685 108.256 237.514 108.816 237.514 109.552V110.608C237.514 111.328 237.685 111.883 238.026 112.272C238.373 112.661 238.903 112.856 239.618 112.856C240.071 112.856 240.471 112.795 240.818 112.672C241.165 112.544 241.477 112.389 241.754 112.208L241.618 113.568C241.373 113.723 241.058 113.864 240.674 113.992C240.295 114.12 239.861 114.184 239.37 114.184ZM246.217 114.16C245.593 114.16 245.091 114.067 244.713 113.88C244.334 113.688 244.059 113.403 243.889 113.024C243.718 112.64 243.633 112.163 243.633 111.592V106.808H245.185V111.408C245.185 111.888 245.294 112.24 245.513 112.464C245.731 112.688 246.099 112.8 246.617 112.8C246.926 112.8 247.222 112.768 247.505 112.704C247.787 112.64 248.049 112.549 248.289 112.432L248.153 113.76C247.897 113.888 247.601 113.987 247.265 114.056C246.929 114.125 246.579 114.16 246.217 114.16ZM242.409 107.52V106.272H248.217L248.081 107.52H242.409ZM243.649 106.408L243.641 104.256L245.209 104.072L245.145 106.408H243.649ZM249.657 114V106.176H251.225V114H249.657ZM250.441 105.024C250.131 105.024 249.899 104.947 249.745 104.792C249.595 104.632 249.521 104.413 249.521 104.136V104.104C249.521 103.827 249.595 103.611 249.745 103.456C249.899 103.296 250.131 103.216 250.441 103.216C250.75 103.216 250.979 103.296 251.129 103.456C251.283 103.611 251.361 103.827 251.361 104.104V104.136C251.361 104.419 251.283 104.637 251.129 104.792C250.979 104.947 250.75 105.024 250.441 105.024ZM256.442 114.2C255.29 114.2 254.416 113.893 253.818 113.28C253.221 112.667 252.922 111.784 252.922 110.632V109.52C252.922 108.373 253.221 107.496 253.818 106.888C254.416 106.275 255.29 105.968 256.442 105.968C257.594 105.968 258.466 106.275 259.058 106.888C259.656 107.496 259.954 108.373 259.954 109.52V110.632C259.954 111.784 259.656 112.667 259.058 113.28C258.466 113.893 257.594 114.2 256.442 114.2ZM256.442 112.928C257.077 112.928 257.56 112.739 257.89 112.36C258.221 111.981 258.386 111.437 258.386 110.728V109.424C258.386 108.72 258.221 108.181 257.89 107.808C257.56 107.429 257.077 107.24 256.442 107.24C255.808 107.24 255.325 107.429 254.994 107.808C254.664 108.181 254.498 108.72 254.498 109.424V110.728C254.498 111.437 254.664 111.981 254.994 112.36C255.325 112.739 255.808 112.928 256.442 112.928ZM266.817 114V109.168C266.817 108.789 266.763 108.461 266.657 108.184C266.555 107.907 266.385 107.691 266.145 107.536C265.91 107.381 265.587 107.304 265.177 107.304C264.798 107.304 264.47 107.373 264.193 107.512C263.915 107.651 263.689 107.837 263.513 108.072C263.342 108.307 263.219 108.573 263.145 108.872L262.889 107.784H263.225C263.315 107.453 263.465 107.155 263.673 106.888C263.881 106.616 264.158 106.4 264.505 106.24C264.851 106.08 265.281 106 265.793 106C266.406 106 266.902 106.117 267.281 106.352C267.659 106.581 267.937 106.917 268.113 107.36C268.294 107.803 268.385 108.347 268.385 108.992V114H266.817ZM261.633 114V106.176H263.201L263.137 108.008L263.201 108.104V114H261.633ZM272.801 114.184C272.172 114.184 271.62 114.12 271.145 113.992C270.671 113.859 270.273 113.715 269.953 113.56L269.809 112.128C270.204 112.325 270.639 112.499 271.113 112.648C271.588 112.792 272.121 112.864 272.713 112.864C273.284 112.864 273.705 112.781 273.977 112.616C274.255 112.445 274.393 112.195 274.393 111.864V111.8C274.393 111.587 274.337 111.411 274.225 111.272C274.113 111.128 273.913 111 273.625 110.888C273.343 110.776 272.94 110.661 272.417 110.544C271.761 110.395 271.244 110.219 270.865 110.016C270.487 109.813 270.215 109.565 270.049 109.272C269.889 108.973 269.809 108.616 269.809 108.2V108.128C269.809 107.424 270.055 106.891 270.545 106.528C271.036 106.165 271.772 105.984 272.753 105.984C273.372 105.984 273.911 106.051 274.369 106.184C274.828 106.317 275.207 106.469 275.505 106.64L275.649 107.944C275.292 107.752 274.884 107.592 274.425 107.464C273.972 107.331 273.468 107.264 272.913 107.264C272.535 107.264 272.231 107.301 272.001 107.376C271.772 107.445 271.607 107.547 271.505 107.68C271.404 107.808 271.353 107.963 271.353 108.144V108.2C271.353 108.397 271.407 108.571 271.513 108.72C271.62 108.864 271.809 108.995 272.081 109.112C272.359 109.224 272.743 109.333 273.233 109.44C273.895 109.579 274.423 109.741 274.817 109.928C275.212 110.115 275.497 110.355 275.673 110.648C275.849 110.936 275.937 111.309 275.937 111.768V111.888C275.937 112.651 275.676 113.224 275.153 113.608C274.631 113.992 273.847 114.184 272.801 114.184ZM207.744 132H206.136V121.776H207.744V132ZM213.896 132H212.288V121.776H213.896V132ZM207.056 126.064H212.912V127.408H207.056V126.064ZM220.608 132L220.672 130.144L220.616 129.904V127.44L220.624 127.048C220.624 126.445 220.469 126.003 220.16 125.72C219.856 125.437 219.365 125.296 218.688 125.296C218.138 125.296 217.629 125.373 217.16 125.528C216.69 125.683 216.266 125.861 215.888 126.064L216.032 124.752C216.245 124.629 216.496 124.509 216.784 124.392C217.072 124.275 217.397 124.179 217.76 124.104C218.122 124.029 218.52 123.992 218.952 123.992C219.544 123.992 220.045 124.064 220.456 124.208C220.866 124.347 221.197 124.549 221.448 124.816C221.698 125.083 221.88 125.403 221.992 125.776C222.109 126.149 222.168 126.565 222.168 127.024V132H220.608ZM217.96 132.176C217.186 132.176 216.594 131.987 216.184 131.608C215.773 131.224 215.568 130.68 215.568 129.976V129.736C215.568 128.989 215.797 128.437 216.256 128.08C216.72 127.717 217.448 127.467 218.44 127.328L220.792 126.992L220.88 128.128L218.624 128.448C218.085 128.523 217.701 128.653 217.472 128.84C217.242 129.021 217.128 129.291 217.128 129.648V129.76C217.128 130.117 217.237 130.392 217.456 130.584C217.68 130.776 218.018 130.872 218.472 130.872C218.888 130.872 219.245 130.803 219.544 130.664C219.842 130.525 220.085 130.341 220.272 130.112C220.458 129.877 220.586 129.619 220.656 129.336L220.872 130.384H220.584C220.498 130.704 220.357 131 220.16 131.272C219.962 131.544 219.685 131.763 219.328 131.928C218.976 132.093 218.52 132.176 217.96 132.176ZM229.207 132V127.168C229.207 126.789 229.154 126.461 229.047 126.184C228.946 125.907 228.775 125.691 228.535 125.536C228.301 125.381 227.978 125.304 227.567 125.304C227.189 125.304 226.861 125.373 226.583 125.512C226.306 125.651 226.079 125.837 225.903 126.072C225.733 126.307 225.61 126.573 225.535 126.872L225.279 125.784H225.615C225.706 125.453 225.855 125.155 226.063 124.888C226.271 124.616 226.549 124.4 226.895 124.24C227.242 124.08 227.671 124 228.183 124C228.797 124 229.293 124.117 229.671 124.352C230.05 124.581 230.327 124.917 230.503 125.36C230.685 125.803 230.775 126.347 230.775 126.992V132H229.207ZM224.023 132V124.176H225.591L225.527 126.008L225.591 126.104V132H224.023ZM235.232 132.176C234.299 132.176 233.587 131.883 233.096 131.296C232.611 130.709 232.368 129.853 232.368 128.728V127.488C232.368 126.352 232.613 125.488 233.104 124.896C233.6 124.299 234.331 124 235.296 124C235.76 124 236.157 124.075 236.488 124.224C236.824 124.368 237.096 124.573 237.304 124.84C237.517 125.107 237.669 125.421 237.76 125.784H238.28L237.84 127.232C237.824 126.805 237.731 126.448 237.56 126.16C237.389 125.867 237.155 125.645 236.856 125.496C236.557 125.347 236.208 125.272 235.808 125.272C235.205 125.272 234.744 125.445 234.424 125.792C234.104 126.139 233.944 126.653 233.944 127.336V128.832C233.944 129.499 234.101 130.005 234.416 130.352C234.736 130.699 235.2 130.872 235.808 130.872C236.176 130.872 236.499 130.803 236.776 130.664C237.059 130.525 237.293 130.336 237.48 130.096C237.667 129.856 237.795 129.587 237.864 129.288L238.232 130.392H237.776C237.691 130.717 237.547 131.016 237.344 131.288C237.147 131.56 236.877 131.776 236.536 131.936C236.195 132.096 235.76 132.176 235.232 132.176ZM237.8 132L237.864 130.168L237.84 129.672V126.424L237.848 126.12L237.808 123.904V121.408H239.368V132H237.8ZM241.383 132V121.408H242.951V132H241.383ZM248.393 132.184C247.145 132.184 246.209 131.888 245.585 131.296C244.966 130.699 244.657 129.84 244.657 128.72V127.44C244.657 126.336 244.945 125.483 245.521 124.88C246.102 124.272 246.947 123.968 248.057 123.968C248.809 123.968 249.435 124.107 249.937 124.384C250.438 124.656 250.814 125.043 251.065 125.544C251.315 126.045 251.441 126.64 251.441 127.328V127.624C251.441 127.805 251.433 127.989 251.417 128.176C251.401 128.363 251.379 128.541 251.353 128.712H249.913C249.923 128.435 249.929 128.173 249.929 127.928C249.934 127.683 249.937 127.459 249.937 127.256C249.937 126.824 249.867 126.459 249.729 126.16C249.59 125.861 249.382 125.635 249.105 125.48C248.827 125.32 248.478 125.24 248.057 125.24C247.433 125.24 246.969 125.419 246.665 125.776C246.361 126.128 246.209 126.632 246.209 127.288V128.024L246.217 128.208V128.904C246.217 129.197 246.259 129.464 246.345 129.704C246.435 129.944 246.577 130.152 246.769 130.328C246.966 130.499 247.219 130.632 247.529 130.728C247.838 130.819 248.214 130.864 248.657 130.864C249.158 130.864 249.627 130.8 250.065 130.672C250.507 130.544 250.923 130.373 251.313 130.16L251.169 131.496C250.817 131.704 250.406 131.872 249.937 132C249.473 132.123 248.958 132.184 248.393 132.184ZM245.489 128.712V127.536H251.033V128.712H245.489ZM255.638 132.176C254.705 132.176 253.993 131.883 253.502 131.296C253.017 130.709 252.774 129.853 252.774 128.728V127.488C252.774 126.352 253.019 125.488 253.51 124.896C254.006 124.299 254.737 124 255.702 124C256.166 124 256.563 124.075 256.894 124.224C257.23 124.368 257.502 124.573 257.71 124.84C257.923 125.107 258.075 125.421 258.166 125.784H258.686L258.246 127.232C258.23 126.805 258.137 126.448 257.966 126.16C257.795 125.867 257.561 125.645 257.262 125.496C256.963 125.347 256.614 125.272 256.214 125.272C255.611 125.272 255.15 125.445 254.83 125.792C254.51 126.139 254.35 126.653 254.35 127.336V128.832C254.35 129.499 254.507 130.005 254.822 130.352C255.142 130.699 255.606 130.872 256.214 130.872C256.582 130.872 256.905 130.803 257.182 130.664C257.465 130.525 257.699 130.336 257.886 130.096C258.073 129.856 258.201 129.587 258.27 129.288L258.638 130.392H258.182C258.097 130.717 257.953 131.016 257.75 131.288C257.553 131.56 257.283 131.776 256.942 131.936C256.601 132.096 256.166 132.176 255.638 132.176ZM258.206 132L258.27 130.168L258.246 129.672V126.424L258.254 126.12L258.214 123.904V121.408H259.774V132H258.206Z" fill="#566075"/>
<path d="M186.906 119.344L185.75 120.5C185.506 120.744 185.119 120.744 184.869 120.506C184.8 120.438 184.731 120.375 184.662 120.306C184.03 119.67 183.448 118.987 182.919 118.263C182.406 117.55 181.994 116.838 181.694 116.131C181.4 115.419 181.25 114.737 181.25 114.088C181.25 113.662 181.325 113.256 181.475 112.881C181.625 112.5 181.863 112.15 182.194 111.838C182.594 111.444 183.031 111.25 183.494 111.25C183.669 111.25 183.844 111.288 184 111.363C184.163 111.438 184.306 111.55 184.419 111.713L185.869 113.756C185.981 113.913 186.062 114.056 186.119 114.194C186.175 114.325 186.206 114.456 186.206 114.575C186.206 114.725 186.163 114.875 186.075 115.019C185.994 115.162 185.875 115.312 185.725 115.462L185.25 115.956C185.181 116.025 185.15 116.106 185.15 116.206C185.15 116.256 185.156 116.3 185.169 116.35C185.188 116.4 185.206 116.438 185.219 116.475C185.331 116.681 185.525 116.95 185.8 117.275C186.081 117.6 186.381 117.931 186.706 118.263C186.769 118.325 186.838 118.388 186.9 118.45C187.15 118.694 187.156 119.094 186.906 119.344ZM193.731 121.456C193.73 121.692 193.677 121.925 193.575 122.137C193.469 122.363 193.331 122.575 193.15 122.775C192.844 123.113 192.506 123.356 192.125 123.513C192.119 123.513 192.113 123.519 192.106 123.519C191.738 123.669 191.338 123.75 190.906 123.75C190.269 123.75 189.587 123.6 188.869 123.294C188.15 122.988 187.431 122.575 186.719 122.056C186.475 121.875 186.231 121.694 186 121.5L188.044 119.456C188.219 119.587 188.375 119.688 188.506 119.756C188.537 119.769 188.575 119.787 188.619 119.806C188.669 119.825 188.719 119.831 188.775 119.831C188.881 119.831 188.963 119.794 189.031 119.725L189.506 119.256C189.663 119.1 189.812 118.981 189.956 118.906C190.1 118.819 190.244 118.775 190.4 118.775C190.519 118.775 190.644 118.8 190.781 118.856C190.919 118.912 191.062 118.994 191.219 119.1L193.288 120.569C193.45 120.681 193.562 120.812 193.631 120.969C193.694 121.125 193.731 121.281 193.731 121.456Z" fill="#62616F"/>
<path d="M175.975 168V165.195L180.745 160.635C181.625 159.795 182.365 159.045 182.965 158.385C183.575 157.715 184.04 157.065 184.36 156.435C184.68 155.805 184.84 155.135 184.84 154.425V154.275C184.84 153.605 184.71 153.035 184.45 152.565C184.19 152.085 183.785 151.72 183.235 151.47C182.695 151.21 181.99 151.08 181.12 151.08C180.14 151.08 179.22 151.235 178.36 151.545C177.5 151.855 176.74 152.21 176.08 152.61L176.35 149.925C176.74 149.685 177.2 149.455 177.73 149.235C178.26 149.015 178.855 148.835 179.515 148.695C180.185 148.555 180.925 148.485 181.735 148.485C183.795 148.485 185.335 148.955 186.355 149.895C187.385 150.835 187.9 152.17 187.9 153.9V154.11C187.9 155.1 187.725 156 187.375 156.81C187.035 157.61 186.53 158.405 185.86 159.195C185.2 159.985 184.385 160.845 183.415 161.775L179.74 165.315V165.96L178.51 165.45H188.17V168H175.975ZM197.174 148.44C199.504 148.44 201.259 149.085 202.439 150.375C203.629 151.655 204.224 153.545 204.224 156.045V160.575C204.224 163.075 203.574 165 202.274 166.35C200.974 167.7 199.034 168.375 196.454 168.375C195.344 168.375 194.394 168.265 193.604 168.045C192.814 167.835 192.144 167.6 191.594 167.34L191.279 164.505C191.919 164.855 192.609 165.15 193.349 165.39C194.099 165.63 195.019 165.75 196.109 165.75C197.859 165.75 199.149 165.31 199.979 164.43C200.819 163.55 201.239 162.235 201.239 160.485V155.745C201.239 154.155 200.904 152.96 200.234 152.16C199.574 151.35 198.534 150.945 197.114 150.945C195.874 150.945 194.954 151.275 194.354 151.935C193.754 152.585 193.454 153.43 193.454 154.47V155.34C193.454 156.39 193.729 157.235 194.279 157.875C194.829 158.505 195.744 158.82 197.024 158.82C197.734 158.82 198.379 158.685 198.959 158.415C199.539 158.135 200.034 157.74 200.444 157.23C200.864 156.71 201.174 156.095 201.374 155.385L201.584 157.965H201.089C200.889 158.585 200.579 159.14 200.159 159.63C199.739 160.12 199.194 160.51 198.524 160.8C197.864 161.08 197.059 161.22 196.109 161.22C194.229 161.22 192.819 160.71 191.879 159.69C190.949 158.67 190.484 157.25 190.484 155.43V154.425C190.484 152.605 191.049 151.155 192.179 150.075C193.309 148.985 194.974 148.44 197.174 148.44ZM207.956 168L214.976 151.38H205.796V148.83H218.126V151.44L211.241 168H207.956Z" fill="#050038"/>
<path d="M179.248 187.568C180.491 187.568 181.427 187.912 182.056 188.6C182.691 189.283 183.008 190.291 183.008 191.624V194.04C183.008 195.373 182.661 196.4 181.968 197.12C181.275 197.84 180.24 198.2 178.864 198.2C178.272 198.2 177.765 198.141 177.344 198.024C176.923 197.912 176.565 197.787 176.272 197.648L176.104 196.136C176.445 196.323 176.813 196.48 177.208 196.608C177.608 196.736 178.099 196.8 178.68 196.8C179.613 196.8 180.301 196.565 180.744 196.096C181.192 195.627 181.416 194.925 181.416 193.992V191.464C181.416 190.616 181.237 189.979 180.88 189.552C180.528 189.12 179.973 188.904 179.216 188.904C178.555 188.904 178.064 189.08 177.744 189.432C177.424 189.779 177.264 190.229 177.264 190.784V191.248C177.264 191.808 177.411 192.259 177.704 192.6C177.997 192.936 178.485 193.104 179.168 193.104C179.547 193.104 179.891 193.032 180.2 192.888C180.509 192.739 180.773 192.528 180.992 192.256C181.216 191.979 181.381 191.651 181.488 191.272L181.6 192.648H181.336C181.229 192.979 181.064 193.275 180.84 193.536C180.616 193.797 180.325 194.005 179.968 194.16C179.616 194.309 179.187 194.384 178.68 194.384C177.677 194.384 176.925 194.112 176.424 193.568C175.928 193.024 175.68 192.267 175.68 191.296V190.76C175.68 189.789 175.981 189.016 176.584 188.44C177.187 187.859 178.075 187.568 179.248 187.568ZM187.177 198.184C186.74 198.184 186.337 198.152 185.969 198.088C185.607 198.024 185.287 197.947 185.009 197.856C184.732 197.76 184.5 197.669 184.313 197.584L184.161 196.032C184.524 196.229 184.948 196.403 185.433 196.552C185.924 196.701 186.46 196.776 187.041 196.776C187.575 196.776 188.001 196.712 188.321 196.584C188.641 196.456 188.873 196.272 189.017 196.032C189.161 195.787 189.233 195.491 189.233 195.144V194.992C189.233 194.635 189.164 194.344 189.025 194.12C188.892 193.891 188.671 193.72 188.361 193.608C188.057 193.496 187.647 193.435 187.129 193.424L185.457 193.392V192.12L187.137 192.08C187.639 192.069 188.039 192.005 188.337 191.888C188.636 191.765 188.849 191.595 188.977 191.376C189.111 191.152 189.177 190.885 189.177 190.576V190.464C189.177 189.968 189.023 189.592 188.713 189.336C188.404 189.08 187.876 188.952 187.129 188.952C186.564 188.952 186.031 189.029 185.529 189.184C185.033 189.333 184.599 189.507 184.225 189.704L184.361 188.312C184.692 188.125 185.108 187.96 185.609 187.816C186.116 187.667 186.713 187.592 187.401 187.592C188.564 187.592 189.42 187.821 189.969 188.28C190.524 188.739 190.801 189.384 190.801 190.216V190.376C190.801 190.776 190.735 191.131 190.601 191.44C190.473 191.744 190.273 191.995 190.001 192.192C189.729 192.384 189.377 192.517 188.945 192.592V192.832L188.897 192.664C189.596 192.797 190.1 193.048 190.409 193.416C190.724 193.779 190.881 194.299 190.881 194.976V195.248C190.881 196.165 190.58 196.885 189.977 197.408C189.38 197.925 188.447 198.184 187.177 198.184ZM193.762 198L200.066 187.776H201.554L195.25 198H193.762ZM200.786 198.208C200.05 198.208 199.487 198.008 199.098 197.608C198.714 197.203 198.522 196.637 198.522 195.912V195.2C198.522 194.48 198.717 193.92 199.106 193.52C199.495 193.12 200.055 192.92 200.786 192.92C201.522 192.92 202.085 193.117 202.474 193.512C202.869 193.907 203.066 194.469 203.066 195.2V195.912C203.066 196.637 202.869 197.203 202.474 197.608C202.085 198.008 201.522 198.208 200.786 198.208ZM200.786 197.128C201.117 197.128 201.365 197.029 201.53 196.832C201.695 196.629 201.778 196.333 201.778 195.944V195.176C201.778 194.787 201.693 194.493 201.522 194.296C201.357 194.093 201.111 193.992 200.786 193.992C200.461 193.992 200.213 194.093 200.042 194.296C199.877 194.493 199.794 194.787 199.794 195.176V195.944C199.794 196.333 199.879 196.629 200.05 196.832C200.221 197.029 200.466 197.128 200.786 197.128ZM194.474 192.848C193.738 192.848 193.175 192.651 192.786 192.256C192.397 191.856 192.202 191.293 192.202 190.568V189.848C192.202 189.128 192.397 188.571 192.786 188.176C193.175 187.776 193.738 187.576 194.474 187.576C195.21 187.576 195.773 187.776 196.162 188.176C196.557 188.571 196.754 189.128 196.754 189.848V190.568C196.754 191.288 196.557 191.848 196.162 192.248C195.773 192.648 195.21 192.848 194.474 192.848ZM194.474 191.776C194.799 191.776 195.045 191.677 195.21 191.48C195.381 191.283 195.466 190.989 195.466 190.6V189.824C195.466 189.44 195.381 189.147 195.21 188.944C195.045 188.741 194.799 188.64 194.474 188.64C194.149 188.64 193.901 188.741 193.73 188.944C193.565 189.147 193.482 189.44 193.482 189.824V190.6C193.482 190.989 193.567 191.283 193.738 191.48C193.909 191.677 194.154 191.776 194.474 191.776ZM211.087 198.192C210.602 198.192 210.154 198.155 209.743 198.08C209.333 198.005 208.965 197.912 208.639 197.8C208.319 197.688 208.047 197.576 207.823 197.464L207.671 195.888C208.082 196.123 208.567 196.331 209.127 196.512C209.693 196.693 210.303 196.784 210.959 196.784C211.706 196.784 212.255 196.661 212.607 196.416C212.959 196.165 213.135 195.789 213.135 195.288V195.168C213.135 194.843 213.063 194.576 212.919 194.368C212.781 194.155 212.543 193.973 212.207 193.824C211.871 193.669 211.415 193.523 210.839 193.384C210.082 193.197 209.469 192.979 208.999 192.728C208.535 192.472 208.197 192.155 207.983 191.776C207.77 191.392 207.663 190.915 207.663 190.344V190.264C207.663 189.405 207.949 188.744 208.519 188.28C209.09 187.816 209.946 187.584 211.087 187.584C211.818 187.584 212.442 187.656 212.959 187.8C213.482 187.939 213.911 188.096 214.247 188.272L214.391 189.736C214.002 189.512 213.554 189.325 213.047 189.176C212.541 189.021 211.97 188.944 211.335 188.944C210.839 188.944 210.442 189 210.143 189.112C209.845 189.219 209.629 189.376 209.495 189.584C209.362 189.787 209.295 190.032 209.295 190.32V190.352C209.295 190.651 209.362 190.907 209.495 191.12C209.629 191.333 209.863 191.523 210.199 191.688C210.541 191.848 211.023 192.008 211.647 192.168C212.389 192.355 212.986 192.565 213.439 192.8C213.898 193.029 214.234 193.331 214.447 193.704C214.661 194.072 214.767 194.557 214.767 195.16V195.32C214.767 196.264 214.461 196.979 213.847 197.464C213.234 197.949 212.314 198.192 211.087 198.192ZM217.87 190.176V195.008C217.87 195.381 217.921 195.709 218.022 195.992C218.129 196.269 218.302 196.485 218.542 196.64C218.782 196.795 219.105 196.872 219.51 196.872C219.894 196.872 220.222 196.803 220.494 196.664C220.772 196.525 220.998 196.339 221.174 196.104C221.35 195.864 221.473 195.597 221.542 195.304L221.798 196.392H221.462C221.372 196.717 221.222 197.016 221.014 197.288C220.806 197.56 220.529 197.776 220.182 197.936C219.836 198.096 219.406 198.176 218.894 198.176C218.286 198.176 217.79 198.061 217.406 197.832C217.028 197.597 216.748 197.259 216.566 196.816C216.39 196.368 216.302 195.824 216.302 195.184V190.176H217.87ZM223.054 190.176V198H221.486L221.55 196.168L221.486 196.072V190.176H223.054ZM228.167 198.184C227.004 198.184 226.14 197.877 225.575 197.264C225.015 196.645 224.735 195.773 224.735 194.648V193.52C224.735 192.389 225.018 191.517 225.583 190.904C226.148 190.291 227.01 189.984 228.167 189.984C228.487 189.984 228.78 190.013 229.047 190.072C229.319 190.131 229.564 190.208 229.783 190.304C230.002 190.395 230.188 190.491 230.343 190.592L230.479 191.936C230.223 191.755 229.927 191.603 229.591 191.48C229.255 191.352 228.863 191.288 228.415 191.288C227.7 191.288 227.17 191.483 226.823 191.872C226.482 192.256 226.311 192.816 226.311 193.552V194.608C226.311 195.328 226.482 195.883 226.823 196.272C227.17 196.661 227.7 196.856 228.415 196.856C228.868 196.856 229.268 196.795 229.615 196.672C229.962 196.544 230.274 196.389 230.551 196.208L230.415 197.568C230.17 197.723 229.855 197.864 229.471 197.992C229.092 198.12 228.658 198.184 228.167 198.184ZM235.011 198.184C233.848 198.184 232.984 197.877 232.419 197.264C231.859 196.645 231.579 195.773 231.579 194.648V193.52C231.579 192.389 231.861 191.517 232.427 190.904C232.992 190.291 233.853 189.984 235.011 189.984C235.331 189.984 235.624 190.013 235.891 190.072C236.163 190.131 236.408 190.208 236.627 190.304C236.845 190.395 237.032 190.491 237.187 190.592L237.323 191.936C237.067 191.755 236.771 191.603 236.435 191.48C236.099 191.352 235.707 191.288 235.259 191.288C234.544 191.288 234.013 191.483 233.667 191.872C233.325 192.256 233.155 192.816 233.155 193.552V194.608C233.155 195.328 233.325 195.883 233.667 196.272C234.013 196.661 234.544 196.856 235.259 196.856C235.712 196.856 236.112 196.795 236.459 196.672C236.805 196.544 237.117 196.389 237.395 196.208L237.259 197.568C237.013 197.723 236.699 197.864 236.315 197.992C235.936 198.12 235.501 198.184 235.011 198.184ZM242.158 198.184C240.91 198.184 239.974 197.888 239.35 197.296C238.732 196.699 238.422 195.84 238.422 194.72V193.44C238.422 192.336 238.71 191.483 239.286 190.88C239.868 190.272 240.713 189.968 241.822 189.968C242.574 189.968 243.201 190.107 243.702 190.384C244.204 190.656 244.58 191.043 244.83 191.544C245.081 192.045 245.206 192.64 245.206 193.328V193.624C245.206 193.805 245.198 193.989 245.182 194.176C245.166 194.363 245.145 194.541 245.118 194.712H243.678C243.689 194.435 243.694 194.173 243.694 193.928C243.7 193.683 243.702 193.459 243.702 193.256C243.702 192.824 243.633 192.459 243.494 192.16C243.356 191.861 243.148 191.635 242.87 191.48C242.593 191.32 242.244 191.24 241.822 191.24C241.198 191.24 240.734 191.419 240.43 191.776C240.126 192.128 239.974 192.632 239.974 193.288V194.024L239.982 194.208V194.904C239.982 195.197 240.025 195.464 240.11 195.704C240.201 195.944 240.342 196.152 240.534 196.328C240.732 196.499 240.985 196.632 241.294 196.728C241.604 196.819 241.98 196.864 242.422 196.864C242.924 196.864 243.393 196.8 243.83 196.672C244.273 196.544 244.689 196.373 245.078 196.16L244.934 197.496C244.582 197.704 244.172 197.872 243.702 198C243.238 198.123 242.724 198.184 242.158 198.184ZM239.254 194.712V193.536H244.798V194.712H239.254ZM249.379 198.184C248.75 198.184 248.198 198.12 247.723 197.992C247.249 197.859 246.851 197.715 246.531 197.56L246.387 196.128C246.782 196.325 247.217 196.499 247.691 196.648C248.166 196.792 248.699 196.864 249.291 196.864C249.862 196.864 250.283 196.781 250.555 196.616C250.833 196.445 250.971 196.195 250.971 195.864V195.8C250.971 195.587 250.915 195.411 250.803 195.272C250.691 195.128 250.491 195 250.203 194.888C249.921 194.776 249.518 194.661 248.995 194.544C248.339 194.395 247.822 194.219 247.443 194.016C247.065 193.813 246.793 193.565 246.627 193.272C246.467 192.973 246.387 192.616 246.387 192.2V192.128C246.387 191.424 246.633 190.891 247.123 190.528C247.614 190.165 248.35 189.984 249.331 189.984C249.95 189.984 250.489 190.051 250.947 190.184C251.406 190.317 251.785 190.469 252.083 190.64L252.227 191.944C251.87 191.752 251.462 191.592 251.003 191.464C250.55 191.331 250.046 191.264 249.491 191.264C249.113 191.264 248.809 191.301 248.579 191.376C248.35 191.445 248.185 191.547 248.083 191.68C247.982 191.808 247.931 191.963 247.931 192.144V192.2C247.931 192.397 247.985 192.571 248.091 192.72C248.198 192.864 248.387 192.995 248.659 193.112C248.937 193.224 249.321 193.333 249.811 193.44C250.473 193.579 251.001 193.741 251.395 193.928C251.79 194.115 252.075 194.355 252.251 194.648C252.427 194.936 252.515 195.309 252.515 195.768V195.888C252.515 196.651 252.254 197.224 251.731 197.608C251.209 197.992 250.425 198.184 249.379 198.184ZM256.473 198.184C255.844 198.184 255.292 198.12 254.817 197.992C254.342 197.859 253.945 197.715 253.625 197.56L253.481 196.128C253.876 196.325 254.31 196.499 254.785 196.648C255.26 196.792 255.793 196.864 256.385 196.864C256.956 196.864 257.377 196.781 257.649 196.616C257.926 196.445 258.065 196.195 258.065 195.864V195.8C258.065 195.587 258.009 195.411 257.897 195.272C257.785 195.128 257.585 195 257.297 194.888C257.014 194.776 256.612 194.661 256.089 194.544C255.433 194.395 254.916 194.219 254.537 194.016C254.158 193.813 253.886 193.565 253.721 193.272C253.561 192.973 253.481 192.616 253.481 192.2V192.128C253.481 191.424 253.726 190.891 254.217 190.528C254.708 190.165 255.444 189.984 256.425 189.984C257.044 189.984 257.582 190.051 258.041 190.184C258.5 190.317 258.878 190.469 259.177 190.64L259.321 191.944C258.964 191.752 258.556 191.592 258.097 191.464C257.644 191.331 257.14 191.264 256.585 191.264C256.206 191.264 255.902 191.301 255.673 191.376C255.444 191.445 255.278 191.547 255.177 191.68C255.076 191.808 255.025 191.963 255.025 192.144V192.2C255.025 192.397 255.078 192.571 255.185 192.72C255.292 192.864 255.481 192.995 255.753 193.112C256.03 193.224 256.414 193.333 256.905 193.44C257.566 193.579 258.094 193.741 258.489 193.928C258.884 194.115 259.169 194.355 259.345 194.648C259.521 194.936 259.609 195.309 259.609 195.768V195.888C259.609 196.651 259.348 197.224 258.825 197.608C258.302 197.992 257.518 198.184 256.473 198.184Z" fill="#939BAF"/>
<rect x="152.5" y="77.5" width="149" height="149" rx="9.5" stroke="#ECEEF6"/>
</g>
<g filter="url(#filter2_d_591_2084)">
<rect x="90" y="244" width="299" height="44" rx="8" fill="white"/>
<rect x="224" y="250" width="32" height="32" rx="5" fill="white"/>
<path d="M245.023 264.492L241.929 262.522L236.889 259.312C235.821 258.642 234 259.122 234 260.082V271.921C234 272.881 235.821 273.361 236.889 272.681L245.023 267.502C246.326 266.682 246.326 265.322 245.023 264.492Z" fill="black"/>
<rect x="224" y="250" width="32" height="32" rx="5" stroke="#ECEEF6" stroke-width="2"/>
<path d="M136.228 262.556V272.126C136.228 274.086 134.098 275.316 132.398 274.336L128.248 271.946L124.098 269.546C122.398 268.566 122.398 266.116 124.098 265.136L128.248 262.736L132.398 260.346C134.098 259.366 136.228 260.586 136.228 262.556ZM119.75 274.266C119.34 274.266 119 273.926 119 273.516V261.156C119 260.746 119.34 260.406 119.75 260.406C120.16 260.406 120.5 260.746 120.5 261.156V273.516C120.5 273.926 120.16 274.266 119.75 274.266Z" fill="black"/>
<path d="M163.823 270.69H162.106C161.798 270.69 161.543 270.435 161.543 270.127C161.543 269.82 161.798 269.565 162.106 269.565H163.823C163.973 269.557 164.115 269.492 164.218 269.384C164.322 269.275 164.379 269.13 164.379 268.98C164.379 268.83 164.322 268.685 164.218 268.576C164.115 268.468 163.973 268.403 163.823 268.395H162.106C161.926 268.395 161.753 268.305 161.648 268.162C161.596 268.09 161.562 268.005 161.549 267.917C161.535 267.828 161.544 267.737 161.573 267.652L162.143 265.935C162.218 265.702 162.436 265.552 162.676 265.552H164.971C165.278 265.552 165.533 265.807 165.533 266.115C165.533 266.422 165.278 266.677 164.971 266.677H163.081L162.886 267.27H163.823C164.277 267.27 164.712 267.45 165.032 267.771C165.353 268.092 165.533 268.526 165.533 268.98C165.533 269.434 165.353 269.868 165.032 270.189C164.712 270.51 164.277 270.69 163.823 270.69ZM160.155 270.69C159.848 270.69 159.593 270.435 159.593 270.127V267.585L159.45 267.75C159.24 267.982 158.888 267.997 158.655 267.795C158.545 267.694 158.48 267.554 158.473 267.405C158.466 267.256 158.518 267.111 158.618 267L159.743 265.747C159.9 265.575 160.148 265.515 160.365 265.597C160.583 265.68 160.725 265.89 160.725 266.122V270.135C160.718 270.442 160.47 270.69 160.155 270.69Z" fill="black"/>
<path d="M162.001 260.61C161.941 260.61 161.881 260.618 161.821 260.618L162.436 259.853C162.631 259.613 162.594 259.253 162.346 259.065C162.289 259.019 162.223 258.985 162.152 258.965C162.081 258.945 162.007 258.939 161.934 258.947C161.861 258.955 161.79 258.978 161.726 259.014C161.661 259.049 161.605 259.097 161.559 259.155L160.081 261C160.074 261.008 160.074 261.015 160.066 261.03C160.044 261.06 160.029 261.098 160.014 261.128C159.999 261.165 159.984 261.195 159.976 261.225C159.969 261.263 159.969 261.293 159.969 261.33V261.48C159.976 261.503 159.991 261.518 159.999 261.54C160.014 261.578 160.029 261.608 160.044 261.645C160.066 261.675 160.089 261.705 160.119 261.728C160.134 261.75 160.141 261.773 160.164 261.788C160.179 261.795 160.186 261.803 160.201 261.81C160.216 261.825 160.239 261.833 160.261 261.84C160.299 261.863 160.344 261.878 160.381 261.885C160.411 261.9 160.434 261.9 160.456 261.9C160.479 261.9 160.494 261.908 160.516 261.908C160.539 261.908 160.554 261.9 160.569 261.893C160.591 261.893 160.614 261.9 160.636 261.893C161.116 261.78 161.566 261.728 161.994 261.728C165.361 261.728 168.099 264.465 168.099 267.833C168.099 271.2 165.361 273.938 161.994 273.938C158.626 273.938 155.889 271.2 155.889 267.833C155.889 266.528 156.316 265.268 157.126 264.188C157.216 264.068 157.254 263.918 157.233 263.77C157.212 263.623 157.133 263.49 157.014 263.4C156.895 263.311 156.745 263.272 156.597 263.293C156.449 263.314 156.316 263.393 156.226 263.513C155.266 264.788 154.764 266.28 154.764 267.833C154.764 271.815 158.004 275.063 161.994 275.063C165.984 275.063 169.224 271.823 169.224 267.833C169.224 263.843 165.984 260.61 162.001 260.61Z" fill="black"/>
<path d="M197.285 270.69H195.568C195.26 270.69 195.005 270.435 195.005 270.127C195.005 269.82 195.26 269.565 195.568 269.565H197.285C197.435 269.557 197.576 269.492 197.68 269.384C197.783 269.275 197.841 269.13 197.841 268.98C197.841 268.83 197.783 268.685 197.68 268.576C197.576 268.468 197.435 268.403 197.285 268.395H195.568C195.388 268.395 195.215 268.305 195.11 268.162C195.058 268.09 195.023 268.005 195.01 267.917C194.997 267.828 195.006 267.737 195.035 267.652L195.605 265.935C195.68 265.702 195.898 265.552 196.138 265.552H198.433C198.74 265.552 198.995 265.807 198.995 266.115C198.995 266.422 198.74 266.677 198.433 266.677H196.543L196.348 267.27H197.285C197.739 267.27 198.174 267.45 198.494 267.771C198.815 268.092 198.995 268.526 198.995 268.98C198.995 269.434 198.815 269.868 198.494 270.189C198.174 270.51 197.739 270.69 197.285 270.69Z" fill="black"/>
<path d="M197.001 260.61C196.941 260.61 196.881 260.618 196.821 260.618L197.436 259.853C197.631 259.613 197.594 259.253 197.346 259.065C197.289 259.019 197.223 258.985 197.152 258.965C197.081 258.945 197.007 258.939 196.934 258.947C196.861 258.955 196.79 258.978 196.726 259.014C196.661 259.049 196.605 259.097 196.559 259.155L195.081 261C195.074 261.008 195.074 261.015 195.066 261.03C195.044 261.06 195.029 261.098 195.014 261.128C194.999 261.165 194.984 261.195 194.976 261.225C194.969 261.263 194.969 261.293 194.969 261.33V261.48C194.976 261.503 194.991 261.518 194.999 261.54C195.014 261.578 195.029 261.608 195.044 261.645C195.066 261.675 195.089 261.705 195.119 261.728C195.134 261.75 195.141 261.773 195.164 261.788C195.179 261.795 195.186 261.803 195.201 261.81C195.22 261.823 195.24 261.833 195.261 261.84C195.299 261.863 195.344 261.878 195.389 261.885C195.411 261.9 195.434 261.9 195.456 261.9C195.479 261.9 195.494 261.908 195.516 261.908C195.539 261.908 195.554 261.9 195.569 261.893C195.591 261.893 195.614 261.9 195.636 261.893C196.116 261.78 196.566 261.728 196.994 261.728C200.361 261.728 203.099 264.465 203.099 267.833C203.099 271.2 200.361 273.938 196.994 273.938C193.626 273.938 190.889 271.2 190.889 267.833C190.889 266.528 191.316 265.268 192.126 264.188C192.216 264.068 192.254 263.918 192.233 263.77C192.212 263.623 192.133 263.49 192.014 263.4C191.895 263.311 191.745 263.272 191.597 263.293C191.449 263.314 191.316 263.393 191.226 263.513C190.266 264.788 189.764 266.28 189.764 267.833C189.764 271.815 193.004 275.063 196.994 275.063C200.984 275.063 204.224 271.823 204.224 267.833C204.224 263.843 200.984 260.61 197.001 260.61Z" fill="black"/>
<path d="M343.772 262.556V272.126C343.772 274.086 345.902 275.316 347.602 274.336L351.752 271.946L355.902 269.546C357.602 268.566 357.602 266.116 355.902 265.136L351.752 262.736L347.602 260.346C345.902 259.366 343.772 260.586 343.772 262.556ZM360.25 274.266C360.66 274.266 361 273.926 361 273.516V261.156C361 260.746 360.66 260.406 360.25 260.406C359.84 260.406 359.5 260.746 359.5 261.156V273.516C359.5 273.926 359.84 274.266 360.25 274.266Z" fill="black"/>
<path d="M319.818 270.69H318.1C317.793 270.69 317.538 270.435 317.538 270.127C317.538 269.82 317.793 269.565 318.1 269.565H319.818C319.968 269.557 320.109 269.492 320.213 269.384C320.316 269.275 320.374 269.13 320.374 268.98C320.374 268.83 320.316 268.685 320.213 268.576C320.109 268.468 319.968 268.403 319.818 268.395H318.1C317.92 268.395 317.748 268.305 317.643 268.162C317.59 268.09 317.556 268.005 317.543 267.917C317.53 267.828 317.538 267.737 317.568 267.652L318.138 265.935C318.213 265.702 318.43 265.552 318.67 265.552H320.965C321.273 265.552 321.528 265.807 321.528 266.115C321.528 266.422 321.273 266.677 320.965 266.677H319.075L318.88 267.27H319.818C320.271 267.27 320.706 267.45 321.027 267.771C321.347 268.092 321.528 268.526 321.528 268.98C321.528 269.434 321.347 269.868 321.027 270.189C320.706 270.51 320.271 270.69 319.818 270.69ZM316.149 270.69C315.842 270.69 315.587 270.435 315.587 270.127V267.585L315.444 267.75C315.234 267.982 314.882 267.997 314.649 267.795C314.54 267.694 314.474 267.554 314.467 267.405C314.46 267.256 314.512 267.111 314.612 267L315.737 265.747C315.894 265.575 316.142 265.515 316.359 265.597C316.577 265.68 316.719 265.89 316.719 266.122V270.135C316.712 270.442 316.464 270.69 316.149 270.69Z" fill="black"/>
<path d="M317.998 260.61C318.058 260.61 318.118 260.618 318.178 260.618L317.563 259.853C317.368 259.613 317.406 259.253 317.653 259.065C317.711 259.019 317.777 258.985 317.848 258.965C317.919 258.945 317.993 258.939 318.066 258.947C318.139 258.955 318.21 258.978 318.274 259.014C318.338 259.049 318.395 259.097 318.441 259.155L319.918 261C319.926 261.008 319.926 261.015 319.933 261.03C319.956 261.06 319.971 261.098 319.986 261.128C320.001 261.165 320.016 261.195 320.023 261.225C320.031 261.263 320.031 261.293 320.031 261.33V261.48C320.023 261.503 320.008 261.518 320.001 261.54C319.986 261.578 319.971 261.608 319.956 261.645C319.933 261.675 319.911 261.705 319.881 261.728C319.866 261.75 319.858 261.773 319.836 261.788C319.821 261.795 319.813 261.803 319.798 261.81C319.783 261.825 319.761 261.833 319.738 261.84C319.701 261.863 319.656 261.878 319.618 261.885C319.588 261.9 319.566 261.9 319.543 261.9C319.521 261.9 319.506 261.908 319.483 261.908C319.461 261.908 319.446 261.9 319.431 261.893C319.408 261.893 319.386 261.9 319.363 261.893C318.883 261.78 318.433 261.728 318.006 261.728C314.638 261.728 311.901 264.465 311.901 267.833C311.901 271.2 314.638 273.938 318.006 273.938C321.373 273.938 324.111 271.2 324.111 267.833C324.111 266.528 323.683 265.268 322.873 264.188C322.784 264.068 322.746 263.918 322.767 263.77C322.788 263.623 322.867 263.49 322.986 263.4C323.105 263.311 323.255 263.272 323.403 263.293C323.551 263.314 323.684 263.393 323.773 263.513C324.733 264.788 325.236 266.28 325.236 267.833C325.236 271.815 321.996 275.063 318.006 275.063C314.016 275.063 310.776 271.823 310.776 267.833C310.776 263.843 314.016 260.61 317.998 260.61Z" fill="black"/>
<path d="M283.286 270.69H281.568C281.261 270.69 281.006 270.435 281.006 270.127C281.006 269.82 281.261 269.565 281.568 269.565H283.286C283.436 269.557 283.577 269.492 283.68 269.384C283.784 269.275 283.842 269.13 283.842 268.98C283.842 268.83 283.784 268.685 283.68 268.576C283.577 268.468 283.436 268.403 283.286 268.395H281.568C281.388 268.395 281.216 268.305 281.111 268.162C281.058 268.09 281.024 268.005 281.011 267.917C280.998 267.828 281.006 267.737 281.036 267.652L281.606 265.935C281.681 265.702 281.898 265.552 282.138 265.552H284.433C284.741 265.552 284.996 265.807 284.996 266.115C284.996 266.422 284.741 266.677 284.433 266.677H282.543L282.348 267.27H283.286C283.739 267.27 284.174 267.45 284.495 267.771C284.815 268.092 284.996 268.526 284.996 268.98C284.996 269.434 284.815 269.868 284.495 270.189C284.174 270.51 283.739 270.69 283.286 270.69Z" fill="black"/>
<path d="M282.999 260.61C283.059 260.61 283.119 260.618 283.179 260.618L282.564 259.853C282.369 259.613 282.406 259.253 282.654 259.065C282.711 259.019 282.777 258.985 282.848 258.965C282.919 258.945 282.993 258.939 283.066 258.947C283.139 258.955 283.21 258.978 283.274 259.014C283.339 259.049 283.395 259.097 283.441 259.155L284.919 261C284.926 261.008 284.926 261.015 284.934 261.03C284.956 261.06 284.971 261.098 284.986 261.128C285.001 261.165 285.016 261.195 285.024 261.225C285.031 261.263 285.031 261.293 285.031 261.33V261.48C285.024 261.503 285.009 261.518 285.001 261.54C284.986 261.578 284.971 261.608 284.956 261.645C284.934 261.675 284.911 261.705 284.881 261.728C284.866 261.75 284.859 261.773 284.836 261.788C284.821 261.795 284.814 261.803 284.799 261.81C284.78 261.823 284.76 261.833 284.739 261.84C284.701 261.863 284.656 261.878 284.611 261.885C284.589 261.9 284.566 261.9 284.544 261.9C284.521 261.9 284.506 261.908 284.484 261.908C284.461 261.908 284.446 261.9 284.431 261.893C284.409 261.893 284.386 261.9 284.364 261.893C283.884 261.78 283.434 261.728 283.006 261.728C279.639 261.728 276.901 264.465 276.901 267.833C276.901 271.2 279.639 273.938 283.006 273.938C286.374 273.938 289.111 271.2 289.111 267.833C289.111 266.528 288.684 265.268 287.874 264.188C287.784 264.068 287.746 263.918 287.767 263.77C287.788 263.623 287.867 263.49 287.986 263.4C288.105 263.311 288.255 263.272 288.403 263.293C288.551 263.314 288.684 263.393 288.774 263.513C289.734 264.788 290.236 266.28 290.236 267.833C290.236 271.815 286.996 275.063 283.006 275.063C279.016 275.063 275.776 271.823 275.776 267.833C275.776 263.843 279.016 260.61 282.999 260.61Z" fill="black"/>
</g>
<rect x="424" y="288" width="90" height="90" rx="45" fill="#FFA74F"/>
<path d="M450 324.247V341.117M459.5 318.623V346.741M469 313V352.364M478.5 318.623V346.741M488 324.247V341.117" stroke="white" stroke-width="5" stroke-linecap="round" stroke-linejoin="round"/>
<defs>
<filter id="filter0_d_591_2084" x="320" y="107" width="158" height="158" filterUnits="userSpaceOnUse" color-interpolation-filters="sRGB">
<feFlood flood-opacity="0" result="BackgroundImageFix"/>
<feColorMatrix in="SourceAlpha" type="matrix" values="0 0 0 0 0 0 0 0 0 0 0 0 0 0 0 0 0 0 127 0" result="hardAlpha"/>
<feOffset dy="2"/>
<feGaussianBlur stdDeviation="2"/>
<feComposite in2="hardAlpha" operator="out"/>
<feColorMatrix type="matrix" values="0 0 0 0 0 0 0 0 0 0 0 0 0 0 0 0 0 0 0.25 0"/>
<feBlend mode="normal" in2="BackgroundImageFix" result="effect1_dropShadow_591_2084"/>
<feBlend mode="normal" in="SourceGraphic" in2="effect1_dropShadow_591_2084" result="shape"/>
</filter>
<filter id="filter1_d_591_2084" x="148" y="75" width="158" height="158" filterUnits="userSpaceOnUse" color-interpolation-filters="sRGB">
<feFlood flood-opacity="0" result="BackgroundImageFix"/>
<feColorMatrix in="SourceAlpha" type="matrix" values="0 0 0 0 0 0 0 0 0 0 0 0 0 0 0 0 0 0 127 0" result="hardAlpha"/>
<feOffset dy="2"/>
<feGaussianBlur stdDeviation="2"/>
<feComposite in2="hardAlpha" operator="out"/>
<feColorMatrix type="matrix" values="0 0 0 0 0 0 0 0 0 0 0 0 0 0 0 0 0 0 0.25 0"/>
<feBlend mode="normal" in2="BackgroundImageFix" result="effect1_dropShadow_591_2084"/>
<feBlend mode="normal" in="SourceGraphic" in2="effect1_dropShadow_591_2084" result="shape"/>
</filter>
<filter id="filter2_d_591_2084" x="87" y="242" width="307" height="52" filterUnits="userSpaceOnUse" color-interpolation-filters="sRGB">
<feFlood flood-opacity="0" result="BackgroundImageFix"/>
<feColorMatrix in="SourceAlpha" type="matrix" values="0 0 0 0 0 0 0 0 0 0 0 0 0 0 0 0 0 0 127 0" result="hardAlpha"/>
<feOffset dx="1" dy="2"/>
<feGaussianBlur stdDeviation="2"/>
<feComposite in2="hardAlpha" operator="out"/>
<feColorMatrix type="matrix" values="0 0 0 0 0 0 0 0 0 0 0 0 0 0 0 0 0 0 0.25 0"/>
<feBlend mode="normal" in2="BackgroundImageFix" result="effect1_dropShadow_591_2084"/>
<feBlend mode="normal" in="SourceGraphic" in2="effect1_dropShadow_591_2084" result="shape"/>
</filter>
<linearGradient id="paint0_linear_591_2084" x1="190.71" y1="-28.3726" x2="289.669" y2="438.615" gradientUnits="userSpaceOnUse">
<stop offset="0.0833333" stop-color="#FFA74F"/>
<stop offset="0.96875" stop-color="#FFA74F" stop-opacity="0.07"/>
</linearGradient>
</defs>
</svg>