<svg width="493" height="251" viewBox="0 0 493 251" fill="none" xmlns="http://www.w3.org/2000/svg">
<rect x="113" width="380" height="251" rx="25" fill="white"/>
<rect x="354" y="121" width="19" height="90" fill="#050038"/>
<rect x="385" y="135" width="19" height="76" fill="#050038"/>
<rect x="416" y="147" width="18" height="64" fill="#050038"/>
<rect x="446" y="110" width="19" height="101" fill="#050038"/>
<rect x="324" y="152" width="18" height="59" fill="#050038"/>
<rect x="293" y="180" width="19" height="31" fill="#050038"/>
<rect y="26" width="404" height="82" rx="20" fill="#F8F8F8"/>
<path d="M94.3475 57V55.425H97.0325C97.5525 55.425 97.9225 55.3225 98.1425 55.1175C98.3625 54.9075 98.4725 54.61 98.4725 54.225V54.045C98.4725 53.65 98.36 53.35 98.135 53.145C97.915 52.94 97.535 52.8375 96.995 52.8375H94.325V51.3675H96.95C97.445 51.3675 97.7975 51.265 98.0075 51.06C98.2175 50.855 98.3225 50.5675 98.3225 50.1975V50.1C98.3225 49.73 98.22 49.4475 98.015 49.2525C97.81 49.0575 97.455 48.96 96.95 48.96H94.31V47.415H97.1525C98.2625 47.415 99.06 47.6125 99.545 48.0075C100.03 48.4025 100.273 48.975 100.273 49.725V49.8525C100.273 50.4225 100.13 50.865 99.845 51.18C99.565 51.495 99.125 51.6825 98.525 51.7425V51.8175C99.2 51.9275 99.69 52.1675 99.995 52.5375C100.305 52.9075 100.46 53.4275 100.46 54.0975V54.345C100.46 55.205 100.205 55.8625 99.695 56.3175C99.19 56.7725 98.3775 57 97.2575 57H94.3475ZM92.9525 57V47.415H94.865V57H92.9525ZM105.048 57.2025C103.908 57.2025 103.043 56.91 102.453 56.325C101.868 55.74 101.575 54.9075 101.575 53.8275V52.83C101.575 51.745 101.868 50.91 102.453 50.325C103.043 49.735 103.908 49.44 105.048 49.44C106.183 49.44 107.043 49.735 107.628 50.325C108.213 50.91 108.505 51.745 108.505 52.83V53.8275C108.505 54.9075 108.213 55.74 107.628 56.325C107.048 56.91 106.188 57.2025 105.048 57.2025ZM105.048 55.665C105.548 55.665 105.928 55.515 106.188 55.215C106.453 54.915 106.585 54.485 106.585 53.925V52.7325C106.585 52.1625 106.453 51.7275 106.188 51.4275C105.928 51.1225 105.548 50.97 105.048 50.97C104.543 50.97 104.158 51.1225 103.893 51.4275C103.633 51.7275 103.503 52.1625 103.503 52.7325V53.925C103.503 54.485 103.633 54.915 103.893 55.215C104.158 55.515 104.543 55.665 105.048 55.665ZM112.719 57.1575C112.094 57.1575 111.594 57.065 111.219 56.88C110.849 56.69 110.582 56.405 110.417 56.025C110.252 55.645 110.169 55.1775 110.169 54.6225V50.3325H112.074V54.3375C112.074 54.7375 112.164 55.0325 112.344 55.2225C112.529 55.4075 112.852 55.5 113.312 55.5C113.582 55.5 113.842 55.4725 114.092 55.4175C114.342 55.3575 114.572 55.28 114.782 55.185L114.617 56.79C114.367 56.905 114.079 56.995 113.754 57.06C113.434 57.125 113.089 57.1575 112.719 57.1575ZM109.104 51.2175V49.7025H114.714L114.549 51.2175H109.104ZM110.192 49.845L110.184 47.895L112.097 47.7L112.022 49.845H110.192ZM120.686 57V52.5825C120.686 52.2725 120.643 52.005 120.558 51.78C120.478 51.555 120.343 51.38 120.153 51.255C119.963 51.13 119.703 51.0675 119.373 51.0675C119.083 51.0675 118.831 51.12 118.616 51.225C118.401 51.33 118.223 51.4725 118.083 51.6525C117.948 51.8275 117.848 52.0275 117.783 52.2525L117.393 51.2025H117.851C117.936 50.8775 118.071 50.585 118.256 50.325C118.441 50.065 118.693 49.86 119.013 49.71C119.333 49.555 119.731 49.4775 120.206 49.4775C120.771 49.4775 121.228 49.585 121.578 49.8C121.928 50.01 122.186 50.325 122.351 50.745C122.521 51.165 122.606 51.685 122.606 52.305V57H120.686ZM115.893 57V47.085H117.806V49.35L117.768 51.6375L117.813 51.78V57H115.893ZM129.39 57H127.41V47.415H129.39V57ZM128.52 55.3425H133.538V57H128.52V55.3425ZM136.427 49.6425V54.0675C136.427 54.3725 136.467 54.64 136.547 54.87C136.632 55.095 136.769 55.27 136.959 55.395C137.154 55.515 137.414 55.575 137.739 55.575C138.034 55.575 138.289 55.5225 138.504 55.4175C138.719 55.3125 138.897 55.1725 139.037 54.9975C139.177 54.8175 139.279 54.6175 139.344 54.3975L139.644 55.44H139.284C139.204 55.76 139.069 56.0525 138.879 56.3175C138.694 56.5775 138.439 56.785 138.114 56.94C137.794 57.095 137.392 57.1725 136.907 57.1725C136.347 57.1725 135.889 57.065 135.534 56.85C135.184 56.635 134.924 56.3175 134.754 55.8975C134.589 55.4775 134.507 54.96 134.507 54.345V49.6425H136.427ZM141.219 49.6425V57H139.307L139.374 55.215L139.299 55.0575V49.6425H141.219ZM147.631 57L145.216 53.76H144.563V52.5075H145.223L147.548 49.6425H149.768L146.783 53.265V52.875L149.881 57H147.631ZM142.906 57V47.085H144.818V57H142.906ZM154.86 57L154.927 55.2L154.875 55.035V52.7325L154.867 52.4025C154.867 51.9225 154.735 51.57 154.47 51.345C154.21 51.12 153.782 51.0075 153.187 51.0075C152.682 51.0075 152.207 51.075 151.762 51.21C151.322 51.34 150.915 51.4925 150.54 51.6675L150.705 50.1375C150.925 50.0225 151.175 49.915 151.455 49.815C151.74 49.71 152.057 49.625 152.407 49.56C152.757 49.495 153.135 49.4625 153.54 49.4625C154.14 49.4625 154.647 49.535 155.062 49.68C155.477 49.82 155.807 50.0225 156.052 50.2875C156.302 50.5525 156.482 50.87 156.592 51.24C156.702 51.605 156.757 52.01 156.757 52.455V57H154.86ZM152.452 57.1725C151.722 57.1725 151.165 56.99 150.78 56.625C150.4 56.26 150.21 55.74 150.21 55.065V54.855C150.21 54.14 150.43 53.6125 150.87 53.2725C151.31 52.9275 152.007 52.69 152.962 52.56L155.047 52.275L155.16 53.5125L153.24 53.79C152.82 53.845 152.52 53.945 152.34 54.09C152.165 54.235 152.077 54.4475 152.077 54.7275V54.8025C152.077 55.0775 152.162 55.2925 152.332 55.4475C152.507 55.5975 152.78 55.6725 153.15 55.6725C153.48 55.6725 153.762 55.62 153.997 55.515C154.232 55.41 154.425 55.2725 154.575 55.1025C154.73 54.9275 154.84 54.7325 154.905 54.5175L155.175 55.47H154.845C154.765 55.785 154.635 56.0725 154.455 56.3325C154.28 56.5875 154.032 56.7925 153.712 56.9475C153.392 57.0975 152.972 57.1725 152.452 57.1725ZM168.483 57C168.393 56.91 168.276 56.7925 168.131 56.6475C167.986 56.5025 167.833 56.35 167.673 56.19C167.513 56.025 167.361 55.8725 167.216 55.7325C167.076 55.5925 166.968 55.485 166.893 55.41L166.631 55.11L163.286 51.9825L162.978 51.645C162.638 51.305 162.388 50.9825 162.228 50.6775C162.068 50.3725 161.988 50.015 161.988 49.605V49.5525C161.988 48.8275 162.228 48.2575 162.708 47.8425C163.193 47.4275 163.918 47.22 164.883 47.22C165.483 47.22 166.001 47.2725 166.436 47.3775C166.871 47.4825 167.238 47.6025 167.538 47.7375L167.718 49.3725C167.383 49.2275 167.006 49.105 166.586 49.005C166.171 48.9 165.741 48.8475 165.296 48.8475C164.836 48.8475 164.508 48.925 164.313 49.08C164.118 49.23 164.021 49.44 164.021 49.71V49.74C164.021 49.955 164.083 50.1575 164.208 50.3475C164.338 50.5375 164.533 50.7575 164.793 51.0075L167.756 53.85L168.221 54.345C168.386 54.51 168.548 54.675 168.708 54.84C168.868 55 169.028 55.16 169.188 55.32C169.348 55.48 169.508 55.6425 169.668 55.8075C169.828 55.9725 169.988 56.1425 170.148 56.3175C170.308 56.4875 170.471 56.6625 170.636 56.8425V57H168.483ZM164.538 57.2025C163.393 57.2025 162.541 56.9425 161.981 56.4225C161.421 55.9025 161.141 55.1725 161.141 54.2325V54.0375C161.141 53.3525 161.281 52.7825 161.561 52.3275C161.841 51.8725 162.303 51.475 162.948 51.135L163.983 52.3425C163.668 52.4925 163.441 52.6875 163.301 52.9275C163.161 53.1675 163.091 53.485 163.091 53.88V54.0525C163.091 54.5575 163.228 54.9425 163.503 55.2075C163.783 55.4725 164.198 55.605 164.748 55.605C165.203 55.605 165.591 55.52 165.911 55.35C166.236 55.175 166.513 54.93 166.743 54.615L167.261 53.9925C167.501 53.5675 167.686 53.1025 167.816 52.5975C167.946 52.0925 168.036 51.5575 168.086 50.9925H169.953C169.863 51.8025 169.703 52.5525 169.473 53.2425C169.243 53.9325 168.918 54.5575 168.498 55.1175L167.913 55.695C167.648 56.01 167.356 56.28 167.036 56.505C166.716 56.73 166.351 56.9025 165.941 57.0225C165.536 57.1425 165.068 57.2025 164.538 57.2025ZM174.367 57L174.682 47.415H177.517L179.317 53.5125H179.415L181.207 47.415H184.035L184.357 57H182.452L182.362 53.55L182.28 49.5675H182.16L180.277 55.8825H178.447L176.557 49.5675H176.437L176.355 53.5575L176.272 57H174.367ZM190.255 57L190.322 55.2L190.27 55.035V52.7325L190.262 52.4025C190.262 51.9225 190.13 51.57 189.865 51.345C189.605 51.12 189.177 51.0075 188.582 51.0075C188.077 51.0075 187.602 51.075 187.157 51.21C186.717 51.34 186.31 51.4925 185.935 51.6675L186.1 50.1375C186.32 50.0225 186.57 49.915 186.85 49.815C187.135 49.71 187.452 49.625 187.802 49.56C188.152 49.495 188.53 49.4625 188.935 49.4625C189.535 49.4625 190.042 49.535 190.457 49.68C190.872 49.82 191.202 50.0225 191.447 50.2875C191.697 50.5525 191.877 50.87 191.987 51.24C192.097 51.605 192.152 52.01 192.152 52.455V57H190.255ZM187.847 57.1725C187.117 57.1725 186.56 56.99 186.175 56.625C185.795 56.26 185.605 55.74 185.605 55.065V54.855C185.605 54.14 185.825 53.6125 186.265 53.2725C186.705 52.9275 187.402 52.69 188.357 52.56L190.442 52.275L190.555 53.5125L188.635 53.79C188.215 53.845 187.915 53.945 187.735 54.09C187.56 54.235 187.472 54.4475 187.472 54.7275V54.8025C187.472 55.0775 187.557 55.2925 187.727 55.4475C187.902 55.5975 188.175 55.6725 188.545 55.6725C188.875 55.6725 189.157 55.62 189.392 55.515C189.627 55.41 189.82 55.2725 189.97 55.1025C190.125 54.9275 190.235 54.7325 190.3 54.5175L190.57 55.47H190.24C190.16 55.785 190.03 56.0725 189.85 56.3325C189.675 56.5875 189.427 56.7925 189.107 56.9475C188.787 57.0975 188.367 57.1725 187.847 57.1725ZM199.314 55.4175V57H193.374V55.5675L196.959 51.2175H193.404V49.6425H199.277V51.075L195.684 55.4175H199.314ZM203.918 57.18C202.658 57.18 201.721 56.89 201.106 56.31C200.491 55.73 200.183 54.89 200.183 53.79V52.83C200.183 51.74 200.471 50.9025 201.046 50.3175C201.621 49.7325 202.456 49.44 203.551 49.44C204.291 49.44 204.908 49.57 205.403 49.83C205.898 50.09 206.268 50.46 206.513 50.94C206.763 51.415 206.888 51.985 206.888 52.65V52.9125C206.888 53.0925 206.878 53.2775 206.858 53.4675C206.843 53.6525 206.821 53.8275 206.791 53.9925H205.051C205.066 53.7175 205.073 53.4575 205.073 53.2125C205.078 52.9625 205.081 52.7375 205.081 52.5375C205.081 52.1925 205.026 51.9 204.916 51.66C204.806 51.415 204.638 51.23 204.413 51.105C204.188 50.98 203.901 50.9175 203.551 50.9175C203.036 50.9175 202.656 51.06 202.411 51.345C202.166 51.63 202.043 52.035 202.043 52.56V53.2425L202.051 53.46V54.0375C202.051 54.2675 202.086 54.48 202.156 54.675C202.231 54.87 202.353 55.04 202.523 55.185C202.693 55.325 202.918 55.435 203.198 55.515C203.483 55.595 203.838 55.635 204.263 55.635C204.723 55.635 205.161 55.585 205.576 55.485C205.996 55.38 206.393 55.24 206.768 55.065L206.603 56.58C206.268 56.765 205.873 56.91 205.418 57.015C204.968 57.125 204.468 57.18 203.918 57.18ZM201.203 53.9925V52.7175H206.401V53.9925H201.203ZM213.035 57V52.5825C213.035 52.2725 212.993 52.005 212.908 51.78C212.828 51.555 212.693 51.38 212.503 51.255C212.313 51.13 212.053 51.0675 211.723 51.0675C211.433 51.0675 211.178 51.12 210.958 51.225C210.743 51.33 210.565 51.4725 210.425 51.6525C210.29 51.8275 210.188 52.0275 210.118 52.2525L209.818 51.2025H210.178C210.258 50.8775 210.39 50.585 210.575 50.325C210.765 50.065 211.02 49.86 211.34 49.71C211.665 49.555 212.07 49.4775 212.555 49.4775C213.12 49.4775 213.578 49.585 213.928 49.8C214.278 50.01 214.535 50.325 214.7 50.745C214.87 51.165 214.955 51.685 214.955 52.305V57H213.035ZM208.243 57V49.6425H210.163L210.088 51.435L210.163 51.5925V57H208.243ZM222.159 57.18C221.569 57.18 221.044 57.1225 220.584 57.0075C220.129 56.8975 219.742 56.7725 219.422 56.6325L219.249 54.9675C219.629 55.1425 220.047 55.295 220.502 55.425C220.962 55.555 221.467 55.62 222.017 55.62C222.497 55.62 222.844 55.56 223.059 55.44C223.274 55.315 223.382 55.13 223.382 54.885V54.84C223.382 54.675 223.332 54.54 223.232 54.435C223.137 54.33 222.967 54.235 222.722 54.15C222.477 54.06 222.132 53.965 221.687 53.865C221.072 53.72 220.584 53.5525 220.224 53.3625C219.869 53.1675 219.614 52.93 219.459 52.65C219.304 52.365 219.227 52.025 219.227 51.63V51.5625C219.227 50.8675 219.474 50.345 219.969 49.995C220.464 49.64 221.197 49.4625 222.167 49.4625C222.742 49.4625 223.249 49.52 223.689 49.635C224.134 49.745 224.504 49.8775 224.799 50.0325L224.972 51.5625C224.622 51.3975 224.229 51.26 223.794 51.15C223.359 51.035 222.892 50.9775 222.392 50.9775C222.067 50.9775 221.809 51.005 221.619 51.06C221.434 51.11 221.302 51.1825 221.222 51.2775C221.142 51.3725 221.102 51.4875 221.102 51.6225V51.66C221.102 51.81 221.144 51.94 221.229 52.05C221.319 52.16 221.482 52.26 221.717 52.35C221.952 52.435 222.282 52.5275 222.707 52.6275C223.327 52.7575 223.824 52.91 224.199 53.085C224.574 53.26 224.847 53.485 225.017 53.76C225.187 54.03 225.272 54.385 225.272 54.825V54.915C225.272 55.675 225.014 56.2425 224.499 56.6175C223.984 56.9925 223.204 57.18 222.159 57.18ZM229.283 57.1575C228.658 57.1575 228.158 57.065 227.783 56.88C227.413 56.69 227.145 56.405 226.98 56.025C226.815 55.645 226.733 55.1775 226.733 54.6225V50.3325H228.638V54.3375C228.638 54.7375 228.728 55.0325 228.908 55.2225C229.093 55.4075 229.415 55.5 229.875 55.5C230.145 55.5 230.405 55.4725 230.655 55.4175C230.905 55.3575 231.135 55.28 231.345 55.185L231.18 56.79C230.93 56.905 230.643 56.995 230.318 57.06C229.998 57.125 229.653 57.1575 229.283 57.1575ZM225.668 51.2175V49.7025H231.278L231.113 51.2175H225.668ZM226.755 49.845L226.748 47.895L228.66 47.7L228.585 49.845H226.755ZM236.776 57L236.843 55.2L236.791 55.035V52.7325L236.783 52.4025C236.783 51.9225 236.651 51.57 236.386 51.345C236.126 51.12 235.698 51.0075 235.103 51.0075C234.598 51.0075 234.123 51.075 233.678 51.21C233.238 51.34 232.831 51.4925 232.456 51.6675L232.621 50.1375C232.841 50.0225 233.091 49.915 233.371 49.815C233.656 49.71 233.973 49.625 234.323 49.56C234.673 49.495 235.051 49.4625 235.456 49.4625C236.056 49.4625 236.563 49.535 236.978 49.68C237.393 49.82 237.723 50.0225 237.968 50.2875C238.218 50.5525 238.398 50.87 238.508 51.24C238.618 51.605 238.673 52.01 238.673 52.455V57H236.776ZM234.368 57.1725C233.638 57.1725 233.081 56.99 232.696 56.625C232.316 56.26 232.126 55.74 232.126 55.065V54.855C232.126 54.14 232.346 53.6125 232.786 53.2725C233.226 52.9275 233.923 52.69 234.878 52.56L236.963 52.275L237.076 53.5125L235.156 53.79C234.736 53.845 234.436 53.945 234.256 54.09C234.081 54.235 233.993 54.4475 233.993 54.7275V54.8025C233.993 55.0775 234.078 55.2925 234.248 55.4475C234.423 55.5975 234.696 55.6725 235.066 55.6725C235.396 55.6725 235.678 55.62 235.913 55.515C236.148 55.41 236.341 55.2725 236.491 55.1025C236.646 54.9275 236.756 54.7325 236.821 54.5175L237.091 55.47H236.761C236.681 55.785 236.551 56.0725 236.371 56.3325C236.196 56.5875 235.948 56.7925 235.628 56.9475C235.308 57.0975 234.888 57.1725 234.368 57.1725ZM242.121 52.725L241.634 51.4425H242.099C242.234 50.8475 242.479 50.38 242.834 50.04C243.189 49.7 243.681 49.53 244.311 49.53C244.441 49.53 244.559 49.54 244.664 49.56C244.769 49.575 244.864 49.595 244.949 49.62L245.054 51.54C244.944 51.505 244.816 51.48 244.671 51.465C244.526 51.445 244.374 51.435 244.214 51.435C243.704 51.435 243.269 51.5475 242.909 51.7725C242.554 51.9975 242.291 52.315 242.121 52.725ZM240.254 57V49.6425H242.084L242.001 51.9L242.174 51.9675V57H240.254ZM249.216 57.1575C248.591 57.1575 248.091 57.065 247.716 56.88C247.346 56.69 247.079 56.405 246.914 56.025C246.749 55.645 246.666 55.1775 246.666 54.6225V50.3325H248.571V54.3375C248.571 54.7375 248.661 55.0325 248.841 55.2225C249.026 55.4075 249.349 55.5 249.809 55.5C250.079 55.5 250.339 55.4725 250.589 55.4175C250.839 55.3575 251.069 55.28 251.279 55.185L251.114 56.79C250.864 56.905 250.576 56.995 250.251 57.06C249.931 57.125 249.586 57.1575 249.216 57.1575ZM245.601 51.2175V49.7025H251.211L251.046 51.2175H245.601ZM246.689 49.845L246.681 47.895L248.594 47.7L248.519 49.845H246.689ZM255.716 57.18C254.456 57.18 253.519 56.89 252.904 56.31C252.289 55.73 251.981 54.89 251.981 53.79V52.83C251.981 51.74 252.269 50.9025 252.844 50.3175C253.419 49.7325 254.254 49.44 255.349 49.44C256.089 49.44 256.706 49.57 257.201 49.83C257.696 50.09 258.066 50.46 258.311 50.94C258.561 51.415 258.686 51.985 258.686 52.65V52.9125C258.686 53.0925 258.676 53.2775 258.656 53.4675C258.641 53.6525 258.619 53.8275 258.589 53.9925H256.849C256.864 53.7175 256.871 53.4575 256.871 53.2125C256.876 52.9625 256.879 52.7375 256.879 52.5375C256.879 52.1925 256.824 51.9 256.714 51.66C256.604 51.415 256.436 51.23 256.211 51.105C255.986 50.98 255.699 50.9175 255.349 50.9175C254.834 50.9175 254.454 51.06 254.209 51.345C253.964 51.63 253.841 52.035 253.841 52.56V53.2425L253.849 53.46V54.0375C253.849 54.2675 253.884 54.48 253.954 54.675C254.029 54.87 254.151 55.04 254.321 55.185C254.491 55.325 254.716 55.435 254.996 55.515C255.281 55.595 255.636 55.635 256.061 55.635C256.521 55.635 256.959 55.585 257.374 55.485C257.794 55.38 258.191 55.24 258.566 55.065L258.401 56.58C258.066 56.765 257.671 56.91 257.216 57.015C256.766 57.125 256.266 57.18 255.716 57.18ZM253.001 53.9925V52.7175H258.199V53.9925H253.001ZM262.44 57.1725C261.575 57.1725 260.918 56.8925 260.468 56.3325C260.018 55.7725 259.793 54.9475 259.793 53.8575V52.845C259.793 51.74 260.02 50.9025 260.475 50.3325C260.93 49.7625 261.608 49.4775 262.508 49.4775C262.948 49.4775 263.318 49.5475 263.618 49.6875C263.923 49.8275 264.168 50.0275 264.353 50.2875C264.543 50.5475 264.675 50.8525 264.75 51.2025H265.313L264.825 52.6275C264.815 52.2825 264.743 51.9925 264.608 51.7575C264.478 51.5175 264.295 51.335 264.06 51.21C263.825 51.085 263.548 51.0225 263.228 51.0225C262.743 51.0225 262.37 51.1625 262.11 51.4425C261.855 51.7225 261.728 52.14 261.728 52.695V53.91C261.728 54.46 261.855 54.875 262.11 55.155C262.37 55.435 262.748 55.575 263.243 55.575C263.523 55.575 263.773 55.5225 263.993 55.4175C264.213 55.3125 264.395 55.17 264.54 54.99C264.69 54.805 264.798 54.5975 264.863 54.3675L265.32 55.44H264.78C264.7 55.76 264.57 56.0525 264.39 56.3175C264.21 56.5775 263.963 56.785 263.648 56.94C263.333 57.095 262.93 57.1725 262.44 57.1725ZM264.795 57L264.863 55.2L264.825 54.7725V51.765L264.833 51.4575L264.795 49.35V47.085H266.715V57H264.795ZM280.542 57V52.53C280.542 52.23 280.504 51.9725 280.429 51.7575C280.354 51.5375 280.229 51.3675 280.054 51.2475C279.884 51.1275 279.652 51.0675 279.357 51.0675C279.087 51.0675 278.852 51.12 278.652 51.225C278.452 51.33 278.289 51.4725 278.164 51.6525C278.039 51.8275 277.947 52.0275 277.887 52.2525L277.677 51.2025H277.872C277.952 50.8875 278.082 50.6 278.262 50.34C278.442 50.075 278.687 49.865 278.997 49.71C279.312 49.555 279.709 49.4775 280.189 49.4775C280.724 49.4775 281.157 49.5825 281.487 49.7925C281.822 49.9975 282.069 50.3075 282.229 50.7225C282.389 51.1325 282.469 51.6425 282.469 52.2525V57H280.542ZM271.474 57V49.6425H273.394L273.319 51.51L273.394 51.5925V57H271.474ZM276.012 57V52.53C276.012 52.23 275.974 51.9725 275.899 51.7575C275.824 51.5375 275.699 51.3675 275.524 51.2475C275.354 51.1275 275.122 51.0675 274.827 51.0675C274.552 51.0675 274.314 51.12 274.114 51.225C273.919 51.33 273.757 51.4725 273.627 51.6525C273.502 51.8275 273.409 52.0275 273.349 52.2525L273.049 51.2025H273.409C273.484 50.8775 273.609 50.585 273.784 50.325C273.964 50.065 274.207 49.86 274.512 49.71C274.817 49.555 275.197 49.4775 275.652 49.4775C276.337 49.4775 276.852 49.6525 277.197 50.0025C277.547 50.3525 277.767 50.8625 277.857 51.5325C277.877 51.6325 277.894 51.75 277.909 51.885C277.924 52.015 277.932 52.1375 277.932 52.2525V57H276.012ZM285.921 49.6425V54.0675C285.921 54.3725 285.961 54.64 286.041 54.87C286.126 55.095 286.263 55.27 286.453 55.395C286.648 55.515 286.908 55.575 287.233 55.575C287.528 55.575 287.783 55.5225 287.998 55.4175C288.213 55.3125 288.391 55.1725 288.531 54.9975C288.671 54.8175 288.773 54.6175 288.838 54.3975L289.138 55.44H288.778C288.698 55.76 288.563 56.0525 288.373 56.3175C288.188 56.5775 287.933 56.785 287.608 56.94C287.288 57.095 286.886 57.1725 286.401 57.1725C285.841 57.1725 285.383 57.065 285.028 56.85C284.678 56.635 284.418 56.3175 284.248 55.8975C284.083 55.4775 284.001 54.96 284.001 54.345V49.6425H285.921ZM290.713 49.6425V57H288.801L288.868 55.215L288.793 55.0575V49.6425H290.713ZM292.415 57V47.085H294.342V57H292.415ZM298.886 57.1575C298.261 57.1575 297.761 57.065 297.386 56.88C297.016 56.69 296.749 56.405 296.584 56.025C296.419 55.645 296.336 55.1775 296.336 54.6225V50.3325H298.241V54.3375C298.241 54.7375 298.331 55.0325 298.511 55.2225C298.696 55.4075 299.019 55.5 299.479 55.5C299.749 55.5 300.009 55.4725 300.259 55.4175C300.509 55.3575 300.739 55.28 300.949 55.185L300.784 56.79C300.534 56.905 300.246 56.995 299.921 57.06C299.601 57.125 299.256 57.1575 298.886 57.1575ZM295.271 51.2175V49.7025H300.881L300.716 51.2175H295.271ZM296.359 49.845L296.351 47.895L298.264 47.7L298.189 49.845H296.359ZM302.076 57V49.6425H303.996V57H302.076ZM303.036 48.7725C302.671 48.7725 302.401 48.6875 302.226 48.5175C302.056 48.3425 301.971 48.1025 301.971 47.7975V47.76C301.971 47.455 302.056 47.215 302.226 47.04C302.401 46.865 302.671 46.7775 303.036 46.7775C303.396 46.7775 303.663 46.865 303.838 47.04C304.013 47.215 304.101 47.455 304.101 47.76V47.7975C304.101 48.1075 304.013 48.3475 303.838 48.5175C303.663 48.6875 303.396 48.7725 303.036 48.7725ZM309.883 57.1725C309.443 57.1725 309.07 57.1025 308.765 56.9625C308.46 56.8175 308.213 56.615 308.023 56.355C307.838 56.095 307.705 55.79 307.625 55.44H307.078L307.565 53.97C307.575 54.32 307.645 54.615 307.775 54.855C307.91 55.095 308.095 55.275 308.33 55.395C308.57 55.515 308.85 55.575 309.17 55.575C309.655 55.575 310.025 55.435 310.28 55.155C310.535 54.87 310.663 54.45 310.663 53.895V52.6875C310.663 52.1375 310.538 51.7225 310.288 51.4425C310.038 51.1625 309.668 51.0225 309.178 51.0225C308.898 51.0225 308.645 51.0775 308.42 51.1875C308.195 51.2925 308.008 51.435 307.858 51.615C307.708 51.795 307.6 52.0025 307.535 52.2375L307.085 51.2025H307.618C307.698 50.8825 307.825 50.5925 308 50.3325C308.18 50.0675 308.428 49.86 308.743 49.71C309.063 49.555 309.465 49.4775 309.95 49.4775C310.815 49.4775 311.473 49.7575 311.923 50.3175C312.373 50.8725 312.598 51.695 312.598 52.785V53.805C312.598 54.905 312.37 55.7425 311.915 56.3175C311.465 56.8875 310.788 57.1725 309.883 57.1725ZM305.683 59.58V49.6425H307.603L307.528 51.51L307.565 51.8475V54.795L307.543 55.14L307.595 57.1575V59.58H305.683ZM314.036 57V47.085H315.964V57H314.036ZM321.116 57.18C319.856 57.18 318.918 56.89 318.303 56.31C317.688 55.73 317.381 54.89 317.381 53.79V52.83C317.381 51.74 317.668 50.9025 318.243 50.3175C318.818 49.7325 319.653 49.44 320.748 49.44C321.488 49.44 322.106 49.57 322.601 49.83C323.096 50.09 323.466 50.46 323.711 50.94C323.961 51.415 324.086 51.985 324.086 52.65V52.9125C324.086 53.0925 324.076 53.2775 324.056 53.4675C324.041 53.6525 324.018 53.8275 323.988 53.9925H322.248C322.263 53.7175 322.271 53.4575 322.271 53.2125C322.276 52.9625 322.278 52.7375 322.278 52.5375C322.278 52.1925 322.223 51.9 322.113 51.66C322.003 51.415 321.836 51.23 321.611 51.105C321.386 50.98 321.098 50.9175 320.748 50.9175C320.233 50.9175 319.853 51.06 319.608 51.345C319.363 51.63 319.241 52.035 319.241 52.56V53.2425L319.248 53.46V54.0375C319.248 54.2675 319.283 54.48 319.353 54.675C319.428 54.87 319.551 55.04 319.721 55.185C319.891 55.325 320.116 55.435 320.396 55.515C320.681 55.595 321.036 55.635 321.461 55.635C321.921 55.635 322.358 55.585 322.773 55.485C323.193 55.38 323.591 55.24 323.966 55.065L323.801 56.58C323.466 56.765 323.071 56.91 322.616 57.015C322.166 57.125 321.666 57.18 321.116 57.18ZM318.401 53.9925V52.7175H323.598V53.9925H318.401ZM96.2975 72.18C95.0375 72.18 94.1 71.89 93.485 71.31C92.87 70.73 92.5625 69.89 92.5625 68.79V67.83C92.5625 66.74 92.85 65.9025 93.425 65.3175C94 64.7325 94.835 64.44 95.93 64.44C96.67 64.44 97.2875 64.57 97.7825 64.83C98.2775 65.09 98.6475 65.46 98.8925 65.94C99.1425 66.415 99.2675 66.985 99.2675 67.65V67.9125C99.2675 68.0925 99.2575 68.2775 99.2375 68.4675C99.2225 68.6525 99.2 68.8275 99.17 68.9925H97.43C97.445 68.7175 97.4525 68.4575 97.4525 68.2125C97.4575 67.9625 97.46 67.7375 97.46 67.5375C97.46 67.1925 97.405 66.9 97.295 66.66C97.185 66.415 97.0175 66.23 96.7925 66.105C96.5675 65.98 96.28 65.9175 95.93 65.9175C95.415 65.9175 95.035 66.06 94.79 66.345C94.545 66.63 94.4225 67.035 94.4225 67.56V68.2425L94.43 68.46V69.0375C94.43 69.2675 94.465 69.48 94.535 69.675C94.61 69.87 94.7325 70.04 94.9025 70.185C95.0725 70.325 95.2975 70.435 95.5775 70.515C95.8625 70.595 96.2175 70.635 96.6425 70.635C97.1025 70.635 97.54 70.585 97.955 70.485C98.375 70.38 98.7725 70.24 99.1475 70.065L98.9825 71.58C98.6475 71.765 98.2525 71.91 97.7975 72.015C97.3475 72.125 96.8475 72.18 96.2975 72.18ZM93.5825 68.9925V67.7175H98.78V68.9925H93.5825ZM103.675 72.1875C102.54 72.1875 101.697 71.8875 101.147 71.2875C100.602 70.6875 100.33 69.845 100.33 68.76V67.86C100.33 66.78 100.605 65.9425 101.155 65.3475C101.705 64.7525 102.545 64.455 103.675 64.455C103.97 64.455 104.245 64.48 104.5 64.53C104.76 64.575 104.995 64.6375 105.205 64.7175C105.42 64.7975 105.607 64.8825 105.767 64.9725L105.925 66.585C105.68 66.43 105.405 66.3 105.1 66.195C104.8 66.09 104.452 66.0375 104.057 66.0375C103.437 66.0375 102.982 66.1975 102.692 66.5175C102.407 66.8325 102.265 67.2925 102.265 67.8975V68.6925C102.265 69.2925 102.412 69.755 102.707 70.08C103.007 70.405 103.467 70.5675 104.087 70.5675C104.482 70.5675 104.832 70.5175 105.137 70.4175C105.442 70.3125 105.727 70.185 105.992 70.035L105.835 71.655C105.59 71.795 105.282 71.9175 104.912 72.0225C104.542 72.1325 104.13 72.1875 103.675 72.1875ZM110.325 72.2025C109.185 72.2025 108.32 71.91 107.73 71.325C107.145 70.74 106.852 69.9075 106.852 68.8275V67.83C106.852 66.745 107.145 65.91 107.73 65.325C108.32 64.735 109.185 64.44 110.325 64.44C111.46 64.44 112.32 64.735 112.905 65.325C113.49 65.91 113.782 66.745 113.782 67.83V68.8275C113.782 69.9075 113.49 70.74 112.905 71.325C112.325 71.91 111.465 72.2025 110.325 72.2025ZM110.325 70.665C110.825 70.665 111.205 70.515 111.465 70.215C111.73 69.915 111.862 69.485 111.862 68.925V67.7325C111.862 67.1625 111.73 66.7275 111.465 66.4275C111.205 66.1225 110.825 65.97 110.325 65.97C109.82 65.97 109.435 66.1225 109.17 66.4275C108.91 66.7275 108.78 67.1625 108.78 67.7325V68.925C108.78 69.485 108.91 69.915 109.17 70.215C109.435 70.515 109.82 70.665 110.325 70.665ZM124.258 72V67.53C124.258 67.23 124.22 66.9725 124.145 66.7575C124.07 66.5375 123.945 66.3675 123.77 66.2475C123.6 66.1275 123.368 66.0675 123.073 66.0675C122.803 66.0675 122.568 66.12 122.368 66.225C122.168 66.33 122.005 66.4725 121.88 66.6525C121.755 66.8275 121.663 67.0275 121.603 67.2525L121.393 66.2025H121.588C121.668 65.8875 121.798 65.6 121.978 65.34C122.158 65.075 122.403 64.865 122.713 64.71C123.028 64.555 123.425 64.4775 123.905 64.4775C124.44 64.4775 124.873 64.5825 125.203 64.7925C125.538 64.9975 125.785 65.3075 125.945 65.7225C126.105 66.1325 126.185 66.6425 126.185 67.2525V72H124.258ZM115.19 72V64.6425H117.11L117.035 66.51L117.11 66.5925V72H115.19ZM119.728 72V67.53C119.728 67.23 119.69 66.9725 119.615 66.7575C119.54 66.5375 119.415 66.3675 119.24 66.2475C119.07 66.1275 118.838 66.0675 118.543 66.0675C118.268 66.0675 118.03 66.12 117.83 66.225C117.635 66.33 117.473 66.4725 117.343 66.6525C117.218 66.8275 117.125 67.0275 117.065 67.2525L116.765 66.2025H117.125C117.2 65.8775 117.325 65.585 117.5 65.325C117.68 65.065 117.923 64.86 118.228 64.71C118.533 64.555 118.913 64.4775 119.368 64.4775C120.053 64.4775 120.568 64.6525 120.913 65.0025C121.263 65.3525 121.483 65.8625 121.573 66.5325C121.593 66.6325 121.61 66.75 121.625 66.885C121.64 67.015 121.648 67.1375 121.648 67.2525V72H119.728ZM136.859 72V67.53C136.859 67.23 136.822 66.9725 136.747 66.7575C136.672 66.5375 136.547 66.3675 136.372 66.2475C136.202 66.1275 135.969 66.0675 135.674 66.0675C135.404 66.0675 135.169 66.12 134.969 66.225C134.769 66.33 134.607 66.4725 134.482 66.6525C134.357 66.8275 134.264 67.0275 134.204 67.2525L133.994 66.2025H134.189C134.269 65.8875 134.399 65.6 134.579 65.34C134.759 65.075 135.004 64.865 135.314 64.71C135.629 64.555 136.027 64.4775 136.507 64.4775C137.042 64.4775 137.474 64.5825 137.804 64.7925C138.139 64.9975 138.387 65.3075 138.547 65.7225C138.707 66.1325 138.787 66.6425 138.787 67.2525V72H136.859ZM127.792 72V64.6425H129.712L129.637 66.51L129.712 66.5925V72H127.792ZM132.329 72V67.53C132.329 67.23 132.292 66.9725 132.217 66.7575C132.142 66.5375 132.017 66.3675 131.842 66.2475C131.672 66.1275 131.439 66.0675 131.144 66.0675C130.869 66.0675 130.632 66.12 130.432 66.225C130.237 66.33 130.074 66.4725 129.944 66.6525C129.819 66.8275 129.727 67.0275 129.667 67.2525L129.367 66.2025H129.727C129.802 65.8775 129.927 65.585 130.102 65.325C130.282 65.065 130.524 64.86 130.829 64.71C131.134 64.555 131.514 64.4775 131.969 64.4775C132.654 64.4775 133.169 64.6525 133.514 65.0025C133.864 65.3525 134.084 65.8625 134.174 66.5325C134.194 66.6325 134.212 66.75 134.227 66.885C134.242 67.015 134.249 67.1375 134.249 67.2525V72H132.329ZM143.851 72.18C142.591 72.18 141.653 71.89 141.038 71.31C140.423 70.73 140.116 69.89 140.116 68.79V67.83C140.116 66.74 140.403 65.9025 140.978 65.3175C141.553 64.7325 142.388 64.44 143.483 64.44C144.223 64.44 144.841 64.57 145.336 64.83C145.831 65.09 146.201 65.46 146.446 65.94C146.696 66.415 146.821 66.985 146.821 67.65V67.9125C146.821 68.0925 146.811 68.2775 146.791 68.4675C146.776 68.6525 146.753 68.8275 146.723 68.9925H144.983C144.998 68.7175 145.006 68.4575 145.006 68.2125C145.011 67.9625 145.013 67.7375 145.013 67.5375C145.013 67.1925 144.958 66.9 144.848 66.66C144.738 66.415 144.571 66.23 144.346 66.105C144.121 65.98 143.833 65.9175 143.483 65.9175C142.968 65.9175 142.588 66.06 142.343 66.345C142.098 66.63 141.976 67.035 141.976 67.56V68.2425L141.983 68.46V69.0375C141.983 69.2675 142.018 69.48 142.088 69.675C142.163 69.87 142.286 70.04 142.456 70.185C142.626 70.325 142.851 70.435 143.131 70.515C143.416 70.595 143.771 70.635 144.196 70.635C144.656 70.635 145.093 70.585 145.508 70.485C145.928 70.38 146.326 70.24 146.701 70.065L146.536 71.58C146.201 71.765 145.806 71.91 145.351 72.015C144.901 72.125 144.401 72.18 143.851 72.18ZM141.136 68.9925V67.7175H146.333V68.9925H141.136ZM150.043 67.725L149.555 66.4425H150.02C150.155 65.8475 150.4 65.38 150.755 65.04C151.11 64.7 151.603 64.53 152.233 64.53C152.363 64.53 152.48 64.54 152.585 64.56C152.69 64.575 152.785 64.595 152.87 64.62L152.975 66.54C152.865 66.505 152.738 66.48 152.593 66.465C152.448 66.445 152.295 66.435 152.135 66.435C151.625 66.435 151.19 66.5475 150.83 66.7725C150.475 66.9975 150.213 67.315 150.043 67.725ZM148.175 72V64.6425H150.005L149.923 66.9L150.095 66.9675V72H148.175ZM156.93 72.1875C155.795 72.1875 154.953 71.8875 154.403 71.2875C153.858 70.6875 153.585 69.845 153.585 68.76V67.86C153.585 66.78 153.86 65.9425 154.41 65.3475C154.96 64.7525 155.8 64.455 156.93 64.455C157.225 64.455 157.5 64.48 157.755 64.53C158.015 64.575 158.25 64.6375 158.46 64.7175C158.675 64.7975 158.863 64.8825 159.023 64.9725L159.18 66.585C158.935 66.43 158.66 66.3 158.355 66.195C158.055 66.09 157.708 66.0375 157.313 66.0375C156.693 66.0375 156.238 66.1975 155.948 66.5175C155.663 66.8325 155.52 67.2925 155.52 67.8975V68.6925C155.52 69.2925 155.668 69.755 155.963 70.08C156.263 70.405 156.723 70.5675 157.343 70.5675C157.738 70.5675 158.088 70.5175 158.393 70.4175C158.698 70.3125 158.983 70.185 159.248 70.035L159.09 71.655C158.845 71.795 158.538 71.9175 158.168 72.0225C157.798 72.1325 157.385 72.1875 156.93 72.1875ZM163.843 72.18C162.583 72.18 161.645 71.89 161.03 71.31C160.415 70.73 160.108 69.89 160.108 68.79V67.83C160.108 66.74 160.395 65.9025 160.97 65.3175C161.545 64.7325 162.38 64.44 163.475 64.44C164.215 64.44 164.833 64.57 165.328 64.83C165.823 65.09 166.193 65.46 166.438 65.94C166.688 66.415 166.813 66.985 166.813 67.65V67.9125C166.813 68.0925 166.803 68.2775 166.783 68.4675C166.768 68.6525 166.745 68.8275 166.715 68.9925H164.975C164.99 68.7175 164.998 68.4575 164.998 68.2125C165.003 67.9625 165.005 67.7375 165.005 67.5375C165.005 67.1925 164.95 66.9 164.84 66.66C164.73 66.415 164.563 66.23 164.338 66.105C164.113 65.98 163.825 65.9175 163.475 65.9175C162.96 65.9175 162.58 66.06 162.335 66.345C162.09 66.63 161.968 67.035 161.968 67.56V68.2425L161.975 68.46V69.0375C161.975 69.2675 162.01 69.48 162.08 69.675C162.155 69.87 162.278 70.04 162.448 70.185C162.618 70.325 162.843 70.435 163.123 70.515C163.408 70.595 163.763 70.635 164.188 70.635C164.648 70.635 165.085 70.585 165.5 70.485C165.92 70.38 166.318 70.24 166.693 70.065L166.528 71.58C166.193 71.765 165.798 71.91 165.343 72.015C164.893 72.125 164.393 72.18 163.843 72.18ZM161.128 68.9925V67.7175H166.325V68.9925H161.128ZM173.632 72.1725C172.767 72.1725 172.11 71.8925 171.66 71.3325C171.21 70.7725 170.985 69.9475 170.985 68.8575V67.845C170.985 66.74 171.212 65.9025 171.667 65.3325C172.122 64.7625 172.8 64.4775 173.7 64.4775C174.14 64.4775 174.51 64.5475 174.81 64.6875C175.115 64.8275 175.36 65.0275 175.545 65.2875C175.735 65.5475 175.867 65.8525 175.942 66.2025H176.505L176.017 67.6275C176.007 67.2825 175.935 66.9925 175.8 66.7575C175.67 66.5175 175.487 66.335 175.252 66.21C175.017 66.085 174.74 66.0225 174.42 66.0225C173.935 66.0225 173.562 66.1625 173.302 66.4425C173.047 66.7225 172.92 67.14 172.92 67.695V68.91C172.92 69.46 173.047 69.875 173.302 70.155C173.562 70.435 173.94 70.575 174.435 70.575C174.715 70.575 174.965 70.5225 175.185 70.4175C175.405 70.3125 175.587 70.17 175.732 69.99C175.882 69.805 175.99 69.5975 176.055 69.3675L176.512 70.44H175.972C175.892 70.76 175.762 71.0525 175.582 71.3175C175.402 71.5775 175.155 71.785 174.84 71.94C174.525 72.095 174.122 72.1725 173.632 72.1725ZM175.987 72L176.055 70.2L176.017 69.7725V66.765L176.025 66.4575L175.987 64.35V62.085H177.907V72H175.987ZM181.454 67.725L180.966 66.4425H181.431C181.566 65.8475 181.811 65.38 182.166 65.04C182.521 64.7 183.014 64.53 183.644 64.53C183.774 64.53 183.891 64.54 183.996 64.56C184.101 64.575 184.196 64.595 184.281 64.62L184.386 66.54C184.276 66.505 184.149 66.48 184.004 66.465C183.859 66.445 183.706 66.435 183.546 66.435C183.036 66.435 182.601 66.5475 182.241 66.7725C181.886 66.9975 181.624 67.315 181.454 67.725ZM179.586 72V64.6425H181.416L181.334 66.9L181.506 66.9675V72H179.586ZM188.468 72.2025C187.328 72.2025 186.463 71.91 185.873 71.325C185.288 70.74 184.996 69.9075 184.996 68.8275V67.83C184.996 66.745 185.288 65.91 185.873 65.325C186.463 64.735 187.328 64.44 188.468 64.44C189.603 64.44 190.463 64.735 191.048 65.325C191.633 65.91 191.926 66.745 191.926 67.83V68.8275C191.926 69.9075 191.633 70.74 191.048 71.325C190.468 71.91 189.608 72.2025 188.468 72.2025ZM188.468 70.665C188.968 70.665 189.348 70.515 189.608 70.215C189.873 69.915 190.006 69.485 190.006 68.925V67.7325C190.006 67.1625 189.873 66.7275 189.608 66.4275C189.348 66.1225 188.968 65.97 188.468 65.97C187.963 65.97 187.578 66.1225 187.313 66.4275C187.053 66.7275 186.923 67.1625 186.923 67.7325V68.925C186.923 69.485 187.053 69.915 187.313 70.215C187.578 70.515 187.963 70.665 188.468 70.665ZM197.534 72.1725C197.094 72.1725 196.721 72.1025 196.416 71.9625C196.111 71.8175 195.864 71.615 195.674 71.355C195.489 71.095 195.356 70.79 195.276 70.44H194.729L195.216 68.97C195.226 69.32 195.296 69.615 195.426 69.855C195.561 70.095 195.746 70.275 195.981 70.395C196.221 70.515 196.501 70.575 196.821 70.575C197.306 70.575 197.676 70.435 197.931 70.155C198.186 69.87 198.314 69.45 198.314 68.895V67.6875C198.314 67.1375 198.189 66.7225 197.939 66.4425C197.689 66.1625 197.319 66.0225 196.829 66.0225C196.549 66.0225 196.296 66.0775 196.071 66.1875C195.846 66.2925 195.659 66.435 195.509 66.615C195.359 66.795 195.251 67.0025 195.186 67.2375L194.736 66.2025H195.269C195.349 65.8825 195.476 65.5925 195.651 65.3325C195.831 65.0675 196.079 64.86 196.394 64.71C196.714 64.555 197.116 64.4775 197.601 64.4775C198.466 64.4775 199.124 64.7575 199.574 65.3175C200.024 65.8725 200.249 66.695 200.249 67.785V68.805C200.249 69.905 200.021 70.7425 199.566 71.3175C199.116 71.8875 198.439 72.1725 197.534 72.1725ZM193.334 74.58V64.6425H195.254L195.179 66.51L195.216 66.8475V69.795L195.194 70.14L195.246 72.1575V74.58H193.334ZM204.2 72.18C203.61 72.18 203.085 72.1225 202.625 72.0075C202.17 71.8975 201.782 71.7725 201.462 71.6325L201.29 69.9675C201.67 70.1425 202.087 70.295 202.542 70.425C203.002 70.555 203.507 70.62 204.057 70.62C204.537 70.62 204.885 70.56 205.1 70.44C205.315 70.315 205.422 70.13 205.422 69.885V69.84C205.422 69.675 205.372 69.54 205.272 69.435C205.177 69.33 205.007 69.235 204.762 69.15C204.517 69.06 204.172 68.965 203.727 68.865C203.112 68.72 202.625 68.5525 202.265 68.3625C201.91 68.1675 201.655 67.93 201.5 67.65C201.345 67.365 201.267 67.025 201.267 66.63V66.5625C201.267 65.8675 201.515 65.345 202.01 64.995C202.505 64.64 203.237 64.4625 204.207 64.4625C204.782 64.4625 205.29 64.52 205.73 64.635C206.175 64.745 206.545 64.8775 206.84 65.0325L207.012 66.5625C206.662 66.3975 206.27 66.26 205.835 66.15C205.4 66.035 204.932 65.9775 204.432 65.9775C204.107 65.9775 203.85 66.005 203.66 66.06C203.475 66.11 203.342 66.1825 203.262 66.2775C203.182 66.3725 203.142 66.4875 203.142 66.6225V66.66C203.142 66.81 203.185 66.94 203.27 67.05C203.36 67.16 203.522 67.26 203.757 67.35C203.992 67.435 204.322 67.5275 204.747 67.6275C205.367 67.7575 205.865 67.91 206.24 68.085C206.615 68.26 206.887 68.485 207.057 68.76C207.227 69.03 207.312 69.385 207.312 69.825V69.915C207.312 70.675 207.055 71.2425 206.54 71.6175C206.025 71.9925 205.245 72.18 204.2 72.18ZM213.339 72V67.5825C213.339 67.2725 213.297 67.005 213.212 66.78C213.132 66.555 212.997 66.38 212.807 66.255C212.617 66.13 212.357 66.0675 212.027 66.0675C211.737 66.0675 211.484 66.12 211.269 66.225C211.054 66.33 210.877 66.4725 210.737 66.6525C210.602 66.8275 210.502 67.0275 210.437 67.2525L210.047 66.2025H210.504C210.589 65.8775 210.724 65.585 210.909 65.325C211.094 65.065 211.347 64.86 211.667 64.71C211.987 64.555 212.384 64.4775 212.859 64.4775C213.424 64.4775 213.882 64.585 214.232 64.8C214.582 65.01 214.839 65.325 215.004 65.745C215.174 66.165 215.259 66.685 215.259 67.305V72H213.339ZM208.547 72V62.085H210.459V64.35L210.422 66.6375L210.467 66.78V72H208.547ZM216.886 72V64.6425H218.806V72H216.886ZM217.846 63.7725C217.481 63.7725 217.211 63.6875 217.036 63.5175C216.866 63.3425 216.781 63.1025 216.781 62.7975V62.76C216.781 62.455 216.866 62.215 217.036 62.04C217.211 61.865 217.481 61.7775 217.846 61.7775C218.206 61.7775 218.473 61.865 218.648 62.04C218.823 62.215 218.911 62.455 218.911 62.76V62.7975C218.911 63.1075 218.823 63.3475 218.648 63.5175C218.473 63.6875 218.206 63.7725 217.846 63.7725ZM224.693 72.1725C224.253 72.1725 223.88 72.1025 223.575 71.9625C223.27 71.8175 223.023 71.615 222.833 71.355C222.648 71.095 222.515 70.79 222.435 70.44H221.888L222.375 68.97C222.385 69.32 222.455 69.615 222.585 69.855C222.72 70.095 222.905 70.275 223.14 70.395C223.38 70.515 223.66 70.575 223.98 70.575C224.465 70.575 224.835 70.435 225.09 70.155C225.345 69.87 225.473 69.45 225.473 68.895V67.6875C225.473 67.1375 225.348 66.7225 225.098 66.4425C224.848 66.1625 224.478 66.0225 223.988 66.0225C223.708 66.0225 223.455 66.0775 223.23 66.1875C223.005 66.2925 222.818 66.435 222.668 66.615C222.518 66.795 222.41 67.0025 222.345 67.2375L221.895 66.2025H222.428C222.508 65.8825 222.635 65.5925 222.81 65.3325C222.99 65.0675 223.238 64.86 223.553 64.71C223.873 64.555 224.275 64.4775 224.76 64.4775C225.625 64.4775 226.283 64.7575 226.733 65.3175C227.183 65.8725 227.408 66.695 227.408 67.785V68.805C227.408 69.905 227.18 70.7425 226.725 71.3175C226.275 71.8875 225.598 72.1725 224.693 72.1725ZM220.493 74.58V64.6425H222.413L222.338 66.51L222.375 66.8475V69.795L222.353 70.14L222.405 72.1575V74.58H220.493ZM233.031 72.1725C232.591 72.1725 232.219 72.1025 231.914 71.9625C231.609 71.8175 231.361 71.615 231.171 71.355C230.986 71.095 230.854 70.79 230.774 70.44H230.226L230.714 68.97C230.724 69.32 230.794 69.615 230.924 69.855C231.059 70.095 231.244 70.275 231.479 70.395C231.719 70.515 231.999 70.575 232.319 70.575C232.804 70.575 233.174 70.435 233.429 70.155C233.684 69.87 233.811 69.45 233.811 68.895V67.6875C233.811 67.1375 233.686 66.7225 233.436 66.4425C233.186 66.1625 232.816 66.0225 232.326 66.0225C232.046 66.0225 231.794 66.0775 231.569 66.1875C231.344 66.2925 231.156 66.435 231.006 66.615C230.856 66.795 230.749 67.0025 230.684 67.2375L230.234 66.2025H230.766C230.846 65.8825 230.974 65.5925 231.149 65.3325C231.329 65.0675 231.576 64.86 231.891 64.71C232.211 64.555 232.614 64.4775 233.099 64.4775C233.964 64.4775 234.621 64.7575 235.071 65.3175C235.521 65.8725 235.746 66.695 235.746 67.785V68.805C235.746 69.905 235.519 70.7425 235.064 71.3175C234.614 71.8875 233.936 72.1725 233.031 72.1725ZM228.831 74.58V64.6425H230.751L230.676 66.51L230.714 66.8475V69.795L230.691 70.14L230.744 72.1575V74.58H228.831ZM237.185 72V64.6425H239.105V72H237.185ZM238.145 63.7725C237.78 63.7725 237.51 63.6875 237.335 63.5175C237.165 63.3425 237.08 63.1025 237.08 62.7975V62.76C237.08 62.455 237.165 62.215 237.335 62.04C237.51 61.865 237.78 61.7775 238.145 61.7775C238.505 61.7775 238.773 61.865 238.948 62.04C239.123 62.215 239.21 62.455 239.21 62.76V62.7975C239.21 63.1075 239.123 63.3475 238.948 63.5175C238.773 63.6875 238.505 63.7725 238.145 63.7725ZM245.585 72V67.5825C245.585 67.2725 245.542 67.005 245.457 66.78C245.377 66.555 245.242 66.38 245.052 66.255C244.862 66.13 244.602 66.0675 244.272 66.0675C243.982 66.0675 243.727 66.12 243.507 66.225C243.292 66.33 243.115 66.4725 242.975 66.6525C242.84 66.8275 242.737 67.0275 242.667 67.2525L242.367 66.2025H242.727C242.807 65.8775 242.94 65.585 243.125 65.325C243.315 65.065 243.57 64.86 243.89 64.71C244.215 64.555 244.62 64.4775 245.105 64.4775C245.67 64.4775 246.127 64.585 246.477 64.8C246.827 65.01 247.085 65.325 247.25 65.745C247.42 66.165 247.505 66.685 247.505 67.305V72H245.585ZM240.792 72V64.6425H242.712L242.637 66.435L242.712 66.5925V72H240.792ZM252.236 69.7425C251.121 69.7425 250.276 69.5225 249.701 69.0825C249.126 68.6375 248.839 68.015 248.839 67.215V67.1025C248.839 66.5725 248.954 66.1225 249.184 65.7525C249.414 65.3775 249.774 65.085 250.264 64.875C250.754 64.665 251.389 64.545 252.169 64.515L256.046 64.3575V65.7675L254.051 65.6925V65.775C254.366 65.84 254.626 65.945 254.831 66.09C255.041 66.23 255.199 66.4125 255.304 66.6375C255.409 66.8575 255.461 67.125 255.461 67.44V67.5075C255.461 68.2325 255.194 68.7875 254.659 69.1725C254.124 69.5525 253.316 69.7425 252.236 69.7425ZM252.146 73.4025H252.356C252.746 73.4025 253.069 73.375 253.324 73.32C253.579 73.27 253.769 73.19 253.894 73.08C254.024 72.975 254.089 72.8375 254.089 72.6675V72.645C254.089 72.435 254.006 72.28 253.841 72.18C253.681 72.085 253.421 72.02 253.061 71.985L250.909 71.775L251.351 71.7525C251.166 71.7875 251.001 71.84 250.856 71.91C250.716 71.975 250.606 72.0625 250.526 72.1725C250.446 72.2825 250.406 72.4175 250.406 72.5775V72.5925C250.406 72.7775 250.471 72.93 250.601 73.05C250.731 73.175 250.926 73.265 251.186 73.32C251.446 73.375 251.766 73.4025 252.146 73.4025ZM252.041 74.85C251.331 74.85 250.724 74.79 250.219 74.67C249.714 74.555 249.326 74.37 249.056 74.115C248.791 73.86 248.659 73.5225 248.659 73.1025V73.0725C248.659 72.7875 248.721 72.5475 248.846 72.3525C248.971 72.1575 249.149 72.0025 249.379 71.8875C249.609 71.7725 249.874 71.7 250.174 71.67V71.595C249.794 71.52 249.506 71.3975 249.311 71.2275C249.121 71.0525 249.026 70.815 249.026 70.515V70.5075C249.026 70.2975 249.074 70.12 249.169 69.975C249.264 69.83 249.404 69.715 249.589 69.63C249.779 69.545 250.011 69.495 250.286 69.48V69.2625L251.914 69.6675L251.389 69.6525C251.159 69.6575 250.999 69.69 250.909 69.75C250.819 69.805 250.774 69.885 250.774 69.99V69.9975C250.774 70.1275 250.844 70.2225 250.984 70.2825C251.124 70.3375 251.356 70.385 251.681 70.425L253.444 70.62C254.269 70.715 254.876 70.9175 255.266 71.2275C255.661 71.5375 255.859 72.015 255.859 72.66V72.6975C255.859 73.1925 255.719 73.5975 255.439 73.9125C255.159 74.2325 254.754 74.4675 254.224 74.6175C253.699 74.7725 253.061 74.85 252.311 74.85H252.041ZM252.184 68.4075C252.519 68.4075 252.796 68.36 253.016 68.265C253.241 68.17 253.409 68.03 253.519 67.845C253.634 67.66 253.691 67.435 253.691 67.17V67.0875C253.691 66.8225 253.636 66.6 253.526 66.42C253.416 66.235 253.251 66.0975 253.031 66.0075C252.811 65.9125 252.534 65.865 252.199 65.865H252.176C251.821 65.865 251.531 65.915 251.306 66.015C251.081 66.11 250.916 66.25 250.811 66.435C250.706 66.615 250.654 66.8325 250.654 67.0875V67.17C250.654 67.435 250.709 67.66 250.819 67.845C250.934 68.03 251.104 68.17 251.329 68.265C251.559 68.36 251.844 68.4075 252.184 68.4075ZM261.101 72L259.511 64.6425H261.476L262.556 70.635H262.691L263.786 64.83H266.261L267.363 70.635H267.491L268.586 64.6425H270.528L268.938 72H266.148L265.248 67.1325L265.083 66.225H264.971L264.806 67.1325L263.898 72H261.101ZM274.939 72.18C273.679 72.18 272.741 71.89 272.126 71.31C271.511 70.73 271.204 69.89 271.204 68.79V67.83C271.204 66.74 271.491 65.9025 272.066 65.3175C272.641 64.7325 273.476 64.44 274.571 64.44C275.311 64.44 275.929 64.57 276.424 64.83C276.919 65.09 277.289 65.46 277.534 65.94C277.784 66.415 277.909 66.985 277.909 67.65V67.9125C277.909 68.0925 277.899 68.2775 277.879 68.4675C277.864 68.6525 277.841 68.8275 277.811 68.9925H276.071C276.086 68.7175 276.094 68.4575 276.094 68.2125C276.099 67.9625 276.101 67.7375 276.101 67.5375C276.101 67.1925 276.046 66.9 275.936 66.66C275.826 66.415 275.659 66.23 275.434 66.105C275.209 65.98 274.921 65.9175 274.571 65.9175C274.056 65.9175 273.676 66.06 273.431 66.345C273.186 66.63 273.064 67.035 273.064 67.56V68.2425L273.071 68.46V69.0375C273.071 69.2675 273.106 69.48 273.176 69.675C273.251 69.87 273.374 70.04 273.544 70.185C273.714 70.325 273.939 70.435 274.219 70.515C274.504 70.595 274.859 70.635 275.284 70.635C275.744 70.635 276.181 70.585 276.596 70.485C277.016 70.38 277.414 70.24 277.789 70.065L277.624 71.58C277.289 71.765 276.894 71.91 276.439 72.015C275.989 72.125 275.489 72.18 274.939 72.18ZM272.224 68.9925V67.7175H277.421V68.9925H272.224ZM283.463 72.1725C283.023 72.1725 282.648 72.1025 282.338 71.9625C282.033 71.8175 281.786 71.615 281.596 71.355C281.411 71.095 281.278 70.79 281.198 70.44H280.651L281.146 68.97C281.161 69.32 281.236 69.615 281.371 69.855C281.506 70.095 281.693 70.275 281.933 70.395C282.173 70.515 282.451 70.575 282.766 70.575C283.251 70.575 283.618 70.435 283.868 70.155C284.118 69.87 284.243 69.445 284.243 68.88V67.6875C284.243 67.1375 284.118 66.7225 283.868 66.4425C283.618 66.1625 283.251 66.0225 282.766 66.0225C282.481 66.0225 282.226 66.0775 282.001 66.1875C281.776 66.2925 281.588 66.435 281.438 66.615C281.288 66.795 281.181 67.0025 281.116 67.2375L280.681 66.2025H281.221C281.301 65.8825 281.428 65.5925 281.603 65.3325C281.778 65.0675 282.021 64.86 282.331 64.71C282.646 64.555 283.046 64.4775 283.531 64.4775C284.396 64.4775 285.053 64.7575 285.503 65.3175C285.953 65.8725 286.178 66.695 286.178 67.785V68.805C286.178 69.905 285.951 70.7425 285.496 71.3175C285.041 71.8875 284.363 72.1725 283.463 72.1725ZM279.263 72V62.085H281.176V64.35L281.138 66.5925L281.146 66.825V69.7425L281.116 70.2L281.183 72H279.263ZM290.129 72.18C289.539 72.18 289.014 72.1225 288.554 72.0075C288.099 71.8975 287.712 71.7725 287.392 71.6325L287.219 69.9675C287.599 70.1425 288.017 70.295 288.472 70.425C288.932 70.555 289.437 70.62 289.987 70.62C290.467 70.62 290.814 70.56 291.029 70.44C291.244 70.315 291.352 70.13 291.352 69.885V69.84C291.352 69.675 291.302 69.54 291.202 69.435C291.107 69.33 290.937 69.235 290.692 69.15C290.447 69.06 290.102 68.965 289.657 68.865C289.042 68.72 288.554 68.5525 288.194 68.3625C287.839 68.1675 287.584 67.93 287.429 67.65C287.274 67.365 287.197 67.025 287.197 66.63V66.5625C287.197 65.8675 287.444 65.345 287.939 64.995C288.434 64.64 289.167 64.4625 290.137 64.4625C290.712 64.4625 291.219 64.52 291.659 64.635C292.104 64.745 292.474 64.8775 292.769 65.0325L292.942 66.5625C292.592 66.3975 292.199 66.26 291.764 66.15C291.329 66.035 290.862 65.9775 290.362 65.9775C290.037 65.9775 289.779 66.005 289.589 66.06C289.404 66.11 289.272 66.1825 289.192 66.2775C289.112 66.3725 289.072 66.4875 289.072 66.6225V66.66C289.072 66.81 289.114 66.94 289.199 67.05C289.289 67.16 289.452 67.26 289.687 67.35C289.922 67.435 290.252 67.5275 290.677 67.6275C291.297 67.7575 291.794 67.91 292.169 68.085C292.544 68.26 292.817 68.485 292.987 68.76C293.157 69.03 293.242 69.385 293.242 69.825V69.915C293.242 70.675 292.984 71.2425 292.469 71.6175C291.954 71.9925 291.174 72.18 290.129 72.18ZM294.476 72V64.6425H296.396V72H294.476ZM295.436 63.7725C295.071 63.7725 294.801 63.6875 294.626 63.5175C294.456 63.3425 294.371 63.1025 294.371 62.7975V62.76C294.371 62.455 294.456 62.215 294.626 62.04C294.801 61.865 295.071 61.7775 295.436 61.7775C295.796 61.7775 296.064 61.865 296.239 62.04C296.414 62.215 296.501 62.455 296.501 62.76V62.7975C296.501 63.1075 296.414 63.3475 296.239 63.5175C296.064 63.6875 295.796 63.7725 295.436 63.7725ZM300.933 72.1575C300.308 72.1575 299.808 72.065 299.433 71.88C299.063 71.69 298.796 71.405 298.631 71.025C298.466 70.645 298.383 70.1775 298.383 69.6225V65.3325H300.288V69.3375C300.288 69.7375 300.378 70.0325 300.558 70.2225C300.743 70.4075 301.066 70.5 301.526 70.5C301.796 70.5 302.056 70.4725 302.306 70.4175C302.556 70.3575 302.786 70.28 302.996 70.185L302.831 71.79C302.581 71.905 302.293 71.995 301.968 72.06C301.648 72.125 301.303 72.1575 300.933 72.1575ZM297.318 66.2175V64.7025H302.928L302.763 66.2175H297.318ZM298.406 64.845L298.398 62.895L300.311 62.7L300.236 64.845H298.406ZM307.433 72.18C306.173 72.18 305.236 71.89 304.621 71.31C304.006 70.73 303.698 69.89 303.698 68.79V67.83C303.698 66.74 303.986 65.9025 304.561 65.3175C305.136 64.7325 305.971 64.44 307.066 64.44C307.806 64.44 308.423 64.57 308.918 64.83C309.413 65.09 309.783 65.46 310.028 65.94C310.278 66.415 310.403 66.985 310.403 67.65V67.9125C310.403 68.0925 310.393 68.2775 310.373 68.4675C310.358 68.6525 310.336 68.8275 310.306 68.9925H308.566C308.581 68.7175 308.588 68.4575 308.588 68.2125C308.593 67.9625 308.596 67.7375 308.596 67.5375C308.596 67.1925 308.541 66.9 308.431 66.66C308.321 66.415 308.153 66.23 307.928 66.105C307.703 65.98 307.416 65.9175 307.066 65.9175C306.551 65.9175 306.171 66.06 305.926 66.345C305.681 66.63 305.558 67.035 305.558 67.56V68.2425L305.566 68.46V69.0375C305.566 69.2675 305.601 69.48 305.671 69.675C305.746 69.87 305.868 70.04 306.038 70.185C306.208 70.325 306.433 70.435 306.713 70.515C306.998 70.595 307.353 70.635 307.778 70.635C308.238 70.635 308.676 70.585 309.091 70.485C309.511 70.38 309.908 70.24 310.283 70.065L310.118 71.58C309.783 71.765 309.388 71.91 308.933 72.015C308.483 72.125 307.983 72.18 307.433 72.18ZM304.718 68.9925V67.7175H309.916V68.9925H304.718ZM314.314 72.18C313.724 72.18 313.199 72.1225 312.739 72.0075C312.284 71.8975 311.897 71.7725 311.577 71.6325L311.404 69.9675C311.784 70.1425 312.202 70.295 312.657 70.425C313.117 70.555 313.622 70.62 314.172 70.62C314.652 70.62 314.999 70.56 315.214 70.44C315.429 70.315 315.537 70.13 315.537 69.885V69.84C315.537 69.675 315.487 69.54 315.387 69.435C315.292 69.33 315.122 69.235 314.877 69.15C314.632 69.06 314.287 68.965 313.842 68.865C313.227 68.72 312.739 68.5525 312.379 68.3625C312.024 68.1675 311.769 67.93 311.614 67.65C311.459 67.365 311.382 67.025 311.382 66.63V66.5625C311.382 65.8675 311.629 65.345 312.124 64.995C312.619 64.64 313.352 64.4625 314.322 64.4625C314.897 64.4625 315.404 64.52 315.844 64.635C316.289 64.745 316.659 64.8775 316.954 65.0325L317.127 66.5625C316.777 66.3975 316.384 66.26 315.949 66.15C315.514 66.035 315.047 65.9775 314.547 65.9775C314.222 65.9775 313.964 66.005 313.774 66.06C313.589 66.11 313.457 66.1825 313.377 66.2775C313.297 66.3725 313.257 66.4875 313.257 66.6225V66.66C313.257 66.81 313.299 66.94 313.384 67.05C313.474 67.16 313.637 67.26 313.872 67.35C314.107 67.435 314.437 67.5275 314.862 67.6275C315.482 67.7575 315.979 67.91 316.354 68.085C316.729 68.26 317.002 68.485 317.172 68.76C317.342 69.03 317.427 69.385 317.427 69.825V69.915C317.427 70.675 317.169 71.2425 316.654 71.6175C316.139 71.9925 315.359 72.18 314.314 72.18ZM320.517 69.6975C320.532 69.8075 320.547 69.94 320.562 70.095C320.582 70.245 320.592 70.4075 320.592 70.5825C320.592 71.2125 320.497 71.795 320.307 72.33C320.122 72.865 319.815 73.38 319.385 73.875L318.057 73.5375C318.292 73.1225 318.467 72.6825 318.582 72.2175C318.702 71.7525 318.762 71.2325 318.762 70.6575C318.762 70.4875 318.757 70.3275 318.747 70.1775C318.742 70.0225 318.732 69.8625 318.717 69.6975H320.517ZM334.226 72V67.53C334.226 67.23 334.188 66.9725 334.113 66.7575C334.038 66.5375 333.913 66.3675 333.738 66.2475C333.568 66.1275 333.336 66.0675 333.041 66.0675C332.771 66.0675 332.536 66.12 332.336 66.225C332.136 66.33 331.973 66.4725 331.848 66.6525C331.723 66.8275 331.631 67.0275 331.571 67.2525L331.361 66.2025H331.556C331.636 65.8875 331.766 65.6 331.946 65.34C332.126 65.075 332.371 64.865 332.681 64.71C332.996 64.555 333.393 64.4775 333.873 64.4775C334.408 64.4775 334.841 64.5825 335.171 64.7925C335.506 64.9975 335.753 65.3075 335.913 65.7225C336.073 66.1325 336.153 66.6425 336.153 67.2525V72H334.226ZM325.158 72V64.6425H327.078L327.003 66.51L327.078 66.5925V72H325.158ZM329.696 72V67.53C329.696 67.23 329.658 66.9725 329.583 66.7575C329.508 66.5375 329.383 66.3675 329.208 66.2475C329.038 66.1275 328.806 66.0675 328.511 66.0675C328.236 66.0675 327.998 66.12 327.798 66.225C327.603 66.33 327.441 66.4725 327.311 66.6525C327.186 66.8275 327.093 67.0275 327.033 67.2525L326.733 66.2025H327.093C327.168 65.8775 327.293 65.585 327.468 65.325C327.648 65.065 327.891 64.86 328.196 64.71C328.501 64.555 328.881 64.4775 329.336 64.4775C330.021 64.4775 330.536 64.6525 330.881 65.0025C331.231 65.3525 331.451 65.8625 331.541 66.5325C331.561 66.6325 331.578 66.75 331.593 66.885C331.608 67.015 331.616 67.1375 331.616 67.2525V72H329.696ZM342.02 72L342.087 70.2L342.035 70.035V67.7325L342.027 67.4025C342.027 66.9225 341.895 66.57 341.63 66.345C341.37 66.12 340.942 66.0075 340.347 66.0075C339.842 66.0075 339.367 66.075 338.922 66.21C338.482 66.34 338.075 66.4925 337.7 66.6675L337.865 65.1375C338.085 65.0225 338.335 64.915 338.615 64.815C338.9 64.71 339.217 64.625 339.567 64.56C339.917 64.495 340.295 64.4625 340.7 64.4625C341.3 64.4625 341.807 64.535 342.222 64.68C342.637 64.82 342.967 65.0225 343.212 65.2875C343.462 65.5525 343.642 65.87 343.752 66.24C343.862 66.605 343.917 67.01 343.917 67.455V72H342.02ZM339.612 72.1725C338.882 72.1725 338.325 71.99 337.94 71.625C337.56 71.26 337.37 70.74 337.37 70.065V69.855C337.37 69.14 337.59 68.6125 338.03 68.2725C338.47 67.9275 339.167 67.69 340.122 67.56L342.207 67.275L342.32 68.5125L340.4 68.79C339.98 68.845 339.68 68.945 339.5 69.09C339.325 69.235 339.237 69.4475 339.237 69.7275V69.8025C339.237 70.0775 339.322 70.2925 339.492 70.4475C339.667 70.5975 339.94 70.6725 340.31 70.6725C340.64 70.6725 340.922 70.62 341.157 70.515C341.392 70.41 341.585 70.2725 341.735 70.1025C341.89 69.9275 342 69.7325 342.065 69.5175L342.335 70.47H342.005C341.925 70.785 341.795 71.0725 341.615 71.3325C341.44 71.5875 341.192 71.7925 340.872 71.9475C340.552 72.0975 340.132 72.1725 339.612 72.1725ZM350.29 72V67.5825C350.29 67.2725 350.248 67.005 350.163 66.78C350.083 66.555 349.948 66.38 349.758 66.255C349.568 66.13 349.308 66.0675 348.978 66.0675C348.688 66.0675 348.433 66.12 348.213 66.225C347.998 66.33 347.82 66.4725 347.68 66.6525C347.545 66.8275 347.443 67.0275 347.373 67.2525L347.073 66.2025H347.433C347.513 65.8775 347.645 65.585 347.83 65.325C348.02 65.065 348.275 64.86 348.595 64.71C348.92 64.555 349.325 64.4775 349.81 64.4775C350.375 64.4775 350.833 64.585 351.183 64.8C351.533 65.01 351.79 65.325 351.955 65.745C352.125 66.165 352.21 66.685 352.21 67.305V72H350.29ZM345.498 72V64.6425H347.418L347.343 66.435L347.418 66.5925V72H345.498ZM357.517 70.41L356.489 70.8525L358.327 64.6425H360.299L357.142 74.58H355.214L356.369 70.965L357.262 71.685H355.117L352.979 64.6425H354.967L356.489 70.41H357.517ZM95.69 87.1575C95.065 87.1575 94.565 87.065 94.19 86.88C93.82 86.69 93.5525 86.405 93.3875 86.025C93.2225 85.645 93.14 85.1775 93.14 84.6225V80.3325H95.045V84.3375C95.045 84.7375 95.135 85.0325 95.315 85.2225C95.5 85.4075 95.8225 85.5 96.2825 85.5C96.5525 85.5 96.8125 85.4725 97.0625 85.4175C97.3125 85.3575 97.5425 85.28 97.7525 85.185L97.5875 86.79C97.3375 86.905 97.05 86.995 96.725 87.06C96.405 87.125 96.06 87.1575 95.69 87.1575ZM92.075 81.2175V79.7025H97.685L97.52 81.2175H92.075ZM93.1625 79.845L93.155 77.895L95.0675 77.7L94.9925 79.845H93.1625ZM103.657 87V82.5825C103.657 82.2725 103.614 82.005 103.529 81.78C103.449 81.555 103.314 81.38 103.124 81.255C102.934 81.13 102.674 81.0675 102.344 81.0675C102.054 81.0675 101.802 81.12 101.587 81.225C101.372 81.33 101.194 81.4725 101.054 81.6525C100.919 81.8275 100.819 82.0275 100.754 82.2525L100.364 81.2025H100.822C100.907 80.8775 101.042 80.585 101.227 80.325C101.412 80.065 101.664 79.86 101.984 79.71C102.304 79.555 102.702 79.4775 103.177 79.4775C103.742 79.4775 104.199 79.585 104.549 79.8C104.899 80.01 105.157 80.325 105.322 80.745C105.492 81.165 105.577 81.685 105.577 82.305V87H103.657ZM98.8643 87V77.085H100.777V79.35L100.739 81.6375L100.784 81.78V87H98.8643ZM111.448 87L111.516 85.2L111.463 85.035V82.7325L111.456 82.4025C111.456 81.9225 111.323 81.57 111.058 81.345C110.798 81.12 110.371 81.0075 109.776 81.0075C109.271 81.0075 108.796 81.075 108.351 81.21C107.911 81.34 107.503 81.4925 107.128 81.6675L107.293 80.1375C107.513 80.0225 107.763 79.915 108.043 79.815C108.328 79.71 108.646 79.625 108.996 79.56C109.346 79.495 109.723 79.4625 110.128 79.4625C110.728 79.4625 111.236 79.535 111.651 79.68C112.066 79.82 112.396 80.0225 112.641 80.2875C112.891 80.5525 113.071 80.87 113.181 81.24C113.291 81.605 113.346 82.01 113.346 82.455V87H111.448ZM109.041 87.1725C108.311 87.1725 107.753 86.99 107.368 86.625C106.988 86.26 106.798 85.74 106.798 85.065V84.855C106.798 84.14 107.018 83.6125 107.458 83.2725C107.898 82.9275 108.596 82.69 109.551 82.56L111.636 82.275L111.748 83.5125L109.828 83.79C109.408 83.845 109.108 83.945 108.928 84.09C108.753 84.235 108.666 84.4475 108.666 84.7275V84.8025C108.666 85.0775 108.751 85.2925 108.921 85.4475C109.096 85.5975 109.368 85.6725 109.738 85.6725C110.068 85.6725 110.351 85.62 110.586 85.515C110.821 85.41 111.013 85.2725 111.163 85.1025C111.318 84.9275 111.428 84.7325 111.493 84.5175L111.763 85.47H111.433C111.353 85.785 111.223 86.0725 111.043 86.3325C110.868 86.5875 110.621 86.7925 110.301 86.9475C109.981 87.0975 109.561 87.1725 109.041 87.1725ZM117.703 87.1575C117.078 87.1575 116.578 87.065 116.203 86.88C115.833 86.69 115.566 86.405 115.401 86.025C115.236 85.645 115.153 85.1775 115.153 84.6225V80.3325H117.058V84.3375C117.058 84.7375 117.148 85.0325 117.328 85.2225C117.513 85.4075 117.836 85.5 118.296 85.5C118.566 85.5 118.826 85.4725 119.076 85.4175C119.326 85.3575 119.556 85.28 119.766 85.185L119.601 86.79C119.351 86.905 119.063 86.995 118.738 87.06C118.418 87.125 118.073 87.1575 117.703 87.1575ZM114.088 81.2175V79.7025H119.698L119.533 81.2175H114.088ZM115.176 79.845L115.168 77.895L117.081 77.7L117.006 79.845H115.176ZM126.545 76.8525C126.935 76.8525 127.295 76.885 127.625 76.95C127.955 77.015 128.248 77.095 128.503 77.19L128.675 78.63C128.46 78.565 128.235 78.5125 128 78.4725C127.77 78.4275 127.515 78.405 127.235 78.405C126.9 78.405 126.635 78.4425 126.44 78.5175C126.25 78.5925 126.115 78.7 126.035 78.84C125.955 78.98 125.915 79.145 125.915 79.335V79.3575C125.915 79.4925 125.935 79.62 125.975 79.74C126.015 79.86 126.063 79.9675 126.118 80.0625L124.865 80.1075V79.905C124.635 79.795 124.44 79.6325 124.28 79.4175C124.12 79.2025 124.04 78.935 124.04 78.615V78.5775C124.04 78.0475 124.243 77.6275 124.648 77.3175C125.058 77.0075 125.69 76.8525 126.545 76.8525ZM124.295 87V80.505H126.208V87H124.295ZM123.23 81.48V79.9575L125.09 79.9725L125.84 79.9575H128.66L128.495 81.48H123.23ZM133.671 87L133.738 85.2L133.686 85.035V82.7325L133.678 82.4025C133.678 81.9225 133.546 81.57 133.281 81.345C133.021 81.12 132.593 81.0075 131.998 81.0075C131.493 81.0075 131.018 81.075 130.573 81.21C130.133 81.34 129.726 81.4925 129.351 81.6675L129.516 80.1375C129.736 80.0225 129.986 79.915 130.266 79.815C130.551 79.71 130.868 79.625 131.218 79.56C131.568 79.495 131.946 79.4625 132.351 79.4625C132.951 79.4625 133.458 79.535 133.873 79.68C134.288 79.82 134.618 80.0225 134.863 80.2875C135.113 80.5525 135.293 80.87 135.403 81.24C135.513 81.605 135.568 82.01 135.568 82.455V87H133.671ZM131.263 87.1725C130.533 87.1725 129.976 86.99 129.591 86.625C129.211 86.26 129.021 85.74 129.021 85.065V84.855C129.021 84.14 129.241 83.6125 129.681 83.2725C130.121 82.9275 130.818 82.69 131.773 82.56L133.858 82.275L133.971 83.5125L132.051 83.79C131.631 83.845 131.331 83.945 131.151 84.09C130.976 84.235 130.888 84.4475 130.888 84.7275V84.8025C130.888 85.0775 130.973 85.2925 131.143 85.4475C131.318 85.5975 131.591 85.6725 131.961 85.6725C132.291 85.6725 132.573 85.62 132.808 85.515C133.043 85.41 133.236 85.2725 133.386 85.1025C133.541 84.9275 133.651 84.7325 133.716 84.5175L133.986 85.47H133.656C133.576 85.785 133.446 86.0725 133.266 86.3325C133.091 86.5875 132.843 86.7925 132.523 86.9475C132.203 87.0975 131.783 87.1725 131.263 87.1725ZM137.164 87V79.6425H139.084V87H137.164ZM138.124 78.7725C137.759 78.7725 137.489 78.6875 137.314 78.5175C137.144 78.3425 137.059 78.1025 137.059 77.7975V77.76C137.059 77.455 137.144 77.215 137.314 77.04C137.489 76.865 137.759 76.7775 138.124 76.7775C138.484 76.7775 138.751 76.865 138.926 77.04C139.101 77.215 139.189 77.455 139.189 77.76V77.7975C139.189 78.1075 139.101 78.3475 138.926 78.5175C138.751 78.6875 138.484 78.7725 138.124 78.7725ZM140.801 87V77.085H142.728V87H140.801ZM147.88 87.18C146.62 87.18 145.682 86.89 145.067 86.31C144.452 85.73 144.145 84.89 144.145 83.79V82.83C144.145 81.74 144.432 80.9025 145.007 80.3175C145.582 79.7325 146.417 79.44 147.512 79.44C148.252 79.44 148.87 79.57 149.365 79.83C149.86 80.09 150.23 80.46 150.475 80.94C150.725 81.415 150.85 81.985 150.85 82.65V82.9125C150.85 83.0925 150.84 83.2775 150.82 83.4675C150.805 83.6525 150.782 83.8275 150.752 83.9925H149.012C149.027 83.7175 149.035 83.4575 149.035 83.2125C149.04 82.9625 149.042 82.7375 149.042 82.5375C149.042 82.1925 148.987 81.9 148.877 81.66C148.767 81.415 148.6 81.23 148.375 81.105C148.15 80.98 147.862 80.9175 147.512 80.9175C146.997 80.9175 146.617 81.06 146.372 81.345C146.127 81.63 146.005 82.035 146.005 82.56V83.2425L146.012 83.46V84.0375C146.012 84.2675 146.047 84.48 146.117 84.675C146.192 84.87 146.315 85.04 146.485 85.185C146.655 85.325 146.88 85.435 147.16 85.515C147.445 85.595 147.8 85.635 148.225 85.635C148.685 85.635 149.122 85.585 149.537 85.485C149.957 85.38 150.355 85.24 150.73 85.065L150.565 86.58C150.23 86.765 149.835 86.91 149.38 87.015C148.93 87.125 148.43 87.18 147.88 87.18ZM145.165 83.9925V82.7175H150.362V83.9925H145.165ZM154.604 87.1725C153.739 87.1725 153.081 86.8925 152.631 86.3325C152.181 85.7725 151.956 84.9475 151.956 83.8575V82.845C151.956 81.74 152.184 80.9025 152.639 80.3325C153.094 79.7625 153.771 79.4775 154.671 79.4775C155.111 79.4775 155.481 79.5475 155.781 79.6875C156.086 79.8275 156.331 80.0275 156.516 80.2875C156.706 80.5475 156.839 80.8525 156.914 81.2025H157.476L156.989 82.6275C156.979 82.2825 156.906 81.9925 156.771 81.7575C156.641 81.5175 156.459 81.335 156.224 81.21C155.989 81.085 155.711 81.0225 155.391 81.0225C154.906 81.0225 154.534 81.1625 154.274 81.4425C154.019 81.7225 153.891 82.14 153.891 82.695V83.91C153.891 84.46 154.019 84.875 154.274 85.155C154.534 85.435 154.911 85.575 155.406 85.575C155.686 85.575 155.936 85.5225 156.156 85.4175C156.376 85.3125 156.559 85.17 156.704 84.99C156.854 84.805 156.961 84.5975 157.026 84.3675L157.484 85.44H156.944C156.864 85.76 156.734 86.0525 156.554 86.3175C156.374 86.5775 156.126 86.785 155.811 86.94C155.496 87.095 155.094 87.1725 154.604 87.1725ZM156.959 87L157.026 85.2L156.989 84.7725V81.765L156.996 81.4575L156.959 79.35V77.085H158.879V87H156.959ZM167.838 87.1725C167.398 87.1725 167.023 87.1025 166.713 86.9625C166.408 86.8175 166.16 86.615 165.97 86.355C165.785 86.095 165.653 85.79 165.573 85.44H165.025L165.52 83.97C165.535 84.32 165.61 84.615 165.745 84.855C165.88 85.095 166.068 85.275 166.308 85.395C166.548 85.515 166.825 85.575 167.14 85.575C167.625 85.575 167.993 85.435 168.243 85.155C168.493 84.87 168.618 84.445 168.618 83.88V82.6875C168.618 82.1375 168.493 81.7225 168.243 81.4425C167.993 81.1625 167.625 81.0225 167.14 81.0225C166.855 81.0225 166.6 81.0775 166.375 81.1875C166.15 81.2925 165.963 81.435 165.813 81.615C165.663 81.795 165.555 82.0025 165.49 82.2375L165.055 81.2025H165.595C165.675 80.8825 165.803 80.5925 165.978 80.3325C166.153 80.0675 166.395 79.86 166.705 79.71C167.02 79.555 167.42 79.4775 167.905 79.4775C168.77 79.4775 169.428 79.7575 169.878 80.3175C170.328 80.8725 170.553 81.695 170.553 82.785V83.805C170.553 84.905 170.325 85.7425 169.87 86.3175C169.415 86.8875 168.738 87.1725 167.838 87.1725ZM163.638 87V77.085H165.55V79.35L165.513 81.5925L165.52 81.825V84.7425L165.49 85.2L165.558 87H163.638ZM173.821 79.6425V84.0675C173.821 84.3725 173.861 84.64 173.941 84.87C174.026 85.095 174.164 85.27 174.354 85.395C174.549 85.515 174.809 85.575 175.134 85.575C175.429 85.575 175.684 85.5225 175.899 85.4175C176.114 85.3125 176.291 85.1725 176.431 84.9975C176.571 84.8175 176.674 84.6175 176.739 84.3975L177.039 85.44H176.679C176.599 85.76 176.464 86.0525 176.274 86.3175C176.089 86.5775 175.834 86.785 175.509 86.94C175.189 87.095 174.786 87.1725 174.301 87.1725C173.741 87.1725 173.284 87.065 172.929 86.85C172.579 86.635 172.319 86.3175 172.149 85.8975C171.984 85.4775 171.901 84.96 171.901 84.345V79.6425H173.821ZM178.614 79.6425V87H176.701L176.769 85.215L176.694 85.0575V79.6425H178.614ZM183.195 87.1575C182.57 87.1575 182.07 87.065 181.695 86.88C181.325 86.69 181.057 86.405 180.892 86.025C180.727 85.645 180.645 85.1775 180.645 84.6225V80.3325H182.55V84.3375C182.55 84.7375 182.64 85.0325 182.82 85.2225C183.005 85.4075 183.327 85.5 183.787 85.5C184.057 85.5 184.317 85.4725 184.567 85.4175C184.817 85.3575 185.047 85.28 185.257 85.185L185.092 86.79C184.842 86.905 184.555 86.995 184.23 87.06C183.91 87.125 183.565 87.1575 183.195 87.1575ZM179.58 81.2175V79.7025H185.19L185.025 81.2175H179.58ZM180.667 79.845L180.66 77.895L182.572 77.7L182.497 79.845H180.667ZM193.709 87L193.776 85.2L193.724 85.035V82.7325L193.716 82.4025C193.716 81.9225 193.584 81.57 193.319 81.345C193.059 81.12 192.631 81.0075 192.036 81.0075C191.531 81.0075 191.056 81.075 190.611 81.21C190.171 81.34 189.764 81.4925 189.389 81.6675L189.554 80.1375C189.774 80.0225 190.024 79.915 190.304 79.815C190.589 79.71 190.906 79.625 191.256 79.56C191.606 79.495 191.984 79.4625 192.389 79.4625C192.989 79.4625 193.496 79.535 193.911 79.68C194.326 79.82 194.656 80.0225 194.901 80.2875C195.151 80.5525 195.331 80.87 195.441 81.24C195.551 81.605 195.606 82.01 195.606 82.455V87H193.709ZM191.301 87.1725C190.571 87.1725 190.014 86.99 189.629 86.625C189.249 86.26 189.059 85.74 189.059 85.065V84.855C189.059 84.14 189.279 83.6125 189.719 83.2725C190.159 82.9275 190.856 82.69 191.811 82.56L193.896 82.275L194.009 83.5125L192.089 83.79C191.669 83.845 191.369 83.945 191.189 84.09C191.014 84.235 190.926 84.4475 190.926 84.7275V84.8025C190.926 85.0775 191.011 85.2925 191.181 85.4475C191.356 85.5975 191.629 85.6725 191.999 85.6725C192.329 85.6725 192.611 85.62 192.846 85.515C193.081 85.41 193.274 85.2725 193.424 85.1025C193.579 84.9275 193.689 84.7325 193.754 84.5175L194.024 85.47H193.694C193.614 85.785 193.484 86.0725 193.304 86.3325C193.129 86.5875 192.881 86.7925 192.561 86.9475C192.241 87.0975 191.821 87.1725 191.301 87.1725ZM205.059 87V82.5825C205.059 82.2725 205.017 82.005 204.932 81.78C204.852 81.555 204.717 81.38 204.527 81.255C204.337 81.13 204.077 81.0675 203.747 81.0675C203.457 81.0675 203.204 81.12 202.989 81.225C202.774 81.33 202.597 81.4725 202.457 81.6525C202.322 81.8275 202.222 82.0275 202.157 82.2525L201.767 81.2025H202.224C202.309 80.8775 202.444 80.585 202.629 80.325C202.814 80.065 203.067 79.86 203.387 79.71C203.707 79.555 204.104 79.4775 204.579 79.4775C205.144 79.4775 205.602 79.585 205.952 79.8C206.302 80.01 206.559 80.325 206.724 80.745C206.894 81.165 206.979 81.685 206.979 82.305V87H205.059ZM200.267 87V77.085H202.179V79.35L202.142 81.6375L202.187 81.78V87H200.267ZM212.851 87L212.919 85.2L212.866 85.035V82.7325L212.859 82.4025C212.859 81.9225 212.726 81.57 212.461 81.345C212.201 81.12 211.774 81.0075 211.179 81.0075C210.674 81.0075 210.199 81.075 209.754 81.21C209.314 81.34 208.906 81.4925 208.531 81.6675L208.696 80.1375C208.916 80.0225 209.166 79.915 209.446 79.815C209.731 79.71 210.049 79.625 210.399 79.56C210.749 79.495 211.126 79.4625 211.531 79.4625C212.131 79.4625 212.639 79.535 213.054 79.68C213.469 79.82 213.799 80.0225 214.044 80.2875C214.294 80.5525 214.474 80.87 214.584 81.24C214.694 81.605 214.749 82.01 214.749 82.455V87H212.851ZM210.444 87.1725C209.714 87.1725 209.156 86.99 208.771 86.625C208.391 86.26 208.201 85.74 208.201 85.065V84.855C208.201 84.14 208.421 83.6125 208.861 83.2725C209.301 82.9275 209.999 82.69 210.954 82.56L213.039 82.275L213.151 83.5125L211.231 83.79C210.811 83.845 210.511 83.945 210.331 84.09C210.156 84.235 210.069 84.4475 210.069 84.7275V84.8025C210.069 85.0775 210.154 85.2925 210.324 85.4475C210.499 85.5975 210.771 85.6725 211.141 85.6725C211.471 85.6725 211.754 85.62 211.989 85.515C212.224 85.41 212.416 85.2725 212.566 85.1025C212.721 84.9275 212.831 84.7325 212.896 84.5175L213.166 85.47H212.836C212.756 85.785 212.626 86.0725 212.446 86.3325C212.271 86.5875 212.024 86.7925 211.704 86.9475C211.384 87.0975 210.964 87.1725 210.444 87.1725ZM221.122 87V82.5825C221.122 82.2725 221.079 82.005 220.994 81.78C220.914 81.555 220.779 81.38 220.589 81.255C220.399 81.13 220.139 81.0675 219.809 81.0675C219.519 81.0675 219.264 81.12 219.044 81.225C218.829 81.33 218.652 81.4725 218.512 81.6525C218.377 81.8275 218.274 82.0275 218.204 82.2525L217.904 81.2025H218.264C218.344 80.8775 218.477 80.585 218.662 80.325C218.852 80.065 219.107 79.86 219.427 79.71C219.752 79.555 220.157 79.4775 220.642 79.4775C221.207 79.4775 221.664 79.585 222.014 79.8C222.364 80.01 222.622 80.325 222.787 80.745C222.957 81.165 223.042 81.685 223.042 82.305V87H221.122ZM216.329 87V79.6425H218.249L218.174 81.435L218.249 81.5925V87H216.329ZM227.038 87.1725C226.173 87.1725 225.516 86.8925 225.066 86.3325C224.616 85.7725 224.391 84.9475 224.391 83.8575V82.845C224.391 81.74 224.618 80.9025 225.073 80.3325C225.528 79.7625 226.206 79.4775 227.106 79.4775C227.546 79.4775 227.916 79.5475 228.216 79.6875C228.521 79.8275 228.766 80.0275 228.951 80.2875C229.141 80.5475 229.273 80.8525 229.348 81.2025H229.911L229.423 82.6275C229.413 82.2825 229.341 81.9925 229.206 81.7575C229.076 81.5175 228.893 81.335 228.658 81.21C228.423 81.085 228.146 81.0225 227.826 81.0225C227.341 81.0225 226.968 81.1625 226.708 81.4425C226.453 81.7225 226.326 82.14 226.326 82.695V83.91C226.326 84.46 226.453 84.875 226.708 85.155C226.968 85.435 227.346 85.575 227.841 85.575C228.121 85.575 228.371 85.5225 228.591 85.4175C228.811 85.3125 228.993 85.17 229.138 84.99C229.288 84.805 229.396 84.5975 229.461 84.3675L229.918 85.44H229.378C229.298 85.76 229.168 86.0525 228.988 86.3175C228.808 86.5775 228.561 86.785 228.246 86.94C227.931 87.095 227.528 87.1725 227.038 87.1725ZM229.393 87L229.461 85.2L229.423 84.7725V81.765L229.431 81.4575L229.393 79.35V77.085H231.313V87H229.393ZM235.58 76.8525C235.97 76.8525 236.33 76.885 236.66 76.95C236.99 77.015 237.282 77.095 237.537 77.19L237.71 78.63C237.495 78.565 237.27 78.5125 237.035 78.4725C236.805 78.4275 236.55 78.405 236.27 78.405C235.935 78.405 235.67 78.4425 235.475 78.5175C235.285 78.5925 235.15 78.7 235.07 78.84C234.99 78.98 234.95 79.145 234.95 79.335V79.3575C234.95 79.4925 234.97 79.62 235.01 79.74C235.05 79.86 235.097 79.9675 235.152 80.0625L233.9 80.1075V79.905C233.67 79.795 233.475 79.6325 233.315 79.4175C233.155 79.2025 233.075 78.935 233.075 78.615V78.5775C233.075 78.0475 233.277 77.6275 233.682 77.3175C234.092 77.0075 234.725 76.8525 235.58 76.8525ZM233.33 87V80.505H235.242V87H233.33ZM232.265 81.48V79.9575L234.125 79.9725L234.875 79.9575H237.695L237.53 81.48H232.265ZM240.51 79.6425V84.0675C240.51 84.3725 240.55 84.64 240.63 84.87C240.715 85.095 240.852 85.27 241.042 85.395C241.237 85.515 241.497 85.575 241.822 85.575C242.117 85.575 242.372 85.5225 242.587 85.4175C242.802 85.3125 242.98 85.1725 243.12 84.9975C243.26 84.8175 243.362 84.6175 243.427 84.3975L243.727 85.44H243.367C243.287 85.76 243.152 86.0525 242.962 86.3175C242.777 86.5775 242.522 86.785 242.197 86.94C241.877 87.095 241.475 87.1725 240.99 87.1725C240.43 87.1725 239.972 87.065 239.617 86.85C239.267 86.635 239.007 86.3175 238.837 85.8975C238.672 85.4775 238.59 84.96 238.59 84.345V79.6425H240.51ZM245.302 79.6425V87H243.39L243.457 85.215L243.382 85.0575V79.6425H245.302ZM247.004 87V77.085H248.932V87H247.004ZM256.901 87.2025C255.761 87.2025 254.896 86.91 254.306 86.325C253.721 85.74 253.428 84.9075 253.428 83.8275V82.83C253.428 81.745 253.721 80.91 254.306 80.325C254.896 79.735 255.761 79.44 256.901 79.44C258.036 79.44 258.896 79.735 259.481 80.325C260.066 80.91 260.358 81.745 260.358 82.83V83.8275C260.358 84.9075 260.066 85.74 259.481 86.325C258.901 86.91 258.041 87.2025 256.901 87.2025ZM256.901 85.665C257.401 85.665 257.781 85.515 258.041 85.215C258.306 84.915 258.438 84.485 258.438 83.925V82.7325C258.438 82.1625 258.306 81.7275 258.041 81.4275C257.781 81.1225 257.401 80.97 256.901 80.97C256.396 80.97 256.011 81.1225 255.746 81.4275C255.486 81.7275 255.356 82.1625 255.356 82.7325V83.925C255.356 84.485 255.486 84.915 255.746 85.215C256.011 85.515 256.396 85.665 256.901 85.665ZM264.324 76.8525C264.714 76.8525 265.074 76.885 265.404 76.95C265.734 77.015 266.027 77.095 266.282 77.19L266.454 78.63C266.239 78.565 266.014 78.5125 265.779 78.4725C265.549 78.4275 265.294 78.405 265.014 78.405C264.679 78.405 264.414 78.4425 264.219 78.5175C264.029 78.5925 263.894 78.7 263.814 78.84C263.734 78.98 263.694 79.145 263.694 79.335V79.3575C263.694 79.4925 263.714 79.62 263.754 79.74C263.794 79.86 263.842 79.9675 263.897 80.0625L262.644 80.1075V79.905C262.414 79.795 262.219 79.6325 262.059 79.4175C261.899 79.2025 261.819 78.935 261.819 78.615V78.5775C261.819 78.0475 262.022 77.6275 262.427 77.3175C262.837 77.0075 263.469 76.8525 264.324 76.8525ZM262.074 87V80.505H263.987V87H262.074ZM261.009 81.48V79.9575L262.869 79.9725L263.619 79.9575H266.439L266.274 81.48H261.009ZM279.586 87V82.53C279.586 82.23 279.549 81.9725 279.474 81.7575C279.399 81.5375 279.274 81.3675 279.099 81.2475C278.929 81.1275 278.696 81.0675 278.401 81.0675C278.131 81.0675 277.896 81.12 277.696 81.225C277.496 81.33 277.334 81.4725 277.209 81.6525C277.084 81.8275 276.991 82.0275 276.931 82.2525L276.721 81.2025H276.916C276.996 80.8875 277.126 80.6 277.306 80.34C277.486 80.075 277.731 79.865 278.041 79.71C278.356 79.555 278.754 79.4775 279.234 79.4775C279.769 79.4775 280.201 79.5825 280.531 79.7925C280.866 79.9975 281.114 80.3075 281.274 80.7225C281.434 81.1325 281.514 81.6425 281.514 82.2525V87H279.586ZM270.519 87V79.6425H272.439L272.364 81.51L272.439 81.5925V87H270.519ZM275.056 87V82.53C275.056 82.23 275.019 81.9725 274.944 81.7575C274.869 81.5375 274.744 81.3675 274.569 81.2475C274.399 81.1275 274.166 81.0675 273.871 81.0675C273.596 81.0675 273.359 81.12 273.159 81.225C272.964 81.33 272.801 81.4725 272.671 81.6525C272.546 81.8275 272.454 82.0275 272.394 82.2525L272.094 81.2025H272.454C272.529 80.8775 272.654 80.585 272.829 80.325C273.009 80.065 273.251 79.86 273.556 79.71C273.861 79.555 274.241 79.4775 274.696 79.4775C275.381 79.4775 275.896 79.6525 276.241 80.0025C276.591 80.3525 276.811 80.8625 276.901 81.5325C276.921 81.6325 276.939 81.75 276.954 81.885C276.969 82.015 276.976 82.1375 276.976 82.2525V87H275.056ZM287.38 87L287.448 85.2L287.395 85.035V82.7325L287.388 82.4025C287.388 81.9225 287.255 81.57 286.99 81.345C286.73 81.12 286.303 81.0075 285.708 81.0075C285.203 81.0075 284.728 81.075 284.283 81.21C283.843 81.34 283.435 81.4925 283.06 81.6675L283.225 80.1375C283.445 80.0225 283.695 79.915 283.975 79.815C284.26 79.71 284.578 79.625 284.928 79.56C285.278 79.495 285.655 79.4625 286.06 79.4625C286.66 79.4625 287.168 79.535 287.583 79.68C287.998 79.82 288.328 80.0225 288.573 80.2875C288.823 80.5525 289.003 80.87 289.113 81.24C289.223 81.605 289.278 82.01 289.278 82.455V87H287.38ZM284.973 87.1725C284.243 87.1725 283.685 86.99 283.3 86.625C282.92 86.26 282.73 85.74 282.73 85.065V84.855C282.73 84.14 282.95 83.6125 283.39 83.2725C283.83 82.9275 284.528 82.69 285.483 82.56L287.568 82.275L287.68 83.5125L285.76 83.79C285.34 83.845 285.04 83.945 284.86 84.09C284.685 84.235 284.598 84.4475 284.598 84.7275V84.8025C284.598 85.0775 284.683 85.2925 284.853 85.4475C285.028 85.5975 285.3 85.6725 285.67 85.6725C286 85.6725 286.283 85.62 286.518 85.515C286.753 85.41 286.945 85.2725 287.095 85.1025C287.25 84.9275 287.36 84.7325 287.425 84.5175L287.695 85.47H287.365C287.285 85.785 287.155 86.0725 286.975 86.3325C286.8 86.5875 286.553 86.7925 286.233 86.9475C285.913 87.0975 285.493 87.1725 284.973 87.1725ZM291.023 85.7475V79.6425H292.951V85.7475H291.023ZM291.983 78.7725C291.618 78.7725 291.348 78.6875 291.173 78.5175C291.003 78.3425 290.918 78.1025 290.918 77.7975V77.76C290.918 77.455 291.003 77.215 291.173 77.04C291.348 76.865 291.618 76.7775 291.983 76.7775C292.348 76.7775 292.616 76.865 292.786 77.04C292.961 77.215 293.048 77.455 293.048 77.76V77.7975C293.048 78.1075 292.961 78.3475 292.786 78.5175C292.616 78.6875 292.348 78.7725 291.983 78.7725ZM290.536 89.7C290.316 89.7 290.111 89.6825 289.921 89.6475C289.726 89.6175 289.558 89.58 289.418 89.535L289.276 87.9975C289.386 88.0425 289.503 88.0775 289.628 88.1025C289.753 88.1275 289.881 88.14 290.011 88.14C290.411 88.14 290.678 88.0325 290.813 87.8175C290.953 87.6075 291.023 87.3125 291.023 86.9325V85.2H292.951V87.0525C292.951 87.5925 292.873 88.06 292.718 88.455C292.563 88.85 292.308 89.155 291.953 89.37C291.603 89.59 291.131 89.7 290.536 89.7ZM297.837 87.2025C296.697 87.2025 295.832 86.91 295.242 86.325C294.657 85.74 294.364 84.9075 294.364 83.8275V82.83C294.364 81.745 294.657 80.91 295.242 80.325C295.832 79.735 296.697 79.44 297.837 79.44C298.972 79.44 299.832 79.735 300.417 80.325C301.002 80.91 301.294 81.745 301.294 82.83V83.8275C301.294 84.9075 301.002 85.74 300.417 86.325C299.837 86.91 298.977 87.2025 297.837 87.2025ZM297.837 85.665C298.337 85.665 298.717 85.515 298.977 85.215C299.242 84.915 299.374 84.485 299.374 83.925V82.7325C299.374 82.1625 299.242 81.7275 298.977 81.4275C298.717 81.1225 298.337 80.97 297.837 80.97C297.332 80.97 296.947 81.1225 296.682 81.4275C296.422 81.7275 296.292 82.1625 296.292 82.7325V83.925C296.292 84.485 296.422 84.915 296.682 85.215C296.947 85.515 297.332 85.665 297.837 85.665ZM304.57 82.725L304.082 81.4425H304.547C304.682 80.8475 304.927 80.38 305.282 80.04C305.637 79.7 306.13 79.53 306.76 79.53C306.89 79.53 307.007 79.54 307.112 79.56C307.217 79.575 307.312 79.595 307.397 79.62L307.502 81.54C307.392 81.505 307.265 81.48 307.12 81.465C306.975 81.445 306.822 81.435 306.662 81.435C306.152 81.435 305.717 81.5475 305.357 81.7725C305.002 81.9975 304.74 82.315 304.57 82.725ZM302.702 87V79.6425H304.532L304.45 81.9L304.622 81.9675V87H302.702ZM314.114 87.18C313.524 87.18 312.999 87.1225 312.539 87.0075C312.084 86.8975 311.696 86.7725 311.376 86.6325L311.204 84.9675C311.584 85.1425 312.001 85.295 312.456 85.425C312.916 85.555 313.421 85.62 313.971 85.62C314.451 85.62 314.799 85.56 315.014 85.44C315.229 85.315 315.336 85.13 315.336 84.885V84.84C315.336 84.675 315.286 84.54 315.186 84.435C315.091 84.33 314.921 84.235 314.676 84.15C314.431 84.06 314.086 83.965 313.641 83.865C313.026 83.72 312.539 83.5525 312.179 83.3625C311.824 83.1675 311.569 82.93 311.414 82.65C311.259 82.365 311.181 82.025 311.181 81.63V81.5625C311.181 80.8675 311.429 80.345 311.924 79.995C312.419 79.64 313.151 79.4625 314.121 79.4625C314.696 79.4625 315.204 79.52 315.644 79.635C316.089 79.745 316.459 79.8775 316.754 80.0325L316.926 81.5625C316.576 81.3975 316.184 81.26 315.749 81.15C315.314 81.035 314.846 80.9775 314.346 80.9775C314.021 80.9775 313.764 81.005 313.574 81.06C313.389 81.11 313.256 81.1825 313.176 81.2775C313.096 81.3725 313.056 81.4875 313.056 81.6225V81.66C313.056 81.81 313.099 81.94 313.184 82.05C313.274 82.16 313.436 82.26 313.671 82.35C313.906 82.435 314.236 82.5275 314.661 82.6275C315.281 82.7575 315.779 82.91 316.154 83.085C316.529 83.26 316.801 83.485 316.971 83.76C317.141 84.03 317.226 84.385 317.226 84.825V84.915C317.226 85.675 316.969 86.2425 316.454 86.6175C315.939 86.9925 315.159 87.18 314.114 87.18ZM320.262 79.6425V84.0675C320.262 84.3725 320.302 84.64 320.382 84.87C320.467 85.095 320.604 85.27 320.794 85.395C320.989 85.515 321.249 85.575 321.574 85.575C321.869 85.575 322.124 85.5225 322.339 85.4175C322.554 85.3125 322.732 85.1725 322.872 84.9975C323.012 84.8175 323.114 84.6175 323.179 84.3975L323.479 85.44H323.119C323.039 85.76 322.904 86.0525 322.714 86.3175C322.529 86.5775 322.274 86.785 321.949 86.94C321.629 87.095 321.227 87.1725 320.742 87.1725C320.182 87.1725 319.724 87.065 319.369 86.85C319.019 86.635 318.759 86.3175 318.589 85.8975C318.424 85.4775 318.342 84.96 318.342 84.345V79.6425H320.262ZM325.054 79.6425V87H323.142L323.209 85.215L323.134 85.0575V79.6425H325.054ZM329.808 87.1875C328.673 87.1875 327.831 86.8875 327.281 86.2875C326.736 85.6875 326.463 84.845 326.463 83.76V82.86C326.463 81.78 326.738 80.9425 327.288 80.3475C327.838 79.7525 328.678 79.455 329.808 79.455C330.103 79.455 330.378 79.48 330.633 79.53C330.893 79.575 331.128 79.6375 331.338 79.7175C331.553 79.7975 331.741 79.8825 331.901 79.9725L332.058 81.585C331.813 81.43 331.538 81.3 331.233 81.195C330.933 81.09 330.586 81.0375 330.191 81.0375C329.571 81.0375 329.116 81.1975 328.826 81.5175C328.541 81.8325 328.398 82.2925 328.398 82.8975V83.6925C328.398 84.2925 328.546 84.755 328.841 85.08C329.141 85.405 329.601 85.5675 330.221 85.5675C330.616 85.5675 330.966 85.5175 331.271 85.4175C331.576 85.3125 331.861 85.185 332.126 85.035L331.968 86.655C331.723 86.795 331.416 86.9175 331.046 87.0225C330.676 87.1325 330.263 87.1875 329.808 87.1875ZM336.331 87.1875C335.196 87.1875 334.353 86.8875 333.803 86.2875C333.258 85.6875 332.986 84.845 332.986 83.76V82.86C332.986 81.78 333.261 80.9425 333.811 80.3475C334.361 79.7525 335.201 79.455 336.331 79.455C336.626 79.455 336.901 79.48 337.156 79.53C337.416 79.575 337.651 79.6375 337.861 79.7175C338.076 79.7975 338.263 79.8825 338.423 79.9725L338.581 81.585C338.336 81.43 338.061 81.3 337.756 81.195C337.456 81.09 337.108 81.0375 336.713 81.0375C336.093 81.0375 335.638 81.1975 335.348 81.5175C335.063 81.8325 334.921 82.2925 334.921 82.8975V83.6925C334.921 84.2925 335.068 84.755 335.363 85.08C335.663 85.405 336.123 85.5675 336.743 85.5675C337.138 85.5675 337.488 85.5175 337.793 85.4175C338.098 85.3125 338.383 85.185 338.648 85.035L338.491 86.655C338.246 86.795 337.938 86.9175 337.568 87.0225C337.198 87.1325 336.786 87.1875 336.331 87.1875ZM343.243 87.18C341.983 87.18 341.045 86.89 340.43 86.31C339.815 85.73 339.508 84.89 339.508 83.79V82.83C339.508 81.74 339.795 80.9025 340.37 80.3175C340.945 79.7325 341.78 79.44 342.875 79.44C343.615 79.44 344.233 79.57 344.728 79.83C345.223 80.09 345.593 80.46 345.838 80.94C346.088 81.415 346.213 81.985 346.213 82.65V82.9125C346.213 83.0925 346.203 83.2775 346.183 83.4675C346.168 83.6525 346.145 83.8275 346.115 83.9925H344.375C344.39 83.7175 344.398 83.4575 344.398 83.2125C344.403 82.9625 344.405 82.7375 344.405 82.5375C344.405 82.1925 344.35 81.9 344.24 81.66C344.13 81.415 343.963 81.23 343.738 81.105C343.513 80.98 343.225 80.9175 342.875 80.9175C342.36 80.9175 341.98 81.06 341.735 81.345C341.49 81.63 341.368 82.035 341.368 82.56V83.2425L341.375 83.46V84.0375C341.375 84.2675 341.41 84.48 341.48 84.675C341.555 84.87 341.678 85.04 341.848 85.185C342.018 85.325 342.243 85.435 342.523 85.515C342.808 85.595 343.163 85.635 343.588 85.635C344.048 85.635 344.485 85.585 344.9 85.485C345.32 85.38 345.718 85.24 346.093 85.065L345.928 86.58C345.593 86.765 345.198 86.91 344.743 87.015C344.293 87.125 343.793 87.18 343.243 87.18ZM340.528 83.9925V82.7175H345.725V83.9925H340.528ZM350.124 87.18C349.534 87.18 349.009 87.1225 348.549 87.0075C348.094 86.8975 347.707 86.7725 347.387 86.6325L347.214 84.9675C347.594 85.1425 348.012 85.295 348.467 85.425C348.927 85.555 349.432 85.62 349.982 85.62C350.462 85.62 350.809 85.56 351.024 85.44C351.239 85.315 351.347 85.13 351.347 84.885V84.84C351.347 84.675 351.297 84.54 351.197 84.435C351.102 84.33 350.932 84.235 350.687 84.15C350.442 84.06 350.097 83.965 349.652 83.865C349.037 83.72 348.549 83.5525 348.189 83.3625C347.834 83.1675 347.579 82.93 347.424 82.65C347.269 82.365 347.192 82.025 347.192 81.63V81.5625C347.192 80.8675 347.439 80.345 347.934 79.995C348.429 79.64 349.162 79.4625 350.132 79.4625C350.707 79.4625 351.214 79.52 351.654 79.635C352.099 79.745 352.469 79.8775 352.764 80.0325L352.937 81.5625C352.587 81.3975 352.194 81.26 351.759 81.15C351.324 81.035 350.857 80.9775 350.357 80.9775C350.032 80.9775 349.774 81.005 349.584 81.06C349.399 81.11 349.267 81.1825 349.187 81.2775C349.107 81.3725 349.067 81.4875 349.067 81.6225V81.66C349.067 81.81 349.109 81.94 349.194 82.05C349.284 82.16 349.447 82.26 349.682 82.35C349.917 82.435 350.247 82.5275 350.672 82.6275C351.292 82.7575 351.789 82.91 352.164 83.085C352.539 83.26 352.812 83.485 352.982 83.76C353.152 84.03 353.237 84.385 353.237 84.825V84.915C353.237 85.675 352.979 86.2425 352.464 86.6175C351.949 86.9925 351.169 87.18 350.124 87.18ZM356.939 87.18C356.349 87.18 355.824 87.1225 355.364 87.0075C354.909 86.8975 354.522 86.7725 354.202 86.6325L354.029 84.9675C354.409 85.1425 354.827 85.295 355.282 85.425C355.742 85.555 356.247 85.62 356.797 85.62C357.277 85.62 357.624 85.56 357.839 85.44C358.054 85.315 358.162 85.13 358.162 84.885V84.84C358.162 84.675 358.112 84.54 358.012 84.435C357.917 84.33 357.747 84.235 357.502 84.15C357.257 84.06 356.912 83.965 356.467 83.865C355.852 83.72 355.364 83.5525 355.004 83.3625C354.649 83.1675 354.394 82.93 354.239 82.65C354.084 82.365 354.007 82.025 354.007 81.63V81.5625C354.007 80.8675 354.254 80.345 354.749 79.995C355.244 79.64 355.977 79.4625 356.947 79.4625C357.522 79.4625 358.029 79.52 358.469 79.635C358.914 79.745 359.284 79.8775 359.579 80.0325L359.752 81.5625C359.402 81.3975 359.009 81.26 358.574 81.15C358.139 81.035 357.672 80.9775 357.172 80.9775C356.847 80.9775 356.589 81.005 356.399 81.06C356.214 81.11 356.082 81.1825 356.002 81.2775C355.922 81.3725 355.882 81.4875 355.882 81.6225V81.66C355.882 81.81 355.924 81.94 356.009 82.05C356.099 82.16 356.262 82.26 356.497 82.35C356.732 82.435 357.062 82.5275 357.487 82.6275C358.107 82.7575 358.604 82.91 358.979 83.085C359.354 83.26 359.627 83.485 359.797 83.76C359.967 84.03 360.052 84.385 360.052 84.825V84.915C360.052 85.675 359.794 86.2425 359.279 86.6175C358.764 86.9925 357.984 87.18 356.939 87.18ZM364.729 87.18C363.469 87.18 362.531 86.89 361.916 86.31C361.301 85.73 360.994 84.89 360.994 83.79V82.83C360.994 81.74 361.281 80.9025 361.856 80.3175C362.431 79.7325 363.266 79.44 364.361 79.44C365.101 79.44 365.719 79.57 366.214 79.83C366.709 80.09 367.079 80.46 367.324 80.94C367.574 81.415 367.699 81.985 367.699 82.65V82.9125C367.699 83.0925 367.689 83.2775 367.669 83.4675C367.654 83.6525 367.631 83.8275 367.601 83.9925H365.861C365.876 83.7175 365.884 83.4575 365.884 83.2125C365.889 82.9625 365.891 82.7375 365.891 82.5375C365.891 82.1925 365.836 81.9 365.726 81.66C365.616 81.415 365.449 81.23 365.224 81.105C364.999 80.98 364.711 80.9175 364.361 80.9175C363.846 80.9175 363.466 81.06 363.221 81.345C362.976 81.63 362.854 82.035 362.854 82.56V83.2425L362.861 83.46V84.0375C362.861 84.2675 362.896 84.48 362.966 84.675C363.041 84.87 363.164 85.04 363.334 85.185C363.504 85.325 363.729 85.435 364.009 85.515C364.294 85.595 364.649 85.635 365.074 85.635C365.534 85.635 365.971 85.585 366.386 85.485C366.806 85.38 367.204 85.24 367.579 85.065L367.414 86.58C367.079 86.765 366.684 86.91 366.229 87.015C365.779 87.125 365.279 87.18 364.729 87.18ZM362.014 83.9925V82.7175H367.211V83.9925H362.014ZM371.61 87.18C371.02 87.18 370.495 87.1225 370.035 87.0075C369.58 86.8975 369.193 86.7725 368.873 86.6325L368.7 84.9675C369.08 85.1425 369.498 85.295 369.953 85.425C370.413 85.555 370.918 85.62 371.468 85.62C371.948 85.62 372.295 85.56 372.51 85.44C372.725 85.315 372.833 85.13 372.833 84.885V84.84C372.833 84.675 372.783 84.54 372.683 84.435C372.588 84.33 372.418 84.235 372.173 84.15C371.928 84.06 371.583 83.965 371.138 83.865C370.523 83.72 370.035 83.5525 369.675 83.3625C369.32 83.1675 369.065 82.93 368.91 82.65C368.755 82.365 368.678 82.025 368.678 81.63V81.5625C368.678 80.8675 368.925 80.345 369.42 79.995C369.915 79.64 370.648 79.4625 371.618 79.4625C372.193 79.4625 372.7 79.52 373.14 79.635C373.585 79.745 373.955 79.8775 374.25 80.0325L374.423 81.5625C374.073 81.3975 373.68 81.26 373.245 81.15C372.81 81.035 372.343 80.9775 371.843 80.9775C371.518 80.9775 371.26 81.005 371.07 81.06C370.885 81.11 370.753 81.1825 370.673 81.2775C370.593 81.3725 370.553 81.4875 370.553 81.6225V81.66C370.553 81.81 370.595 81.94 370.68 82.05C370.77 82.16 370.933 82.26 371.168 82.35C371.403 82.435 371.733 82.5275 372.158 82.6275C372.778 82.7575 373.275 82.91 373.65 83.085C374.025 83.26 374.298 83.485 374.468 83.76C374.638 84.03 374.723 84.385 374.723 84.825V84.915C374.723 85.675 374.465 86.2425 373.95 86.6175C373.435 86.9925 372.655 87.18 371.61 87.18ZM376.877 87.18C376.507 87.18 376.234 87.0825 376.059 86.8875C375.884 86.6925 375.797 86.4225 375.797 86.0775V86.0025C375.797 85.6525 375.884 85.38 376.059 85.185C376.234 84.99 376.507 84.8925 376.877 84.8925C377.242 84.8925 377.514 84.99 377.694 85.185C377.874 85.38 377.964 85.6525 377.964 86.0025V86.0775C377.964 86.4225 377.874 86.6925 377.694 86.8875C377.514 87.0825 377.242 87.18 376.877 87.18Z" fill="black"/>
<circle cx="45" cy="67" r="25" fill="#FF9933"/>
<path d="M47 71C47 72.77 46.23 74.37 45 75.46C43.9053 76.4541 42.4787 77.0033 41 77C37.69 77 35 74.31 35 71C35 68.24 36.88 65.9 39.42 65.21C39.7642 66.0755 40.3047 66.8494 40.9988 67.4706C41.6929 68.0918 42.5217 68.5434 43.42 68.79C43.92 68.93 44.45 69 45 69C45.55 69 46.08 68.93 46.58 68.79C46.85 69.47 47 70.22 47 71Z" stroke="white" stroke-width="1.5" stroke-linecap="round" stroke-linejoin="round"/>
<path d="M51 63C51.0016 64.3166 50.5695 65.5971 49.7706 66.6436C48.9717 67.6901 47.8504 68.4444 46.58 68.79C46.08 68.93 45.55 69 45 69C44.45 69 43.92 68.93 43.42 68.79C42.1496 68.4444 41.0283 67.6901 40.2294 66.6436C39.4305 65.5971 38.9984 64.3166 39 63C39 59.69 41.69 57 45 57C48.31 57 51 59.69 51 63Z" stroke="white" stroke-width="1.5" stroke-linecap="round" stroke-linejoin="round"/>
<path d="M55 71C55 74.31 52.31 77 49 77C47.5213 77.0033 46.0947 76.4541 45 75.46C46.23 74.37 47 72.77 47 71C47 70.22 46.85 69.47 46.58 68.79C48.41 68.29 49.89 66.95 50.58 65.21C53.12 65.9 55 68.24 55 71Z" stroke="white" stroke-width="1.5" stroke-linecap="round" stroke-linejoin="round"/>
</svg>
